<?xml version="1.0" encoding="UTF-8"?>
<svg version="1.1" xmlns="http://www.w3.org/2000/svg" width="512" height="512">
<path d="M0 0 C10.85144437 7.19516172 19.93741307 17.00293986 29.09033203 26.18774414 C30.2442866 27.34198149 31.39846282 28.49599729 32.55284119 29.64981079 C35.65563169 32.75231687 38.75535066 35.85787475 41.85448694 38.9640305 C45.10511044 42.22094706 48.35860627 45.47499185 51.61178589 48.72935486 C57.75813565 54.8788005 63.90193401 61.03078854 70.04479778 67.18371624 C77.0441132 74.1942472 84.04630177 81.20190547 91.04872155 88.20933545 C105.44060628 102.61164505 119.82891673 117.01752087 134.21484375 131.42578125 C137.99595423 129.85747674 140.3741681 127.50299569 143.23997498 124.61424255 C143.73241371 124.12069041 144.22485244 123.62713826 144.73221356 123.11862999 C146.38022051 121.46455408 148.02095805 119.80345111 149.66186523 118.14233398 C150.84285711 116.9542285 152.02432147 115.76659253 153.20622253 114.57939148 C155.75168522 112.02082454 158.29410408 109.45928374 160.83431816 106.89550591 C164.86024992 102.83294209 168.89490578 98.7791193 172.9311676 94.7268219 C184.40817553 83.20155658 195.87354657 71.66475738 207.32983398 60.11889648 C213.65653133 53.74288769 219.99056496 47.37425647 226.33235413 41.01325756 C230.33622465 36.9963881 234.33095488 32.97072016 238.31891716 28.93805969 C240.81835493 26.41493981 243.32633104 23.9004381 245.83664131 21.38813972 C246.98772767 20.23280556 248.13542975 19.07408654 249.27920532 17.91151428 C263.62967177 3.33468913 278.20615945 -6.94574606 299.40234375 -7.13671875 C307.61079527 -7.02761556 314.73041388 -6.16264403 322.21484375 -2.57421875 C323.50068359 -2.04248047 323.50068359 -2.04248047 324.8125 -1.5 C342.22464327 6.62908603 358.62950151 25.73879786 365.21484375 43.42578125 C369.67782179 56.19700214 368.65426103 71.73951615 363.7578125 84.234375 C357.0934119 98.01871752 345.16927984 108.62207285 334.45288086 119.30126953 C333.29864351 120.4552241 332.14462771 121.60940032 330.99081421 122.76377869 C327.88830813 125.86656919 324.78275025 128.96628816 321.6765945 132.06542444 C318.41967794 135.31604794 315.16563315 138.56954377 311.91127014 141.82272339 C305.7618245 147.96907315 299.60983646 154.11287151 293.45690876 160.25573528 C286.4463778 167.2550507 279.43871953 174.25723927 272.43128955 181.25965905 C258.02897995 195.65154378 243.62310413 210.03985423 229.21484375 224.42578125 C230.78314826 228.20689173 233.13762931 230.5851056 236.02638245 233.45091248 C236.51993459 233.94335121 237.01348674 234.43578994 237.52199501 234.94315106 C239.17607092 236.59115801 240.83717389 238.23189555 242.49829102 239.87280273 C243.6863965 241.05379461 244.87403247 242.23525897 246.06123352 243.41716003 C248.61980046 245.96262272 251.18134126 248.50504158 253.74511909 251.04525566 C257.80768291 255.07118742 261.8615057 259.10584328 265.9138031 263.1421051 C277.43906842 274.61911303 288.97586762 286.08448407 300.52172852 297.54077148 C306.89773731 303.86746883 313.26636853 310.20150246 319.62736744 316.54329163 C323.6442369 320.54716215 327.66990484 324.54189238 331.70256531 328.52985466 C334.22568519 331.02929243 336.7401869 333.53726854 339.25248528 336.04757881 C340.40781944 337.19866517 341.56653846 338.34636725 342.72911072 339.49014282 C357.30593587 353.84060927 367.58637106 368.41709695 367.77734375 389.61328125 C367.66824056 397.82173277 366.80326903 404.94135138 363.21484375 412.42578125 C362.68310547 413.71162109 362.68310547 413.71162109 362.140625 415.0234375 C354.48700701 431.41714922 336.6777599 447.09854643 320.41796875 454.26953125 C306.30187145 459.36509808 290.45475066 459.41838394 276.44140625 453.96875 C262.62882337 447.36345915 252.01500106 435.37665388 241.33935547 424.66381836 C240.1854009 423.50958101 239.03122468 422.35556521 237.87684631 421.20175171 C234.77405581 418.09924563 231.67433684 414.99368775 228.57520056 411.887532 C225.32457706 408.63061544 222.07108123 405.37657065 218.81790161 402.12220764 C212.67155185 395.972762 206.52775349 389.82077396 200.38488972 383.66784626 C193.3855743 376.6573153 186.38338573 369.64965703 179.38096595 362.64222705 C164.98908122 348.23991745 150.60077077 333.83404163 136.21484375 319.42578125 C132.43373327 320.99408576 130.0555194 323.34856681 127.18971252 326.23731995 C126.69727379 326.73087209 126.20483506 327.22442424 125.69747394 327.73293251 C124.04946699 329.38700842 122.40872945 331.04811139 120.76782227 332.70922852 C119.58683039 333.897334 118.40536603 335.08496997 117.22346497 336.27217102 C114.67800228 338.83073796 112.13558342 341.39227876 109.59536934 343.95605659 C105.56943758 348.01862041 101.53478172 352.0724432 97.4985199 356.1247406 C86.02151197 367.65000592 74.55614093 379.18680512 63.09985352 390.73266602 C56.77315617 397.10867481 50.43912254 403.47730603 44.09733337 409.83830494 C40.09346285 413.8551744 36.09873262 417.88084234 32.11077034 421.91350281 C29.61133257 424.43662269 27.10335646 426.9511244 24.59304619 429.46342278 C23.44195983 430.61875694 22.29425775 431.77747596 21.15048218 432.94004822 C6.9581509 447.35624384 -7.43541875 457.78871723 -28.41015625 457.98828125 C-36.73300973 457.87159184 -44.09174581 456.77768207 -51.78515625 453.42578125 C-52.66558594 453.07128906 -53.54601562 452.71679688 -54.453125 452.3515625 C-71.81802091 444.22058465 -88.21773522 425.06463166 -94.78515625 407.42578125 C-99.24813429 394.65456036 -98.22457353 379.11204635 -93.328125 366.6171875 C-86.6637244 352.83284498 -74.73959234 342.22948965 -64.02319336 331.55029297 C-62.86895601 330.3963384 -61.71494021 329.24216218 -60.56112671 328.08778381 C-57.45862063 324.98499331 -54.35306275 321.88527434 -51.246907 318.78613806 C-47.98999044 315.53551456 -44.73594565 312.28201873 -41.48158264 309.02883911 C-35.332137 302.88248935 -29.18014896 296.73869099 -23.02722126 290.59582722 C-16.0166903 283.5965118 -9.00903203 276.59432323 -2.00160205 269.59190345 C12.40070755 255.20001872 26.80658337 240.81170827 41.21484375 226.42578125 C39.64653924 222.64467077 37.29205819 220.2664569 34.40330505 217.40065002 C33.90975291 216.90821129 33.41620076 216.41577256 32.90769249 215.90841144 C31.25361658 214.26040449 29.59251361 212.61966695 27.93139648 210.97875977 C26.743291 209.79776789 25.55565503 208.61630353 24.36845398 207.43440247 C21.80988704 204.88893978 19.24834624 202.34652092 16.68456841 199.80630684 C12.62200459 195.78037508 8.5681818 191.74571922 4.5158844 187.7094574 C-7.00938092 176.23244947 -18.54618012 164.76707843 -30.09204102 153.31079102 C-36.46804981 146.98409367 -42.83668103 140.65006004 -49.19767994 134.30827087 C-53.2145494 130.30440035 -57.24021734 126.30967012 -61.27287781 122.32170784 C-63.79599769 119.82227007 -66.3104994 117.31429396 -68.82279778 114.80398369 C-69.97813194 113.65289733 -71.13685096 112.50519525 -72.29942322 111.36141968 C-86.87624837 97.01095323 -97.15668356 82.43446555 -97.34765625 61.23828125 C-97.23855306 53.02982973 -96.37358153 45.91021112 -92.78515625 38.42578125 C-92.43066406 37.56855469 -92.07617188 36.71132812 -91.7109375 35.828125 C-83.58185147 18.41598173 -64.47213964 2.01112349 -46.78515625 -4.57421875 C-31.77097121 -9.82101376 -13.71957988 -7.75454515 0 0 Z " fill="#E22627" transform="translate(120.78515625,30.57421875)"/>
<path d="M0 0 C10.85144437 7.19516172 19.93741307 17.00293986 29.09033203 26.18774414 C30.2442866 27.34198149 31.39846282 28.49599729 32.55284119 29.64981079 C35.65563169 32.75231687 38.75535066 35.85787475 41.85448694 38.9640305 C45.10511044 42.22094706 48.35860627 45.47499185 51.61178589 48.72935486 C57.75813565 54.8788005 63.90193401 61.03078854 70.04479778 67.18371624 C77.0441132 74.1942472 84.04630177 81.20190547 91.04872155 88.20933545 C105.44060628 102.61164505 119.82891673 117.01752087 134.21484375 131.42578125 C137.99595423 129.85747674 140.3741681 127.50299569 143.23997498 124.61424255 C143.73241371 124.12069041 144.22485244 123.62713826 144.73221356 123.11862999 C146.38022051 121.46455408 148.02095805 119.80345111 149.66186523 118.14233398 C150.84285711 116.9542285 152.02432147 115.76659253 153.20622253 114.57939148 C155.75168522 112.02082454 158.29410408 109.45928374 160.83431816 106.89550591 C164.86024992 102.83294209 168.89490578 98.7791193 172.9311676 94.7268219 C184.40817553 83.20155658 195.87354657 71.66475738 207.32983398 60.11889648 C213.65653133 53.74288769 219.99056496 47.37425647 226.33235413 41.01325756 C230.33622465 36.9963881 234.33095488 32.97072016 238.31891716 28.93805969 C240.81835493 26.41493981 243.32633104 23.9004381 245.83664131 21.38813972 C246.98772767 20.23280556 248.13542975 19.07408654 249.27920532 17.91151428 C263.62967177 3.33468913 278.20615945 -6.94574606 299.40234375 -7.13671875 C307.61079527 -7.02761556 314.73041388 -6.16264403 322.21484375 -2.57421875 C323.50068359 -2.04248047 323.50068359 -2.04248047 324.8125 -1.5 C342.22464327 6.62908603 358.62950151 25.73879786 365.21484375 43.42578125 C369.67782179 56.19700214 368.65426103 71.73951615 363.7578125 84.234375 C357.0934119 98.01871752 345.16927984 108.62207285 334.45288086 119.30126953 C333.29864351 120.4552241 332.14462771 121.60940032 330.99081421 122.76377869 C327.88830813 125.86656919 324.78275025 128.96628816 321.6765945 132.06542444 C318.41967794 135.31604794 315.16563315 138.56954377 311.91127014 141.82272339 C305.7618245 147.96907315 299.60983646 154.11287151 293.45690876 160.25573528 C286.4463778 167.2550507 279.43871953 174.25723927 272.43128955 181.25965905 C258.02897995 195.65154378 243.62310413 210.03985423 229.21484375 224.42578125 C230.78314826 228.20689173 233.13762931 230.5851056 236.02638245 233.45091248 C236.51993459 233.94335121 237.01348674 234.43578994 237.52199501 234.94315106 C239.17607092 236.59115801 240.83717389 238.23189555 242.49829102 239.87280273 C243.6863965 241.05379461 244.87403247 242.23525897 246.06123352 243.41716003 C248.61980046 245.96262272 251.18134126 248.50504158 253.74511909 251.04525566 C257.80768291 255.07118742 261.8615057 259.10584328 265.9138031 263.1421051 C277.43906842 274.61911303 288.97586762 286.08448407 300.52172852 297.54077148 C306.89773731 303.86746883 313.26636853 310.20150246 319.62736744 316.54329163 C323.6442369 320.54716215 327.66990484 324.54189238 331.70256531 328.52985466 C334.22568519 331.02929243 336.7401869 333.53726854 339.25248528 336.04757881 C340.40781944 337.19866517 341.56653846 338.34636725 342.72911072 339.49014282 C357.30593587 353.84060927 367.58637106 368.41709695 367.77734375 389.61328125 C367.66824056 397.82173277 366.80326903 404.94135138 363.21484375 412.42578125 C362.68310547 413.71162109 362.68310547 413.71162109 362.140625 415.0234375 C354.48700701 431.41714922 336.6777599 447.09854643 320.41796875 454.26953125 C306.30187145 459.36509808 290.45475066 459.41838394 276.44140625 453.96875 C262.62882337 447.36345915 252.01500106 435.37665388 241.33935547 424.66381836 C240.1854009 423.50958101 239.03122468 422.35556521 237.87684631 421.20175171 C234.77405581 418.09924563 231.67433684 414.99368775 228.57520056 411.887532 C225.32457706 408.63061544 222.07108123 405.37657065 218.81790161 402.12220764 C212.67155185 395.972762 206.52775349 389.82077396 200.38488972 383.66784626 C193.3855743 376.6573153 186.38338573 369.64965703 179.38096595 362.64222705 C164.98908122 348.23991745 150.60077077 333.83404163 136.21484375 319.42578125 C132.43373327 320.99408576 130.0555194 323.34856681 127.18971252 326.23731995 C126.69727379 326.73087209 126.20483506 327.22442424 125.69747394 327.73293251 C124.04946699 329.38700842 122.40872945 331.04811139 120.76782227 332.70922852 C119.58683039 333.897334 118.40536603 335.08496997 117.22346497 336.27217102 C114.67800228 338.83073796 112.13558342 341.39227876 109.59536934 343.95605659 C105.56943758 348.01862041 101.53478172 352.0724432 97.4985199 356.1247406 C86.02151197 367.65000592 74.55614093 379.18680512 63.09985352 390.73266602 C56.77315617 397.10867481 50.43912254 403.47730603 44.09733337 409.83830494 C40.09346285 413.8551744 36.09873262 417.88084234 32.11077034 421.91350281 C29.61133257 424.43662269 27.10335646 426.9511244 24.59304619 429.46342278 C23.44195983 430.61875694 22.29425775 431.77747596 21.15048218 432.94004822 C6.9581509 447.35624384 -7.43541875 457.78871723 -28.41015625 457.98828125 C-36.73300973 457.87159184 -44.09174581 456.77768207 -51.78515625 453.42578125 C-52.66558594 453.07128906 -53.54601562 452.71679688 -54.453125 452.3515625 C-71.81802091 444.22058465 -88.21773522 425.06463166 -94.78515625 407.42578125 C-99.24813429 394.65456036 -98.22457353 379.11204635 -93.328125 366.6171875 C-86.6637244 352.83284498 -74.73959234 342.22948965 -64.02319336 331.55029297 C-62.86895601 330.3963384 -61.71494021 329.24216218 -60.56112671 328.08778381 C-57.45862063 324.98499331 -54.35306275 321.88527434 -51.246907 318.78613806 C-47.98999044 315.53551456 -44.73594565 312.28201873 -41.48158264 309.02883911 C-35.332137 302.88248935 -29.18014896 296.73869099 -23.02722126 290.59582722 C-16.0166903 283.5965118 -9.00903203 276.59432323 -2.00160205 269.59190345 C12.40070755 255.20001872 26.80658337 240.81170827 41.21484375 226.42578125 C39.64653924 222.64467077 37.29205819 220.2664569 34.40330505 217.40065002 C33.90975291 216.90821129 33.41620076 216.41577256 32.90769249 215.90841144 C31.25361658 214.26040449 29.59251361 212.61966695 27.93139648 210.97875977 C26.743291 209.79776789 25.55565503 208.61630353 24.36845398 207.43440247 C21.80988704 204.88893978 19.24834624 202.34652092 16.68456841 199.80630684 C12.62200459 195.78037508 8.5681818 191.74571922 4.5158844 187.7094574 C-7.00938092 176.23244947 -18.54618012 164.76707843 -30.09204102 153.31079102 C-36.46804981 146.98409367 -42.83668103 140.65006004 -49.19767994 134.30827087 C-53.2145494 130.30440035 -57.24021734 126.30967012 -61.27287781 122.32170784 C-63.79599769 119.82227007 -66.3104994 117.31429396 -68.82279778 114.80398369 C-69.97813194 113.65289733 -71.13685096 112.50519525 -72.29942322 111.36141968 C-86.87624837 97.01095323 -97.15668356 82.43446555 -97.34765625 61.23828125 C-97.23855306 53.02982973 -96.37358153 45.91021112 -92.78515625 38.42578125 C-92.43066406 37.56855469 -92.07617188 36.71132812 -91.7109375 35.828125 C-83.58185147 18.41598173 -64.47213964 2.01112349 -46.78515625 -4.57421875 C-31.77097121 -9.82101376 -13.71957988 -7.75454515 0 0 Z M-64.03515625 27.11328125 C-65.17984375 28.22219727 -65.17984375 28.22219727 -66.34765625 29.35351562 C-76.00847986 39.03932413 -80.54431204 49.29546356 -81.16015625 62.86328125 C-80.78559914 79.46084297 -69.04173039 90.60891453 -58.00268555 101.53295898 C-56.70229399 102.83086363 -55.40257341 104.12944082 -54.10346985 105.42863464 C-50.59392863 108.93478188 -47.07531551 112.43169451 -43.55508399 115.92710376 C-39.86898771 119.59064112 -36.19185492 123.26315202 -32.51387024 126.93482971 C-25.55473559 133.87950878 -18.58841034 140.81692442 -11.61908132 147.75137144 C0.88051462 160.18888397 13.36778476 172.63876657 25.85242718 185.0912872 C30.23466823 189.46167897 34.62006411 193.82887387 39.00810111 198.19344604 C41.72902313 200.90057806 44.4479867 203.60967097 47.16650581 206.31921577 C48.43105861 207.57868453 49.69648664 208.8372752 50.9628334 210.09494019 C52.68541079 211.80589288 54.40493528 213.51985604 56.12373352 215.23460388 C56.63033314 215.7362443 57.13693275 216.23788471 57.65888387 216.75472635 C60.40627669 219.50296451 61.97923294 221.18882451 62.71484375 225.05078125 C61.352891 234.2439623 49.22867516 242.52449972 42.74951172 248.95703125 C41.49528379 250.20605757 40.24130291 251.45533202 38.98754883 252.70483398 C36.30052924 255.3819614 33.61204947 258.05761056 30.92248154 260.73217773 C26.66588427 264.96559301 22.41426948 269.20398848 18.16360474 273.44335938 C6.08034617 285.49327979 -6.00710391 297.53897335 -18.10498047 309.57421875 C-24.79662558 316.23130432 -31.48286985 322.89376506 -38.16318786 329.56221771 C-42.38328437 333.77423605 -46.60985471 337.97961151 -50.84135079 342.18017578 C-53.47515408 344.79792852 -56.10259248 347.42199814 -58.72828674 350.04788208 C-59.94264329 351.25982519 -61.15956356 352.469206 -62.37928391 353.67575073 C-72.67915692 363.86901637 -80.72390768 373.12619951 -81.22265625 388.23828125 C-80.84534807 403.46184603 -73.5689255 414.23455013 -63.03515625 424.61328125 C-62.33285889 425.31018066 -61.63056152 426.00708008 -60.90698242 426.72509766 C-50.24307734 437.07914079 -39.65830023 441.88774467 -24.68359375 441.703125 C-9.36655188 440.23747814 1.10447621 428.9684187 11.32202148 418.64331055 C12.61992613 417.34291899 13.91850332 416.04319841 15.21769714 414.74409485 C18.72384438 411.23455363 22.22075701 407.71594051 25.71616626 404.19570899 C29.37970362 400.50961271 33.05221452 396.83247992 36.72389221 393.15449524 C43.66857128 386.19536059 50.60598692 379.22903534 57.54043394 372.25970632 C69.97794647 359.76011038 82.42782907 347.27284024 94.8803497 334.78819782 C99.25074147 330.40595677 103.61793637 326.02056089 107.98250854 321.63252389 C110.68964056 318.91160187 113.39873347 316.1926383 116.10827827 313.47411919 C117.36774703 312.20956639 118.6263377 310.94413836 119.88400269 309.6777916 C121.59495538 307.95521421 123.30891854 306.23568972 125.02366638 304.51689148 C125.5253068 304.01029186 126.02694721 303.50369225 126.54378885 302.98174113 C129.29202701 300.23434831 130.97788701 298.66139206 134.83984375 297.92578125 C144.03390338 299.28786416 152.30295525 311.40847587 158.73022461 317.89111328 C159.97761962 319.14534964 161.22527181 320.39933028 162.47315979 321.65307617 C165.14696309 324.34014483 167.8193281 327.02863278 170.49067497 329.71814346 C174.71972536 333.97517585 178.95431371 338.22667019 183.19007874 342.47702026 C184.64393821 343.93602263 186.09779081 345.39503186 187.5516367 346.85404778 C188.64317781 347.94946723 188.64317781 347.94946723 189.75677025 349.06701636 C199.60708385 358.95330087 209.45259527 368.84433082 219.2878418 378.74560547 C225.93682424 385.43913588 232.59294635 392.12547743 239.25719172 398.80381286 C242.77782785 402.33250373 246.29467928 405.86479045 249.80271721 409.40600967 C253.10117237 412.73561379 256.40890276 416.05571617 259.7238369 419.36891174 C260.93463113 420.58239161 262.14201778 421.79928315 263.34560776 423.01990891 C269.44336461 429.20017179 275.16965123 434.83245327 283.21484375 438.42578125 C283.86402236 438.74898912 284.51320097 439.072197 285.18205166 439.40519905 C294.21532 443.77972074 305.08289428 442.00224282 314.203125 438.88671875 C322.03999772 435.08517479 328.32312579 429.84875278 334.40234375 423.67578125 C335.44878052 422.61689697 335.44878052 422.61689697 336.51635742 421.53662109 C341.29412996 416.60017297 345.4859239 411.80422041 348.21484375 405.42578125 C348.54613281 404.65492188 348.87742187 403.8840625 349.21875 403.08984375 C352.74581708 393.31528118 352.32472478 382.89403489 348.7734375 373.21875 C343.41001713 363.60760823 335.14957892 356.09163527 327.41064453 348.41040039 C326.12017219 347.12213289 324.83015051 345.83341383 323.5405426 344.54428101 C320.77815136 341.78480789 318.01265209 339.02850279 315.24463272 336.27467537 C310.87005755 331.92246316 306.50267062 327.56308459 302.13619995 323.20274353 C295.23531019 316.31320373 288.32975684 309.42836047 281.42213237 302.54557365 C269.03175621 290.1996614 256.64709422 277.84802293 244.26755702 265.49124235 C239.92257594 261.15468048 235.57480308 256.8209425 231.22478032 252.48943818 C228.52784412 249.8031146 225.83291302 247.11478624 223.13848686 244.42594528 C221.88521718 243.17615693 220.63107617 241.92724166 219.37602043 240.6792469 C217.66881368 238.98143778 215.96466769 237.28061512 214.26126099 235.57899475 C213.75923444 235.08124528 213.25720789 234.58349582 212.73996842 234.07066303 C210.0048416 231.33097173 208.44770625 229.64830938 207.71484375 225.80078125 C209.07643091 216.61006791 221.17812891 208.37125749 227.66430664 201.95800781 C228.91693741 200.71549807 230.16929505 199.47271292 231.42140198 198.22967529 C234.10529297 195.56579711 236.79052122 192.90327682 239.4766407 190.24164581 C243.73062175 186.0252575 247.97794594 181.80220652 252.22373962 177.57757568 C252.94250387 176.86244883 253.66126811 176.14732197 254.40181309 175.41052461 C255.87083068 173.94891189 257.33983211 172.48728294 258.80881774 171.0256381 C268.68327875 161.20101833 278.56193507 151.38072489 288.45922852 141.57910156 C295.15034002 134.95256837 301.83062922 128.31533199 308.49878687 121.66569877 C312.02105934 118.1540657 315.54852602 114.64804061 319.08934212 111.15509796 C322.4209339 107.86839344 325.73800898 104.56769456 329.04486656 101.25611115 C330.2545601 100.04964176 331.46934174 98.84824715 332.68976593 97.65263367 C341.66088931 88.85561523 350.16286223 78.88371519 351.48046875 65.78515625 C351.38297461 49.50363413 346.39759594 40.07810469 335.21484375 28.42578125 C333.92513672 27.00652344 333.92513672 27.00652344 332.609375 25.55859375 C322.85860169 15.17465335 312.10261956 9.58537987 297.90234375 9.05078125 C280.30242586 9.39667559 269.81919766 21.52296117 258.19946289 33.22998047 C256.91119539 34.52045281 255.62247633 35.81047449 254.33334351 37.1000824 C251.57387039 39.86247364 248.81756529 42.62797291 246.06373787 45.39599228 C241.71152566 49.77056745 237.35214709 54.13795438 232.99180603 58.50442505 C226.10226623 65.40531481 219.21742297 72.31086816 212.33463615 79.21849263 C199.9887239 91.60886879 187.63708543 103.99353078 175.28030485 116.37306798 C170.94374298 120.71804906 166.610005 125.06582192 162.27850068 129.41584468 C159.5921771 132.11278088 156.90384874 134.80771198 154.21500778 137.50213814 C152.96521943 138.75540782 151.71630416 140.00954883 150.4683094 141.26460457 C148.77050028 142.97181132 147.06967762 144.67595731 145.36805725 146.37936401 C144.87030778 146.88139056 144.37255832 147.38341711 143.85972553 147.90065658 C141.12003423 150.6357834 139.43737188 152.19291875 135.58984375 152.92578125 C126.40002523 151.56432665 118.14972372 139.45900681 111.73120117 132.97631836 C110.48706007 131.72369603 109.24265265 130.47133816 107.9980011 129.21922302 C105.33079851 126.53538117 102.66499401 123.85016109 100.00014305 121.1639843 C95.77938772 116.91043921 91.55253023 112.66299366 87.32429504 108.41688538 C86.60861726 107.69812113 85.89293949 106.97935689 85.1555745 106.23881191 C83.69287145 104.76980177 82.23015972 103.30080028 80.76743948 101.83180726 C70.93466872 91.95613403 61.10645677 82.07599174 51.29272461 72.18139648 C44.65807985 65.49217884 38.01450385 58.8119729 31.36067277 52.14183813 C27.84647954 48.61830031 24.33697354 45.0903659 20.8384304 41.55128288 C17.5470901 38.22190857 14.24409151 34.90455194 10.93206596 31.59575844 C9.72445 30.38518933 8.52107224 29.17037379 7.32249069 27.95085907 C-2.40218861 18.0640492 -12.48143718 9.63008649 -26.97265625 9.11328125 C-42.54911973 9.47602081 -53.35091624 16.27246186 -64.03515625 27.11328125 Z " fill="#020000" transform="translate(120.78515625,30.57421875)"/>
<path d="M0 0 C2.875 1.5625 2.875 1.5625 5 4 C5.75 7.25 5.75 7.25 5 11 C0.09851059 17.94046716 -6.66624185 23.764672 -12.69287109 29.71118164 C-13.75657454 30.76475983 -14.82000268 31.81861604 -15.88317871 32.87272644 C-18.15781658 35.12738529 -20.43380368 37.38067011 -22.7107048 39.63304329 C-26.31222723 43.19694847 -29.90707144 46.76753877 -33.50039673 50.33970642 C-34.10872923 50.94440154 -34.71706174 51.54909665 -35.34382856 52.17211586 C-36.58675553 53.40763868 -37.82966672 54.64317737 -39.07256246 55.87873161 C-47.4282234 64.18452256 -55.78818124 72.485862 -64.16650391 80.76879883 C-69.83386375 86.37173696 -75.49052313 91.98523588 -81.13504469 97.61118406 C-84.11783804 100.58330681 -87.10585121 103.54972376 -90.10706711 106.50325203 C-92.9255432 109.27709433 -95.72972136 112.06461829 -98.52359009 114.86323738 C-99.54995303 115.88635623 -100.58146327 116.90434165 -101.61845779 117.9166832 C-103.03504804 119.30109969 -104.43143933 120.70609446 -105.82675171 122.11195374 C-106.61316732 122.89153977 -107.39958294 123.67112581 -108.20982933 124.47433567 C-110.46952996 127.66243688 -110.78066366 130.13494836 -111 134 C-110.28320542 136.01987952 -110.28320542 136.01987952 -109 137.5625 C-107 141 -107 141 -107 144.1875 C-108.1869118 147.52568943 -109.06621494 148.99267338 -112 151 C-115.375 151.6875 -115.375 151.6875 -119 151 C-123.8221368 147.28807609 -126.71910834 141.87516421 -128 136 C-128.90433931 128.99974388 -127.97255122 123.82036313 -124 118 C-117.85226978 110.66926674 -111.06253919 103.91809824 -104.29541016 97.16601562 C-103.25442281 96.12366933 -102.21364745 95.08111129 -101.17306519 94.0383606 C-98.37828124 91.23906495 -95.58040091 88.44288438 -92.78176546 85.64743996 C-89.84286127 82.7110873 -86.90641996 79.77227323 -83.96957397 76.8338623 C-79.04742839 71.90990514 -74.12319496 66.98804336 -69.19775391 62.06738281 C-63.50455846 56.37964925 -57.81500284 50.68829373 -52.12728274 44.99508524 C-47.23127012 40.09453784 -42.33331567 35.19593765 -37.43372571 30.29896688 C-34.5124041 27.3792033 -31.5917602 24.45877041 -28.67287064 21.53657532 C-25.93524609 18.79606605 -23.19519438 16.05800711 -20.45323563 13.32183456 C-19.44738039 12.31730278 -18.44237738 11.31191681 -17.43828583 10.3056221 C-16.06929161 8.93390072 -14.69691961 7.56555288 -13.32437134 6.1973877 C-12.55714563 5.43053902 -11.78991993 4.66369034 -10.99944496 3.87360382 C-7.28377101 0.3917871 -5.05580995 -0.60669719 0 0 Z " fill="#AB1D1E" transform="translate(184,288)"/>
<path d="M0 0 C6.94725637 4.88190977 12.76899785 11.67062599 18.71118164 17.69287109 C19.76475983 18.75657454 20.81861604 19.82000268 21.87272644 20.88317871 C24.12738529 23.15781658 26.38067011 25.43380368 28.63304329 27.7107048 C32.19694847 31.31222723 35.76753877 34.90707144 39.33970642 38.50039673 C39.94440154 39.10872923 40.54909665 39.71706174 41.17211586 40.34382856 C42.40763868 41.58675553 43.64317737 42.82966672 44.87873161 44.07256246 C53.18452256 52.4282234 61.485862 60.78818124 69.76879883 69.16650391 C75.37173696 74.83386375 80.98523588 80.49052313 86.61118406 86.13504469 C89.58330681 89.11783804 92.54972376 92.10585121 95.50325203 95.10706711 C98.27709433 97.9255432 101.06461829 100.72972136 103.86323738 103.52359009 C104.88635623 104.54995303 105.90434165 105.58146327 106.9166832 106.61845779 C108.30109969 108.03504804 109.70609446 109.43143933 111.11195374 110.82675171 C111.89153977 111.61316732 112.67112581 112.39958294 113.47433567 113.20982933 C116.67678301 115.47969838 119.11082752 115.8264742 123 116 C124.67419438 115.0126546 126.34051852 114.01187895 128 113 C131.93603973 112.30447491 135.06464824 112.39202136 138.5 114.625 C140.49476086 117.78337137 140.66260372 119.31886821 140 123 C136.41175975 128.98040042 131.66307319 131.27361422 125 133 C118.04219626 134.02845365 112.74106149 133.02220199 107 129 C99.04237448 122.10898293 91.55451701 114.70015441 84.12255859 107.25195312 C83.09962085 106.23037558 82.07647165 105.20900974 81.0531311 104.18783569 C78.31594331 101.45514359 75.58185123 98.71937497 72.84851027 95.98283577 C69.97356585 93.10533275 67.09615207 90.23030057 64.21914673 87.3548584 C59.40130047 82.53882108 54.58554385 77.72070183 49.77099609 72.90136719 C44.20705594 67.33195897 38.6394851 61.76619969 33.07006967 56.20226717 C28.27139209 51.40812403 23.47466125 46.61203963 18.6795603 41.81431913 C15.82242443 38.95562589 12.96462085 36.09760894 10.10505295 33.24134827 C7.42525462 30.5644344 4.74790639 27.88509414 2.07244492 25.20384598 C1.09048716 24.22056492 0.10767549 23.2381358 -0.87604523 22.2566185 C-2.21700636 20.91838495 -3.55459341 19.57677296 -4.89199829 18.23498535 C-5.64150064 17.48510597 -6.391003 16.73522659 -7.16321754 15.9626236 C-9.82582697 13.11759419 -10.94666957 11.48886229 -11.375 7.5625 C-11 4 -11 4 -9.4375 1.5625 C-5.90550465 -0.70159958 -4.13858566 -0.7587407 0 0 Z " fill="#AB1D1E" transform="translate(299,323)"/>
<path d="M0 0 C13.324479 5.84977127 24.57050529 21.03389018 34.640625 31.1171875 C36.4598557 32.93574373 38.27923476 34.75415156 40.09875488 36.57241821 C43.89265821 40.36485395 47.68481148 44.15902691 51.47558594 47.95458984 C55.85455975 52.33903128 60.23716131 56.7198218 64.62161016 61.09878767 C68.85587358 65.32796877 73.08732334 69.55995218 77.31758118 73.79314041 C79.11264107 75.5888678 80.90844524 77.38385151 82.70500183 79.17808151 C85.20614907 81.6766974 87.70408255 84.17848192 90.20117188 86.68115234 C90.94503143 87.42298767 91.68889099 88.164823 92.45529175 88.92913818 C93.13355011 89.61021637 93.81180847 90.29129456 94.51062012 90.99301147 C95.10048454 91.58325293 95.69034897 92.17349438 96.29808807 92.78162193 C98.55085313 95.22353364 99.73078024 96.97191301 100.234375 100.28125 C99.796875 103.40625 99.796875 103.40625 97.734375 106.28125 C94.796875 108.40625 94.796875 108.40625 91.67214966 109.05917358 C85.71409898 108.05533459 82.91532602 104.35883728 78.85498047 100.08447266 C77.98726517 99.20011032 77.11954987 98.31574799 76.22554016 97.40458679 C74.3426348 95.48164285 72.46726261 93.55370084 70.60128403 91.61455154 C67.64422526 88.54342258 64.65820457 85.50157179 61.66677856 82.46395874 C53.70182713 74.3669221 45.7759496 66.23196917 37.86714566 58.08010423 C32.67127729 52.72492063 27.45960599 47.38622481 22.21733201 42.07642591 C19.24720581 39.06541753 16.30413009 36.03100794 13.37939143 32.97592568 C11.11380116 30.62407095 8.81159599 28.3084772 6.51513672 25.98681641 C5.72195541 25.14308975 4.92877411 24.2993631 4.11155701 23.43006897 C-1.39962414 17.95455239 -5.5305111 16.39446742 -13.31040764 16.03037071 C-16.203125 15.40625 -16.203125 15.40625 -18.54797554 13.04523659 C-20.61200212 9.7543323 -20.99726444 8.21811934 -20.203125 4.40625 C-15.07261216 -2.14940529 -7.70220186 -2.07577071 0 0 Z " fill="#ED7B7C" transform="translate(100.203125,56.59375)"/>
<path d="M0 0 C3.73599911 0.60995904 5.37288497 1.88723111 8.0625 4.5 C10.37496713 9.12493425 9.76161573 15.81690718 8.484375 20.71875 C2.47921353 34.03928999 -12.48456466 45.21081438 -22.61328125 55.34375 C-24.42936826 57.16305435 -26.24538167 58.98243219 -28.06132507 60.80187988 C-31.84941597 64.59593068 -35.6395174 68.38795818 -39.4309082 72.17871094 C-43.80894031 76.55613925 -48.18132751 80.93915147 -52.55118877 85.32473516 C-56.77291913 89.56110958 -61.00015447 93.79194573 -65.22951317 98.02070618 C-67.02250884 99.81488271 -68.81388135 101.61068286 -70.60360146 103.40812683 C-73.09731956 105.91160976 -75.59725397 108.40871642 -78.09887695 110.90429688 C-78.837117 111.64815643 -79.57535706 112.39201599 -80.33596802 113.15841675 C-81.35964729 114.17580429 -81.35964729 114.17580429 -82.40400696 115.21374512 C-82.99332662 115.80360954 -83.58264627 116.39347397 -84.1898241 117.00121307 C-87.38283172 119.73950001 -89.24503549 120.524297 -93.5 120.375 C-96.9375 119.5 -96.9375 119.5 -98.875 117.875 C-100.46390146 114.32333791 -100.52232068 112.39911895 -99.9375 108.5 C-97.55307806 105.12904986 -94.60193919 102.39480099 -91.61572266 99.55810547 C-90.28917915 98.25653252 -90.28917915 98.25653252 -88.93583679 96.92866516 C-87.01289285 95.0457598 -85.08495084 93.17038761 -83.14580154 91.30440903 C-80.07467258 88.34735026 -77.03282179 85.36132957 -73.99520874 82.36990356 C-65.8981721 74.40495213 -57.76321917 66.4790746 -49.61135423 58.57027066 C-44.25617063 53.37440229 -38.91747481 48.16273099 -33.60767591 42.92045701 C-30.59666753 39.95033081 -27.56225794 37.00725509 -24.50717568 34.08251643 C-22.15532095 31.81692616 -19.8397272 29.51472099 -17.51806641 27.21826172 C-16.67433975 26.42508041 -15.8306131 25.63189911 -14.96131897 24.81468201 C-9.49809239 19.3158709 -7.9107217 15.14658323 -7.46396446 7.39271736 C-6.63501908 2.83798503 -4.53540043 0.77198305 0 0 Z " fill="#ED7B7C" transform="translate(446.9375,79.5)"/>
<path d="M0 0 C2.0625 1.5625 2.0625 1.5625 3 4 C3.17821261 6.85140177 2.92914963 9.292848 2 12 C-0.93837168 14.85194898 -2.53597436 15 -6.625 15 C-10 14 -10 14 -12 11.875 C-13.30782688 8.11499772 -13.06090617 5.81926223 -12 2 C-8.81688665 -2.07438508 -4.54417813 -1.38635943 0 0 Z " fill="#ED797A" transform="translate(69,81)"/>
<path d="M0 0 C2.0625 1.5625 2.0625 1.5625 3 4 C3.17821261 6.85140177 2.92914963 9.292848 2 12 C-0.93837168 14.85194898 -2.53597436 15 -6.625 15 C-10 14 -10 14 -12 11.875 C-13.30782688 8.11499772 -13.06090617 5.81926223 -12 2 C-8.81688665 -2.07438508 -4.54417813 -1.38635943 0 0 Z " fill="#ED797A" transform="translate(429,57)"/>
</svg>
