<?xml version="1.0" encoding="UTF-8"?>
<svg version="1.1" xmlns="http://www.w3.org/2000/svg" width="56" height="56">
<path d="M0 0 C18.48 0 36.96 0 56 0 C56 18.48 56 36.96 56 56 C37.52 56 19.04 56 0 56 C0 37.52 0 19.04 0 0 Z " fill="#24918D" transform="translate(0,0)"/>
<path d="M0 0 C8.8262464 -0.74438223 15.41692326 0.39018262 23.75 3.1875 C24.62422607 3.47890869 25.49845215 3.77031738 26.39916992 4.07055664 C34.18710945 6.81167012 41.17400235 10.65591337 48.0625 15.1875 C48.81660156 15.67605469 49.57070313 16.16460938 50.34765625 16.66796875 C50.89292969 17.10753906 51.43820313 17.54710938 52 18 C52 18.66 52 19.32 52 20 C47.97007218 19.44687265 43.97977076 18.8441938 40 18 C42.6234008 20.91488977 45.71816394 22.88503898 49 25 C48.505 26.485 48.505 26.485 48 28 C44.37 28 40.74 28 37 28 C37.66 25.69 38.32 23.38 39 21 C38.278125 20.855625 37.55625 20.71125 36.8125 20.5625 C32.90625 19.78125 32.90625 19.78125 29 19 C29 18.34 29 17.68 29 17 C28.195625 17.020625 27.39125 17.04125 26.5625 17.0625 C24 17 24 17 23 16 C22.85884839 13.32941149 22.95752893 10.67567762 23 8 C20.43635601 8.62057657 17.87415074 9.24629199 15.3125 9.875 C14.59126953 10.04902344 13.87003906 10.22304687 13.12695312 10.40234375 C9.27971155 11.35097866 5.64284431 12.40490841 2 14 C2.33 15.98 2.66 17.96 3 20 C3.94875 19.360625 4.8975 18.72125 5.875 18.0625 C9 16 9 16 11 15 C11.46816337 20.85204211 10.26851598 23.25538003 7 28 C7.11443256 30.31026274 7.11443256 30.31026274 8 32 C5.95880212 30.38405168 3.95927063 28.7143618 2 27 C2 26.34 2 25.68 2 25 C1.34 25 0.68 25 0 25 C0 16.75 0 8.5 0 0 Z " fill="#2B9594" transform="translate(0,0)"/>
<path d="M0 0 C0.33 2.64 0.66 5.28 1 8 C3.475 8.495 3.475 8.495 6 9 C6 9.66 6 10.32 6 11 C7.0828125 10.938125 7.0828125 10.938125 8.1875 10.875 C11.20729369 11.00921305 13.26935729 11.75170619 16 13 C15.42334609 17.7871428 13.35917004 21.25128824 10.9375 25.3125 C10.56044922 25.95767578 10.18339844 26.60285156 9.79492188 27.26757812 C8.86962507 28.84878152 7.93567319 30.4249146 7 32 C6.01 32 5.02 32 4 32 C4 31.34 4 30.68 4 30 C2.68 29.67 1.36 29.34 0 29 C0 28.34 0 27.68 0 27 C-0.61875 26.731875 -1.2375 26.46375 -1.875 26.1875 C-4 25 -4 25 -6 22 C-8.49361571 23.20381448 -10.68143083 24.45428722 -13 26 C-14.32 23.69 -15.64 21.38 -17 19 C-16.34 18.29875 -15.68 17.5975 -15 16.875 C-12.69766797 13.56539771 -12.63369844 11.93774177 -13 8 C-13.78375 8.66 -14.5675 9.32 -15.375 10 C-18 12 -18 12 -20 12 C-20.66 9.69 -21.32 7.38 -22 5 C-19.46148538 4.15583837 -16.91989146 3.32452701 -14.375 2.5 C-13.66214844 2.26152344 -12.94929687 2.02304688 -12.21484375 1.77734375 C-8.00693976 0.42618192 -4.47763202 -0.28250044 0 0 Z " fill="#2F100F" transform="translate(23,8)"/>
<path d="M0 0 C14.19 0 28.38 0 43 0 C43 10.56 43 21.12 43 32 C41.02 31.67 39.04 31.34 37 31 C35.46808416 28.84139132 35 27.63707871 35 25 C33.20473889 23.71050833 33.20473889 23.71050833 31 22.5 C28.75 21.21875 28.75 21.21875 27 20 C27 19.34 27 18.68 27 18 C31.02992782 18.55312735 35.02022924 19.1558062 39 20 C39 19.34 39 18.68 39 18 C37.88818359 17.59201172 37.88818359 17.59201172 36.75390625 17.17578125 C34.15739302 16.067199 32.20665499 14.84455152 29.9375 13.1875 C20.88240293 7.03602084 10.4285252 4.01081615 0 1 C0 0.67 0 0.34 0 0 Z " fill="#010304" transform="translate(13,0)"/>
<path d="M0 0 C5.95807828 -0.49650652 10.0567841 0.03259828 15.2734375 3.02734375 C17.14586205 4.15424225 17.14586205 4.15424225 20 5 C20 10.94 20 16.88 20 23 C11 23 11 23 8 21 C8 21.66 8 22.32 8 23 C4.16552636 21.49359964 2.53059531 19.16324414 0 16 C-2.11660427 14.68834743 -2.11660427 14.68834743 -4 14 C-4.56561146 8.34388537 -2.71391278 4.77357872 0 0 Z " fill="#942112" transform="translate(36,27)"/>
<path d="M0 0 C4 5 4 5 4 8 C4.66 8 5.32 8 6 8 C7.65 11.3 9.3 14.6 11 18 C11.33 17.01 11.66 16.02 12 15 C13.15454162 16.24196122 14.29832562 17.49392845 15.4375 18.75 C16.07558594 19.44609375 16.71367187 20.1421875 17.37109375 20.859375 C19.0132232 23.01737726 19.42271756 24.41063605 20 27 C21.96672915 28.1500831 21.96672915 28.1500831 24 29 C24.33 29.66 24.66 30.32 25 31 C16.75 31 8.5 31 0 31 C0 20.77 0 10.54 0 0 Z " fill="#010505" transform="translate(0,25)"/>
<path d="M0 0 C7.875 0 7.875 0 12 2 C12 2.66 12 3.32 12 4 C15.65456815 4.75241109 19.31733897 5.40049704 23 6 C20.81588094 8.18411906 19.81826903 8.49202478 16.90234375 9.25390625 C16.10119141 9.46853516 15.30003906 9.68316406 14.47460938 9.90429688 C13.21874023 10.23010742 13.21874023 10.23010742 11.9375 10.5625 C10.2791736 10.99836663 8.62157677 11.43702178 6.96484375 11.87890625 C6.2287085 12.0704126 5.49257324 12.26191895 4.73413086 12.45922852 C2.98906033 12.85609314 2.98906033 12.85609314 2 14 C2.28674418 16.00720923 2.61866701 18.0085944 3 20 C3.94875 19.360625 4.8975 18.72125 5.875 18.0625 C9 16 9 16 11 15 C11.46816337 20.85204211 10.26851598 23.25538003 7 28 C7.11443256 30.31026274 7.11443256 30.31026274 8 32 C5.95880212 30.38405168 3.95927063 28.7143618 2 27 C2 26.34 2 25.68 2 25 C1.34 25 0.68 25 0 25 C0 16.75 0 8.5 0 0 Z " fill="#AAD3D2" transform="translate(0,0)"/>
<path d="M0 0 C0.99 0.33 1.98 0.66 3 1 C3 1.66 3 2.32 3 3 C4.0828125 2.938125 4.0828125 2.938125 5.1875 2.875 C8.20729369 3.00921305 10.26935729 3.75170619 13 5 C12.42334609 9.7871428 10.35917004 13.25128824 7.9375 17.3125 C7.37192383 18.28026367 7.37192383 18.28026367 6.79492188 19.26757812 C5.86962507 20.84878152 4.93567319 22.4249146 4 24 C3.01 24 2.02 24 1 24 C1 23.34 1 22.68 1 22 C-0.32 21.67 -1.64 21.34 -3 21 C-3 20.34 -3 19.68 -3 19 C-4.32 18.34 -5.64 17.68 -7 17 C-6.21086057 14.91570807 -5.41859037 12.83260131 -4.625 10.75 C-4.18414063 9.58984375 -3.74328125 8.4296875 -3.2890625 7.234375 C-2.29409145 4.73790219 -1.25589954 2.37095053 0 0 Z " fill="#342C29" transform="translate(26,16)"/>
<path d="M0 0 C3.36179774 1.44077046 5.59156268 3.24750021 8 6 C8 6.66 8 7.32 8 8 C9.32 8.33 10.64 8.66 12 9 C12 9.66 12 10.32 12 11 C15.0745356 10.2236068 15.0745356 10.2236068 17 8 C17.061875 8.598125 17.12375 9.19625 17.1875 9.8125 C17.81822079 12.24814185 17.81822079 12.24814185 20.4375 13.3125 C23.96707338 15.6368532 24.16539574 17.97872491 25 22 C22.91836944 23.26384713 21.52513785 24.01693993 19.0625 23.9375 C16.1017476 22.59170345 14.28537427 20.28537427 12 18 C10.01954441 17.33820153 10.01954441 17.33820153 8 17 C3.09468209 14.48445236 -1.21635877 11.35092368 -3 6 C-3.66 5.67 -4.32 5.34 -5 5 C-3.35 3.35 -1.7 1.7 0 0 Z " fill="#2BABA9" transform="translate(15,29)"/>
<path d="M0 0 C4.10881414 0.71457637 5.98517983 3.61017983 8.875 6.5 C7.555 6.5 6.235 6.5 4.875 6.5 C5.308125 6.90992188 5.74125 7.31984375 6.1875 7.7421875 C7.0228125 8.55042969 7.0228125 8.55042969 7.875 9.375 C8.431875 9.90867187 8.98875 10.44234375 9.5625 10.9921875 C10.875 12.5 10.875 12.5 10.875 14.5 C7.905 14.005 7.905 14.005 4.875 13.5 C4.545 14.16 4.215 14.82 3.875 15.5 C2.885 15.17 1.895 14.84 0.875 14.5 C-0.115 14.83 -1.105 15.16 -2.125 15.5 C-4.8125 14.4375 -4.8125 14.4375 -7.125 12.5 C-7.90653303 8.59233483 -7.22889234 6.71577639 -5.5 3.125 C-3.125 0.5 -3.125 0.5 0 0 Z " fill="#E7672B" transform="translate(39.125,28.5)"/>
<path d="M0 0 C5.274432 0.53820735 9.33336702 1.57335085 14 4 C14.33 4.99 14.66 5.98 15 7 C16.010625 7.45375 17.02125 7.9075 18.0625 8.375 C21 11 21 11 21.39453125 14.1484375 C21.37662583 17.45019767 21.25683972 20.70864654 21 24 C18.98933835 23.73856008 16.98772779 23.40006167 15 23 C13.46808416 20.84139132 13 19.63707871 13 17 C11.20473889 15.71050833 11.20473889 15.71050833 9 14.5 C6.75 13.21875 6.75 13.21875 5 12 C5 11.34 5 10.68 5 10 C9.02992782 10.55312735 13.02022924 11.1558062 17 12 C17 11.34 17 10.68 17 10 C16.27039063 9.731875 15.54078125 9.46375 14.7890625 9.1875 C12.05399043 8.02298752 9.81988097 6.68033057 7.375 5 C6.61960937 4.484375 5.86421875 3.96875 5.0859375 3.4375 C4.39757813 2.963125 3.70921875 2.48875 3 2 C2.01 1.34 1.02 0.68 0 0 Z " fill="#175251" transform="translate(35,8)"/>
<path d="M0 0 C1.65 0.99 3.3 1.98 5 3 C5 2.34 5 1.68 5 1 C10.94 1.99 10.94 1.99 17 3 C17 4.98 17 6.96 17 9 C8.42 9 -0.16 9 -9 9 C-9.66 7.35 -10.32 5.7 -11 4 C-10.34 3.67 -9.68 3.34 -9 3 C-8.01 3.66 -7.02 4.32 -6 5 C-3.35367713 4.6878236 -3.35367713 4.6878236 -1 4 C-0.67 2.68 -0.34 1.36 0 0 Z " fill="#2C7069" transform="translate(39,47)"/>
<path d="M0 0 C4.54805635 -0.17835515 7.8794254 0.00214565 12 2 C12 2.66 12 3.32 12 4 C15.65456815 4.75241109 19.31733897 5.40049704 23 6 C18.95114121 8.69923919 15.1554106 8.38439179 10.44921875 8.47851562 C6.48385482 8.58752576 6.48385482 8.58752576 3.15625 10.53515625 C2.7746875 11.01855469 2.393125 11.50195312 2 12 C1.34 12 0.68 12 0 12 C0 8.04 0 4.08 0 0 Z " fill="#84F9F9" transform="translate(0,0)"/>
<path d="M0 0 C3.93858247 1.26597294 5.12107275 3.63835287 6.984375 7.1875 C8.07712579 9.25328616 8.07712579 9.25328616 10.25 11.8125 C12 14 12 14 12 16 C4.78728606 15.63325183 4.78728606 15.63325183 1.125 12.6875 C-0.6344347 10.46233258 -1.81897101 8.54375476 -3 6 C-3.66 5.67 -4.32 5.34 -5 5 C-3.35 3.35 -1.7 1.7 0 0 Z " fill="#55D6D5" transform="translate(15,29)"/>
<path d="M0 0 C0.33 0.99 0.66 1.98 1 3 C1.99 3 2.98 3 4 3 C4 3.66 4 4.32 4 5 C4.86963379 5.18357056 4.86963379 5.18357056 5.75683594 5.37084961 C8.05758777 6.0161519 9.82119497 6.88149067 11.890625 8.06640625 C12.59960938 8.46923828 13.30859375 8.87207031 14.0390625 9.28710938 C14.76867188 9.70798828 15.49828125 10.12886719 16.25 10.5625 C16.99507812 10.98724609 17.74015625 11.41199219 18.5078125 11.84960938 C20.34098961 12.89546042 22.17082677 13.94716192 24 15 C24 16.32 24 17.64 24 19 C20.37 19 16.74 19 13 19 C13.99 15.535 13.99 15.535 15 12 C14.278125 11.855625 13.55625 11.71125 12.8125 11.5625 C10.20833333 11.04166667 7.60416667 10.52083333 5 10 C5 9.34 5 8.68 5 8 C3.35 8 1.7 8 0 8 C-0.79953138 4.71303767 -1.09658936 3.28976808 0 0 Z " fill="#65D1CC" transform="translate(24,9)"/>
<path d="M0 0 C0.52078125 0.36867188 1.0415625 0.73734375 1.578125 1.1171875 C0.918125 1.7771875 0.258125 2.4371875 -0.421875 3.1171875 C-0.10146103 5.71999318 -0.10146103 5.71999318 0.578125 8.1171875 C-0.040625 8.2615625 -0.659375 8.4059375 -1.296875 8.5546875 C-3.45445822 9.04870975 -3.45445822 9.04870975 -5.421875 10.1171875 C-5.751875 8.7971875 -6.081875 7.4771875 -6.421875 6.1171875 C-7.205625 6.7771875 -7.989375 7.4371875 -8.796875 8.1171875 C-11.421875 10.1171875 -11.421875 10.1171875 -13.421875 10.1171875 C-14.081875 7.8071875 -14.741875 5.4971875 -15.421875 3.1171875 C-13.34476754 2.39080021 -11.25987188 1.68665342 -9.171875 0.9921875 C-8.01171875 0.59773437 -6.8515625 0.20328125 -5.65625 -0.203125 C-2.421875 -0.8828125 -2.421875 -0.8828125 0 0 Z " fill="#771116" transform="translate(16.421875,9.8828125)"/>
<path d="M0 0 C1.98 0 3.96 0 6 0 C5.36495834 4.13159633 4.01303002 7.49726486 2.1875 11.25 C1.68605469 12.30703125 1.18460938 13.3640625 0.66796875 14.453125 C-1 17 -1 17 -3.19921875 17.859375 C-4.09060547 17.92898437 -4.09060547 17.92898437 -5 18 C-6.21332065 14.36003804 -5.66422619 13.55851885 -4.1875 10.125 C-3.83042969 9.28195313 -3.47335938 8.43890625 -3.10546875 7.5703125 C-2.74066406 6.72210937 -2.37585938 5.87390625 -2 5 C-1.32896223 3.33508843 -0.6609904 1.66892598 0 0 Z " fill="#5A0C0F" transform="translate(32,22)"/>
<path d="M0 0 C1.98 0 3.96 0 6 0 C6 1.65 6 3.3 6 5 C4.68 5 3.36 5 2 5 C2 6.65 2 8.3 2 10 C1.34 10 0.68 10 0 10 C-0.28875 10.86625 -0.5775 11.7325 -0.875 12.625 C-1.91666667 15.75 -2.95833333 18.875 -4 22 C-6 21 -6 21 -7.375 18.875 C-8.1903002 15.1246191 -7.23458598 13.5978542 -5.2265625 10.44921875 C-4 9 -4 9 -1.75 8.0625 C-1.1725 8.041875 -0.595 8.02125 0 8 C-0.185625 7.236875 -0.37125 6.47375 -0.5625 5.6875 C-1 3 -1 3 0 0 Z " fill="#560A11" transform="translate(16,9)"/>
<path d="M0 0 C5.95807828 -0.49650652 10.0567841 0.03259828 15.2734375 3.02734375 C17.14586205 4.15424225 17.14586205 4.15424225 20 5 C20 6.32 20 7.64 20 9 C14.35966195 9.55027688 11.57422734 8.04948489 7 5 C6.67 4.34 6.34 3.68 6 3 C2.97065509 2.34227572 2.97065509 2.34227572 0 2 C0 1.34 0 0.68 0 0 Z " fill="#8E442E" transform="translate(36,27)"/>
<path d="M0 0 C2.9375 0.375 2.9375 0.375 4.9375 2.375 C3.9475 3.86 3.9475 3.86 2.9375 5.375 C3.73911791 8.04645537 3.73911791 8.04645537 4.9375 10.375 C3.47565942 10.14639942 2.01794581 9.89129608 0.5625 9.625 C-0.24960937 9.48578125 -1.06171875 9.3465625 -1.8984375 9.203125 C-4.0625 8.375 -4.0625 8.375 -5.3515625 6.296875 C-5.58617187 5.66265625 -5.82078125 5.0284375 -6.0625 4.375 C-4.29380527 1.23065381 -3.67806806 0.45037568 0 0 Z " fill="#F7BD83" transform="translate(39.0625,28.625)"/>
<path d="M0 0 C1.98 0 3.96 0 6 0 C6.33 0.66 6.66 1.32 7 2 C6.34 2 5.68 2 5 2 C7.37629089 6.14670039 7.37629089 6.14670039 11 9 C11 9.99 11 10.98 11 12 C6.38 12 1.76 12 -3 12 C-3.33 10.35 -3.66 8.7 -4 7 C-3.401875 7.350625 -2.80375 7.70125 -2.1875 8.0625 C0.10813214 9.33304698 0.10813214 9.33304698 3 8 C5.1875 8.4375 5.1875 8.4375 7 9 C6.4946875 8.43410156 5.989375 7.86820313 5.46875 7.28515625 C4.8190625 6.55167969 4.169375 5.81820312 3.5 5.0625 C2.8503125 4.33160156 2.200625 3.60070313 1.53125 2.84765625 C0 1 0 1 0 0 Z " fill="#AC2A0F" transform="translate(43,34)"/>
<path d="M0 0 C0.53625 0.37125 1.0725 0.7425 1.625 1.125 C1.625 2.115 1.625 3.105 1.625 4.125 C1.93588368 5.79599977 2.26580332 7.46371537 2.625 9.125 C-0.79991198 9.51641851 -2.16510327 9.25857065 -5.125 7.375 C-7.34383223 5.15616777 -8.04778832 4.17897571 -8.375 1.125 C-2.95961538 -1.09038462 -2.95961538 -1.09038462 0 0 Z " fill="#237D7C" transform="translate(27.375,46.875)"/>
<path d="M0 0 C1.875 0.1875 1.875 0.1875 4 1 C5.1875 3.375 5.1875 3.375 6 6 C6.33 6.99 6.66 7.98 7 9 C4.75804887 10.36118461 3.52173238 11.06138028 0.875 10.75 C-1 10 -1 10 -3 8 C-2.5359375 7.13375 -2.5359375 7.13375 -2.0625 6.25 C-1.07416636 4.15705816 -0.4831387 2.25464725 0 0 Z " fill="#238887" transform="translate(33,42)"/>
<path d="M0 0 C1.32 0.33 2.64 0.66 4 1 C3.45276317 4.37462715 2.9451 6.08235 1 9 C-0.32 8.34 -1.64 7.68 -3 7 C-4.65 8.32 -6.3 9.64 -8 11 C-9.98 7.535 -9.98 7.535 -12 4 C-10.68 4 -9.36 4 -8 4 C-7.01 5.485 -7.01 5.485 -6 7 C-6 6.01 -6 5.02 -6 4 C-4.02 4 -2.04 4 0 4 C0 2.68 0 1.36 0 0 Z " fill="#260C0A" transform="translate(18,23)"/>
<path d="M0 0 C8.2875 3.4125 8.2875 3.4125 12 6 C12 6.66 12 7.32 12 8 C7.97007218 7.44687265 3.97977076 6.8441938 0 6 C-0.33 6.66 -0.66 7.32 -1 8 C-1.66 7.34 -2.32 6.68 -3 6 C-3 5.01 -3 4.02 -3 3 C-2.01 2.67 -1.02 2.34 0 2 C0 1.34 0 0.68 0 0 Z " fill="#209495" transform="translate(40,12)"/>
<path d="M0 0 C1.2890625 1.4609375 1.2890625 1.4609375 2.625 3.375 C3.07101563 4.00148438 3.51703125 4.62796875 3.9765625 5.2734375 C5 7 5 7 5 9 C-2.38461538 8.63076923 -2.38461538 8.63076923 -5.5 5.4375 C-5.995 4.633125 -6.49 3.82875 -7 3 C-2.25 0 -2.25 0 0 0 Z " fill="#47D1D1" transform="translate(22,36)"/>
<path d="M0 0 C2.64 1.32 5.28 2.64 8 4 C8 5.32 8 6.64 8 8 C4.37 8 0.74 8 -3 8 C-1.125 1.125 -1.125 1.125 0 0 Z " fill="#449B9A" transform="translate(40,20)"/>
<path d="M0 0 C3.02266703 0.59651306 6.01725858 1.22669667 9 2 C8.67 2.99 8.34 3.98 8 5 C8 4.34 8 3.68 8 3 C6.02 3 4.04 3 2 3 C1.938125 3.721875 1.87625 4.44375 1.8125 5.1875 C0.75543353 8.84657625 -1.20550071 10.49211602 -4 13 C-4.33 12.34 -4.66 11.68 -5 11 C-4.00390625 8.3984375 -4.00390625 8.3984375 -2.5625 5.375 C-2.08941406 4.37210938 -1.61632812 3.36921875 -1.12890625 2.3359375 C-0.75636719 1.56507812 -0.38382813 0.79421875 0 0 Z " fill="#594439" transform="translate(30,19)"/>
<path d="M0 0 C0.33 0.66 0.66 1.32 1 2 C1.66 2 2.32 2 3 2 C3 2.66 3 3.32 3 4 C3.66 4 4.32 4 5 4 C5 4.66 5 5.32 5 6 C4.01 6.33 3.02 6.66 2 7 C1.67 6.67 1.34 6.34 1 6 C0.67 6.99 0.34 7.98 0 9 C-2.0625 9.6875 -2.0625 9.6875 -4 10 C-5 7 -5 7 -3.6875 3.875 C-2 1 -2 1 0 0 Z " fill="#3E0606" transform="translate(18,18)"/>
<path d="M0 0 C5.75 -0.125 5.75 -0.125 8 1 C8 1.66 8 2.32 8 3 C7.34 3 6.68 3 6 3 C5.7525 3.804375 5.505 4.60875 5.25 5.4375 C4.8375 6.283125 4.425 7.12875 4 8 C2.68 8.33 1.36 8.66 0 9 C0 6.03 0 3.06 0 0 Z " fill="#A4FAFC" transform="translate(0,3)"/>
<path d="M0 0 C3.63 0.66 7.26 1.32 11 2 C11 3.98 11 5.96 11 8 C9.68 8 8.36 8 7 8 C7 7.34 7 6.68 7 6 C6.01 6 5.02 6 4 6 C4 5.34 4 4.68 4 4 C3.01 4 2.02 4 1 4 C0.67 2.68 0.34 1.36 0 0 Z " fill="#39908D" transform="translate(45,48)"/>
<path d="M0 0 C5.78461538 4.18461538 5.78461538 4.18461538 6.875 8.3125 C6.936875 9.6428125 6.936875 9.6428125 7 11 C7.99 11.33 8.98 11.66 10 12 C10.33 14.31 10.66 16.62 11 19 C8.34730103 16.52414762 6.31989897 14.40973899 5 11 C5 10.01 5 9.02 5 8 C4.34 8 3.68 8 3 8 C0.95830515 5.09451118 0 3.59857954 0 0 Z " fill="#247F7A" transform="translate(1,25)"/>
<path d="M0 0 C-0.33 1.32 -0.66 2.64 -1 4 C-2.65 4 -4.3 4 -6 4 C-6 4.66 -6 5.32 -6 6 C-8.375 6.1875 -8.375 6.1875 -11 6 C-11.66 5.01 -12.32 4.02 -13 3 C-4.57142857 -0.42857143 -4.57142857 -0.42857143 0 0 Z " fill="#C66067" transform="translate(14,10)"/>
<path d="M0 0 C3.3 0.33 6.6 0.66 10 1 C10.33 3.31 10.66 5.62 11 8 C9.02 7.34 7.04 6.68 5 6 C5 5.34 5 4.68 5 4 C3.35 4 1.7 4 0 4 C0 2.68 0 1.36 0 0 Z " fill="#35BABA" transform="translate(23,8)"/>
<path d="M0 0 C0.66 0 1.32 0 2 0 C2 0.66 2 1.32 2 2 C5.63 2 9.26 2 13 2 C13.33 2.99 13.66 3.98 14 5 C14.66 5.33 15.32 5.66 16 6 C12.05272412 6.17942163 9.4019487 6.09350689 6 4 C6 4.66 6 5.32 6 6 C3.37812506 4.95125002 2.20628639 4.35068687 0.75 1.875 C0.5025 1.25625 0.255 0.6375 0 0 Z " fill="#73413E" transform="translate(38,44)"/>
<path d="M0 0 C1.98 0 3.96 0 6 0 C6 1.65 6 3.3 6 5 C4.68 5 3.36 5 2 5 C2 6.65 2 8.3 2 10 C0.68 10.33 -0.64 10.66 -2 11 C-2.66 10.01 -3.32 9.02 -4 8 C-2.68 8 -1.36 8 0 8 C-0.185625 7.236875 -0.37125 6.47375 -0.5625 5.6875 C-1 3 -1 3 0 0 Z " fill="#5E0508" transform="translate(16,9)"/>
<path d="M0 0 C2.625 0.9375 2.625 0.9375 5 2 C3.68 2.33 2.36 2.66 1 3 C1.433125 3.40992188 1.86625 3.81984375 2.3125 4.2421875 C3.1478125 5.05042969 3.1478125 5.05042969 4 5.875 C4.556875 6.40867187 5.11375 6.94234375 5.6875 7.4921875 C7 9 7 9 7 11 C2.96479403 9.41037341 -1.01811282 7.71767682 -5 6 C-2 5 -2 5 0 5 C-0.66 3.68 -1.32 2.36 -2 1 C-1.34 0.67 -0.68 0.34 0 0 Z " fill="#F29652" transform="translate(43,32)"/>
<path d="M0 0 C-1.21558594 0.32613281 -2.43117188 0.65226563 -3.68359375 0.98828125 C-5.26841228 1.4290296 -6.85303796 1.87047182 -8.4375 2.3125 C-9.23994141 2.52583984 -10.04238281 2.73917969 -10.86914062 2.95898438 C-11.63291016 3.17490234 -12.39667969 3.39082031 -13.18359375 3.61328125 C-13.89056396 3.80704346 -14.59753418 4.00080566 -15.32592773 4.20043945 C-16.15459351 4.59622192 -16.15459351 4.59622192 -17 5 C-17.33 5.99 -17.66 6.98 -18 8 C-18.66 8 -19.32 8 -20 8 C-20 6.68 -20 5.36 -20 4 C-19.360625 3.896875 -18.72125 3.79375 -18.0625 3.6875 C-17.381875 3.460625 -16.70125 3.23375 -16 3 C-15.67 2.01 -15.34 1.02 -15 0 C-13.25093341 -0.19601608 -11.50068154 -0.38147403 -9.75 -0.5625 C-8.77546875 -0.66691406 -7.8009375 -0.77132813 -6.796875 -0.87890625 C-4.20537391 -0.99110811 -2.4628193 -0.68488514 0 0 Z " fill="#B2D6D2" transform="translate(20,8)"/>
<path d="M0 0 C4.29 0 8.58 0 13 0 C13.33 0.99 13.66 1.98 14 3 C15.65 3.33 17.3 3.66 19 4 C18.67 4.66 18.34 5.32 18 6 C13.95295419 5.27595226 10.10929598 4.16553713 6.1875 2.9375 C5.02605469 2.57527344 3.86460938 2.21304687 2.66796875 1.83984375 C1.78753906 1.56269531 0.90710937 1.28554688 0 1 C0 0.67 0 0.34 0 0 Z " fill="#03181A" transform="translate(13,0)"/>
<path d="M0 0 C0 1.32 0 2.64 0 4 C-3.93774177 4.36630156 -5.56539771 4.30233203 -8.875 2 C-9.57625 1.34 -10.2775 0.68 -11 0 C-6.94952424 -1.35015859 -4.2079832 -0.62084998 0 0 Z " fill="#772018" transform="translate(56,32)"/>
<path d="M0 0 C3.4375 0.8125 3.4375 0.8125 7 2 C7.33 2.99 7.66 3.98 8 5 C6.68 5 5.36 5 4 5 C4.33 5.99 4.66 6.98 5 8 C3.125 7.875 3.125 7.875 1 7 C-0.25 3.9375 -0.25 3.9375 -1 1 C-0.67 0.67 -0.34 0.34 0 0 Z " fill="#27A5A5" transform="translate(33,10)"/>
<path d="M0 0 C2.31 0 4.62 0 7 0 C7 0.66 7 1.32 7 2 C7.99 2 8.98 2 10 2 C10 2.66 10 3.32 10 4 C6.37 4 2.74 4 -1 4 C-0.67 2.68 -0.34 1.36 0 0 Z " fill="#0F4847" transform="translate(42,52)"/>
<path d="M0 0 C3.12290635 0.48578543 5.99580359 0.9986012 9 2 C9 3.65 9 5.3 9 7 C7.35 6.67 5.7 6.34 4 6 C3.896875 5.360625 3.79375 4.72125 3.6875 4.0625 C3.460625 3.381875 3.23375 2.70125 3 2 C2.01 1.67 1.02 1.34 0 1 C0 0.67 0 0.34 0 0 Z " fill="#02070A" transform="translate(47,21)"/>
<path d="M0 0 C0.33 0.66 0.66 1.32 1 2 C3.02463255 2.65213292 3.02463255 2.65213292 5 3 C5 3.66 5 4.32 5 5 C8.0745356 4.2236068 8.0745356 4.2236068 10 2 C10.33 3.98 10.66 5.96 11 8 C10.01 7.67 9.02 7.34 8 7 C7.01 7.66 6.02 8.32 5 9 C2.5 6.75 2.5 6.75 0 4 C0 2.68 0 1.36 0 0 Z " fill="#57B1AB" transform="translate(22,35)"/>
<path d="M0 0 C1.98 0 3.96 0 6 0 C5.45276317 3.37462715 4.9451 5.08235 3 8 C2.01 7.34 1.02 6.68 0 6 C0 4 0 2 0 0 Z " fill="#631115" transform="translate(32,22)"/>
<path d="M0 0 C4.54805635 -0.17835515 7.8794254 0.00214565 12 2 C12 2.66 12 3.32 12 4 C8.04 3.67 4.08 3.34 0 3 C0 2.01 0 1.02 0 0 Z " fill="#5FEAEB" transform="translate(0,0)"/>
<path d="M0 0 C0.66 0 1.32 0 2 0 C3.25348607 2.95106435 3.01044806 3.97406463 1.78515625 7.015625 C0.93244141 8.61664062 0.93244141 8.61664062 0.0625 10.25 C-0.50339844 11.32765625 -1.06929687 12.4053125 -1.65234375 13.515625 C-2.09707031 14.33546875 -2.54179687 15.1553125 -3 16 C-3.66 15.01 -4.32 14.02 -5 13 C-4.01 12.67 -3.02 12.34 -2 12 C-1.855625 11.13375 -1.71125 10.2675 -1.5625 9.375 C-1.04166667 6.25 -0.52083333 3.125 0 0 Z " fill="#33170E" transform="translate(27,17)"/>
<path d="M0 0 C4.7540859 -0.33168041 7.05646203 0.40556713 11 3 C13.19130534 3.69579454 13.19130534 3.69579454 15 4 C15 4.66 15 5.32 15 6 C11.14354879 6.22036864 8.50776784 5.60355101 5 4 C5 3.34 5 2.68 5 2 C3.35 1.67 1.7 1.34 0 1 C0 0.67 0 0.34 0 0 Z " fill="#29B4B4" transform="translate(7,0)"/>
<path d="M0 0 C1.98 0 3.96 0 6 0 C6.33 0.66 6.66 1.32 7 2 C6.34 2 5.68 2 5 2 C7.37629089 6.14670039 7.37629089 6.14670039 11 9 C11 9.99 11 10.98 11 12 C10.34 12 9.68 12 9 12 C9 11.34 9 10.68 9 10 C8.01 9.67 7.02 9.34 6 9 C5.29605388 7.68596724 4.63654342 6.3479743 4 5 C2.6949419 3.31110128 1.36639342 1.6396721 0 0 Z " fill="#CE4F22" transform="translate(43,34)"/>
<path d="M0 0 C3.465 1.485 3.465 1.485 7 3 C7 4.32 7 5.64 7 7 C4.125 6.75 4.125 6.75 1 6 C-0.4375 4.0625 -0.4375 4.0625 -1 2 C-0.67 1.34 -0.34 0.68 0 0 Z " fill="#237979" transform="translate(49,25)"/>
<path d="M0 0 C1.1171875 1.734375 1.1171875 1.734375 2 4 C1.3203125 6.140625 1.3203125 6.140625 0.125 8.25 C-0.26429687 8.95640625 -0.65359375 9.6628125 -1.0546875 10.390625 C-1.36664062 10.92171875 -1.67859375 11.4528125 -2 12 C-2.66 12 -3.32 12 -4 12 C-3.45660208 7.43545749 -2.20536179 4.0271824 0 0 Z " fill="#644A3F" transform="translate(26,16)"/>
<path d="M0 0 C1.98 0.99 3.96 1.98 6 3 C6 3.66 6 4.32 6 5 C6.66 5.33 7.32 5.66 8 6 C5.69 6 3.38 6 1 6 C0.34 4.35 -0.32 2.7 -1 1 C-0.67 0.67 -0.34 0.34 0 0 Z " fill="#05161D" transform="translate(29,50)"/>
<path d="M0 0 C0.33 0.66 0.66 1.32 1 2 C1.99 2.33 2.98 2.66 4 3 C3.34 4.65 2.68 6.3 2 8 C1.01 8 0.02 8 -1 8 C-2.2077558 4.37673261 -1.54311128 3.35853631 0 0 Z " fill="#461317" transform="translate(28,32)"/>
<path d="M0 0 C1.32 0 2.64 0 4 0 C2.46191023 3.07617954 -0.12096091 4.23732301 -3 6 C-3.66 6 -4.32 6 -5 6 C-5.33 4.35 -5.66 2.7 -6 1 C-3.03 1.495 -3.03 1.495 0 2 C0 1.34 0 0.68 0 0 Z " fill="#931B21" transform="translate(8,14)"/>
<path d="M0 0 C2.31 1.98 4.62 3.96 7 6 C6.01 6.66 5.02 7.32 4 8 C3.01 7.67 2.02 7.34 1 7 C0.67 4.69 0.34 2.38 0 0 Z " fill="#082325" transform="translate(11,40)"/>
<path d="M0 0 C1.32 0.66 2.64 1.32 4 2 C4 3.65 4 5.3 4 7 C2.35 6.67 0.7 6.34 -1 6 C-1.042721 4.33388095 -1.04063832 2.66617115 -1 1 C-0.67 0.67 -0.34 0.34 0 0 Z " fill="#FDE8B8" transform="translate(36,29)"/>
<path d="M0 0 C1.98 0 3.96 0 6 0 C6 1.98 6 3.96 6 6 C4.68 5.67 3.36 5.34 2 5 C2.66 5 3.32 5 4 5 C4 4.34 4 3.68 4 3 C3.34 3 2.68 3 2 3 C2 2.34 2 1.68 2 1 C1.34 0.67 0.68 0.34 0 0 Z " fill="#2A7675" transform="translate(50,50)"/>
<path d="M0 0 C3.82946843 1.45255699 5.12050295 3.42895561 7 7 C5.68 6.34 4.36 5.68 3 5 C3 4.34 3 3.68 3 3 C1.02 3.66 -0.96 4.32 -3 5 C-1.125 1.125 -1.125 1.125 0 0 Z " fill="#8AEDE3" transform="translate(15,29)"/>
<path d="M0 0 C1.2077558 3.62326739 0.54311128 4.64146369 -1 8 C-2.32 6.68 -3.64 5.36 -5 4 C-4.34 4 -3.68 4 -3 4 C-3 3.34 -3 2.68 -3 2 C-2.01 2 -1.02 2 0 2 C0 1.34 0 0.68 0 0 Z " fill="#7E6B69" transform="translate(9,18)"/>
<path d="M0 0 C4.05281712 1.22527029 7.44360764 2.69880494 11 5 C10.67 5.66 10.34 6.32 10 7 C8.51545194 6.40917986 7.03745649 5.80187345 5.5625 5.1875 C4.73878906 4.85105469 3.91507813 4.51460937 3.06640625 4.16796875 C1 3 1 3 0 0 Z " fill="#298C8B" transform="translate(32,7)"/>
<path d="M0 0 C5.75 -0.125 5.75 -0.125 8 1 C8 1.66 8 2.32 8 3 C5.36 3 2.72 3 0 3 C0 2.01 0 1.02 0 0 Z " fill="#8FFEFD" transform="translate(0,3)"/>
<path d="M0 0 C3.2542015 2.83430453 4.5206753 4.68607774 5 9 C1.83884224 7.63016497 1.0072908 7.0109362 -1 4 C-0.34 3.67 0.32 3.34 1 3 C0.67 2.01 0.34 1.02 0 0 Z " fill="#499190" transform="translate(35,42)"/>
<path d="M0 0 C0.66 1.32 1.32 2.64 2 4 C2.66 4 3.32 4 4 4 C5.625 6 5.625 6 7 8 C6.67 8.66 6.34 9.32 6 10 C1.77202073 6.91709845 1.77202073 6.91709845 0 5 C-0.375 2.1875 -0.375 2.1875 0 0 Z " fill="#339795" transform="translate(8,31)"/>
<path d="M0 0 C0.99 0.33 1.98 0.66 3 1 C4.1875 4.0625 4.1875 4.0625 5 7 C4.01 7 3.02 7 2 7 C1.01 5.02 0.02 3.04 -1 1 C-0.67 0.67 -0.34 0.34 0 0 Z " fill="#3B141F" transform="translate(7,26)"/>
<path d="M0 0 C0.99 0.33 1.98 0.66 3 1 C3.6875 3.0625 3.6875 3.0625 4 5 C-2.15234375 4.4140625 -2.15234375 4.4140625 -4 4 C-4.33 3.34 -4.66 2.68 -5 2 C-3.02 2 -1.04 2 1 2 C0.67 1.34 0.34 0.68 0 0 Z " fill="#3EBFC3" transform="translate(23,40)"/>
<path d="M0 0 C3.39914975 1.13304992 4.05254451 2.12518475 6 5 C5.67 5.66 5.34 6.32 5 7 C2.5 5.75 2.5 5.75 0 4 C0 2.68 0 1.36 0 0 Z " fill="#953E28" transform="translate(32,37)"/>
<path d="M0 0 C2.02045442 0.60183749 4.02111039 1.27306096 6 2 C6.33 2.66 6.66 3.32 7 4 C6.01 5.485 6.01 5.485 5 7 C3.29115995 5.37660195 1.62553283 3.70680947 0 2 C0 1.34 0 0.68 0 0 Z " fill="#DE803F" transform="translate(32,35)"/>
<path d="M0 0 C-0.66 1.98 -1.32 3.96 -2 6 C-2.99 6 -3.98 6 -5 6 C-5 4.35 -5 2.7 -5 1 C-2 0 -2 0 0 0 Z " fill="#42271E" transform="translate(29,30)"/>
<path d="M0 0 C2.79872437 2.52788007 4.45773019 4.20411134 5 8 C4.01 7.67 3.02 7.34 2 7 C2 6.34 2 5.68 2 5 C1.34 5 0.68 5 0 5 C0 3.35 0 1.7 0 0 Z " fill="#44C6C9" transform="translate(0,20)"/>
<path d="M0 0 C0 1.65 0 3.3 0 5 C-1.65 4.67 -3.3 4.34 -5 4 C-4.67 3.01 -4.34 2.02 -4 1 C-2 0 -2 0 0 0 Z " fill="#1A6C6A" transform="translate(40,51)"/>
<path d="M0 0 C1.65 0 3.3 0 5 0 C5 2 5 4 5 6 C4.34 6 3.68 6 3 6 C0 2.53846154 0 2.53846154 0 0 Z " fill="#116666" transform="translate(24,48)"/>
<path d="M0 0 C3.465 1.485 3.465 1.485 7 3 C7 3.66 7 4.32 7 5 C5.02 5 3.04 5 1 5 C0.67 3.35 0.34 1.7 0 0 Z " fill="#A61708" transform="translate(39,41)"/>
<path d="M0 0 C2.97 0.495 2.97 0.495 6 1 C6 2.32 6 3.64 6 5 C4.68 5 3.36 5 2 5 C2 4.01 2 3.02 2 2 C1.34 1.34 0.68 0.68 0 0 Z " fill="#363638" transform="translate(50,31)"/>
<path d="M0 0 C0.70125 0.144375 1.4025 0.28875 2.125 0.4375 C5.07556141 1.01478375 8.03270151 1.51695141 11 2 C8 4 8 4 5.95703125 3.7578125 C3.97135417 3.171875 1.98567708 2.5859375 0 2 C0 1.34 0 0.68 0 0 Z " fill="#52DEDD" transform="translate(12,4)"/>
<path d="M0 0 C0.99 0 1.98 0 3 0 C3 0.66 3 1.32 3 2 C3.99 2.33 4.98 2.66 6 3 C6 3.33 6 3.66 6 4 C3.625 4.1875 3.625 4.1875 1 4 C0.34 3.01 -0.32 2.02 -1 1 C-0.67 0.67 -0.34 0.34 0 0 Z " fill="#227770" transform="translate(24,52)"/>
<path d="M0 0 C2.97 0.495 2.97 0.495 6 1 C6 2.65 6 4.3 6 6 C5.01 5.67 4.02 5.34 3 5 C3 4.01 3 3.02 3 2 C2.01 1.67 1.02 1.34 0 1 C0 0.67 0 0.34 0 0 Z " fill="#031C18" transform="translate(47,21)"/>
<path d="M0 0 C2.31 0.33 4.62 0.66 7 1 C6.01 2.485 6.01 2.485 5 4 C2.525 3.01 2.525 3.01 0 2 C0 1.34 0 0.68 0 0 Z " fill="#18696B" transform="translate(40,18)"/>
<path d="M0 0 C0.33 0.99 0.66 1.98 1 3 C1.99 3 2.98 3 4 3 C4 3.66 4 4.32 4 5 C4.66 5.33 5.32 5.66 6 6 C4.02 6 2.04 6 0 6 C0 4.02 0 2.04 0 0 Z " fill="#56E8E3" transform="translate(24,9)"/>
</svg>
