<?xml version="1.0" encoding="UTF-8"?>
<svg version="1.1" xmlns="http://www.w3.org/2000/svg" width="56" height="56">
<path d="M0 0 C18.48 0 36.96 0 56 0 C56 18.48 56 36.96 56 56 C37.52 56 19.04 56 0 56 C0 37.52 0 19.04 0 0 Z " fill="#614A11" transform="translate(0,0)"/>
<path d="M0 0 C18.48 0 36.96 0 56 0 C56 18.48 56 36.96 56 56 C44.45 56 32.9 56 21 56 C22.32 55.01 23.64 54.02 25 53 C26.54160302 50.03998142 27.89782347 47.08295532 29.1796875 44.00585938 C30.78121357 40.48769215 31.63228328 39.16338019 35.2265625 37.56640625 C36.14179687 37.37949219 37.05703125 37.19257812 38 37 C38 37.66 38 38.32 38 39 C42.64849515 41.3992233 46.91086074 41.19957409 52 41 C51.030625 40.566875 50.06125 40.13375 49.0625 39.6875 C46 38 46 38 45 35 C46.29009643 34.49596232 47.58213789 33.99690074 48.875 33.5 C49.59429687 33.2215625 50.31359375 32.943125 51.0546875 32.65625 C53 32 53 32 55 32 C55 31.34 55 30.68 55 30 C54.071875 30.061875 53.14375 30.12375 52.1875 30.1875 C49 30 49 30 47.125 28.5 C46.75375 28.005 46.3825 27.51 46 27 C47 24 47 24 50 22.125 C53.20670627 20.30587128 53.20670627 20.30587128 53.875 17.25 C53.91625 16.5075 53.9575 15.765 54 15 C50.43009831 15.31499133 48.45920452 16.26045234 45.8125 18.5625 C43 21 43 21 41 21 C41.495 19.515 41.495 19.515 42 18 C42.66 18 43.32 18 44 18 C44 17.34 44 16.68 44 16 C46.26831687 14.34376863 48.6417912 12.91247457 51.03125 11.4375 C51.6809375 10.963125 52.330625 10.48875 53 10 C53 9.34 53 8.68 53 8 C47.86748755 3.32371088 44.90356067 1.86125204 37.8125 1.9375 C36.72582031 1.94652344 35.63914063 1.95554688 34.51953125 1.96484375 C33.68808594 1.97644531 32.85664062 1.98804687 32 2 C31.9484375 2.60328125 31.896875 3.2065625 31.84375 3.828125 C30.92651421 10.29046804 30.92651421 10.29046804 28.33203125 12.27734375 C26.96156404 12.89498178 25.57480813 13.47745202 24.17578125 14.02734375 C20.56560134 15.64123028 17.86096769 18.31784279 15 21 C16.65 21.33 18.3 21.66 20 22 C20.12375 21.360625 20.2475 20.72125 20.375 20.0625 C20.684375 19.0415625 20.684375 19.0415625 21 18 C21.66 17.67 22.32 17.34 23 17 C22.98839844 17.61488281 22.97679688 18.22976562 22.96484375 18.86328125 C22.95582031 19.67152344 22.94679688 20.47976562 22.9375 21.3125 C22.92589844 22.11300781 22.91429688 22.91351562 22.90234375 23.73828125 C22.90342145 26.16861334 22.90342145 26.16861334 24 29 C21 28 21 28 19.8125 25.9375 C19.544375 25.298125 19.27625 24.65875 19 24 C14.44479906 23.54284722 12.44704063 24.74723474 8.875 27.5 C4.30555556 31 4.30555556 31 1 31 C1.369295 36.73043966 2.20063113 40.88810902 5 46 C5 46.99 5 47.98 5 49 C5.99 49.33 6.98 49.66 8 50 C8 50.99 8 51.98 8 53 C10.31 53.66 12.62 54.32 15 55 C15 55.33 15 55.66 15 56 C10.05 56 5.1 56 0 56 C0 37.52 0 19.04 0 0 Z " fill="#4E3C1A" transform="translate(0,0)"/>
<path d="M0 0 C2.8125 1.25 2.8125 1.25 5 3 C5.928125 3.721875 6.85625 4.44375 7.8125 5.1875 C8.534375 5.785625 9.25625 6.38375 10 7 C8.4972742 11.20763224 5.76667005 12.8027758 2 15 C1.34 15 0.68 15 0 15 C0 15.66 0 16.32 0 17 C-1.5 18.625 -1.5 18.625 -3 20 C-2.32453125 19.48308594 -1.6490625 18.96617188 -0.953125 18.43359375 C-0.06109375 17.77488281 0.8309375 17.11617187 1.75 16.4375 C2.63171875 15.77621094 3.5134375 15.11492188 4.421875 14.43359375 C7 13 7 13 9.328125 13.28515625 C9.87984375 13.52105469 10.4315625 13.75695313 11 14 C10.04735876 18.19162145 9.36739592 19.7207791 5.875 22.375 C4.92625 22.91125 3.9775 23.4475 3 24 C3.56362302 26.04836882 3.56362302 26.04836882 5 28 C8.05908413 28.81584568 8.05908413 28.81584568 11 29 C11 29.66 11 30.32 11 31 C6.545 32.485 6.545 32.485 2 34 C3.64697278 37.29394556 5.76681408 38.4911799 9 40 C7.43966377 41.56033623 5.91052864 41.20707559 3.75 41.25 C2.98171875 41.27578125 2.2134375 41.3015625 1.421875 41.328125 C-1.74639983 40.89887486 -3.44579264 39.92485067 -6 38 C-8.01953125 35.30078125 -8.01953125 35.30078125 -9.8125 32.3125 C-10.41707031 31.31863281 -11.02164063 30.32476563 -11.64453125 29.30078125 C-12.09183594 28.54152344 -12.53914063 27.78226563 -13 27 C-12.35546875 26.59136719 -11.7109375 26.18273437 -11.046875 25.76171875 C-8.85934897 24.19953628 -8.85934897 24.19953628 -8.390625 21.95703125 C-8.34421875 21.24933594 -8.2978125 20.54164062 -8.25 19.8125 C-8.1675 18.554375 -8.085 17.29625 -8 16 C-10.67578157 13.73076653 -10.67578157 13.73076653 -12.92578125 14.2890625 C-13.61027344 14.52367187 -14.29476563 14.75828125 -15 15 C-15.69480469 15.21398438 -16.38960937 15.42796875 -17.10546875 15.6484375 C-17.79253906 15.88820313 -18.47960938 16.12796875 -19.1875 16.375 C-19.88230469 16.60960938 -20.57710937 16.84421875 -21.29296875 17.0859375 C-23.36257334 17.9426296 -23.36257334 17.9426296 -24 21 C-25.98 21 -27.96 21 -30 21 C-28.33333333 19.33333333 -26.66666667 17.66666667 -25 16 C-24.360625 15.278125 -23.72125 14.55625 -23.0625 13.8125 C-21 12 -21 12 -17.9375 11.3125 C-14.87737793 10.32858597 -14.87737793 10.32858597 -14.01953125 7.9140625 C-13.51433497 6.2882024 -13.05292983 4.64795605 -12.640625 2.99609375 C-12.42921875 2.33738281 -12.2178125 1.67867188 -12 1 C-8.3138822 -0.8430589 -4.03234707 -0.35729658 0 0 Z " fill="#E6D47F" transform="translate(44,1)"/>
<path d="M0 0 C0.33 0 0.66 0 1 0 C1 13.2 1 26.4 1 40 C-10.55 40 -22.1 40 -34 40 C-32.68 39.01 -31.36 38.02 -30 37 C-28.45839698 34.03998142 -27.10217653 31.08295532 -25.8203125 28.00585938 C-24.21878643 24.48769215 -23.36771672 23.16338019 -19.7734375 21.56640625 C-18.85820313 21.37949219 -17.94296875 21.19257812 -17 21 C-17 21.66 -17 22.32 -17 23 C-12.35150485 25.3992233 -8.08913926 25.19957409 -3 25 C-4.4540625 24.3503125 -4.4540625 24.3503125 -5.9375 23.6875 C-9 22 -9 22 -10 19 C-8.70990357 18.49596232 -7.41786211 17.99690074 -6.125 17.5 C-5.40570313 17.2215625 -4.68640625 16.943125 -3.9453125 16.65625 C-2 16 -2 16 0 16 C0 15.34 0 14.68 0 14 C-0.928125 14.061875 -1.85625 14.12375 -2.8125 14.1875 C-6 14 -6 14 -7.875 12.5 C-8.24625 12.005 -8.6175 11.51 -9 11 C-8 8 -8 8 -5.0625 6.0625 C-2.14475815 4.09749018 -1.14885011 3.2167803 0 0 Z " fill="#1E1407" transform="translate(55,16)"/>
<path d="M0 0 C1.2684375 0.2165625 1.2684375 0.2165625 2.5625 0.4375 C2.995625 1.241875 3.42875 2.04625 3.875 2.875 C5.25723745 5.58197327 5.25723745 5.58197327 7.5234375 5.9921875 C9.52852714 6.22435577 11.54645043 6.33835002 13.5625 6.4375 C7.59666856 16.03203303 7.59666856 16.03203303 2.5625 19.4375 C1.92183594 18.95539062 1.28117187 18.47328125 0.62109375 17.9765625 C-4.3289787 14.3617555 -8.39370058 11.6199825 -14.4375 10.4375 C-14.1075 12.4175 -13.7775 14.3975 -13.4375 16.4375 C-12.7775 16.4375 -12.1175 16.4375 -11.4375 16.4375 C-11.128125 17.530625 -10.81875 18.62375 -10.5 19.75 C-9.85412103 21.99157994 -9.1751883 24.2244351 -8.4375 26.4375 C-9.4275 26.4375 -10.4175 26.4375 -11.4375 26.4375 C-14.76547915 20.15296794 -15.88914525 15.55091265 -15.4375 8.4375 C-14.66664062 8.02757812 -13.89578125 7.61765625 -13.1015625 7.1953125 C-12.09867188 6.65648437 -11.09578125 6.11765625 -10.0625 5.5625 C-9.06476562 5.02882813 -8.06703125 4.49515625 -7.0390625 3.9453125 C-0.33588337 0.06028676 -0.33588337 0.06028676 0 0 Z " fill="#EDDF8E" transform="translate(16.4375,22.5625)"/>
<path d="M0 0 C0.763125 0.495 1.52625 0.99 2.3125 1.5 C4.92363751 3.24368308 4.92363751 3.24368308 8 3 C8.8971875 4.2065625 8.8971875 4.2065625 9.8125 5.4375 C11.81773871 8.28845931 11.81773871 8.28845931 15.25 8.8125 C16.1575 8.874375 17.065 8.93625 18 9 C18 9.66 18 10.32 18 11 C15.03 11.99 12.06 12.98 9 14 C10.64697278 17.29394556 12.76681408 18.4911799 16 20 C14.43966377 21.56033623 12.91052864 21.20707559 10.75 21.25 C9.98171875 21.27578125 9.2134375 21.3015625 8.421875 21.328125 C5.25360017 20.89887486 3.55420736 19.92485067 1 18 C-1.01953125 15.30078125 -1.01953125 15.30078125 -2.8125 12.3125 C-3.41707031 11.31863281 -4.02164063 10.32476562 -4.64453125 9.30078125 C-5.09183594 8.54152344 -5.53914063 7.78226563 -6 7 C-5.36578125 6.55011719 -4.7315625 6.10023437 -4.078125 5.63671875 C-1.87317348 3.9001122 -1.05965987 2.5608447 0 0 Z " fill="#EBDE89" transform="translate(37,21)"/>
<path d="M0 0 C1.5625 1.1875 1.5625 1.1875 3 3 C2.6196712 7.71953471 0.37867993 11.58748819 -1.8125 15.6875 C-2.15603516 16.36361328 -2.49957031 17.03972656 -2.85351562 17.73632812 C-4.28395625 20.43350041 -5.50611522 22.63275235 -7.98046875 24.47265625 C-10.34014669 25.08881973 -12.08329178 25.06450312 -14.5 24.75 C-15.2528125 24.66234375 -16.005625 24.5746875 -16.78125 24.484375 C-19.1101584 23.97595134 -20.92229716 23.15218067 -23 22 C-22.34 20.68 -21.68 19.36 -21 18 C-20.67 18.99 -20.34 19.98 -20 21 C-16.37 21 -12.74 21 -9 21 C-9 19.68 -9 18.36 -9 17 C-9.99 16.67 -10.98 16.34 -12 16 C-12 15.34 -12 14.68 -12 14 C-15.84700632 11.91620491 -19.90054429 10.50313376 -24 9 C-23.67 8.34 -23.34 7.68 -23 7 C-18.05158649 7.46031754 -15.76108005 8.84882482 -12 12 C-11.01 12 -10.02 12 -9 12 C-7.40804795 10.1038316 -7.40804795 10.1038316 -6 7.6875 C-4.20553913 4.78552031 -2.51744919 2.31515417 0 0 Z " fill="#B6A553" transform="translate(31,31)"/>
<path d="M0 0 C9.9 0 19.8 0 30 0 C30 5.28 30 10.56 30 16 C27.525 15.505 27.525 15.505 25 15 C22.76120939 16.16231314 22.76120939 16.16231314 20.8125 17.9375 C17.16400911 21 17.16400911 21 15 21 C15.33 20.01 15.66 19.02 16 18 C16.66 18 17.32 18 18 18 C18 17.34 18 16.68 18 16 C20.26831687 14.34376863 22.6417912 12.91247457 25.03125 11.4375 C25.6809375 10.963125 26.330625 10.48875 27 10 C27 9.34 27 8.68 27 8 C21.86748755 3.32371088 18.90356067 1.86125204 11.8125 1.9375 C10.72582031 1.94652344 9.63914062 1.95554688 8.51953125 1.96484375 C7.68808594 1.97644531 6.85664062 1.98804687 6 2 C5.90203125 2.62648437 5.8040625 3.25296875 5.703125 3.8984375 C5.55359375 4.71570313 5.4040625 5.53296875 5.25 6.375 C5.04117187 7.59316406 5.04117187 7.59316406 4.828125 8.8359375 C4 11 4 11 1.921875 12.2890625 C0.97054688 12.64097656 0.97054688 12.64097656 0 13 C-0.66 11.35 -1.32 9.7 -2 8 C-1.01 8 -0.02 8 1 8 C0.67 6.68 0.34 5.36 0 4 C0.99 3.67 1.98 3.34 3 3 C2.01 2.01 1.02 1.02 0 0 Z " fill="#504017" transform="translate(26,0)"/>
<path d="M0 0 C0.66 0.99 1.32 1.98 2 3 C0.07538221 7.55830529 -1.42944397 9.94324978 -6 12 C-6.99 12 -7.98 12 -9 12 C-9.66 11.34 -10.32 10.68 -11 10 C-11.66 9.67 -12.32 9.34 -13 9 C-13.25 6.6875 -13.25 6.6875 -13 4 C-11.25 2.3125 -11.25 2.3125 -9 1 C-8.360625 0.5875 -7.72125 0.175 -7.0625 -0.25 C-4.31241633 -1.25003043 -2.74583924 -0.93936606 0 0 Z " fill="#8F140D" transform="translate(35,15)"/>
<path d="M0 0 C6.41194383 1.65750929 11.65951884 3.81733592 16 9 C16.9375 11.875 16.9375 11.875 17 14 C15.39667209 14.08121924 13.79215974 14.13929134 12.1875 14.1875 C11.29417969 14.22230469 10.40085937 14.25710937 9.48046875 14.29296875 C7 14 7 14 5.3125 12.703125 C2.1892241 8.6503027 0 5.27759756 0 0 Z " fill="#BEA463" transform="translate(6,39)"/>
<path d="M0 0 C8.22176443 -0.41805582 11.66702699 1.75267951 18 7 C16.86500606 10.29148243 16.00716624 10.9959869 12.875 12.75 C11.451875 13.36875 11.451875 13.36875 10 14 C10 13.34 10 12.68 10 12 C10.66 11.67 11.32 11.34 12 11 C11.67 10.01 11.34 9.02 11 8 C9.68 8.33 8.36 8.66 7 9 C7 7.35 7 5.7 7 4 C6.34 3.67 5.68 3.34 5 3 C5.33 3.99 5.66 4.98 6 6 C4.35 6 2.7 6 1 6 C0.67 6.99 0.34 7.98 0 9 C-0.66 8.34 -1.32 7.68 -2 7 C-2 5.68 -2 4.36 -2 3 C-1.34 3 -0.68 3 0 3 C0 2.01 0 1.02 0 0 Z " fill="#F7EBA0" transform="translate(36,1)"/>
<path d="M0 0 C0.66 0.99 1.32 1.98 2 3 C3.96361864 3.57748803 3.96361864 3.57748803 6.125 3.6875 C7.40375 3.790625 8.6825 3.89375 10 4 C4.03416856 13.59453303 4.03416856 13.59453303 -1 17 C-2.65 15.68 -4.3 14.36 -6 13 C-5.67 11.68 -5.34 10.36 -5 9 C-3.68 8.67 -2.36 8.34 -1 8 C-0.67 5.36 -0.34 2.72 0 0 Z " fill="#E9D286" transform="translate(20,25)"/>
<path d="M0 0 C2 2 2 2 2 5 C1.01 5 0.02 5 -1 5 C-1.99 7.97 -2.98 10.94 -4 14 C-4.66 14 -5.32 14 -6 14 C-6.33 15.65 -6.66 17.3 -7 19 C-7.66 19 -8.32 19 -9 19 C-9 18.34 -9 17.68 -9 17 C-9.99 16.67 -10.98 16.34 -12 16 C-12 15.34 -12 14.68 -12 14 C-15.84700632 11.91620491 -19.90054429 10.50313376 -24 9 C-23.67 8.34 -23.34 7.68 -23 7 C-18.05158649 7.46031754 -15.76108005 8.84882482 -12 12 C-11.01 12 -10.02 12 -9 12 C-7.40804795 10.1038316 -7.40804795 10.1038316 -6 7.6875 C-4.20553913 4.78552031 -2.51744919 2.31515417 0 0 Z " fill="#E5D57A" transform="translate(31,31)"/>
<path d="M0 0 C0 0.66 0 1.32 0 2 C0.66 2.33 1.32 2.66 2 3 C1.484375 3.4125 0.96875 3.825 0.4375 4.25 C-0.2740625 5.11625 -0.2740625 5.11625 -1 6 C-0.77242269 8.16299211 -0.77242269 8.16299211 0 10 C-1.0828125 10.61875 -1.0828125 10.61875 -2.1875 11.25 C-4.97969862 12.98736803 -7.47012585 14.90381857 -10 17 C-10.66 16.67 -11.32 16.34 -12 16 C-11.690625 15.236875 -11.38125 14.47375 -11.0625 13.6875 C-10.32106407 11.81210323 -9.63771783 9.91315348 -9 8 C-9.33 7.67 -9.66 7.34 -10 7 C-10 5.68 -10 4.36 -10 3 C-8.70990357 2.49596232 -7.41786211 1.99690074 -6.125 1.5 C-5.04605469 1.08234375 -5.04605469 1.08234375 -3.9453125 0.65625 C-2 0 -2 0 0 0 Z " fill="#423617" transform="translate(26,3)"/>
<path d="M0 0 C0.66 1.32 1.32 2.64 2 4 C2.53625 5.010625 3.0725 6.02125 3.625 7.0625 C5 10 5 10 5 13 C5.99 13.33 6.98 13.66 8 14 C8 14.99 8 15.98 8 17 C10.31 17.66 12.62 18.32 15 19 C15 19.33 15 19.66 15 20 C10.05 20 5.1 20 0 20 C0 13.4 0 6.8 0 0 Z " fill="#241D11" transform="translate(0,36)"/>
<path d="M0 0 C0.53625 0.2475 1.0725 0.495 1.625 0.75 C1.02826163 3.95746876 0.32184537 6.12836482 -2.1484375 8.33203125 C-6.08918446 10.99093673 -6.08918446 10.99093673 -8.375 11.75 C-11.82747352 10.5397233 -13.90257872 8.3990228 -16.375 5.75 C-15.385 5.42 -14.395 5.09 -13.375 4.75 C-13.375 5.41 -13.375 6.07 -13.375 6.75 C-10.57591612 5.10348007 -7.93353837 3.42566084 -5.3125 1.5 C-2.375 -0.25 -2.375 -0.25 0 0 Z " fill="#B19D53" transform="translate(53.375,14.25)"/>
<path d="M0 0 C2.46800047 1.15173355 4.04783565 2.04783565 6 4 C6 3.34 6 2.68 6 2 C6.66 2 7.32 2 8 2 C8.2784375 3.1446875 8.2784375 3.1446875 8.5625 4.3125 C10.63445622 8.18615728 12.92286538 8.56545263 17 10 C16.67 10.66 16.34 11.32 16 12 C6.07794677 12.58365019 6.07794677 12.58365019 2 9 C0.6875 6.3125 0.6875 6.3125 0 4 C0.66 4 1.32 4 2 4 C1.34 2.68 0.68 1.36 0 0 Z " fill="#EFE49C" transform="translate(36,30)"/>
<path d="M0 0 C7.56259306 0 12.2732651 4.45382166 18 9 C15 9 15 9 12.6875 7.5 C9.54374634 5.74534679 7.54365707 5.75276811 4 6 C4.474375 7.093125 4.94875 8.18625 5.4375 9.3125 C6.40187809 11.53476255 7.23166828 13.69500485 8 16 C7.67 16.66 7.34 17.32 7 18 C5 17 5 17 4.4375 15.375 C3.86398974 12.26165856 3.42230105 9.13709351 3 6 C2.34 6 1.68 6 1 6 C0.67 4.02 0.34 2.04 0 0 Z " fill="#5C4409" transform="translate(2,33)"/>
<path d="M0 0 C4.62 0 9.24 0 14 0 C14 0.33 14 0.66 14 1 C11.36 1.33 8.72 1.66 6 2 C5.90203125 2.62648437 5.8040625 3.25296875 5.703125 3.8984375 C5.55359375 4.71570313 5.4040625 5.53296875 5.25 6.375 C5.04117187 7.59316406 5.04117187 7.59316406 4.828125 8.8359375 C4 11 4 11 1.921875 12.2890625 C0.97054688 12.64097656 0.97054688 12.64097656 0 13 C-0.66 11.35 -1.32 9.7 -2 8 C-1.01 8 -0.02 8 1 8 C0.67 6.68 0.34 5.36 0 4 C0.99 3.67 1.98 3.34 3 3 C2.01 2.01 1.02 1.02 0 0 Z " fill="#534115" transform="translate(26,0)"/>
<path d="M0 0 C0.33 1.32 0.66 2.64 1 4 C1.66 4 2.32 4 3 4 C3 3.34 3 2.68 3 2 C8.75 0.875 8.75 0.875 11 2 C9.65289578 6.04131267 7.61571666 6.90288434 4 9 C3.01 9 2.02 9 1 9 C1 10.65 1 12.3 1 14 C0.67 14 0.34 14 0 14 C0 9.38 0 4.76 0 0 Z " fill="#433211" transform="translate(0,22)"/>
<path d="M0 0 C6.0546875 -0.1953125 6.0546875 -0.1953125 8 0 C8.66 0.66 9.32 1.32 10 2 C9.01 2.66 8.02 3.32 7 4 C6.34 3.67 5.68 3.34 5 3 C5.33 3.99 5.66 4.98 6 6 C4.35 6 2.7 6 1 6 C0.67 6.99 0.34 7.98 0 9 C-0.66 8.34 -1.32 7.68 -2 7 C-2 5.68 -2 4.36 -2 3 C-1.34 3 -0.68 3 0 3 C0 2.01 0 1.02 0 0 Z " fill="#F0EA92" transform="translate(36,1)"/>
<path d="M0 0 C-2.75491457 3.11877121 -5.3668048 3.95901686 -9.2578125 5.15625 C-9.83273438 5.4346875 -10.40765625 5.713125 -11 6 C-11.33 6.99 -11.66 7.98 -12 9 C-13.98 9 -15.96 9 -18 9 C-16.33333333 7.33333333 -14.66666667 5.66666667 -13 4 C-11.9790625 2.88625 -11.9790625 2.88625 -10.9375 1.75 C-7.31903549 -1.51829053 -4.57149031 -1.14287258 0 0 Z " fill="#DEC88E" transform="translate(32,13)"/>
<path d="M0 0 C0.66 0.33 1.32 0.66 2 1 C2 1.66 2 2.32 2 3 C5.63 3 9.26 3 13 3 C13 2.34 13 1.68 13 1 C13.66 1 14.32 1 15 1 C15.33 2.32 15.66 3.64 16 5 C12.92970153 6.81426728 11.02714249 7.20901169 7.5 6.75 C6.7471875 6.66234375 5.994375 6.5746875 5.21875 6.484375 C2.8898416 5.97595134 1.07770284 5.15218067 -1 4 C-0.67 2.68 -0.34 1.36 0 0 Z " fill="#9E8B4F" transform="translate(9,49)"/>
<path d="M0 0 C2 2 2 2 2 5 C1.01 5 0.02 5 -1 5 C-1.66 6.65 -2.32 8.3 -3 10 C-3.66 10 -4.32 10 -5 10 C-5.66 11.65 -6.32 13.3 -7 15 C-7.66 15 -8.32 15 -9 15 C-8.61731407 8.87702516 -4.1716037 4.1716037 0 0 Z " fill="#F9E792" transform="translate(31,31)"/>
<path d="M0 0 C0.6875 2.0625 0.6875 2.0625 1 4 C0.34 4 -0.32 4 -1 4 C-0.34 4.66 0.32 5.32 1 6 C0.67 6.99 0.34 7.98 0 9 C-0.66 9 -1.32 9 -2 9 C-2 8.34 -2 7.68 -2 7 C-2.969375 6.566875 -3.93875 6.13375 -4.9375 5.6875 C-8 4 -8 4 -9 1 C-3.375 -1.125 -3.375 -1.125 0 0 Z " fill="#3C3017" transform="translate(54,34)"/>
<path d="M0 0 C1.32 0.66 2.64 1.32 4 2 C4 2.66 4 3.32 4 4 C3.34 4 2.68 4 2 4 C1.67 4.99 1.34 5.98 1 7 C0.34 6.67 -0.32 6.34 -1 6 C-0.67 7.32 -0.34 8.64 0 10 C-4.03384128 7.92856799 -5.92856799 6.03384128 -8 2 C-5.36 1.67 -2.72 1.34 0 1 C0 0.67 0 0.34 0 0 Z " fill="#D1C372" transform="translate(39,26)"/>
<path d="M0 0 C2.64 0 5.28 0 8 0 C8 0.66 8 1.32 8 2 C10.89186786 3.33304698 10.89186786 3.33304698 13.1875 2.0625 C13.785625 1.711875 14.38375 1.36125 15 1 C15 4.20395416 14.25664978 6.09399739 13 9 C11.125 8.75 11.125 8.75 9 8 C8.731875 7.38125 8.46375 6.7625 8.1875 6.125 C6.3189256 2.78123528 3.52765213 2.30653783 0 1 C0 0.67 0 0.34 0 0 Z " fill="#FADC96" transform="translate(28,12)"/>
<path d="M0 0 C0.66 0 1.32 0 2 0 C2.66 0.99 3.32 1.98 4 3 C4.99 3.33 5.98 3.66 7 4 C6.34 5.32 5.68 6.64 5 8 C1.48283697 8 0.62878252 7.17554415 -2 5 C-1.125 1.125 -1.125 1.125 0 0 Z " fill="#F1E49A" transform="translate(16,33)"/>
<path d="M0 0 C3.57104439 1.87949705 5.54744301 3.17053157 7 7 C6.401875 6.814375 5.80375 6.62875 5.1875 6.4375 C2.83591238 5.77906313 2.83591238 5.77906313 0 7 C-2.1875 6.5625 -2.1875 6.5625 -4 6 C-2.68 4.02 -1.36 2.04 0 0 Z " fill="#F2E192" transform="translate(37,21)"/>
<path d="M0 0 C0.6875 1.6875 0.6875 1.6875 1 4 C-0.14786941 6.24356294 -1.2095767 8.2095767 -3 10 C-4.51469448 10.23192865 -6.03754562 10.41215238 -7.5625 10.5625 C-8.38878906 10.64628906 -9.21507812 10.73007812 -10.06640625 10.81640625 C-10.70449219 10.87699219 -11.34257812 10.93757813 -12 11 C-12.66 9.35 -13.32 7.7 -14 6 C-12.68 6.33 -11.36 6.66 -10 7 C-10 7.66 -10 8.32 -10 9 C-4.53510379 7.22380973 -4.53510379 7.22380973 -1.0625 2.8125 C-0.711875 1.884375 -0.36125 0.95625 0 0 Z " fill="#691D05" transform="translate(36,18)"/>
<path d="M0 0 C0 0.66 0 1.32 0 2 C0.66 2.33 1.32 2.66 2 3 C1.01 3.33 0.02 3.66 -1 4 C-1 4.99 -1 5.98 -1 7 C-1.66 7 -2.32 7 -3 7 C-3 7.66 -3 8.32 -3 9 C-3.66 9 -4.32 9 -5 9 C-5 8.01 -5 7.02 -5 6 C-6.98 6.99 -6.98 6.99 -9 8 C-7.13554727 3.64961029 -5.02378599 0 0 0 Z " fill="#D0C16D" transform="translate(47,9)"/>
<path d="M0 0 C-0.33 0.66 -0.66 1.32 -1 2 C-2.45792884 2.05399736 -3.91642712 2.09279177 -5.375 2.125 C-6.18710937 2.14820313 -6.99921875 2.17140625 -7.8359375 2.1953125 C-10 2 -10 2 -12 0 C-12 -0.66 -12 -1.32 -12 -2 C-7.39077523 -3.53640826 -4.37219003 -1.82174585 0 0 Z " fill="#E7DB8F" transform="translate(53,40)"/>
<path d="M0 0 C1.9375 0.6875 1.9375 0.6875 4 2 C4.75 4.625 4.75 4.625 5 7 C3.39667209 7.08121924 1.79215974 7.13929134 0.1875 7.1875 C-0.70582031 7.22230469 -1.59914063 7.25710937 -2.51953125 7.29296875 C-5.41647515 6.95081002 -6.22555028 6.24606427 -8 4 C-7.34 3.67 -6.68 3.34 -6 3 C-3.96855359 3.93446535 -1.96466413 4.93224776 0 6 C0 4.02 0 2.04 0 0 Z " fill="#574107" transform="translate(18,46)"/>
<path d="M0 0 C4.75 0.875 4.75 0.875 7 2 C7 2.66 7 3.32 7 4 C5.68 3.67 4.36 3.34 3 3 C3 3.66 3 4.32 3 5 C3.804375 5.268125 4.60875 5.53625 5.4375 5.8125 C6.283125 6.204375 7.12875 6.59625 8 7 C8.33 7.99 8.66 8.98 9 10 C5.17647894 8.4422692 2.70794407 6.08404742 0 3 C0 2.01 0 1.02 0 0 Z " fill="#674E10" transform="translate(8,40)"/>
<path d="M0 0 C2 3 2 3 2 5 C2.66 5 3.32 5 4 5 C4.309375 6.093125 4.61875 7.18625 4.9375 8.3125 C5.58337897 10.55407994 6.2623117 12.7869351 7 15 C6.01 15 5.02 15 4 15 C-0.59225513 5.77448747 -0.59225513 5.77448747 0 0 Z " fill="#A49150" transform="translate(1,34)"/>
<path d="M0 0 C1.47033252 2.94066505 1 5.74474326 1 9 C1.33 9.99 1.66 10.98 2 12 C-1 11 -1 11 -2.1875 8.9375 C-2.455625 8.298125 -2.72375 7.65875 -3 7 C-4.98 7 -6.96 7 -9 7 C-9 6.34 -9 5.68 -9 5 C-5.98968256 4.06576355 -5.13349732 3.95550089 -2 5 C-1.855625 4.360625 -1.71125 3.72125 -1.5625 3.0625 C-1 1 -1 1 0 0 Z " fill="#824117" transform="translate(22,17)"/>
<path d="M0 0 C0.33 0.66 0.66 1.32 1 2 C1.66 2.33 2.32 2.66 3 3 C2.34 3 1.68 3 1 3 C1 3.66 1 4.32 1 5 C0.34 5 -0.32 5 -1 5 C-1.33 5.99 -1.66 6.98 -2 8 C-3.98 6.35 -5.96 4.7 -8 3 C-7.01 2.34 -6.02 1.68 -5 1 C-5 1.66 -5 2.32 -5 3 C-3.35 2.01 -1.7 1.02 0 0 Z " fill="#BCA859" transform="translate(45,18)"/>
<path d="M0 0 C1.98 0.99 1.98 0.99 4 2 C4 2.99 4 3.98 4 5 C6.31 5.66 8.62 6.32 11 7 C11 7.33 11 7.66 11 8 C8.03 8 5.06 8 2 8 C2.33 6.68 2.66 5.36 3 4 C2.01 3.67 1.02 3.34 0 3 C0 2.01 0 1.02 0 0 Z " fill="#150E04" transform="translate(4,48)"/>
<path d="M0 0 C1.32 0.66 2.64 1.32 4 2 C3.34 2 2.68 2 2 2 C2 3.98 2 5.96 2 8 C-1 8 -1 8 -2.6875 6.625 C-4 5 -4 5 -4 3 C-2.68 2.67 -1.36 2.34 0 2 C0 1.34 0 0.68 0 0 Z " fill="#EADA88" transform="translate(41,4)"/>
<path d="M0 0 C0 0.66 0 1.32 0 2 C-0.54269531 2.25394531 -1.08539063 2.50789062 -1.64453125 2.76953125 C-2.71767578 3.28580078 -2.71767578 3.28580078 -3.8125 3.8125 C-4.52019531 4.14894531 -5.22789063 4.48539063 -5.95703125 4.83203125 C-8.05757461 5.91413325 -8.05757461 5.91413325 -9.63671875 7.63671875 C-10.08660156 8.08660156 -10.53648438 8.53648438 -11 9 C-11.66 9 -12.32 9 -13 9 C-12.67 8.01 -12.34 7.02 -12 6 C-11.34 6 -10.68 6 -10 6 C-10 5.34 -10 4.68 -10 4 C-6.32547562 1.1605948 -4.73113419 0 0 0 Z " fill="#685413" transform="translate(54,12)"/>
<path d="M0 0 C0.66 0.33 1.32 0.66 2 1 C2 1.66 2 2.32 2 3 C0.35443434 4.03435556 -1.3170608 5.02763513 -3 6 C-4.68477344 7.31037934 -6.35648543 8.63823078 -8 10 C-8.66 9.67 -9.32 9.34 -10 9 C-9.34 8.01 -8.68 7.02 -8 6 C-7.34 6 -6.68 6 -6 6 C-6 5.34 -6 4.68 -6 4 C-4.02 3.34 -2.04 2.68 0 2 C0 1.34 0 0.68 0 0 Z " fill="#362702" transform="translate(24,10)"/>
<path d="M0 0 C0 0.99 0 1.98 0 3 C-4.75 5 -4.75 5 -7 5 C-7.66 3.68 -8.32 2.36 -9 1 C-7.700625 1.020625 -6.40125 1.04125 -5.0625 1.0625 C-3.70834367 1.08399454 -2.35243917 1.07148199 -1 1 C-0.67 0.67 -0.34 0.34 0 0 Z " fill="#DE807D" transform="translate(33,22)"/>
<path d="M0 0 C1.65 0 3.3 0 5 0 C5 0.99 5 1.98 5 3 C4.34 3.66 3.68 4.32 3 5 C1.68 5 0.36 5 -1 5 C-0.67 3.35 -0.34 1.7 0 0 Z " fill="#DBCA79" transform="translate(14,23)"/>
<path d="M0 0 C0 3.86695678 -1.41909971 6.5088452 -3 10 C-3.66 9.67 -4.32 9.34 -5 9 C-4.75 5.625 -4.75 5.625 -4 2 C-1.9375 0.5625 -1.9375 0.5625 0 0 Z " fill="#9D904B" transform="translate(29,43)"/>
<path d="M0 0 C0.66 0.33 1.32 0.66 2 1 C2.33 2.32 2.66 3.64 3 5 C-0.63 4.67 -4.26 4.34 -8 4 C-8 3.01 -8 2.02 -8 1 C-6.865625 1.020625 -5.73125 1.04125 -4.5625 1.0625 C-1.18424326 1.41577477 -1.18424326 1.41577477 0 0 Z " fill="#F3E5A0" transform="translate(9,30)"/>
<path d="M0 0 C-0.3125 1.875 -0.3125 1.875 -1 4 C-4 6 -4 6 -8 6 C-6.98565881 3.46414701 -6.34981128 2.21863205 -4 0.75 C-2 0 -2 0 0 0 Z " fill="#D3C570" transform="translate(12,26)"/>
<path d="M0 0 C6.0546875 -0.1953125 6.0546875 -0.1953125 8 0 C8.66 0.66 9.32 1.32 10 2 C9.01 2.66 8.02 3.32 7 4 C6.34 3.34 5.68 2.68 5 2 C3.35 2.66 1.7 3.32 0 4 C0 2.68 0 1.36 0 0 Z " fill="#FBF1A7" transform="translate(36,1)"/>
<path d="M0 0 C0.66 0.33 1.32 0.66 2 1 C2 1.66 2 2.32 2 3 C6.455 3.99 6.455 3.99 11 5 C11 5.33 11 5.66 11 6 C2.42857143 6.28571429 2.42857143 6.28571429 -1 4 C-0.67 2.68 -0.34 1.36 0 0 Z " fill="#CBBF80" transform="translate(9,49)"/>
<path d="M0 0 C1.32 0.33 2.64 0.66 4 1 C4.93423645 4.01031744 5.04449911 4.86650268 4 8 C2 6.25 2 6.25 0 4 C0 2.68 0 1.36 0 0 Z " fill="#DBCE7D" transform="translate(20,30)"/>
<path d="M0 0 C1.98 0 3.96 0 6 0 C6.33 0.99 6.66 1.98 7 3 C4.69 4.32 2.38 5.64 0 7 C0 6.34 0 5.68 0 5 C0.66 4.67 1.32 4.34 2 4 C1.34 2.68 0.68 1.36 0 0 Z " fill="#E7D885" transform="translate(46,8)"/>
<path d="M0 0 C5.19822672 1.36144033 8.09543873 3.46730171 12 7 C8.37968443 7 7.04539702 5.8569494 4 4 C1.80869466 3.30420546 1.80869466 3.30420546 0 3 C0 2.01 0 1.02 0 0 Z " fill="#493800" transform="translate(8,35)"/>
<path d="M0 0 C2 2 2 2 2 5 C1.01 5 0.02 5 -1 5 C-1 5.66 -1 6.32 -1 7 C-2.32 6.34 -3.64 5.68 -5 5 C-3.35 3.35 -1.7 1.7 0 0 Z " fill="#E4D282" transform="translate(31,31)"/>
<path d="M0 0 C2.5 1.375 2.5 1.375 5 3 C5 3.66 5 4.32 5 5 C3.68 5 2.36 5 1 5 C0.67 5.66 0.34 6.32 0 7 C-1 6 -1 6 -1.125 3.5 C-1 1 -1 1 0 0 Z " fill="#990606" transform="translate(23,18)"/>
<path d="M0 0 C0.99 0.33 1.98 0.66 3 1 C2.67 1.33 2.34 1.66 2 2 C2.99 2.33 3.98 2.66 5 3 C4.67 4.32 4.34 5.64 4 7 C3.01 6.67 2.02 6.34 1 6 C-0.1875 3.4375 -0.1875 3.4375 -1 1 C-0.67 0.67 -0.34 0.34 0 0 Z " fill="#BA4843" transform="translate(27,17)"/>
<path d="M0 0 C2.97 0.495 2.97 0.495 6 1 C6 1.99 6 2.98 6 4 C4.02 4 2.04 4 0 4 C0 2.68 0 1.36 0 0 Z " fill="#171617" transform="translate(0,52)"/>
<path d="M0 0 C0.33 0.99 0.66 1.98 1 3 C0.34 3 -0.32 3 -1 3 C-1 3.99 -1 4.98 -1 6 C-3.97 5.505 -3.97 5.505 -7 5 C-5.60683123 2.21366246 -3.84019484 2.06507306 -1 1 C-0.67 0.67 -0.34 0.34 0 0 Z " fill="#F6EA95" transform="translate(19,25)"/>
<path d="M0 0 C0 3.20395416 -0.74335022 5.09399739 -2 8 C-3.32 7.67 -4.64 7.34 -6 7 C-4.60667426 3.63279613 -3.0210714 2.0140476 0 0 Z " fill="#EBD989" transform="translate(43,13)"/>
<path d="M0 0 C1.98 0.99 1.98 0.99 4 2 C3.01 2 2.02 2 1 2 C0.67 1.34 0.34 0.68 0 0 Z M-3 3 C0 3 0 3 3 4 C2.67 4.66 2.34 5.32 2 6 C1.01 6 0.02 6 -1 6 C-1.33 6.66 -1.66 7.32 -2 8 C-2.33 6.35 -2.66 4.7 -3 3 Z " fill="#402D0F" transform="translate(19,8)"/>
<path d="M0 0 C1.65 0 3.3 0 5 0 C4.60196439 2.88575819 4.20990931 3.82189513 1.9375 5.75 C1.298125 6.1625 0.65875 6.575 0 7 C0 4.69 0 2.38 0 0 Z " fill="#5B4823" transform="translate(0,0)"/>
<path d="M0 0 C0.99 0.33 1.98 0.66 3 1 C2.34 2.32 1.68 3.64 1 5 C0.01 5 -0.98 5 -2 5 C-2 3.68 -2 2.36 -2 1 C-1.34 0.67 -0.68 0.34 0 0 Z " fill="#FCEEA5" transform="translate(20,36)"/>
<path d="M0 0 C4.55384615 -0.36923077 4.55384615 -0.36923077 6.8125 1.5 C7.204375 1.995 7.59625 2.49 8 3 C5.6875 3.625 5.6875 3.625 3 4 C2.01 3.34 1.02 2.68 0 2 C0 1.34 0 0.68 0 0 Z " fill="#AD9854" transform="translate(11,43)"/>
<path d="M0 0 C2.875 0.25 2.875 0.25 6 1 C6.66 2.32 7.32 3.64 8 5 C5.03 4.01 2.06 3.02 -1 2 C-0.67 1.34 -0.34 0.68 0 0 Z " fill="#E3D191" transform="translate(8,38)"/>
<path d="M0 0 C0.66 0 1.32 0 2 0 C2.33 1.65 2.66 3.3 3 5 C1.68 5.33 0.36 5.66 -1 6 C-1.33 5.01 -1.66 4.02 -2 3 C-1.34 2.34 -0.68 1.68 0 1 C0 0.67 0 0.34 0 0 Z " fill="#F8ED99" transform="translate(42,32)"/>
<path d="M0 0 C0.99 0.33 1.98 0.66 3 1 C2 4 2 4 -0.375 5.75 C-3 7 -3 7 -6 6 C-5.195625 5.38125 -4.39125 4.7625 -3.5625 4.125 C-0.96125481 2.25835959 -0.96125481 2.25835959 0 0 Z " fill="#3A2803" transform="translate(8,23)"/>
<path d="M0 0 C-2.97 1.32 -5.94 2.64 -9 4 C-9 3.01 -9 2.02 -9 1 C-5.19495213 -0.79682816 -4.29399165 -1.07349791 0 0 Z " fill="#CA7E5C" transform="translate(32,14)"/>
<path d="M0 0 C1.32 0.33 2.64 0.66 4 1 C4 1.66 4 2.32 4 3 C4.99 2.67 5.98 2.34 7 2 C7.33 2.66 7.66 3.32 8 4 C6.02 4.33 4.04 4.66 2 5 C1.34 3.35 0.68 1.7 0 0 Z " fill="#770C02" transform="translate(22,24)"/>
<path d="M0 0 C0.88492145 2.47778006 1.11637742 3.66056586 0.25 6.1875 C-1 8 -1 8 -4 9 C-2.80100302 5.9168649 -1.52299523 2.93720508 0 0 Z " fill="#8D7835" transform="translate(30,4)"/>
<path d="M0 0 C1.98 0.99 3.96 1.98 6 3 C5.34 4.32 4.68 5.64 4 7 C3.67 6.01 3.34 5.02 3 4 C2.01 3.67 1.02 3.34 0 3 C0 2.01 0 1.02 0 0 Z " fill="#D4C17C" transform="translate(16,41)"/>
<path d="M0 0 C2.64 0.33 5.28 0.66 8 1 C5.08235 2.9451 3.37462715 3.45276317 0 4 C0 2.68 0 1.36 0 0 Z " fill="#30230A" transform="translate(42,41)"/>
<path d="M0 0 C1.65 0 3.3 0 5 0 C5 0.66 5 1.32 5 2 C2.64561267 3.42944945 1.51967567 4.08661261 -1.25 3.625 C-1.8275 3.41875 -2.405 3.2125 -3 3 C-2.01 3 -1.02 3 0 3 C0 2.01 0 1.02 0 0 Z " fill="#CCC07D" transform="translate(50,30)"/>
<path d="M0 0 C0.33 0.66 0.66 1.32 1 2 C-0.65 2.33 -2.3 2.66 -4 3 C-4.33 3.99 -4.66 4.98 -5 6 C-5.99 5.67 -6.98 5.34 -8 5 C-5.47211993 2.20127563 -3.79588866 0.54226981 0 0 Z " fill="#D3B985" transform="translate(27,12)"/>
<path d="M0 0 C0.66 0 1.32 0 2 0 C2 2.31 2 4.62 2 7 C0.68 6.01 -0.64 5.02 -2 4 C-1.34 2.68 -0.68 1.36 0 0 Z " fill="#443303" transform="translate(54,9)"/>
</svg>
