<?xml version="1.0" encoding="UTF-8"?>
<svg version="1.1" xmlns="http://www.w3.org/2000/svg" width="56" height="56">
<path d="M0 0 C18.48 0 36.96 0 56 0 C56 18.48 56 36.96 56 56 C37.52 56 19.04 56 0 56 C0 37.52 0 19.04 0 0 Z " fill="#352315" transform="translate(0,0)"/>
<path d="M0 0 C6.93 0 13.86 0 21 0 C21 6.27 21 12.54 21 19 C17.04 18.67 13.08 18.34 9 18 C8.505 19.485 8.505 19.485 8 21 C7.01 21 6.02 21 5 21 C5 23.64 5 26.28 5 29 C4.01 29 3.02 29 2 29 C2 28.34 2 27.68 2 27 C1.34 27 0.68 27 0 27 C0.33 28.32 0.66 29.64 1 31 C1.66 30.67 2.32 30.34 3 30 C3.71167986 35.07071901 4.10662326 39.88208358 4 45 C3.67 45 3.34 45 3 45 C3 43.35 3 41.7 3 40 C2.34 40 1.68 40 1 40 C1 41.98 1 43.96 1 46 C0.34 45.67 -0.32 45.34 -1 45 C-1.33 45.99 -1.66 46.98 -2 48 C-0.02 47.505 -0.02 47.505 2 47 C1.67 47.99 1.34 48.98 1 50 C-0.98 50 -2.96 50 -5 50 C-5 49.01 -5 48.02 -5 47 C-5.66 47.99 -6.32 48.98 -7 50 C-7.495 49.505 -7.495 49.505 -8 49 C-8 49.33 -8 49.66 -8 50 C-9.65 50 -11.3 50 -13 50 C-12.67 49.34 -12.34 48.68 -12 48 C-12.33 47.34 -12.66 46.68 -13 46 C-13.66 46.66 -14.32 47.32 -15 48 C-17.18994248 44.71508627 -17.35277339 43.16904361 -17.625 39.3125 C-17.69976562 38.31863281 -17.77453125 37.32476562 -17.8515625 36.30078125 C-17.92503906 35.16189453 -17.92503906 35.16189453 -18 34 C-17.34 34.99 -16.68 35.98 -16 37 C-16 35.35 -16 33.7 -16 32 C-14.125 32.125 -14.125 32.125 -12 33 C-10.75 36.0625 -10.75 36.0625 -10 39 C-10 37.02 -10 35.04 -10 33 C-7.48916886 34.25541557 -7.12874554 35.50063488 -6 38 C-6.66 36.02 -7.32 34.04 -8 32 C-9.11375 31.9175 -10.2275 31.835 -11.375 31.75 C-15 31 -15 31 -16.4375 28.9375 C-16.623125 28.298125 -16.80875 27.65875 -17 27 C-17.33 27.99 -17.66 28.98 -18 30 C-18.763125 29.690625 -19.52625 29.38125 -20.3125 29.0625 C-22.18789677 28.32106407 -24.08684652 27.63771783 -26 27 C-26.33 25.35 -26.66 23.7 -27 22 C-23.7 21.67 -20.4 21.34 -17 21 C-17 20.34 -17 19.68 -17 19 C-17.66 19 -18.32 19 -19 19 C-19 18.34 -19 17.68 -19 17 C-19.78375 16.896875 -20.5675 16.79375 -21.375 16.6875 C-24 16 -24 16 -26 13 C-26 12.01 -26 11.02 -26 10 C-23.3125 8.8125 -23.3125 8.8125 -20 8 C-17.125 9.375 -17.125 9.375 -15 11 C-14.731875 10.360625 -14.46375 9.72125 -14.1875 9.0625 C-13 7 -13 7 -10 6 C-9.67 5.34 -9.34 4.68 -9 4 C-5.7 4.33 -2.4 4.66 1 5 C0.67 3.35 0.34 1.7 0 0 Z " fill="#132112" transform="translate(35,0)"/>
<path d="M0 0 C11.55 0 23.1 0 35 0 C35.66 1.65 36.32 3.3 37 5 C33.66777687 6.11074104 31.37925818 5.88927847 28 5 C27.34 4.67 26.68 4.34 26 4 C25.34 5.32 24.68 6.64 24 8 C23.34 8 22.68 8 22 8 C21.34 9.32 20.68 10.64 20 12 C19.29875 11.484375 18.5975 10.96875 17.875 10.4375 C14.39112465 8.69556233 12.7016431 9.05306805 9 10 C9.66 11.98 10.32 13.96 11 16 C12.65 16.33 14.3 16.66 16 17 C16 17.66 16 18.32 16 19 C16.66 19 17.32 19 18 19 C18 19.66 18 20.32 18 21 C15.03 21.66 12.06 22.32 9 23 C9.433125 24.010625 9.86625 25.02125 10.3125 26.0625 C10.58191406 26.70058594 10.85132813 27.33867187 11.12890625 27.99609375 C11.69237833 29.29233221 12.28208845 30.57760968 12.90234375 31.84765625 C14.82536866 35.87980526 14.90067412 37.7505107 14 42 C13.93298494 44.43666765 13.91471979 46.87501742 13.9375 49.3125 C13.958125 51.519375 13.97875 53.72625 14 56 C9.38 56 4.76 56 0 56 C0 37.52 0 19.04 0 0 Z " fill="#253524" transform="translate(0,0)"/>
<path d="M0 0 C5.61 0 11.22 0 17 0 C17 6.27 17 12.54 17 19 C13.04 18.67 9.08 18.34 5 18 C4.67 18.99 4.34 19.98 4 21 C3.01 21 2.02 21 1 21 C1 23.64 1 26.28 1 29 C0.01 28.67 -0.98 28.34 -2 28 C-1.90460937 27.30132813 -1.80921875 26.60265625 -1.7109375 25.8828125 C-1.60007813 24.97273438 -1.48921875 24.06265625 -1.375 23.125 C-1.25898437 22.22007813 -1.14296875 21.31515625 -1.0234375 20.3828125 C-1.01570313 19.59648437 -1.00796875 18.81015625 -1 18 C-1.66 17.34 -2.32 16.68 -3 16 C-2.34 16 -1.68 16 -1 16 C-0.67 10.72 -0.34 5.44 0 0 Z " fill="#080501" transform="translate(39,0)"/>
<path d="M0 0 C11.55 0 23.1 0 35 0 C35.66 1.65 36.32 3.3 37 5 C33.66777687 6.11074104 31.37925818 5.88927847 28 5 C27.34 4.67 26.68 4.34 26 4 C25.34 5.32 24.68 6.64 24 8 C23.34 8 22.68 8 22 8 C21.34 9.32 20.68 10.64 20 12 C19.29875 11.484375 18.5975 10.96875 17.875 10.4375 C14.39112465 8.69556233 12.7016431 9.05306805 9 10 C9.66 11.98 10.32 13.96 11 16 C12.65 16.33 14.3 16.66 16 17 C16 17.66 16 18.32 16 19 C16.66 19 17.32 19 18 19 C18 19.66 18 20.32 18 21 C14.125 20.125 14.125 20.125 13 19 C11.68 19.33 10.36 19.66 9 20 C8.34 16.37 7.68 12.74 7 9 C6.01 9 5.02 9 4 9 C3.34 9.66 2.68 10.32 2 11 C1.34 10.67 0.68 10.34 0 10 C0 6.7 0 3.4 0 0 Z " fill="#52883A" transform="translate(0,0)"/>
<path d="M0 0 C3.465 1.98 3.465 1.98 7 4 C7.33 2.68 7.66 1.36 8 0 C8.556875 0.9590625 8.556875 0.9590625 9.125 1.9375 C11.59052393 4.64957633 13.44582792 4.5462759 17 5 C19.76223278 7.76223278 19.57856291 10.20706617 20 14 C18.66666667 12.66666667 17.33333333 11.33333333 16 10 C15.67 11.32 15.34 12.64 15 14 C13.5393715 11.35261084 13 10.10551666 13 7 C12.01 7 11.02 7 10 7 C10 9.31 10 11.62 10 14 C9.34 13.34 8.68 12.68 8 12 C8.66 14.97 9.32 17.94 10 21 C10.66 20.34 11.32 19.68 12 19 C12.66 20.32 13.32 21.64 14 23 C15.15811388 21.94729537 15.15811388 21.94729537 16 20 C16.66 20.66 17.32 21.32 18 22 C18.66 21.01 19.32 20.02 20 19 C20.103125 19.639375 20.20625 20.27875 20.3125 20.9375 C20.539375 21.618125 20.76625 22.29875 21 23 C21.99 23.33 22.98 23.66 24 24 C24 24.66 24 25.32 24 26 C22.02 26.66 20.04 27.32 18 28 C19.65 28 21.3 28 23 28 C23 28.66 23 29.32 23 30 C16.73 30 10.46 30 4 30 C2.14285714 18.85714286 2.14285714 18.85714286 3.75 13.5 C4.10210109 9.97898912 2.63763672 7.87710262 0.91015625 4.8671875 C0 3 0 3 0 0 Z " fill="#87A97F" transform="translate(10,26)"/>
<path d="M0 0 C2.02558881 3.34939881 2.21738987 5.86962551 2.125 9.75 C2.10695313 10.73484375 2.08890625 11.7196875 2.0703125 12.734375 C2.04710938 13.48203125 2.02390625 14.2296875 2 15 C1.67 15 1.34 15 1 15 C1 13.35 1 11.7 1 10 C0.34 10 -0.32 10 -1 10 C-1 11.98 -1 13.96 -1 16 C-1.66 15.67 -2.32 15.34 -3 15 C-3.33 15.99 -3.66 16.98 -4 18 C-2.68 17.67 -1.36 17.34 0 17 C-0.33 17.99 -0.66 18.98 -1 20 C-2.98 20 -4.96 20 -7 20 C-7 19.01 -7 18.02 -7 17 C-7.66 17.99 -8.32 18.98 -9 20 C-9.33 19.67 -9.66 19.34 -10 19 C-10 19.33 -10 19.66 -10 20 C-11.65 20 -13.3 20 -15 20 C-14.67 19.34 -14.34 18.68 -14 18 C-14.33 17.34 -14.66 16.68 -15 16 C-15.66 16.66 -16.32 17.32 -17 18 C-19.18994248 14.71508627 -19.35277339 13.16904361 -19.625 9.3125 C-19.69976563 8.31863281 -19.77453125 7.32476562 -19.8515625 6.30078125 C-19.90054687 5.54152344 -19.94953125 4.78226563 -20 4 C-19.01 5.485 -19.01 5.485 -18 7 C-18 5.35 -18 3.7 -18 2 C-16.125 2.125 -16.125 2.125 -14 3 C-12.75 6.0625 -12.75 6.0625 -12 9 C-12 7.02 -12 5.04 -12 3 C-9.48916886 4.25541557 -9.12874554 5.50063488 -8 8 C-7.67 6.35 -7.34 4.7 -7 3 C-6.34 3.66 -5.68 4.32 -5 5 C-4.34 4.01 -3.68 3.02 -3 2 C-2.34 2 -1.68 2 -1 2 C-0.67 1.34 -0.34 0.68 0 0 Z " fill="#15110B" transform="translate(37,30)"/>
<path d="M0 0 C0.66 0 1.32 0 2 0 C2.185625 0.598125 2.37125 1.19625 2.5625 1.8125 C4.29608451 4.88890671 4.29608451 4.88890671 11 7 C11 12.28 11 17.56 11 23 C5.72 23 0.44 23 -5 23 C-4.34 22.154375 -3.68 21.30875 -3 20.4375 C-0.01708372 15.38224189 -0.75231852 9.78730997 -0.95703125 4.1328125 C-0.97121094 3.09898438 -0.98539063 2.06515625 -1 1 C-0.67 0.67 -0.34 0.34 0 0 Z " fill="#A42026" transform="translate(45,33)"/>
<path d="M0 0 C4.13354822 0.48224729 7.95541924 0.98885481 12 2 C12 6.95 12 11.9 12 17 C10.659375 16.690625 9.31875 16.38125 7.9375 16.0625 C3.96813527 15.1769297 0.03290387 14.51483879 -4 14 C-4.74926071 10.33694766 -5.2380014 7.57644848 -4 4 C-3.01 4 -2.02 4 -1 4 C-0.67 2.68 -0.34 1.36 0 0 Z " fill="#4A4E3E" transform="translate(44,17)"/>
<path d="M0 0 C6.38980078 0.47561624 6.38980078 0.47561624 9.3515625 3.1171875 C10.28587522 7.10925095 8.99800359 9.01654145 7.01953125 12.48046875 C6.69597656 12.99996094 6.37242188 13.51945312 6.0390625 14.0546875 C5.3790625 14.0546875 4.7190625 14.0546875 4.0390625 14.0546875 C3.7090625 15.0446875 3.3790625 16.0346875 3.0390625 17.0546875 C-0.40538194 20.0546875 -0.40538194 20.0546875 -2.9609375 20.0546875 C-2.98982264 16.90887327 -3.00769673 13.76309281 -3.0234375 10.6171875 C-3.03181641 9.71935547 -3.04019531 8.82152344 -3.04882812 7.89648438 C-3.05205078 7.04248047 -3.05527344 6.18847656 -3.05859375 5.30859375 C-3.06644897 4.12245483 -3.06644897 4.12245483 -3.07446289 2.91235352 C-2.91566514 0.31387595 -2.60330077 0.07260201 0 0 Z " fill="#80856E" transform="translate(2.9609375,33.9453125)"/>
<path d="M0 0 C0.33 3.63 0.66 7.26 1 11 C2.65 10.34 4.3 9.68 6 9 C6.33 9.99 6.66 10.98 7 12 C4.69 12.33 2.38 12.66 0 13 C0 14.32 0 15.64 0 17 C-0.598125 17.185625 -1.19625 17.37125 -1.8125 17.5625 C-5.09981799 19.72273753 -5.64854687 22.35107655 -7 26 C-7.33 26 -7.66 26 -8 26 C-8 17.75 -8 9.5 -8 1 C-4 -1 -4 -1 0 0 Z " fill="#040A03" transform="translate(8,9)"/>
<path d="M0 0 C1 2 2 4 3 6 C3.66 5.34 4.32 4.68 5 4 C5.66 5.32 6.32 6.64 7 8 C8.15811388 6.94729537 8.15811388 6.94729537 9 5 C9.66 5.66 10.32 6.32 11 7 C11.66 6.01 12.32 5.02 13 4 C13.103125 4.639375 13.20625 5.27875 13.3125 5.9375 C13.6528125 6.9584375 13.6528125 6.9584375 14 8 C14.99 8.33 15.98 8.66 17 9 C17 9.66 17 10.32 17 11 C15.02 11.66 13.04 12.32 11 13 C12.65 13 14.3 13 16 13 C16 13.66 16 14.32 16 15 C10.72 15 5.44 15 0 15 C-2.35333796 10.29332409 -2.17102038 8.1306114 -2 3 C-1.34 3 -0.68 3 0 3 C0 2.01 0 1.02 0 0 Z " fill="#80A57D" transform="translate(17,41)"/>
<path d="M0 0 C5.94 0 11.88 0 18 0 C18.66 1.65 19.32 3.3 20 5 C16.66777687 6.11074104 14.37925818 5.88927847 11 5 C10.34 4.67 9.68 4.34 9 4 C8.34 5.32 7.68 6.64 7 8 C6.34 8 5.68 8 5 8 C4.34 8.66 3.68 9.32 3 10 C3 9.34 3 8.68 3 8 C0.03 7.505 0.03 7.505 -3 7 C-3 5.02 -3 3.04 -3 1 C-2.01 1.33 -1.02 1.66 0 2 C0 1.34 0 0.68 0 0 Z " fill="#5EAB35" transform="translate(17,0)"/>
<path d="M0 0 C1.32 0 2.64 0 4 0 C3.67 1.32 3.34 2.64 3 4 C3.66 4 4.32 4 5 4 C5.33 3.34 5.66 2.68 6 2 C6 5 6 8 6 11 C6.061875 12.485 6.061875 12.485 6.125 14 C6.00109503 16.97371927 5.53774105 18.50117079 4 21 C3.01 21 2.02 21 1 21 C1 23.64 1 26.28 1 29 C0.01 28.67 -0.98 28.34 -2 28 C-1.90460937 27.30132813 -1.80921875 26.60265625 -1.7109375 25.8828125 C-1.60007813 24.97273438 -1.48921875 24.06265625 -1.375 23.125 C-1.25898437 22.22007813 -1.14296875 21.31515625 -1.0234375 20.3828125 C-1.01570313 19.59648437 -1.00796875 18.81015625 -1 18 C-1.66 17.34 -2.32 16.68 -3 16 C-2.34 16 -1.68 16 -1 16 C-0.67 10.72 -0.34 5.44 0 0 Z " fill="#0F180F" transform="translate(39,0)"/>
<path d="M0 0 C0.99 0.33 1.98 0.66 3 1 C3 1.66 3 2.32 3 3 C3.61746094 3.10957031 4.23492187 3.21914063 4.87109375 3.33203125 C10.77712501 4.4377266 16.35197559 5.95361435 22 8 C22 9.98 22 11.96 22 14 C20.68127338 13.60348083 19.37002899 13.18201309 18.0625 12.75 C17.33160156 12.51796875 16.60070312 12.2859375 15.84765625 12.046875 C14 11 14 11 13.24609375 8.890625 C13.16488281 8.26671875 13.08367188 7.6428125 13 7 C12.54625 7.495 12.0925 7.99 11.625 8.5 C10 10 10 10 8 10 C7.67 12.97 7.34 15.94 7 19 C6.34 19 5.68 19 5 19 C4.94392578 17.86111328 4.94392578 17.86111328 4.88671875 16.69921875 C4.78810547 15.20841797 4.78810547 15.20841797 4.6875 13.6875 C4.62949219 12.70136719 4.57148437 11.71523438 4.51171875 10.69921875 C3.93998308 7.68342218 3.24331346 6.96289928 1 5 C0.3125 2.3125 0.3125 2.3125 0 0 Z " fill="#554436" transform="translate(34,26)"/>
<path d="M0 0 C1.32 0 2.64 0 4 0 C4 1.65 4 3.3 4 5 C4.99 5 5.98 5 7 5 C7 8.3 7 11.6 7 15 C2.71 15 -1.58 15 -6 15 C-5.34 14.34 -4.68 13.68 -4 13 C-3.35232207 10.42938689 -3.35232207 10.42938689 -3 8 C0 9.5 0 9.5 3 11 C2.154375 10.278125 1.30875 9.55625 0.4375 8.8125 C-2 6 -2 6 -1.875 3.25 C-1 1 -1 1 0 0 Z " fill="#430707" transform="translate(49,41)"/>
<path d="M0 0 C1.875 0.125 1.875 0.125 4 1 C4.309375 1.94875 4.61875 2.8975 4.9375 3.875 C6.23087504 7.67904424 7.55231277 8.18542778 11 10 C11 10.66 11 11.32 11 12 C9.68 12 8.36 12 7 12 C7.33 13.98 7.66 15.96 8 18 C6.35 18 4.7 18 3 18 C3.33 17.34 3.66 16.68 4 16 C3.67 15.34 3.34 14.68 3 14 C2.34 14.66 1.68 15.32 1 16 C-1.18994248 12.71508627 -1.35277339 11.16904361 -1.625 7.3125 C-1.69976563 6.31863281 -1.77453125 5.32476562 -1.8515625 4.30078125 C-1.90054687 3.54152344 -1.94953125 2.78226563 -2 2 C-1.01 3.485 -1.01 3.485 0 5 C0 3.35 0 1.7 0 0 Z " fill="#263320" transform="translate(19,32)"/>
<path d="M0 0 C0 0.66 0 1.32 0 2 C2.31 1.34 4.62 0.68 7 0 C6.67 0.99 6.34 1.98 6 3 C7.65 3.33 9.3 3.66 11 4 C11 4.66 11 5.32 11 6 C11.66 6 12.32 6 13 6 C12.34 7.32 11.68 8.64 11 10 C7.625 9.75 7.625 9.75 4 9 C2.5625 6.9375 2.5625 6.9375 2 5 C1.67 5.99 1.34 6.98 1 8 C0.236875 7.690625 -0.52625 7.38125 -1.3125 7.0625 C-3.18789677 6.32106407 -5.08684652 5.63771783 -7 5 C-7.33 3.35 -7.66 1.7 -8 0 C-4.94736336 -0.98120464 -3.05263664 -0.98120464 0 0 Z " fill="#375538" transform="translate(16,22)"/>
<path d="M0 0 C1.41750563 0.11509661 2.83401169 0.24253658 4.25 0.375 C5.03890625 0.44460937 5.8278125 0.51421875 6.640625 0.5859375 C9.085877 1.01507113 10.84836903 1.78600638 13 3 C13 5.31 13 7.62 13 10 C7.88634986 8.9318153 2.92772031 7.76892524 -2 6 C-1.34 4.02 -0.68 2.04 0 0 Z " fill="#B2B58D" transform="translate(43,24)"/>
<path d="M0 0 C1.32 0 2.64 0 4 0 C4 3.63 4 7.26 4 11 C2.35 10.67 0.7 10.34 -1 10 C-1 12.97 -1 15.94 -1 19 C-3.64 19 -6.28 19 -9 19 C-7.87952194 15.63856582 -6.50292817 14.42471166 -4 12 C-3.67 11.34 -3.34 10.68 -3 10 C-3.99 9.34 -4.98 8.68 -6 8 C-5.67 7.01 -5.34 6.02 -5 5 C-3.02 5 -1.04 5 1 5 C0.67 3.35 0.34 1.7 0 0 Z " fill="#406F30" transform="translate(35,0)"/>
<path d="M0 0 C2.875 1.375 2.875 1.375 4.25 3.0625 C5.09970496 6.20640837 4.99955824 9.13648579 4.875 12.375 C2.4 11.385 2.4 11.385 -0.125 10.375 C-0.125 9.715 -0.125 9.055 -0.125 8.375 C-1.300625 8.2203125 -1.300625 8.2203125 -2.5 8.0625 C-5.125 7.375 -5.125 7.375 -7.125 4.375 C-7.125 3.385 -7.125 2.395 -7.125 1.375 C-4.37270497 -0.53043502 -3.35673492 -0.67134698 0 0 Z " fill="#336030" transform="translate(16.125,8.625)"/>
<path d="M0 0 C3.3 0 6.6 0 10 0 C8.125 5.75 8.125 5.75 7 8 C6.01 8.33 5.02 8.66 4 9 C3.34 9.66 2.68 10.32 2 11 C1.34 10.67 0.68 10.34 0 10 C0 6.7 0 3.4 0 0 Z " fill="#3D8022" transform="translate(0,0)"/>
<path d="M0 0 C0.556875 0.9590625 0.556875 0.9590625 1.125 1.9375 C3.59052393 4.64957633 5.44582792 4.5462759 9 5 C11.76223278 7.76223278 11.57856291 10.20706617 12 14 C10.66666667 12.66666667 9.33333333 11.33333333 8 10 C7.67 11.32 7.34 12.64 7 14 C5.5393715 11.35261084 5 10.10551666 5 7 C4.01 7 3.02 7 2 7 C2 9.31 2 11.62 2 14 C0 11 0 11 0 8 C-0.66 8 -1.32 8 -2 8 C-1.125 1.125 -1.125 1.125 0 0 Z " fill="#88A780" transform="translate(18,26)"/>
<path d="M0 0 C0.99 0.33 1.98 0.66 3 1 C3.33 1.99 3.66 2.98 4 4 C4.99 4.66 5.98 5.32 7 6 C3.55384615 11.78461538 3.55384615 11.78461538 0.75 12.875 C0.1725 12.91625 -0.405 12.9575 -1 13 C-1 11.02 -1 9.04 -1 7 C-1.33 7.33 -1.66 7.66 -2 8 C-2.33 7.34 -2.66 6.68 -3 6 C-3.66 6 -4.32 6 -5 6 C-4.67 5.01 -4.34 4.02 -4 3 C-3.01 2.67 -2.02 2.34 -1 2 C-0.67 1.34 -0.34 0.68 0 0 Z " fill="#102E06" transform="translate(26,4)"/>
<path d="M0 0 C0.66 0 1.32 0 2 0 C2 3.66666667 2 7.33333333 2 11 C2.66 11 3.32 11 4 11 C4 12.65 4 14.3 4 16 C-5.62264151 16.18867925 -5.62264151 16.18867925 -10 14 C-7.09399739 12.74335022 -5.20395416 12 -2 12 C-2 11.34 -2 10.68 -2 10 C-0.5 8.375 -0.5 8.375 1 7 C-0.32 7.33 -1.64 7.66 -3 8 C-2.67 6.68 -2.34 5.36 -2 4 C-1.67 4.33 -1.34 4.66 -1 5 C-0.67 3.35 -0.34 1.7 0 0 Z " fill="#23301E" transform="translate(36,40)"/>
<path d="M0 0 C2.37403517 3.63087732 1.71964651 5.86203255 1 10 C1.66 10.66 2.32 11.32 3 12 C3.66 11.67 4.32 11.34 5 11 C7.44190521 11.38556398 9.79434368 11.94711695 12.1875 12.5625 C14.01326836 13.07821351 14.01326836 13.07821351 16 13 C16 13.66 16 14.32 16 15 C10.72 15 5.44 15 0 15 C-2.35333796 10.29332409 -2.17102038 8.1306114 -2 3 C-1.34 3 -0.68 3 0 3 C0 2.01 0 1.02 0 0 Z " fill="#4F774F" transform="translate(17,41)"/>
<path d="M0 0 C0.33 3.63 0.66 7.26 1 11 C2.65 10.34 4.3 9.68 6 9 C6.33 9.99 6.66 10.98 7 12 C4.69 12.33 2.38 12.66 0 13 C0 14.32 0 15.64 0 17 C-0.99 17.33 -1.98 17.66 -3 18 C-3.33 16.68 -3.66 15.36 -4 14 C-3.34 14 -2.68 14 -2 14 C-1.97291433 12.39592672 -1.95356517 10.7917215 -1.9375 9.1875 C-1.92589844 8.29417969 -1.91429687 7.40085937 -1.90234375 6.48046875 C-1.88990033 3.86586209 -1.88990033 3.86586209 -3 1 C-3.33 1.66 -3.66 2.32 -4 3 C-4.66 3 -5.32 3 -6 3 C-6.33 3.66 -6.66 4.32 -7 5 C-7.33 3.68 -7.66 2.36 -8 1 C-4.59449725 -1.06762667 -4.18836538 -1.04709135 0 0 Z " fill="#142B0E" transform="translate(8,9)"/>
<path d="M0 0 C1.98 0 3.96 0 6 0 C6 1.98 6 3.96 6 6 C5.34 6 4.68 6 4 6 C3.67 7.32 3.34 8.64 3 10 C3 9.34 3 8.68 3 8 C0.03 7.505 0.03 7.505 -3 7 C-3 5.02 -3 3.04 -3 1 C-2.01 1.33 -1.02 1.66 0 2 C0 1.34 0 0.68 0 0 Z " fill="#B0EA63" transform="translate(17,0)"/>
<path d="M0 0 C1.32 0 2.64 0 4 0 C2.125 5.75 2.125 5.75 1 8 C0.34 8 -0.32 8 -1 8 C-1.33 8.99 -1.66 9.98 -2 11 C-5.44444444 14 -5.44444444 14 -8 14 C-8 12.35 -8 10.7 -8 9 C-7.360625 8.896875 -6.72125 8.79375 -6.0625 8.6875 C-5.0415625 8.3471875 -5.0415625 8.3471875 -4 8 C-3.67 7.01 -3.34 6.02 -3 5 C-2.01268258 3.65724831 -1.01405257 2.32267727 0 1 C0 0.67 0 0.34 0 0 Z " fill="#B8B79A" transform="translate(8,40)"/>
<path d="M0 0 C0.9075 0.639375 1.815 1.27875 2.75 1.9375 C0.22946405 3.19776798 -1.1042098 2.85624445 -3.875 2.5 C-5.10089844 2.34724609 -5.10089844 2.34724609 -6.3515625 2.19140625 C-7.29128906 2.06572266 -7.29128906 2.06572266 -8.25 1.9375 C-8.25 3.2575 -8.25 4.5775 -8.25 5.9375 C-8.91 5.9375 -9.57 5.9375 -10.25 5.9375 C-10.58 6.5975 -10.91 7.2575 -11.25 7.9375 C-11.99926071 4.27444766 -12.4880014 1.51394848 -11.25 -2.0625 C-6.44849572 -3.60584066 -4.23535173 -2.68781936 0 0 Z " fill="#555E49" transform="translate(51.25,23.0625)"/>
<path d="M0 0 C2.02558881 3.34939881 2.21738987 5.86962551 2.125 9.75 C2.10695313 10.73484375 2.08890625 11.7196875 2.0703125 12.734375 C2.03550781 13.85585938 2.03550781 13.85585938 2 15 C1.67 15 1.34 15 1 15 C1 13.35 1 11.7 1 10 C0.34 10 -0.32 10 -1 10 C-1 11.98 -1 13.96 -1 16 C-1.66 15.67 -2.32 15.34 -3 15 C-2.979375 14.154375 -2.95875 13.30875 -2.9375 12.4375 C-3.00216232 8.88107223 -3.4385496 5.50906497 -4 2 C-3.01 2 -2.02 2 -1 2 C-0.67 1.34 -0.34 0.68 0 0 Z " fill="#0B0C06" transform="translate(37,30)"/>
<path d="M0 0 C0 3.63 0 7.26 0 11 C-2.31 10.67 -4.62 10.34 -7 10 C-4.27272727 0 -4.27272727 0 0 0 Z " fill="#070301" transform="translate(56,8)"/>
<path d="M0 0 C0.33 0 0.66 0 1 0 C1.3125 2.75 1.3125 2.75 1 6 C-1.4375 8.25 -1.4375 8.25 -4 10 C-4.33 10.66 -4.66 11.32 -5 12 C-6.98 12 -8.96 12 -11 12 C-11 11.34 -11 10.68 -11 10 C-9.01310269 8.64721885 -7.01254782 7.31431695 -5 6 C-4.67 5.34 -4.34 4.68 -4 4 C-3.34 4 -2.68 4 -2 4 C-1.34 2.68 -0.68 1.36 0 0 Z " fill="#282210" transform="translate(11,44)"/>
<path d="M0 0 C4.29 0 8.58 0 13 0 C10.76056718 3.35914922 9.73157917 3.81681636 6 5 C5.01 5 4.02 5 3 5 C2.67 5.66 2.34 6.32 2 7 C1.67 6.01 1.34 5.02 1 4 C0.34 4 -0.32 4 -1 4 C-0.67 2.68 -0.34 1.36 0 0 Z " fill="#140F08" transform="translate(43,0)"/>
<path d="M0 0 C2.95409701 1.37154504 5.44008376 2.98863724 8 5 C8 4.34 8 3.68 8 3 C8.66 3 9.32 3 10 3 C10 4.32 10 5.64 10 7 C5.71 7 1.42 7 -3 7 C-2.34 6.34 -1.68 5.68 -1 5 C-0.35232207 2.42938689 -0.35232207 2.42938689 0 0 Z " fill="#1D0201" transform="translate(46,49)"/>
<path d="M0 0 C7.75 0.75 7.75 0.75 10 3 C10 3.99 10 4.98 10 6 C5.53160785 6.21278058 2.17737474 5.59138085 -2 4 C-1.34 3.67 -0.68 3.34 0 3 C0 2.01 0 1.02 0 0 Z " fill="#CACCA2" transform="translate(43,26)"/>
<path d="M0 0 C0.66 0.66 1.32 1.32 2 2 C4.31648799 3.03842565 6.64903024 4.0421975 9 5 C9 6.98 9 8.96 9 11 C8.01 11 7.02 11 6 11 C6 9.35 6 7.7 6 6 C4.35 6.33 2.7 6.66 1 7 C-1 4 -1 4 -0.625 1.8125 C-0.41875 1.214375 -0.2125 0.61625 0 0 Z " fill="#8C1A1A" transform="translate(47,35)"/>
<path d="M0 0 C1.4540625 0.0309375 1.4540625 0.0309375 2.9375 0.0625 C1.1875 3.9375 1.1875 3.9375 -1.0625 5.0625 C-1.52773063 6.95783342 -1.52773063 6.95783342 -1.6875 9.125 C-1.81125 10.424375 -1.935 11.72375 -2.0625 13.0625 C-2.7225 13.0625 -3.3825 13.0625 -4.0625 13.0625 C-4.08936553 11.08340602 -4.10883375 9.10421029 -4.125 7.125 C-4.13660156 6.02285156 -4.14820313 4.92070313 -4.16015625 3.78515625 C-4.02168594 -0.07539595 -3.9087853 0.07977113 0 0 Z " fill="#575B4F" transform="translate(4.0625,33.9375)"/>
<path d="M0 0 C1.32 0 2.64 0 4 0 C4 3.63 4 7.26 4 11 C3.01 10.67 2.02 10.34 1 10 C0.67 9.34 0.34 8.68 0 8 C-1.98 8 -3.96 8 -6 8 C-5.67 7.01 -5.34 6.02 -5 5 C-3.02 5 -1.04 5 1 5 C0.67 3.35 0.34 1.7 0 0 Z " fill="#509337" transform="translate(35,0)"/>
<path d="M0 0 C1.32 0 2.64 0 4 0 C3.67 1.32 3.34 2.64 3 4 C3.66 4 4.32 4 5 4 C5.33 3.34 5.66 2.68 6 2 C6.3125 4.3125 6.3125 4.3125 6 7 C1.96551724 10 1.96551724 10 0 10 C0 6.7 0 3.4 0 0 Z " fill="#234714" transform="translate(39,0)"/>
<path d="M0 0 C2.475 0.99 2.475 0.99 5 2 C5 2.66 5 3.32 5 4 C3.68 4 2.36 4 1 4 C1.33 5.98 1.66 7.96 2 10 C0.35 10 -1.3 10 -3 10 C-2.67 9.34 -2.34 8.68 -2 8 C-2.89363605 5.39068734 -2.89363605 5.39068734 -4 3 C-2.68 2.67 -1.36 2.34 0 2 C0 1.34 0 0.68 0 0 Z " fill="#211E14" transform="translate(25,40)"/>
<path d="M0 0 C3.90181526 1.2654536 5.94481034 2.40341809 8 6 C9.12754498 9.66452117 8.94991368 12.30589124 8 16 C6 14 6 14 5.6875 10.6875 C4.8610302 6.25461653 3.28555026 4.94857075 0 2 C0 1.34 0 0.68 0 0 Z " fill="#4B4D48" transform="translate(25,21)"/>
<path d="M0 0 C0.268125 0.639375 0.53625 1.27875 0.8125 1.9375 C1.88667752 4.33131686 1.88667752 4.33131686 5 5 C5 5.66 5 6.32 5 7 C-2.42857143 8.28571429 -2.42857143 8.28571429 -6 7 C-6 6.34 -6 5.68 -6 5 C-5.01 4.67 -4.02 4.34 -3 4 C-3 3.01 -3 2.02 -3 1 C-2.34 1.66 -1.68 2.32 -1 3 C-0.67 2.01 -0.34 1.02 0 0 Z " fill="#71876E" transform="translate(29,45)"/>
<path d="M0 0 C0.33 1.32 0.66 2.64 1 4 C0.01 4.33 -0.98 4.66 -2 5 C-3.37334617 7.28891028 -4.15250816 9.45752447 -5 12 C-6.32 11.67 -7.64 11.34 -9 11 C-8.67 10.01 -8.34 9.02 -8 8 C-7.01 7.67 -6.02 7.34 -5 7 C-4.9175 6.21625 -4.835 5.4325 -4.75 4.625 C-4 2 -4 2 -1.9375 0.6875 C-1.298125 0.460625 -0.65875 0.23375 0 0 Z " fill="#410F0F" transform="translate(55,4)"/>
<path d="M0 0 C2.31 0 4.62 0 7 0 C7 0.66 7 1.32 7 2 C6.01 2.495 6.01 2.495 5 3 C4.34786708 5.02463255 4.34786708 5.02463255 4 7 C1.525 6.01 1.525 6.01 -1 5 C-1.66 6.32 -2.32 7.64 -3 9 C-2.44271087 5.65626525 -1.64826111 2.96687001 0 0 Z " fill="#82CB4D" transform="translate(10,0)"/>
<path d="M0 0 C2.6268258 1.19920308 4.08581662 1.90857742 6 4 C7.24724573 7.60848443 7.95146732 11.17805184 8 15 C7.34 15.66 6.68 16.32 6 17 C5.90203125 16.40832031 5.8040625 15.81664062 5.703125 15.20703125 C4.7247259 10.03669805 3.54797764 7.02104133 0 3 C0 2.01 0 1.02 0 0 Z " fill="#A4C79C" transform="translate(10,26)"/>
<path d="M0 0 C0 1.98 0 3.96 0 6 C-2.64 6 -5.28 6 -8 6 C-6.24081631 1.94034532 -4.71412298 0 0 0 Z " fill="#852624" transform="translate(14,50)"/>
<path d="M0 0 C2.375 0.625 2.375 0.625 5 2 C6.375 5 6.375 5 7 8 C6.67 8.66 6.34 9.32 6 10 C4.515 7.03 4.515 7.03 3 4 C3 5.98 3 7.96 3 10 C2.34 9.67 1.68 9.34 1 9 C0.5859375 6.93359375 0.5859375 6.93359375 0.375 4.4375 C0.30023437 3.61121094 0.22546875 2.78492188 0.1484375 1.93359375 C0.09945313 1.29550781 0.05046875 0.65742188 0 0 Z " fill="#87927A" transform="translate(23,30)"/>
<path d="M0 0 C0.66 0 1.32 0 2 0 C5.60618855 6.16926471 6.3977073 10.17852502 4.578125 17.12890625 C4.29195312 18.05509766 4.29195312 18.05509766 4 19 C3.67 19 3.34 19 3 19 C1.875 11.375 1.875 11.375 3 8 C1.12821884 4.81711646 1.12821884 4.81711646 -1 2 C-0.67 1.34 -0.34 0.68 0 0 Z " fill="#42553D" transform="translate(9,31)"/>
<path d="M0 0 C2.64 0.33 5.28 0.66 8 1 C8 2.98 8 4.96 8 7 C5.69 6.34 3.38 5.68 1 5 C0.67 3.35 0.34 1.7 0 0 Z " fill="#1F0704" transform="translate(48,33)"/>
<path d="M0 0 C3.3 0 6.6 0 10 0 C9.34 1.98 8.68 3.96 8 6 C7.34 5.67 6.68 5.34 6 5 C6 4.34 6 3.68 6 3 C4.35 3.33 2.7 3.66 1 4 C0.67 2.68 0.34 1.36 0 0 Z " fill="#5AAA33" transform="translate(0,0)"/>
<path d="M0 0 C0 0.99 0 1.98 0 3 C-0.99 3.33 -1.98 3.66 -3 4 C-4.70855022 7.00007271 -4.70855022 7.00007271 -6 10 C-6.66 9.67 -7.32 9.34 -8 9 C-8.36794764 5.68847126 -8.29809215 4.39390748 -6.25 1.6875 C-4 0 -4 0 0 0 Z " fill="#6B7160" transform="translate(10,35)"/>
<path d="M0 0 C1.65 0 3.3 0 5 0 C5 2.97 5 5.94 5 9 C4.34 9 3.68 9 3 9 C3 8.34 3 7.68 3 7 C2.01 7 1.02 7 0 7 C-1.125 2.25 -1.125 2.25 0 0 Z " fill="#061F05" transform="translate(21,10)"/>
<path d="M0 0 C0.33 0.66 0.66 1.32 1 2 C2.32 1.67 3.64 1.34 5 1 C4.67 3.97 4.34 6.94 4 10 C3.67 9.34 3.34 8.68 3 8 C1.68 8.33 0.36 8.66 -1 9 C-0.835 8.071875 -0.67 7.14375 -0.5 6.1875 C0.07748388 3.04378647 0.07748388 3.04378647 0 0 Z " fill="#19281D" transform="translate(37,43)"/>
<path d="M0 0 C1.32 0 2.64 0 4 0 C4 1.65 4 3.3 4 5 C4.99 5 5.98 5 7 5 C7 5.66 7 6.32 7 7 C5.68 7.33 4.36 7.66 3 8 C0 3.375 0 3.375 0 0 Z " fill="#220202" transform="translate(49,41)"/>
<path d="M0 0 C1.65 0.33 3.3 0.66 5 1 C4.75 3.375 4.75 3.375 4 6 C1.9375 7.3125 1.9375 7.3125 0 8 C-1.125 2.25 -1.125 2.25 0 0 Z " fill="#19301A" transform="translate(34,10)"/>
<path d="M0 0 C1.9375 0.3125 1.9375 0.3125 4 1 C5.1577506 4.47325181 5.06866652 7.36067448 5 11 C4.01 10.67 3.02 10.34 2 10 C2.04125 9.278125 2.0825 8.55625 2.125 7.8125 C1.99078695 4.79270631 1.24829381 2.73064271 0 0 Z " fill="#2A5025" transform="translate(16,10)"/>
<path d="M0 0 C0.99 0 1.98 0 3 0 C3 0.66 3 1.32 3 2 C3.66 2.33 4.32 2.66 5 3 C4.01 3 3.02 3 2 3 C1.2884375 3.99 1.2884375 3.99 0.5625 5 C0.046875 5.66 -0.46875 6.32 -1 7 C-2.32 7 -3.64 7 -5 7 C-5.33 6.01 -5.66 5.02 -6 4 C-4.35 3.67 -2.7 3.34 -1 3 C-0.67 2.01 -0.34 1.02 0 0 Z " fill="#173112" transform="translate(21,17)"/>
<path d="M0 0 C1.98 0 3.96 0 6 0 C6 0.66 6 1.32 6 2 C7.32 2 8.64 2 10 2 C10.33 3.32 10.66 4.64 11 6 C8 6 8 6 6.4375 4.5625 C5.963125 4.046875 5.48875 3.53125 5 3 C4.34 2.67 3.68 2.34 3 2 C2.67 2.99 2.34 3.98 2 5 C1.34 4.34 0.68 3.68 0 3 C0 2.01 0 1.02 0 0 Z " fill="#051007" transform="translate(22,19)"/>
<path d="M0 0 C0.66 0 1.32 0 2 0 C2 3.3 2 6.6 2 10 C0.02 10.99 0.02 10.99 -2 12 C-2 10 -2 10 -0.5 8.375 C-0.005 7.92125 0.49 7.4675 1 7 C-0.32 7.33 -1.64 7.66 -3 8 C-2.67 6.68 -2.34 5.36 -2 4 C-1.67 4.33 -1.34 4.66 -1 5 C-0.67 3.35 -0.34 1.7 0 0 Z " fill="#434A41" transform="translate(36,40)"/>
<path d="M0 0 C2.31 0.33 4.62 0.66 7 1 C7 1.66 7 2.32 7 3 C7.66 3 8.32 3 9 3 C9 3.66 9 4.32 9 5 C5.125 4.125 5.125 4.125 4 3 C1.94603274 3.40929986 1.94603274 3.40929986 0 4 C0 2.68 0 1.36 0 0 Z " fill="#7BA671" transform="translate(9,16)"/>
<path d="M0 0 C1.99954746 -0.04254356 4.00041636 -0.04080783 6 0 C7 1 7 1 7.0625 3.5625 C7.041875 4.366875 7.02125 5.17125 7 6 C4.0625 4.6875 4.0625 4.6875 1 3 C0.67 2.01 0.34 1.02 0 0 Z " fill="#4D714B" transform="translate(9,24)"/>
<path d="M0 0 C5.859375 -0.390625 5.859375 -0.390625 8 0 C9.32 1.32 10.64 2.64 12 4 C8.04 3.67 4.08 3.34 0 3 C0 2.01 0 1.02 0 0 Z " fill="#828969" transform="translate(42,22)"/>
<path d="M0 0 C1.32 0.33 2.64 0.66 4 1 C3.25 3.9375 3.25 3.9375 2 7 C-0.125 7.875 -0.125 7.875 -2 8 C-2 7.34 -2 6.68 -2 6 C-1.34 6 -0.68 6 0 6 C0 4.02 0 2.04 0 0 Z " fill="#8FC653" transform="translate(23,0)"/>
<path d="M0 0 C1.32 0 2.64 0 4 0 C2.125 5.75 2.125 5.75 1 8 C0.34 8 -0.32 8 -1 8 C-1.125 2.25 -1.125 2.25 0 0 Z " fill="#BAC0A5" transform="translate(8,40)"/>
<path d="M0 0 C0.66 0.33 1.32 0.66 2 1 C1.67 2.32 1.34 3.64 1 5 C2.98 5.66 4.96 6.32 7 7 C3.52176885 8.15941038 1.54104422 7.70820884 -2 7 C-1.34 4.69 -0.68 2.38 0 0 Z " fill="#1D2118" transform="translate(3,27)"/>
<path d="M0 0 C1.65 0 3.3 0 5 0 C6.0625 2.375 6.0625 2.375 7 5 C6.67 5.66 6.34 6.32 6 7 C5.34 7 4.68 7 4 7 C3.566875 6.0409375 3.566875 6.0409375 3.125 5.0625 C2.17176549 2.84793921 2.17176549 2.84793921 0 2 C0 1.34 0 0.68 0 0 Z " fill="#446D40" transform="translate(12,12)"/>
<path d="M0 0 C0.99 0.33 1.98 0.66 3 1 C1.77065985 4.68802044 0.06140622 5.72356973 -3 8 C-3 7.34 -3 6.68 -3 6 C-3.66 6 -4.32 6 -5 6 C-4.67 5.01 -4.34 4.02 -4 3 C-3.01 2.67 -2.02 2.34 -1 2 C-0.67 1.34 -0.34 0.68 0 0 Z " fill="#2E5F16" transform="translate(26,4)"/>
<path d="M0 0 C1.98 0.495 1.98 0.495 4 1 C4 3.31 4 5.62 4 8 C3.67 8 3.34 8 3 8 C3 6.35 3 4.7 3 3 C2.34 3 1.68 3 1 3 C1 4.98 1 6.96 1 9 C0.34 8.67 -0.32 8.34 -1 8 C-0.67 5.36 -0.34 2.72 0 0 Z " fill="#030602" transform="translate(35,37)"/>
<path d="M0 0 C0.66 0.33 1.32 0.66 2 1 C1.814375 1.598125 1.62875 2.19625 1.4375 2.8125 C0.77906313 5.16408762 0.77906313 5.16408762 2 8 C1.01 8.33 0.02 8.66 -1 9 C-1.66 6.69 -2.32 4.38 -3 2 C-2.01 1.34 -1.02 0.68 0 0 Z " fill="#4A6D4B" transform="translate(21,22)"/>
<path d="M0 0 C1.65 0 3.3 0 5 0 C5.66 1.65 6.32 3.3 7 5 C6.01 5 5.02 5 4 5 C3.34 4.34 2.68 3.68 2 3 C1.01 3 0.02 3 -1 3 C-0.67 2.01 -0.34 1.02 0 0 Z " fill="#6CC440" transform="translate(30,0)"/>
<path d="M0 0 C0 1.65 0 3.3 0 5 C-1.98 5 -3.96 5 -6 5 C-6 4.34 -6 3.68 -6 3 C-2.53846154 0 -2.53846154 0 0 0 Z " fill="#1C1F0E" transform="translate(6,51)"/>
<path d="M0 0 C2.475 0.495 2.475 0.495 5 1 C4.67 2.32 4.34 3.64 4 5 C2.68 5.33 1.36 5.66 0 6 C0 4.02 0 2.04 0 0 Z " fill="#17360D" transform="translate(25,11)"/>
<path d="M0 0 C0.33 0.99 0.66 1.98 1 3 C2.32 2.67 3.64 2.34 5 2 C4.67 2.99 4.34 3.98 4 5 C2.02 5 0.04 5 -2 5 C-1.34 3.35 -0.68 1.7 0 0 Z " fill="#070E03" transform="translate(32,45)"/>
<path d="M0 0 C0 0.66 0 1.32 0 2 C-5.53846154 2.36923077 -5.53846154 2.36923077 -7.875 0.5 C-8.24625 0.005 -8.6175 -0.49 -9 -1 C-5.79937313 -2.60031344 -3.27728194 -1.03173691 0 0 Z " fill="#EEE9BE" transform="translate(53,30)"/>
<path d="M0 0 C-0.99 0.33 -1.98 0.66 -3 1 C-3.33 1.66 -3.66 2.32 -4 3 C-3.01 3.33 -2.02 3.66 -1 4 C-2.32 4.33 -3.64 4.66 -5 5 C-5.33 3.35 -5.66 1.7 -6 0 C-3.50907189 -1.24546405 -2.58919267 -0.7767578 0 0 Z " fill="#240706" transform="translate(50,12)"/>
<path d="M0 0 C0.66 0 1.32 0 2 0 C1.979375 0.928125 1.95875 1.85625 1.9375 2.8125 C1.84230396 6.02286011 1.84230396 6.02286011 3 9 C2.34 9 1.68 9 1 9 C-0.61949011 6.42786866 -1.04408751 5.32330841 -0.625 2.25 C-0.41875 1.5075 -0.2125 0.765 0 0 Z " fill="#B72024" transform="translate(45,33)"/>
<path d="M0 0 C0.33 0 0.66 0 1 0 C1 1.65 1 3.3 1 5 C-0.98 5.99 -0.98 5.99 -3 7 C-2.67 5.35 -2.34 3.7 -2 2 C-1.34 2 -0.68 2 0 2 C0 1.34 0 0.68 0 0 Z " fill="#472610" transform="translate(44,2)"/>
<path d="M0 0 C1.65 0 3.3 0 5 0 C5 1.65 5 3.3 5 5 C3.68 4.67 2.36 4.34 1 4 C0.67 2.68 0.34 1.36 0 0 Z " fill="#BEF66D" transform="translate(18,0)"/>
<path d="M0 0 C1.5625 1.25 1.5625 1.25 3 3 C2.6875 5.1875 2.6875 5.1875 2 7 C0.4375 5.75 0.4375 5.75 -1 4 C-0.6875 1.8125 -0.6875 1.8125 0 0 Z " fill="#A61417" transform="translate(47,35)"/>
<path d="M0 0 C2.1385485 2.1385485 2.42655063 3.13275314 3 6 C2.01 6.33 1.02 6.66 0 7 C-0.38133299 5.0085944 -0.71325582 3.00720923 -1 1 C-0.67 0.67 -0.34 0.34 0 0 Z " fill="#090C05" transform="translate(30,33)"/>
<path d="M0 0 C0.99 0.33 1.98 0.66 3 1 C3 1.66 3 2.32 3 3 C3.99 3 4.98 3 6 3 C5.67 3.66 5.34 4.32 5 5 C4.34 4.67 3.68 4.34 3 4 C2.67 4.99 2.34 5.98 2 7 C0.5393715 4.35261084 0 3.10551666 0 0 Z " fill="#2E3A2B" transform="translate(34,26)"/>
<path d="M0 0 C0.66 0 1.32 0 2 0 C1.67 3.3 1.34 6.6 1 10 C-1.17766075 5.64467851 -1.03039555 4.53374042 0 0 Z " fill="#1F271E" transform="translate(37,18)"/>
</svg>
