<svg xmlns="http://www.w3.org/2000/svg" xmlns:v="https://svgstorm.com"
viewBox = "0 0 65 65"
width="65"
height="65">
<g fill="None" fill-opacity="0.0" stroke="#000000" stroke-opacity="0.00" stroke-width="0.3"><path d="
M 0.00 27.00 
C 7.14 -9.08 63.55 -6.22 64.00 32.00 C 64.45 70.22 7.45 74.65 0.00 38.00
L 0.00 65.00
L 65.00 65.00
L 65.00 0.00
L 0.00 0.00
L 0.00 27.00 Z"/>
</g>
<g fill="None" fill-opacity="0.0" stroke="#FBFBFB" stroke-opacity="0.47" stroke-width="0.3"><path d="
M 0.00 27.00 
L 0.00 38.00
C 7.45 74.65 64.45 70.22 64.00 32.00 C 63.55 -6.22 7.14 -9.08 0.00 27.00
M 41.00 4.00 
C 41.49 3.94 42.00 4.00 42.00 4.00
C 43.58 3.90 43.03 4.36 44.00 5.00
C 44.50 4.97 45.00 5.00 45.00 5.00
C 45.35 5.03 45.74 5.88 46.00 6.00
C 46.50 6.05 47.00 6.00 47.00 6.00
C 48.22 6.19 48.35 7.37 49.00 8.00
C 49.49 8.07 50.00 8.00 50.00 8.00
C 52.30 9.12 54.73 11.91 56.00 14.00
C 56.40 14.66 56.64 15.35 57.00 16.00
C 59.87 19.20 61.54 22.51 62.00 27.00
C 62.34 30.32 62.48 34.70 62.00 38.00
C 61.95 38.35 61.11 38.74 61.00 39.00
C 60.88 39.47 61.12 40.53 61.00 41.00
C 60.91 41.35 60.11 41.74 60.00 42.00
C 59.88 42.47 60.12 43.53 60.00 44.00
C 59.91 44.35 59.12 44.74 59.00 45.00
C 58.95 45.50 59.00 46.00 59.00 46.00
C 58.97 46.35 58.12 46.74 58.00 47.00
C 57.95 47.50 58.00 48.00 58.00 48.00
C 57.81 49.22 56.63 49.35 56.00 50.00
C 55.75 50.26 56.00 51.00 56.00 51.00
C 55.08 52.88 52.83 55.11 51.00 56.00
C 50.60 56.20 50.00 56.00 50.00 56.00
C 49.25 56.72 49.27 57.81 48.00 58.00
C 47.51 58.07 47.00 58.00 47.00 58.00
C 46.07 58.34 44.87 58.62 44.00 59.00
C 43.73 59.18 43.35 59.97 43.00 60.00
C 42.50 60.05 42.00 60.00 42.00 60.00
C 41.07 62.07 39.97 61.71 38.00 62.00
C 34.60 62.51 29.38 62.58 26.00 62.00
C 24.16 61.69 23.37 60.68 22.00 60.00
C 21.09 59.55 20.80 59.54 20.00 59.00
C 19.50 59.03 19.00 59.00 19.00 59.00
C 18.65 58.97 18.14 58.34 18.00 58.00
C 17.37 57.60 16.74 57.14 16.00 57.00
C 15.52 56.91 15.00 57.00 15.00 57.00
C 12.36 55.71 8.26 51.58 7.00 49.00
C 6.80 48.60 7.00 48.00 7.00 48.00
C 6.66 47.07 6.38 45.87 6.00 45.00
C 5.82 44.73 5.03 44.35 5.00 44.00
C 4.95 43.50 5.00 43.00 5.00 43.00
C 4.88 42.74 4.03 42.35 4.00 42.00
C 3.95 41.50 4.00 41.00 4.00 41.00
C 2.97 39.89 3.38 39.53 3.00 38.00
C 2.25 34.97 0.82 29.95 3.00 27.00
C 3.00 26.50 3.00 26.00 3.00 26.00
C 3.00 25.50 2.88 24.47 3.00 24.00
C 3.09 23.65 3.88 23.26 4.00 23.00
C 4.00 22.50 4.00 22.00 4.00 22.00
C 3.90 20.48 4.27 20.90 5.00 20.00
C 5.23 19.72 5.88 19.26 6.00 19.00
C 6.05 18.50 6.00 18.00 6.00 18.00
C 6.08 17.57 6.78 16.35 7.00 16.00
C 7.64 14.98 8.25 14.74 9.00 14.00
C 10.50 12.04 12.36 10.65 14.00 9.00
C 14.81 8.19 14.99 7.64 16.00 7.00
C 17.08 6.06 16.71 4.68 18.00 6.00
C 18.17 5.76 19.00 6.00 19.00 6.00
C 19.85 4.59 20.27 4.10 22.00 4.00
C 22.50 3.97 23.50 4.04 24.00 4.00
C 24.08 3.99 25.40 3.07 26.00 3.00
C 29.71 2.54 34.28 2.68 38.00 3.00
C 39.70 3.15 39.85 2.93 41.00 4.00 Z"/>
</g>
<g fill="None" fill-opacity="0.0" stroke="#C6C3C3" stroke-opacity="1.00" stroke-width="0.3"><path d="
M 24.00 4.00 
C 25.27 3.90 25.26 3.19 26.00 3.00
C 25.40 3.07 24.08 3.99 24.00 4.00 Z"/>
</g>
<g fill="None" fill-opacity="0.0" stroke="#987F58" stroke-opacity="1.00" stroke-width="0.3"><path d="
M 24.00 4.00 
C 23.50 4.04 22.50 3.97 22.00 4.00
C 21.17 4.27 20.16 5.72 19.00 6.00
C 19.00 6.00 18.17 5.76 18.00 6.00
C 16.77 7.69 15.63 7.85 14.00 9.00
C 12.36 10.65 10.50 12.04 9.00 14.00
C 8.40 14.79 7.54 15.36 7.00 16.00
C 6.78 16.35 6.08 17.57 6.00 18.00
C 6.25 17.49 7.66 17.32 8.00 17.00
C 16.56 9.01 20.63 4.66 33.00 4.00 C 45.37 3.34 49.26 12.30 58.00 18.00
C 57.91 17.52 57.23 16.42 57.00 16.00
C 56.64 15.35 56.40 14.66 56.00 14.00
C 54.06 11.92 51.66 10.37 50.00 8.00
C 50.00 8.00 49.49 8.07 49.00 8.00
C 47.78 7.81 47.65 6.63 47.00 6.00
C 47.00 6.00 46.50 6.05 46.00 6.00
C 45.65 5.97 45.26 5.12 45.00 5.00
C 45.00 5.00 44.50 4.97 44.00 5.00
C 42.42 5.10 42.97 4.64 42.00 4.00
C 42.00 4.00 41.49 3.94 41.00 4.00
C 39.34 4.20 38.96 3.21 38.00 3.00
C 34.28 2.68 29.71 2.54 26.00 3.00
C 25.26 3.19 25.27 3.90 24.00 4.00 Z"/>
</g>
<g fill="None" fill-opacity="0.0" stroke="#CBC7C6" stroke-opacity="1.00" stroke-width="0.3"><path d="
M 41.00 4.00 
C 39.85 2.93 39.70 3.15 38.00 3.00
C 38.96 3.21 39.34 4.20 41.00 4.00 Z"/>
</g>
<g fill="None" fill-opacity="0.0" stroke="#C7C3C0" stroke-opacity="1.00" stroke-width="0.3"><path d="
M 19.00 6.00 
C 20.16 5.72 21.17 4.27 22.00 4.00
C 20.27 4.10 19.85 4.59 19.00 6.00 Z"/>
</g>
<g fill="None" fill-opacity="0.0" stroke="#FAC966" stroke-opacity="1.00" stroke-width="0.3"><path d="
M 8.00 17.00 
C 8.49 17.39 7.61 19.49 8.00 20.00
C 9.83 20.23 11.47 19.93 13.00 19.00
C 18.69 16.11 20.39 9.28 28.07 9.07 C 35.76 8.86 41.87 10.44 48.00 15.00
C 50.43 16.81 51.65 18.37 53.00 21.00
C 53.38 21.73 53.72 22.23 54.00 23.00
C 55.59 24.50 57.67 24.17 59.00 23.00
C 58.48 22.13 58.15 20.08 58.00 19.00
C 57.93 18.51 58.00 18.00 58.00 18.00
C 49.26 12.30 45.37 3.34 33.00 4.00 C 20.63 4.66 16.56 9.01 8.00 17.00 Z"/>
</g>
<g fill="None" fill-opacity="0.0" stroke="#D0CBCB" stroke-opacity="1.00" stroke-width="0.3"><path d="
M 44.00 5.00 
C 43.03 4.36 43.58 3.90 42.00 4.00
C 42.97 4.64 42.42 5.10 44.00 5.00 Z"/>
</g>
<g fill="None" fill-opacity="0.0" stroke="#F6F6F6" stroke-opacity="0.25" stroke-width="0.3"><path d="
M 16.00 7.00 
C 16.34 6.79 17.83 6.23 18.00 6.00
C 16.71 4.68 17.08 6.06 16.00 7.00 Z"/>
</g>
<g fill="None" fill-opacity="0.0" stroke="#D0CCCC" stroke-opacity="1.00" stroke-width="0.3"><path d="
M 46.00 6.00 
C 45.74 5.88 45.35 5.03 45.00 5.00
C 45.26 5.12 45.65 5.97 46.00 6.00 Z"/>
</g>
<g fill="None" fill-opacity="0.0" stroke="#AFA6A5" stroke-opacity="1.00" stroke-width="0.3"><path d="
M 16.00 7.00 
C 14.99 7.64 14.81 8.19 14.00 9.00
C 15.63 7.85 16.77 7.69 18.00 6.00
C 17.83 6.23 16.34 6.79 16.00 7.00 Z"/>
</g>
<g fill="None" fill-opacity="0.0" stroke="#CFCBCB" stroke-opacity="1.00" stroke-width="0.3"><path d="
M 49.00 8.00 
C 48.35 7.37 48.22 6.19 47.00 6.00
C 47.65 6.63 47.78 7.81 49.00 8.00 Z"/>
</g>
<g fill="None" fill-opacity="0.0" stroke="#C8C4C3" stroke-opacity="1.00" stroke-width="0.3"><path d="
M 56.00 14.00 
C 54.73 11.91 52.30 9.12 50.00 8.00
C 51.66 10.37 54.06 11.92 56.00 14.00 Z"/>
</g>
<g fill="None" fill-opacity="0.0" stroke="#BD4E04" stroke-opacity="1.00" stroke-width="0.3"><path d="
M 13.00 19.00 
C 15.46 16.41 15.59 17.96 17.00 20.00
C 19.07 16.97 22.27 14.09 26.00 14.00
C 31.03 12.70 37.21 12.63 42.00 15.00
C 46.15 17.05 47.88 20.79 50.77 24.23 C 53.66 27.67 49.26 36.69 55.00 38.00
C 54.63 36.46 56.43 35.60 56.00 34.00
C 56.48 30.55 55.15 26.13 54.00 23.00
C 53.72 22.23 53.38 21.73 53.00 21.00
C 51.60 19.25 49.70 16.61 48.00 15.00
C 41.87 10.44 35.76 8.86 28.07 9.07 C 20.39 9.28 18.69 16.11 13.00 19.00 Z"/>
</g>
<g fill="None" fill-opacity="0.0" stroke="#F68B08" stroke-opacity="1.00" stroke-width="0.3"><path d="
M 26.00 14.00 
C 21.56 15.72 8.69 26.10 16.00 31.00
C 17.97 29.28 20.29 31.06 17.00 32.00
C 18.82 33.28 20.46 31.49 22.00 30.00
C 26.20 34.87 38.46 34.62 43.00 30.00
C 55.33 39.07 49.95 18.50 42.00 15.00
C 37.21 12.63 31.03 12.70 26.00 14.00
M 34.00 19.00 
C 32.09 21.49 30.02 18.19 34.00 19.00
M 25.00 32.00 
C 24.83 25.46 30.69 18.51 37.25 25.75 C 43.81 33.00 31.20 32.65 25.00 32.00
M 48.00 31.00 
C 48.74 31.74 47.18 30.18 48.00 31.00 Z"/>
</g>
<g fill="None" fill-opacity="0.0" stroke="#B4ADA9" stroke-opacity="1.00" stroke-width="0.3"><path d="
M 7.00 16.00 
C 7.54 15.36 8.40 14.79 9.00 14.00
C 8.25 14.74 7.64 14.98 7.00 16.00 Z"/>
</g>
<g fill="None" fill-opacity="0.0" stroke="#E06504" stroke-opacity="1.00" stroke-width="0.3"><path d="
M 13.00 19.00 
C 2.69 29.84 12.18 42.24 21.75 49.25 C 31.33 56.26 46.71 46.99 53.00 43.00
C 52.97 46.95 48.71 48.88 47.00 52.00
C 48.57 51.04 50.25 49.69 51.00 48.00
C 51.93 53.26 53.89 50.48 57.00 48.00
C 57.61 43.88 60.43 40.24 61.00 36.00
C 60.85 35.01 58.21 33.66 59.00 32.00
C 56.99 31.18 57.53 33.82 56.00 34.00
C 56.43 35.60 54.63 36.46 55.00 38.00
C 49.26 36.69 53.66 27.67 50.77 24.23 C 47.88 20.79 46.15 17.05 42.00 15.00
C 49.95 18.50 55.33 39.07 43.00 30.00
C 38.46 34.62 26.20 34.87 22.00 30.00
C 20.46 31.49 18.82 33.28 17.00 32.00
C 16.70 31.79 16.27 31.18 16.00 31.00
C 8.69 26.10 21.56 15.72 26.00 14.00
C 22.27 14.09 19.07 16.97 17.00 20.00
C 15.59 17.96 15.46 16.41 13.00 19.00
M 24.00 41.00 
C 23.75 40.73 24.00 40.00 24.00 40.00
C 21.94 38.91 21.77 37.26 22.00 35.00
C 28.13 36.89 36.14 35.89 42.00 36.00
C 40.44 41.48 44.53 40.18 48.00 42.00
C 43.36 53.01 24.32 54.66 18.00 44.00
C 20.22 44.13 24.08 43.93 24.00 41.00 Z"/>
</g>
<g fill="None" fill-opacity="0.0" stroke="#D2791C" stroke-opacity="1.00" stroke-width="0.3"><path d="
M 53.00 21.00 
C 51.65 18.37 50.43 16.81 48.00 15.00
C 49.70 16.61 51.60 19.25 53.00 21.00 Z"/>
</g>
<g fill="None" fill-opacity="0.0" stroke="#BDB3B1" stroke-opacity="1.00" stroke-width="0.3"><path d="
M 58.00 18.00 
C 58.00 18.00 57.93 18.51 58.00 19.00
C 59.11 20.08 59.89 21.28 60.00 23.00
C 60.03 23.50 60.00 24.00 60.00 24.00
C 60.35 24.63 61.84 26.39 62.00 27.00
C 61.54 22.51 59.87 19.20 57.00 16.00
C 57.23 16.42 57.91 17.52 58.00 18.00 Z"/>
</g>
<g fill="None" fill-opacity="0.0" stroke="#F18B1C" stroke-opacity="1.00" stroke-width="0.3"><path d="
M 6.00 18.00 
C 6.00 18.00 6.05 18.50 6.00 19.00
C 5.97 19.35 5.11 19.74 5.00 20.00
C 4.82 20.42 5.07 21.51 5.00 22.00
C 4.84 23.10 4.18 23.36 4.00 24.00
C 4.23 24.16 4.00 25.50 4.00 26.00
C 4.00 30.00 4.00 34.00 4.00 38.00
C 9.27 35.14 11.44 48.77 17.00 52.00
C 24.70 58.71 39.04 56.87 47.00 52.00
C 48.71 48.88 52.97 46.95 53.00 43.00
C 46.71 46.99 31.33 56.26 21.75 49.25 C 12.18 42.24 2.69 29.84 13.00 19.00
C 11.47 19.93 9.83 20.23 8.00 20.00
C 7.61 19.49 8.49 17.39 8.00 17.00
C 7.66 17.32 6.25 17.49 6.00 18.00 Z"/>
</g>
<g fill="None" fill-opacity="0.0" stroke="#887777" stroke-opacity="1.00" stroke-width="0.3"><path d="
M 5.00 20.00 
C 5.11 19.74 5.97 19.35 6.00 19.00
C 5.88 19.26 5.23 19.72 5.00 20.00 Z"/>
</g>
<g fill="None" fill-opacity="0.0" stroke="#C04500" stroke-opacity="1.00" stroke-width="0.3"><path d="
M 34.00 19.00 
C 30.02 18.19 32.09 21.49 34.00 19.00 Z"/>
</g>
<g fill="None" fill-opacity="0.0" stroke="#986E39" stroke-opacity="1.00" stroke-width="0.3"><path d="
M 59.00 23.00 
C 59.28 22.75 60.00 23.00 60.00 23.00
C 59.89 21.28 59.11 20.08 58.00 19.00
C 58.15 20.08 58.48 22.13 59.00 23.00 Z"/>
</g>
<g fill="None" fill-opacity="0.0" stroke="#BBB2B2" stroke-opacity="1.00" stroke-width="0.3"><path d="
M 4.00 22.00 
C 4.25 21.75 5.00 22.00 5.00 22.00
C 5.07 21.51 4.82 20.42 5.00 20.00
C 4.27 20.90 3.90 20.48 4.00 22.00 Z"/>
</g>
<g fill="None" fill-opacity="0.0" stroke="#A87E4B" stroke-opacity="1.00" stroke-width="0.3"><path d="
M 4.00 23.00 
C 4.00 23.50 4.00 24.00 4.00 24.00
C 4.18 23.36 4.84 23.10 5.00 22.00
C 5.00 22.00 4.25 21.75 4.00 22.00
C 4.00 22.00 4.00 22.50 4.00 23.00 Z"/>
</g>
<g fill="None" fill-opacity="0.0" stroke="#DFDDDD" stroke-opacity="1.00" stroke-width="0.3"><path d="
M 3.00 24.00 
C 3.34 23.77 4.00 24.00 4.00 24.00
C 4.00 24.00 4.00 23.50 4.00 23.00
C 3.88 23.26 3.09 23.65 3.00 24.00 Z"/>
</g>
<g fill="None" fill-opacity="0.0" stroke="#FDB73D" stroke-opacity="1.00" stroke-width="0.3"><path d="
M 25.00 32.00 
C 31.20 32.65 43.81 33.00 37.25 25.75 C 30.69 18.51 24.83 25.46 25.00 32.00 Z"/>
</g>
<g fill="None" fill-opacity="0.0" stroke="#EF8F1E" stroke-opacity="1.00" stroke-width="0.3"><path d="
M 56.00 34.00 
C 57.53 33.82 56.99 31.18 59.00 32.00
C 58.21 33.66 60.85 35.01 61.00 36.00
C 61.57 31.71 60.10 28.10 60.00 24.00
C 60.00 24.00 60.03 23.50 60.00 23.00
C 60.00 23.00 59.28 22.75 59.00 23.00
C 57.67 24.17 55.59 24.50 54.00 23.00
C 55.15 26.13 56.48 30.55 56.00 34.00 Z"/>
</g>
<g fill="None" fill-opacity="0.0" stroke="#9E8D87" stroke-opacity="1.00" stroke-width="0.3"><path d="
M 3.00 26.00 
C 3.25 25.75 4.00 26.00 4.00 26.00
C 4.00 25.50 4.23 24.16 4.00 24.00
C 4.00 24.00 3.34 23.77 3.00 24.00
C 2.88 24.47 3.00 25.50 3.00 26.00 Z"/>
</g>
<g fill="None" fill-opacity="0.0" stroke="#936240" stroke-opacity="1.00" stroke-width="0.3"><path d="
M 61.00 36.00 
C 60.43 40.24 57.61 43.88 57.00 48.00
C 57.40 47.80 58.00 48.00 58.00 48.00
C 58.00 48.00 57.95 47.50 58.00 47.00
C 58.03 46.65 58.88 46.26 59.00 46.00
C 59.00 46.00 58.95 45.50 59.00 45.00
C 59.03 44.65 59.89 44.26 60.00 44.00
C 60.12 43.53 59.88 42.47 60.00 42.00
C 60.09 41.65 60.89 41.26 61.00 41.00
C 61.12 40.53 60.88 39.47 61.00 39.00
C 61.09 38.65 61.95 38.23 62.00 38.00
C 62.48 34.70 62.34 30.32 62.00 27.00
C 61.84 26.39 60.35 24.63 60.00 24.00
C 60.10 28.10 61.57 31.71 61.00 36.00 Z"/>
</g>
<g fill="None" fill-opacity="0.0" stroke="#D65B12" stroke-opacity="1.00" stroke-width="0.3"><path d="
M 3.00 27.00 
C 3.00 30.39 2.27 34.70 3.00 38.00
C 3.01 38.05 3.87 40.75 4.00 41.00
C 4.14 41.27 4.97 41.65 5.00 42.00
C 5.05 42.50 5.00 43.00 5.00 43.00
C 5.00 43.00 4.95 43.50 5.00 44.00
C 5.12 44.26 5.85 44.66 6.00 45.00
C 6.38 45.87 6.66 47.07 7.00 48.00
C 7.24 48.26 7.73 48.79 8.00 49.00
C 10.41 50.87 12.53 53.30 15.00 55.00
C 16.67 54.76 15.17 52.15 17.00 52.00
C 11.44 48.77 9.27 35.14 4.00 38.00
C 4.00 34.00 4.00 30.00 4.00 26.00
C 4.00 26.00 3.25 25.75 3.00 26.00
C 3.00 26.00 3.00 26.50 3.00 27.00 Z"/>
</g>
<g fill="None" fill-opacity="0.0" stroke="#D0C7C7" stroke-opacity="1.00" stroke-width="0.3"><path d="
M 3.00 38.00 
C 2.27 34.70 3.00 30.39 3.00 27.00
C 0.82 29.95 2.25 34.97 3.00 38.00 Z"/>
</g>
<g fill="None" fill-opacity="0.0" stroke="#FFC755" stroke-opacity="1.00" stroke-width="0.3"><path d="
M 16.00 31.00 
C 16.27 31.18 16.70 31.79 17.00 32.00
C 20.29 31.06 17.97 29.28 16.00 31.00 Z"/>
</g>
<g fill="None" fill-opacity="0.0" stroke="#FECB49" stroke-opacity="1.00" stroke-width="0.3"><path d="
M 48.00 31.00 
C 47.18 30.18 48.74 31.74 48.00 31.00 Z"/>
</g>
<g fill="None" fill-opacity="0.0" stroke="#D64E01" stroke-opacity="1.00" stroke-width="0.3"><path d="
M 24.00 40.00 
C 27.23 36.66 36.58 39.24 41.00 38.00
C 40.62 41.24 37.02 43.64 34.00 44.00
C 37.18 45.78 32.13 49.64 30.00 48.00
C 29.59 46.44 30.46 45.31 31.00 44.00
C 28.07 43.98 26.01 43.14 24.00 41.00
C 24.08 43.93 20.22 44.13 18.00 44.00
C 24.32 54.66 43.36 53.01 48.00 42.00
C 44.53 40.18 40.44 41.48 42.00 36.00
C 36.14 35.89 28.13 36.89 22.00 35.00
C 21.77 37.26 21.94 38.91 24.00 40.00 Z"/>
</g>
<g fill="None" fill-opacity="0.0" stroke="#9F8B87" stroke-opacity="1.00" stroke-width="0.3"><path d="
M 4.00 41.00 
C 3.87 40.75 3.01 38.05 3.00 38.00
C 3.38 39.53 2.97 39.89 4.00 41.00 Z"/>
</g>
<g fill="None" fill-opacity="0.0" stroke="#BF3901" stroke-opacity="1.00" stroke-width="0.3"><path d="
M 24.00 40.00 
C 24.00 40.00 23.75 40.73 24.00 41.00
C 26.01 43.14 28.07 43.98 31.00 44.00
C 31.98 44.01 33.03 44.10 34.00 44.00
C 37.02 43.64 40.62 41.24 41.00 38.00
C 36.58 39.24 27.23 36.66 24.00 40.00 Z"/>
</g>
<g fill="None" fill-opacity="0.0" stroke="#A79999" stroke-opacity="1.00" stroke-width="0.3"><path d="
M 61.00 39.00 
C 61.11 38.74 61.95 38.35 62.00 38.00
C 61.95 38.23 61.09 38.65 61.00 39.00 Z"/>
</g>
<g fill="None" fill-opacity="0.0" stroke="#8F4C33" stroke-opacity="1.00" stroke-width="0.3"><path d="
M 4.00 42.00 
C 4.25 42.25 5.00 42.00 5.00 42.00
C 4.97 41.65 4.14 41.27 4.00 41.00
C 4.00 41.00 3.95 41.50 4.00 42.00 Z"/>
</g>
<g fill="None" fill-opacity="0.0" stroke="#AB9A99" stroke-opacity="1.00" stroke-width="0.3"><path d="
M 60.00 42.00 
C 60.11 41.74 60.91 41.35 61.00 41.00
C 60.89 41.26 60.09 41.65 60.00 42.00 Z"/>
</g>
<g fill="None" fill-opacity="0.0" stroke="#9D7777" stroke-opacity="1.00" stroke-width="0.3"><path d="
M 5.00 43.00 
C 5.00 43.00 5.05 42.50 5.00 42.00
C 5.00 42.00 4.25 42.25 4.00 42.00
C 4.03 42.35 4.88 42.74 5.00 43.00 Z"/>
</g>
<g fill="None" fill-opacity="0.0" stroke="#885444" stroke-opacity="1.00" stroke-width="0.3"><path d="
M 6.00 45.00 
C 5.85 44.66 5.12 44.26 5.00 44.00
C 5.03 44.35 5.82 44.73 6.00 45.00 Z"/>
</g>
<g fill="None" fill-opacity="0.0" stroke="#E37517" stroke-opacity="1.00" stroke-width="0.3"><path d="
M 34.00 44.00 
C 33.03 44.10 31.98 44.01 31.00 44.00
C 30.46 45.31 29.59 46.44 30.00 48.00
C 32.13 49.64 37.18 45.78 34.00 44.00
M 34.00 45.00 
C 35.00 46.00 32.39 48.03 31.32 46.66 C 30.25 45.29 33.32 44.32 34.00 45.00 Z"/>
</g>
<g fill="None" fill-opacity="0.0" stroke="#AB9999" stroke-opacity="1.00" stroke-width="0.3"><path d="
M 59.00 45.00 
C 59.12 44.74 59.91 44.35 60.00 44.00
C 59.89 44.26 59.03 44.65 59.00 45.00 Z"/>
</g>
<g fill="None" fill-opacity="0.0" stroke="#FFB74C" stroke-opacity="1.00" stroke-width="0.3"><path d="
M 34.00 45.00 
C 33.32 44.32 30.25 45.29 31.32 46.66 C 32.39 48.03 35.00 46.00 34.00 45.00 Z"/>
</g>
<g fill="None" fill-opacity="0.0" stroke="#B7AAAA" stroke-opacity="1.00" stroke-width="0.3"><path d="
M 58.00 47.00 
C 58.12 46.74 58.97 46.35 59.00 46.00
C 58.88 46.26 58.03 46.65 58.00 47.00 Z"/>
</g>
<g fill="None" fill-opacity="0.0" stroke="#947977" stroke-opacity="1.00" stroke-width="0.3"><path d="
M 7.00 49.00 
C 7.25 49.25 8.00 49.00 8.00 49.00
C 7.73 48.79 7.24 48.26 7.00 48.00
C 7.00 48.00 6.80 48.60 7.00 49.00 Z"/>
</g>
<g fill="None" fill-opacity="0.0" stroke="#C1450E" stroke-opacity="1.00" stroke-width="0.3"><path d="
M 47.00 52.00 
C 39.04 56.87 24.70 58.71 17.00 52.00
C 15.17 52.15 16.67 54.76 15.00 55.00
C 12.53 53.30 10.41 50.87 8.00 49.00
C 9.81 51.59 12.35 54.36 15.00 56.00
C 15.32 56.20 15.90 56.65 16.00 57.00
C 16.74 57.14 17.37 57.60 18.00 58.00
C 18.31 58.20 18.74 58.88 19.00 59.00
C 19.00 59.00 19.50 59.03 20.00 59.00
C 21.55 58.90 21.09 59.75 22.00 60.00
C 22.47 60.13 23.53 59.89 24.00 60.00
C 29.76 61.33 35.21 60.95 41.00 60.00
C 41.49 59.92 42.00 60.00 42.00 60.00
C 42.00 60.00 42.50 60.05 43.00 60.00
C 43.26 59.88 43.66 59.15 44.00 59.00
C 44.87 58.62 46.07 58.34 47.00 58.00
C 47.26 57.76 47.65 57.13 48.00 57.00
C 48.38 56.85 49.75 56.23 50.00 56.00
C 51.87 54.25 54.30 51.82 56.00 50.00
C 56.23 49.75 56.83 48.08 57.00 48.00
C 53.89 50.48 51.93 53.26 51.00 48.00
C 50.25 49.69 48.57 51.04 47.00 52.00 Z"/>
</g>
<g fill="None" fill-opacity="0.0" stroke="#C1B3B2" stroke-opacity="1.00" stroke-width="0.3"><path d="
M 56.00 50.00 
C 56.63 49.35 57.81 49.22 58.00 48.00
C 58.00 48.00 57.40 47.80 57.00 48.00
C 56.83 48.08 56.23 49.75 56.00 50.00 Z"/>
</g>
<g fill="None" fill-opacity="0.0" stroke="#C1B4B4" stroke-opacity="1.00" stroke-width="0.3"><path d="
M 15.00 57.00 
C 14.75 56.75 15.00 56.00 15.00 56.00
C 12.35 54.36 9.81 51.59 8.00 49.00
C 8.00 49.00 7.25 49.25 7.00 49.00
C 8.26 51.58 12.36 55.71 15.00 57.00 Z"/>
</g>
<g fill="None" fill-opacity="0.0" stroke="#9A6A60" stroke-opacity="1.00" stroke-width="0.3"><path d="
M 50.00 56.00 
C 50.00 56.00 50.60 56.20 51.00 56.00
C 52.41 53.98 54.04 52.37 56.00 51.00
C 56.00 51.00 55.75 50.26 56.00 50.00
C 54.30 51.82 51.87 54.25 50.00 56.00 Z"/>
</g>
<g fill="None" fill-opacity="0.0" stroke="#E0DDDD" stroke-opacity="1.00" stroke-width="0.3"><path d="
M 51.00 56.00 
C 52.83 55.11 55.08 52.88 56.00 51.00
C 54.04 52.37 52.41 53.98 51.00 56.00 Z"/>
</g>
<g fill="None" fill-opacity="0.0" stroke="#8A6A66" stroke-opacity="1.00" stroke-width="0.3"><path d="
M 15.00 57.00 
C 15.00 57.00 15.52 56.91 16.00 57.00
C 15.90 56.65 15.32 56.20 15.00 56.00
C 15.00 56.00 14.75 56.75 15.00 57.00 Z"/>
</g>
<g fill="None" fill-opacity="0.0" stroke="#D3CBCB" stroke-opacity="1.00" stroke-width="0.3"><path d="
M 48.00 57.00 
C 47.80 57.40 48.00 58.00 48.00 58.00
C 49.27 57.81 49.25 56.72 50.00 56.00
C 49.75 56.23 48.38 56.85 48.00 57.00 Z"/>
</g>
<g fill="None" fill-opacity="0.0" stroke="#947777" stroke-opacity="1.00" stroke-width="0.3"><path d="
M 47.00 58.00 
C 47.00 58.00 47.51 58.07 48.00 58.00
C 48.00 58.00 47.80 57.40 48.00 57.00
C 47.65 57.13 47.26 57.76 47.00 58.00 Z"/>
</g>
<g fill="None" fill-opacity="0.0" stroke="#9F8888" stroke-opacity="1.00" stroke-width="0.3"><path d="
M 19.00 59.00 
C 18.74 58.88 18.31 58.20 18.00 58.00
C 18.14 58.34 18.65 58.97 19.00 59.00 Z"/>
</g>
<g fill="None" fill-opacity="0.0" stroke="#9E736E" stroke-opacity="1.00" stroke-width="0.3"><path d="
M 22.00 60.00 
C 21.09 59.75 21.55 58.90 20.00 59.00
C 20.80 59.54 21.09 59.55 22.00 60.00 Z"/>
</g>
<g fill="None" fill-opacity="0.0" stroke="#966C66" stroke-opacity="1.00" stroke-width="0.3"><path d="
M 43.00 60.00 
C 43.35 59.97 43.73 59.18 44.00 59.00
C 43.66 59.15 43.26 59.88 43.00 60.00 Z"/>
</g>
<g fill="None" fill-opacity="0.0" stroke="#BFB6B6" stroke-opacity="1.00" stroke-width="0.3"><path d="
M 26.00 62.00 
C 25.60 61.86 24.32 60.09 24.00 60.00
C 23.53 59.89 22.47 60.13 22.00 60.00
C 23.37 60.68 24.16 61.69 26.00 62.00 Z"/>
</g>
<g fill="None" fill-opacity="0.0" stroke="#8B4D36" stroke-opacity="1.00" stroke-width="0.3"><path d="
M 26.00 62.00 
C 29.38 62.58 34.60 62.51 38.00 62.00
C 38.79 61.80 40.25 60.41 41.00 60.00
C 35.21 60.95 29.76 61.33 24.00 60.00
C 24.32 60.09 25.60 61.86 26.00 62.00 Z"/>
</g>
<g fill="None" fill-opacity="0.0" stroke="#C6BEBE" stroke-opacity="1.00" stroke-width="0.3"><path d="
M 38.00 62.00 
C 39.97 61.71 41.07 62.07 42.00 60.00
C 42.00 60.00 41.49 59.92 41.00 60.00
C 40.25 60.41 38.79 61.80 38.00 62.00 Z"/>
</g>
<g fill="#000000" fill-opacity="0.00" stroke="None">
<path d="
M 0.00 27.00 
C 7.14 -9.08 63.55 -6.22 64.00 32.00 C 64.45 70.22 7.45 74.65 0.00 38.00
L 0.00 65.00
L 65.00 65.00
L 65.00 0.00
L 0.00 0.00
L 0.00 27.00 Z"/>
</g>
<g fill="#FBFBFB" fill-opacity="0.47" stroke="None">
<path d="
M 0.00 27.00 
L 0.00 38.00
C 7.45 74.65 64.45 70.22 64.00 32.00 C 63.55 -6.22 7.14 -9.08 0.00 27.00
M 41.00 4.00 
C 41.49 3.94 42.00 4.00 42.00 4.00
C 43.58 3.90 43.03 4.36 44.00 5.00
C 44.50 4.97 45.00 5.00 45.00 5.00
C 45.35 5.03 45.74 5.88 46.00 6.00
C 46.50 6.05 47.00 6.00 47.00 6.00
C 48.22 6.19 48.35 7.37 49.00 8.00
C 49.49 8.07 50.00 8.00 50.00 8.00
C 52.30 9.12 54.73 11.91 56.00 14.00
C 56.40 14.66 56.64 15.35 57.00 16.00
C 59.87 19.20 61.54 22.51 62.00 27.00
C 62.34 30.32 62.48 34.70 62.00 38.00
C 61.95 38.35 61.11 38.74 61.00 39.00
C 60.88 39.47 61.12 40.53 61.00 41.00
C 60.91 41.35 60.11 41.74 60.00 42.00
C 59.88 42.47 60.12 43.53 60.00 44.00
C 59.91 44.35 59.12 44.74 59.00 45.00
C 58.95 45.50 59.00 46.00 59.00 46.00
C 58.97 46.35 58.12 46.74 58.00 47.00
C 57.95 47.50 58.00 48.00 58.00 48.00
C 57.81 49.22 56.63 49.35 56.00 50.00
C 55.75 50.26 56.00 51.00 56.00 51.00
C 55.08 52.88 52.83 55.11 51.00 56.00
C 50.60 56.20 50.00 56.00 50.00 56.00
C 49.25 56.72 49.27 57.81 48.00 58.00
C 47.51 58.07 47.00 58.00 47.00 58.00
C 46.07 58.34 44.87 58.62 44.00 59.00
C 43.73 59.18 43.35 59.97 43.00 60.00
C 42.50 60.05 42.00 60.00 42.00 60.00
C 41.07 62.07 39.97 61.71 38.00 62.00
C 34.60 62.51 29.38 62.58 26.00 62.00
C 24.16 61.69 23.37 60.68 22.00 60.00
C 21.09 59.55 20.80 59.54 20.00 59.00
C 19.50 59.03 19.00 59.00 19.00 59.00
C 18.65 58.97 18.14 58.34 18.00 58.00
C 17.37 57.60 16.74 57.14 16.00 57.00
C 15.52 56.91 15.00 57.00 15.00 57.00
C 12.36 55.71 8.26 51.58 7.00 49.00
C 6.80 48.60 7.00 48.00 7.00 48.00
C 6.66 47.07 6.38 45.87 6.00 45.00
C 5.82 44.73 5.03 44.35 5.00 44.00
C 4.95 43.50 5.00 43.00 5.00 43.00
C 4.88 42.74 4.03 42.35 4.00 42.00
C 3.95 41.50 4.00 41.00 4.00 41.00
C 2.97 39.89 3.38 39.53 3.00 38.00
C 2.25 34.97 0.82 29.95 3.00 27.00
C 3.00 26.50 3.00 26.00 3.00 26.00
C 3.00 25.50 2.88 24.47 3.00 24.00
C 3.09 23.65 3.88 23.26 4.00 23.00
C 4.00 22.50 4.00 22.00 4.00 22.00
C 3.90 20.48 4.27 20.90 5.00 20.00
C 5.23 19.72 5.88 19.26 6.00 19.00
C 6.05 18.50 6.00 18.00 6.00 18.00
C 6.08 17.57 6.78 16.35 7.00 16.00
C 7.64 14.98 8.25 14.74 9.00 14.00
C 10.50 12.04 12.36 10.65 14.00 9.00
C 14.81 8.19 14.99 7.64 16.00 7.00
C 17.08 6.06 16.71 4.68 18.00 6.00
C 18.17 5.76 19.00 6.00 19.00 6.00
C 19.85 4.59 20.27 4.10 22.00 4.00
C 22.50 3.97 23.50 4.04 24.00 4.00
C 24.08 3.99 25.40 3.07 26.00 3.00
C 29.71 2.54 34.28 2.68 38.00 3.00
C 39.70 3.15 39.85 2.93 41.00 4.00 Z"/>
</g>
<g fill="#C6C3C3" fill-opacity="1.00" stroke="None">
<path d="
M 24.00 4.00 
C 25.27 3.90 25.26 3.19 26.00 3.00
C 25.40 3.07 24.08 3.99 24.00 4.00 Z"/>
</g>
<g fill="#987F58" fill-opacity="1.00" stroke="None">
<path d="
M 24.00 4.00 
C 23.50 4.04 22.50 3.97 22.00 4.00
C 21.17 4.27 20.16 5.72 19.00 6.00
C 19.00 6.00 18.17 5.76 18.00 6.00
C 16.77 7.69 15.63 7.85 14.00 9.00
C 12.36 10.65 10.50 12.04 9.00 14.00
C 8.40 14.79 7.54 15.36 7.00 16.00
C 6.78 16.35 6.08 17.57 6.00 18.00
C 6.25 17.49 7.66 17.32 8.00 17.00
C 16.56 9.01 20.63 4.66 33.00 4.00 C 45.37 3.34 49.26 12.30 58.00 18.00
C 57.91 17.52 57.23 16.42 57.00 16.00
C 56.64 15.35 56.40 14.66 56.00 14.00
C 54.06 11.92 51.66 10.37 50.00 8.00
C 50.00 8.00 49.49 8.07 49.00 8.00
C 47.78 7.81 47.65 6.63 47.00 6.00
C 47.00 6.00 46.50 6.05 46.00 6.00
C 45.65 5.97 45.26 5.12 45.00 5.00
C 45.00 5.00 44.50 4.97 44.00 5.00
C 42.42 5.10 42.97 4.64 42.00 4.00
C 42.00 4.00 41.49 3.94 41.00 4.00
C 39.34 4.20 38.96 3.21 38.00 3.00
C 34.28 2.68 29.71 2.54 26.00 3.00
C 25.26 3.19 25.27 3.90 24.00 4.00 Z"/>
</g>
<g fill="#CBC7C6" fill-opacity="1.00" stroke="None">
<path d="
M 41.00 4.00 
C 39.85 2.93 39.70 3.15 38.00 3.00
C 38.96 3.21 39.34 4.20 41.00 4.00 Z"/>
</g>
<g fill="#C7C3C0" fill-opacity="1.00" stroke="None">
<path d="
M 19.00 6.00 
C 20.16 5.72 21.17 4.27 22.00 4.00
C 20.27 4.10 19.85 4.59 19.00 6.00 Z"/>
</g>
<g fill="#FAC966" fill-opacity="1.00" stroke="None">
<path d="
M 8.00 17.00 
C 8.49 17.39 7.61 19.49 8.00 20.00
C 9.83 20.23 11.47 19.93 13.00 19.00
C 18.69 16.11 20.39 9.28 28.07 9.07 C 35.76 8.86 41.87 10.44 48.00 15.00
C 50.43 16.81 51.65 18.37 53.00 21.00
C 53.38 21.73 53.72 22.23 54.00 23.00
C 55.59 24.50 57.67 24.17 59.00 23.00
C 58.48 22.13 58.15 20.08 58.00 19.00
C 57.93 18.51 58.00 18.00 58.00 18.00
C 49.26 12.30 45.37 3.34 33.00 4.00 C 20.63 4.66 16.56 9.01 8.00 17.00 Z"/>
</g>
<g fill="#D0CBCB" fill-opacity="1.00" stroke="None">
<path d="
M 44.00 5.00 
C 43.03 4.36 43.58 3.90 42.00 4.00
C 42.97 4.64 42.42 5.10 44.00 5.00 Z"/>
</g>
<g fill="#F6F6F6" fill-opacity="0.25" stroke="None">
<path d="
M 16.00 7.00 
C 16.34 6.79 17.83 6.23 18.00 6.00
C 16.71 4.68 17.08 6.06 16.00 7.00 Z"/>
</g>
<g fill="#D0CCCC" fill-opacity="1.00" stroke="None">
<path d="
M 46.00 6.00 
C 45.74 5.88 45.35 5.03 45.00 5.00
C 45.26 5.12 45.65 5.97 46.00 6.00 Z"/>
</g>
<g fill="#AFA6A5" fill-opacity="1.00" stroke="None">
<path d="
M 16.00 7.00 
C 14.99 7.64 14.81 8.19 14.00 9.00
C 15.63 7.85 16.77 7.69 18.00 6.00
C 17.83 6.23 16.34 6.79 16.00 7.00 Z"/>
</g>
<g fill="#CFCBCB" fill-opacity="1.00" stroke="None">
<path d="
M 49.00 8.00 
C 48.35 7.37 48.22 6.19 47.00 6.00
C 47.65 6.63 47.78 7.81 49.00 8.00 Z"/>
</g>
<g fill="#C8C4C3" fill-opacity="1.00" stroke="None">
<path d="
M 56.00 14.00 
C 54.73 11.91 52.30 9.12 50.00 8.00
C 51.66 10.37 54.06 11.92 56.00 14.00 Z"/>
</g>
<g fill="#BD4E04" fill-opacity="1.00" stroke="None">
<path d="
M 13.00 19.00 
C 15.46 16.41 15.59 17.96 17.00 20.00
C 19.07 16.97 22.27 14.09 26.00 14.00
C 31.03 12.70 37.21 12.63 42.00 15.00
C 46.15 17.05 47.88 20.79 50.77 24.23 C 53.66 27.67 49.26 36.69 55.00 38.00
C 54.63 36.46 56.43 35.60 56.00 34.00
C 56.48 30.55 55.15 26.13 54.00 23.00
C 53.72 22.23 53.38 21.73 53.00 21.00
C 51.60 19.25 49.70 16.61 48.00 15.00
C 41.87 10.44 35.76 8.86 28.07 9.07 C 20.39 9.28 18.69 16.11 13.00 19.00 Z"/>
</g>
<g fill="#F68B08" fill-opacity="1.00" stroke="None">
<path d="
M 26.00 14.00 
C 21.56 15.72 8.69 26.10 16.00 31.00
C 17.97 29.28 20.29 31.06 17.00 32.00
C 18.82 33.28 20.46 31.49 22.00 30.00
C 26.20 34.87 38.46 34.62 43.00 30.00
C 55.33 39.07 49.95 18.50 42.00 15.00
C 37.21 12.63 31.03 12.70 26.00 14.00
M 34.00 19.00 
C 32.09 21.49 30.02 18.19 34.00 19.00
M 25.00 32.00 
C 24.83 25.46 30.69 18.51 37.25 25.75 C 43.81 33.00 31.20 32.65 25.00 32.00
M 48.00 31.00 
C 48.74 31.74 47.18 30.18 48.00 31.00 Z"/>
</g>
<g fill="#B4ADA9" fill-opacity="1.00" stroke="None">
<path d="
M 7.00 16.00 
C 7.54 15.36 8.40 14.79 9.00 14.00
C 8.25 14.74 7.64 14.98 7.00 16.00 Z"/>
</g>
<g fill="#E06504" fill-opacity="1.00" stroke="None">
<path d="
M 13.00 19.00 
C 2.69 29.84 12.18 42.24 21.75 49.25 C 31.33 56.26 46.71 46.99 53.00 43.00
C 52.97 46.95 48.71 48.88 47.00 52.00
C 48.57 51.04 50.25 49.69 51.00 48.00
C 51.93 53.26 53.89 50.48 57.00 48.00
C 57.61 43.88 60.43 40.24 61.00 36.00
C 60.85 35.01 58.21 33.66 59.00 32.00
C 56.99 31.18 57.53 33.82 56.00 34.00
C 56.43 35.60 54.63 36.46 55.00 38.00
C 49.26 36.69 53.66 27.67 50.77 24.23 C 47.88 20.79 46.15 17.05 42.00 15.00
C 49.95 18.50 55.33 39.07 43.00 30.00
C 38.46 34.62 26.20 34.87 22.00 30.00
C 20.46 31.49 18.82 33.28 17.00 32.00
C 16.70 31.79 16.27 31.18 16.00 31.00
C 8.69 26.10 21.56 15.72 26.00 14.00
C 22.27 14.09 19.07 16.97 17.00 20.00
C 15.59 17.96 15.46 16.41 13.00 19.00
M 24.00 41.00 
C 23.75 40.73 24.00 40.00 24.00 40.00
C 21.94 38.91 21.77 37.26 22.00 35.00
C 28.13 36.89 36.14 35.89 42.00 36.00
C 40.44 41.48 44.53 40.18 48.00 42.00
C 43.36 53.01 24.32 54.66 18.00 44.00
C 20.22 44.13 24.08 43.93 24.00 41.00 Z"/>
</g>
<g fill="#D2791C" fill-opacity="1.00" stroke="None">
<path d="
M 53.00 21.00 
C 51.65 18.37 50.43 16.81 48.00 15.00
C 49.70 16.61 51.60 19.25 53.00 21.00 Z"/>
</g>
<g fill="#BDB3B1" fill-opacity="1.00" stroke="None">
<path d="
M 58.00 18.00 
C 58.00 18.00 57.93 18.51 58.00 19.00
C 59.11 20.08 59.89 21.28 60.00 23.00
C 60.03 23.50 60.00 24.00 60.00 24.00
C 60.35 24.63 61.84 26.39 62.00 27.00
C 61.54 22.51 59.87 19.20 57.00 16.00
C 57.23 16.42 57.91 17.52 58.00 18.00 Z"/>
</g>
<g fill="#F18B1C" fill-opacity="1.00" stroke="None">
<path d="
M 6.00 18.00 
C 6.00 18.00 6.05 18.50 6.00 19.00
C 5.97 19.35 5.11 19.74 5.00 20.00
C 4.82 20.42 5.07 21.51 5.00 22.00
C 4.84 23.10 4.18 23.36 4.00 24.00
C 4.23 24.16 4.00 25.50 4.00 26.00
C 4.00 30.00 4.00 34.00 4.00 38.00
C 9.27 35.14 11.44 48.77 17.00 52.00
C 24.70 58.71 39.04 56.87 47.00 52.00
C 48.71 48.88 52.97 46.95 53.00 43.00
C 46.71 46.99 31.33 56.26 21.75 49.25 C 12.18 42.24 2.69 29.84 13.00 19.00
C 11.47 19.93 9.83 20.23 8.00 20.00
C 7.61 19.49 8.49 17.39 8.00 17.00
C 7.66 17.32 6.25 17.49 6.00 18.00 Z"/>
</g>
<g fill="#887777" fill-opacity="1.00" stroke="None">
<path d="
M 5.00 20.00 
C 5.11 19.74 5.97 19.35 6.00 19.00
C 5.88 19.26 5.23 19.72 5.00 20.00 Z"/>
</g>
<g fill="#C04500" fill-opacity="1.00" stroke="None">
<path d="
M 34.00 19.00 
C 30.02 18.19 32.09 21.49 34.00 19.00 Z"/>
</g>
<g fill="#986E39" fill-opacity="1.00" stroke="None">
<path d="
M 59.00 23.00 
C 59.28 22.75 60.00 23.00 60.00 23.00
C 59.89 21.28 59.11 20.08 58.00 19.00
C 58.15 20.08 58.48 22.13 59.00 23.00 Z"/>
</g>
<g fill="#BBB2B2" fill-opacity="1.00" stroke="None">
<path d="
M 4.00 22.00 
C 4.25 21.75 5.00 22.00 5.00 22.00
C 5.07 21.51 4.82 20.42 5.00 20.00
C 4.27 20.90 3.90 20.48 4.00 22.00 Z"/>
</g>
<g fill="#A87E4B" fill-opacity="1.00" stroke="None">
<path d="
M 4.00 23.00 
C 4.00 23.50 4.00 24.00 4.00 24.00
C 4.18 23.36 4.84 23.10 5.00 22.00
C 5.00 22.00 4.25 21.75 4.00 22.00
C 4.00 22.00 4.00 22.50 4.00 23.00 Z"/>
</g>
<g fill="#DFDDDD" fill-opacity="1.00" stroke="None">
<path d="
M 3.00 24.00 
C 3.34 23.77 4.00 24.00 4.00 24.00
C 4.00 24.00 4.00 23.50 4.00 23.00
C 3.88 23.26 3.09 23.65 3.00 24.00 Z"/>
</g>
<g fill="#FDB73D" fill-opacity="1.00" stroke="None">
<path d="
M 25.00 32.00 
C 31.20 32.65 43.81 33.00 37.25 25.75 C 30.69 18.51 24.83 25.46 25.00 32.00 Z"/>
</g>
<g fill="#EF8F1E" fill-opacity="1.00" stroke="None">
<path d="
M 56.00 34.00 
C 57.53 33.82 56.99 31.18 59.00 32.00
C 58.21 33.66 60.85 35.01 61.00 36.00
C 61.57 31.71 60.10 28.10 60.00 24.00
C 60.00 24.00 60.03 23.50 60.00 23.00
C 60.00 23.00 59.28 22.75 59.00 23.00
C 57.67 24.17 55.59 24.50 54.00 23.00
C 55.15 26.13 56.48 30.55 56.00 34.00 Z"/>
</g>
<g fill="#9E8D87" fill-opacity="1.00" stroke="None">
<path d="
M 3.00 26.00 
C 3.25 25.75 4.00 26.00 4.00 26.00
C 4.00 25.50 4.23 24.16 4.00 24.00
C 4.00 24.00 3.34 23.77 3.00 24.00
C 2.88 24.47 3.00 25.50 3.00 26.00 Z"/>
</g>
<g fill="#936240" fill-opacity="1.00" stroke="None">
<path d="
M 61.00 36.00 
C 60.43 40.24 57.61 43.88 57.00 48.00
C 57.40 47.80 58.00 48.00 58.00 48.00
C 58.00 48.00 57.95 47.50 58.00 47.00
C 58.03 46.65 58.88 46.26 59.00 46.00
C 59.00 46.00 58.95 45.50 59.00 45.00
C 59.03 44.65 59.89 44.26 60.00 44.00
C 60.12 43.53 59.88 42.47 60.00 42.00
C 60.09 41.65 60.89 41.26 61.00 41.00
C 61.12 40.53 60.88 39.47 61.00 39.00
C 61.09 38.65 61.95 38.23 62.00 38.00
C 62.48 34.70 62.34 30.32 62.00 27.00
C 61.84 26.39 60.35 24.63 60.00 24.00
C 60.10 28.10 61.57 31.71 61.00 36.00 Z"/>
</g>
<g fill="#D65B12" fill-opacity="1.00" stroke="None">
<path d="
M 3.00 27.00 
C 3.00 30.39 2.27 34.70 3.00 38.00
C 3.01 38.05 3.87 40.75 4.00 41.00
C 4.14 41.27 4.97 41.65 5.00 42.00
C 5.05 42.50 5.00 43.00 5.00 43.00
C 5.00 43.00 4.95 43.50 5.00 44.00
C 5.12 44.26 5.85 44.66 6.00 45.00
C 6.38 45.87 6.66 47.07 7.00 48.00
C 7.24 48.26 7.73 48.79 8.00 49.00
C 10.41 50.87 12.53 53.30 15.00 55.00
C 16.67 54.76 15.17 52.15 17.00 52.00
C 11.44 48.77 9.27 35.14 4.00 38.00
C 4.00 34.00 4.00 30.00 4.00 26.00
C 4.00 26.00 3.25 25.75 3.00 26.00
C 3.00 26.00 3.00 26.50 3.00 27.00 Z"/>
</g>
<g fill="#D0C7C7" fill-opacity="1.00" stroke="None">
<path d="
M 3.00 38.00 
C 2.27 34.70 3.00 30.39 3.00 27.00
C 0.82 29.95 2.25 34.97 3.00 38.00 Z"/>
</g>
<g fill="#FFC755" fill-opacity="1.00" stroke="None">
<path d="
M 16.00 31.00 
C 16.27 31.18 16.70 31.79 17.00 32.00
C 20.29 31.06 17.97 29.28 16.00 31.00 Z"/>
</g>
<g fill="#FECB49" fill-opacity="1.00" stroke="None">
<path d="
M 48.00 31.00 
C 47.18 30.18 48.74 31.74 48.00 31.00 Z"/>
</g>
<g fill="#D64E01" fill-opacity="1.00" stroke="None">
<path d="
M 24.00 40.00 
C 27.23 36.66 36.58 39.24 41.00 38.00
C 40.62 41.24 37.02 43.64 34.00 44.00
C 37.18 45.78 32.13 49.64 30.00 48.00
C 29.59 46.44 30.46 45.31 31.00 44.00
C 28.07 43.98 26.01 43.14 24.00 41.00
C 24.08 43.93 20.22 44.13 18.00 44.00
C 24.32 54.66 43.36 53.01 48.00 42.00
C 44.53 40.18 40.44 41.48 42.00 36.00
C 36.14 35.89 28.13 36.89 22.00 35.00
C 21.77 37.26 21.94 38.91 24.00 40.00 Z"/>
</g>
<g fill="#9F8B87" fill-opacity="1.00" stroke="None">
<path d="
M 4.00 41.00 
C 3.87 40.75 3.01 38.05 3.00 38.00
C 3.38 39.53 2.97 39.89 4.00 41.00 Z"/>
</g>
<g fill="#BF3901" fill-opacity="1.00" stroke="None">
<path d="
M 24.00 40.00 
C 24.00 40.00 23.75 40.73 24.00 41.00
C 26.01 43.14 28.07 43.98 31.00 44.00
C 31.98 44.01 33.03 44.10 34.00 44.00
C 37.02 43.64 40.62 41.24 41.00 38.00
C 36.58 39.24 27.23 36.66 24.00 40.00 Z"/>
</g>
<g fill="#A79999" fill-opacity="1.00" stroke="None">
<path d="
M 61.00 39.00 
C 61.11 38.74 61.95 38.35 62.00 38.00
C 61.95 38.23 61.09 38.65 61.00 39.00 Z"/>
</g>
<g fill="#8F4C33" fill-opacity="1.00" stroke="None">
<path d="
M 4.00 42.00 
C 4.25 42.25 5.00 42.00 5.00 42.00
C 4.97 41.65 4.14 41.27 4.00 41.00
C 4.00 41.00 3.95 41.50 4.00 42.00 Z"/>
</g>
<g fill="#AB9A99" fill-opacity="1.00" stroke="None">
<path d="
M 60.00 42.00 
C 60.11 41.74 60.91 41.35 61.00 41.00
C 60.89 41.26 60.09 41.65 60.00 42.00 Z"/>
</g>
<g fill="#9D7777" fill-opacity="1.00" stroke="None">
<path d="
M 5.00 43.00 
C 5.00 43.00 5.05 42.50 5.00 42.00
C 5.00 42.00 4.25 42.25 4.00 42.00
C 4.03 42.35 4.88 42.74 5.00 43.00 Z"/>
</g>
<g fill="#885444" fill-opacity="1.00" stroke="None">
<path d="
M 6.00 45.00 
C 5.85 44.66 5.12 44.26 5.00 44.00
C 5.03 44.35 5.82 44.73 6.00 45.00 Z"/>
</g>
<g fill="#E37517" fill-opacity="1.00" stroke="None">
<path d="
M 34.00 44.00 
C 33.03 44.10 31.98 44.01 31.00 44.00
C 30.46 45.31 29.59 46.44 30.00 48.00
C 32.13 49.64 37.18 45.78 34.00 44.00
M 34.00 45.00 
C 35.00 46.00 32.39 48.03 31.32 46.66 C 30.25 45.29 33.32 44.32 34.00 45.00 Z"/>
</g>
<g fill="#AB9999" fill-opacity="1.00" stroke="None">
<path d="
M 59.00 45.00 
C 59.12 44.74 59.91 44.35 60.00 44.00
C 59.89 44.26 59.03 44.65 59.00 45.00 Z"/>
</g>
<g fill="#FFB74C" fill-opacity="1.00" stroke="None">
<path d="
M 34.00 45.00 
C 33.32 44.32 30.25 45.29 31.32 46.66 C 32.39 48.03 35.00 46.00 34.00 45.00 Z"/>
</g>
<g fill="#B7AAAA" fill-opacity="1.00" stroke="None">
<path d="
M 58.00 47.00 
C 58.12 46.74 58.97 46.35 59.00 46.00
C 58.88 46.26 58.03 46.65 58.00 47.00 Z"/>
</g>
<g fill="#947977" fill-opacity="1.00" stroke="None">
<path d="
M 7.00 49.00 
C 7.25 49.25 8.00 49.00 8.00 49.00
C 7.73 48.79 7.24 48.26 7.00 48.00
C 7.00 48.00 6.80 48.60 7.00 49.00 Z"/>
</g>
<g fill="#C1450E" fill-opacity="1.00" stroke="None">
<path d="
M 47.00 52.00 
C 39.04 56.87 24.70 58.71 17.00 52.00
C 15.17 52.15 16.67 54.76 15.00 55.00
C 12.53 53.30 10.41 50.87 8.00 49.00
C 9.81 51.59 12.35 54.36 15.00 56.00
C 15.32 56.20 15.90 56.65 16.00 57.00
C 16.74 57.14 17.37 57.60 18.00 58.00
C 18.31 58.20 18.74 58.88 19.00 59.00
C 19.00 59.00 19.50 59.03 20.00 59.00
C 21.55 58.90 21.09 59.75 22.00 60.00
C 22.47 60.13 23.53 59.89 24.00 60.00
C 29.76 61.33 35.21 60.95 41.00 60.00
C 41.49 59.92 42.00 60.00 42.00 60.00
C 42.00 60.00 42.50 60.05 43.00 60.00
C 43.26 59.88 43.66 59.15 44.00 59.00
C 44.87 58.62 46.07 58.34 47.00 58.00
C 47.26 57.76 47.65 57.13 48.00 57.00
C 48.38 56.85 49.75 56.23 50.00 56.00
C 51.87 54.25 54.30 51.82 56.00 50.00
C 56.23 49.75 56.83 48.08 57.00 48.00
C 53.89 50.48 51.93 53.26 51.00 48.00
C 50.25 49.69 48.57 51.04 47.00 52.00 Z"/>
</g>
<g fill="#C1B3B2" fill-opacity="1.00" stroke="None">
<path d="
M 56.00 50.00 
C 56.63 49.35 57.81 49.22 58.00 48.00
C 58.00 48.00 57.40 47.80 57.00 48.00
C 56.83 48.08 56.23 49.75 56.00 50.00 Z"/>
</g>
<g fill="#C1B4B4" fill-opacity="1.00" stroke="None">
<path d="
M 15.00 57.00 
C 14.75 56.75 15.00 56.00 15.00 56.00
C 12.35 54.36 9.81 51.59 8.00 49.00
C 8.00 49.00 7.25 49.25 7.00 49.00
C 8.26 51.58 12.36 55.71 15.00 57.00 Z"/>
</g>
<g fill="#9A6A60" fill-opacity="1.00" stroke="None">
<path d="
M 50.00 56.00 
C 50.00 56.00 50.60 56.20 51.00 56.00
C 52.41 53.98 54.04 52.37 56.00 51.00
C 56.00 51.00 55.75 50.26 56.00 50.00
C 54.30 51.82 51.87 54.25 50.00 56.00 Z"/>
</g>
<g fill="#E0DDDD" fill-opacity="1.00" stroke="None">
<path d="
M 51.00 56.00 
C 52.83 55.11 55.08 52.88 56.00 51.00
C 54.04 52.37 52.41 53.98 51.00 56.00 Z"/>
</g>
<g fill="#8A6A66" fill-opacity="1.00" stroke="None">
<path d="
M 15.00 57.00 
C 15.00 57.00 15.52 56.91 16.00 57.00
C 15.90 56.65 15.32 56.20 15.00 56.00
C 15.00 56.00 14.75 56.75 15.00 57.00 Z"/>
</g>
<g fill="#D3CBCB" fill-opacity="1.00" stroke="None">
<path d="
M 48.00 57.00 
C 47.80 57.40 48.00 58.00 48.00 58.00
C 49.27 57.81 49.25 56.72 50.00 56.00
C 49.75 56.23 48.38 56.85 48.00 57.00 Z"/>
</g>
<g fill="#947777" fill-opacity="1.00" stroke="None">
<path d="
M 47.00 58.00 
C 47.00 58.00 47.51 58.07 48.00 58.00
C 48.00 58.00 47.80 57.40 48.00 57.00
C 47.65 57.13 47.26 57.76 47.00 58.00 Z"/>
</g>
<g fill="#9F8888" fill-opacity="1.00" stroke="None">
<path d="
M 19.00 59.00 
C 18.74 58.88 18.31 58.20 18.00 58.00
C 18.14 58.34 18.65 58.97 19.00 59.00 Z"/>
</g>
<g fill="#9E736E" fill-opacity="1.00" stroke="None">
<path d="
M 22.00 60.00 
C 21.09 59.75 21.55 58.90 20.00 59.00
C 20.80 59.54 21.09 59.55 22.00 60.00 Z"/>
</g>
<g fill="#966C66" fill-opacity="1.00" stroke="None">
<path d="
M 43.00 60.00 
C 43.35 59.97 43.73 59.18 44.00 59.00
C 43.66 59.15 43.26 59.88 43.00 60.00 Z"/>
</g>
<g fill="#BFB6B6" fill-opacity="1.00" stroke="None">
<path d="
M 26.00 62.00 
C 25.60 61.86 24.32 60.09 24.00 60.00
C 23.53 59.89 22.47 60.13 22.00 60.00
C 23.37 60.68 24.16 61.69 26.00 62.00 Z"/>
</g>
<g fill="#8B4D36" fill-opacity="1.00" stroke="None">
<path d="
M 26.00 62.00 
C 29.38 62.58 34.60 62.51 38.00 62.00
C 38.79 61.80 40.25 60.41 41.00 60.00
C 35.21 60.95 29.76 61.33 24.00 60.00
C 24.32 60.09 25.60 61.86 26.00 62.00 Z"/>
</g>
<g fill="#C6BEBE" fill-opacity="1.00" stroke="None">
<path d="
M 38.00 62.00 
C 39.97 61.71 41.07 62.07 42.00 60.00
C 42.00 60.00 41.49 59.92 41.00 60.00
C 40.25 60.41 38.79 61.80 38.00 62.00 Z"/>
</g>
</svg>