<svg xmlns="http://www.w3.org/2000/svg" xmlns:v="https://svgstorm.com"
viewBox = "0 0 63 66"
width="63"
height="66">
<g fill="None" fill-opacity="0.0" stroke="#000000" stroke-opacity="0.00" stroke-width="0.3"><path d="
M 0.00 12.00 
C 4.62 8.88 7.31 3.95 11.00 0.00
L 0.00 0.00
L 0.00 12.00 Z"/>
</g>
<g fill="None" fill-opacity="0.0" stroke="#FAFAFA" stroke-opacity="0.37" stroke-width="0.3"><path d="
M 0.00 12.00 
L 0.00 14.00
C 0.50 14.00 1.00 14.00 1.00 14.00
C 2.68 11.59 5.12 10.02 7.00 8.00
C 7.51 7.45 7.64 6.59 8.00 6.00
C 9.26 3.93 11.09 2.33 13.00 1.00
C 12.78 0.87 13.00 0.00 13.00 0.00
L 11.00 0.00
C 7.31 3.95 4.62 8.88 0.00 12.00 Z"/>
</g>
<g fill="None" fill-opacity="0.0" stroke="#F8F6F6" stroke-opacity="0.54" stroke-width="0.3"><path d="
M 13.00 1.00 
C 14.32 1.79 15.05 2.30 15.00 4.00
C 14.99 4.50 15.00 5.00 15.00 5.00
C 15.81 5.84 16.43 5.86 17.00 7.00
C 17.43 7.85 17.42 9.08 18.00 10.00
C 18.24 10.26 18.83 10.67 19.00 11.00
C 20.87 14.76 28.48 22.80 33.00 20.00
C 32.97 19.98 33.79 19.27 34.00 19.00
C 38.54 13.17 44.44 8.83 47.00 2.00
C 42.61 6.57 38.17 18.64 29.99 17.99 C 21.81 17.35 18.99 5.02 15.00 0.00
L 13.00 0.00
C 13.00 0.00 12.78 0.87 13.00 1.00 Z"/>
</g>
<g fill="None" fill-opacity="0.0" stroke="#000000" stroke-opacity="0.00" stroke-width="0.3"><path d="
M 47.00 2.00 
C 47.13 1.65 47.88 1.26 48.00 1.00
C 48.19 0.59 48.00 0.00 48.00 0.00
L 15.00 0.00
C 18.99 5.02 21.81 17.35 29.99 17.99 C 38.17 18.64 42.61 6.57 47.00 2.00 Z"/>
</g>
<g fill="None" fill-opacity="0.0" stroke="#FFFFFF" stroke-opacity="0.50" stroke-width="0.3"><path d="
M 48.00 1.00 
C 48.82 0.75 50.14 1.03 51.00 1.00
C 50.81 0.59 51.00 0.00 51.00 0.00
L 48.00 0.00
C 48.00 0.00 48.19 0.59 48.00 1.00 Z"/>
</g>
<g fill="None" fill-opacity="0.0" stroke="#000000" stroke-opacity="0.00" stroke-width="0.3"><path d="
M 51.00 1.00 
C 51.12 1.26 51.73 1.79 52.00 2.00
C 56.40 4.15 58.70 9.76 63.00 12.00
L 63.00 0.00
L 51.00 0.00
C 51.00 0.00 50.81 0.59 51.00 1.00 Z"/>
</g>
<g fill="None" fill-opacity="0.0" stroke="#D6D0D0" stroke-opacity="1.00" stroke-width="0.3"><path d="
M 8.00 6.00 
C 10.00 3.86 13.18 0.55 15.00 4.00
C 15.05 2.30 14.32 1.79 13.00 1.00
C 11.09 2.33 9.26 3.93 8.00 6.00 Z"/>
</g>
<g fill="None" fill-opacity="0.0" stroke="#FAFAFA" stroke-opacity="0.31" stroke-width="0.3"><path d="
M 47.00 2.00 
C 44.44 8.83 38.54 13.17 34.00 19.00
C 37.03 16.88 40.54 13.64 43.00 11.00
C 43.51 10.45 43.63 9.59 44.00 9.00
C 44.63 7.99 45.29 7.74 46.00 7.00
C 46.07 6.51 46.00 6.00 46.00 6.00
C 46.19 4.79 47.36 4.64 48.00 4.00
C 48.61 3.20 48.82 2.18 50.00 2.00
C 50.49 1.93 51.00 2.00 51.00 2.00
C 51.50 2.00 52.00 2.00 52.00 2.00
C 51.73 1.79 51.12 1.26 51.00 1.00
C 50.14 1.03 48.82 0.75 48.00 1.00
C 47.88 1.26 47.13 1.65 47.00 2.00 Z"/>
</g>
<g fill="None" fill-opacity="0.0" stroke="#F16C4E" stroke-opacity="1.00" stroke-width="0.3"><path d="
M 8.00 6.00 
C 7.64 6.59 7.51 7.45 7.00 8.00
C 6.82 9.35 8.20 11.05 9.00 12.00
C 15.06 19.21 23.62 25.14 30.00 32.00
C 29.51 33.70 28.31 33.96 27.00 33.00
C 23.17 33.54 20.51 32.50 18.00 36.00
C 17.55 36.62 17.38 37.38 17.00 38.00
C 15.36 40.69 11.80 44.63 9.00 46.00
C 8.60 46.20 8.00 46.00 8.00 46.00
C 7.25 46.72 7.27 47.81 6.00 48.00
C 5.51 48.07 5.00 48.00 5.00 48.00
C 4.74 48.12 4.35 48.97 4.00 49.00
C 3.50 49.05 3.00 49.00 3.00 49.00
C 2.74 49.12 2.35 49.97 2.00 50.00
C 1.50 50.05 1.00 50.00 1.00 50.00
C 1.23 50.16 0.82 51.58 1.00 52.00
C 1.11 52.26 1.97 52.65 2.00 53.00
C 2.05 53.50 2.00 54.00 2.00 54.00
C 2.24 54.49 3.62 54.73 4.00 55.00
C 9.66 59.02 16.35 47.81 21.25 43.25 C 26.15 38.69 33.65 31.68 38.25 26.25 C 42.85 20.81 51.86 15.42 55.00 9.00
C 54.75 9.25 54.00 9.00 54.00 9.00
C 51.95 8.46 50.60 5.98 51.00 4.00
C 46.87 4.15 46.72 9.81 43.00 11.00
C 40.20 13.80 37.64 18.22 34.00 20.00
C 33.60 20.20 33.00 20.00 33.00 20.00
C 28.48 22.80 20.87 14.76 19.00 11.00
C 18.83 10.73 18.20 10.32 18.00 10.00
C 17.42 9.08 17.43 7.85 17.00 7.00
C 16.43 6.14 15.20 6.34 15.00 5.00
C 15.00 5.00 14.99 4.50 15.00 4.00
C 13.18 0.55 10.00 3.86 8.00 6.00
M 9.00 9.00 
C 9.74 9.74 8.18 8.18 9.00 9.00 Z"/>
</g>
<g fill="None" fill-opacity="0.0" stroke="#C28262" stroke-opacity="1.00" stroke-width="0.3"><path d="
M 48.00 4.00 
C 47.35 4.85 46.66 5.31 46.00 6.00
C 46.00 6.00 46.07 6.51 46.00 7.00
C 45.81 8.24 44.58 8.32 44.00 9.00
C 43.63 9.59 43.51 10.45 43.00 11.00
C 46.72 9.81 46.87 4.15 51.00 4.00
C 50.60 5.98 51.95 8.46 54.00 9.00
C 53.97 8.98 54.98 7.97 55.00 8.00
C 53.51 6.51 50.80 3.92 50.00 2.00
C 48.82 2.18 48.61 3.20 48.00 4.00 Z"/>
</g>
<g fill="None" fill-opacity="0.0" stroke="#E0DBDB" stroke-opacity="1.00" stroke-width="0.3"><path d="
M 55.00 8.00 
C 56.32 9.32 58.97 10.56 60.00 12.00
C 57.74 8.18 53.50 5.58 51.00 2.00
C 51.00 2.00 50.49 1.93 50.00 2.00
C 50.80 3.92 53.51 6.51 55.00 8.00 Z"/>
</g>
<g fill="None" fill-opacity="0.0" stroke="#F7F4F4" stroke-opacity="0.55" stroke-width="0.3"><path d="
M 60.00 12.00 
C 60.63 13.06 61.58 13.86 62.00 15.00
C 56.60 18.95 48.50 21.23 46.00 28.00
C 45.87 28.35 45.24 28.75 45.00 29.00
C 44.18 30.28 43.89 31.44 44.00 33.00
C 44.02 32.97 44.97 33.65 45.00 34.00
C 45.05 34.50 45.00 35.00 45.00 35.00
C 45.14 35.80 45.85 36.16 46.00 37.00
C 46.60 37.71 47.41 38.23 48.00 39.00
C 50.08 41.72 53.32 46.06 56.00 48.00
C 57.05 48.58 57.98 48.56 59.00 49.00
C 59.34 49.15 59.74 49.88 60.00 50.00
C 60.41 50.19 61.00 50.00 61.00 50.00
C 61.80 50.14 62.12 51.07 63.00 51.00
L 63.00 49.00
C 57.24 45.46 47.17 40.73 46.22 32.78 C 45.28 24.82 58.42 20.85 63.00 17.00
L 63.00 12.00
C 58.70 9.76 56.40 4.15 52.00 2.00
C 52.00 2.00 51.50 2.00 51.00 2.00
C 53.50 5.58 57.74 8.18 60.00 12.00 Z"/>
</g>
<g fill="None" fill-opacity="0.0" stroke="#D5CBCB" stroke-opacity="1.00" stroke-width="0.3"><path d="
M 46.00 6.00 
C 46.66 5.31 47.35 4.85 48.00 4.00
C 47.36 4.64 46.19 4.79 46.00 6.00 Z"/>
</g>
<g fill="None" fill-opacity="0.0" stroke="#CCC3C3" stroke-opacity="1.00" stroke-width="0.3"><path d="
M 17.00 7.00 
C 16.43 5.86 15.81 5.84 15.00 5.00
C 15.20 6.34 16.43 6.14 17.00 7.00 Z"/>
</g>
<g fill="None" fill-opacity="0.0" stroke="#CDC3C3" stroke-opacity="1.00" stroke-width="0.3"><path d="
M 44.00 9.00 
C 44.58 8.32 45.81 8.24 46.00 7.00
C 45.29 7.74 44.63 7.99 44.00 9.00 Z"/>
</g>
<g fill="None" fill-opacity="0.0" stroke="#C02F28" stroke-opacity="1.00" stroke-width="0.3"><path d="
M 1.00 14.00 
C 1.13 14.07 2.18 15.84 2.00 16.00
C 5.56 17.40 8.95 19.74 12.00 22.00
C 13.65 23.22 14.88 24.32 16.00 26.00
C 17.43 28.15 19.19 31.33 19.00 34.00
C 19.03 34.02 18.12 34.74 18.00 35.00
C 18.00 35.50 18.00 36.00 18.00 36.00
C 20.51 32.50 23.17 33.54 27.00 33.00
C 22.61 31.79 17.83 25.19 14.23 21.77 C 10.63 18.35 1.95 15.67 6.00 10.00
C 7.13 10.57 7.12 12.52 9.00 12.00
C 8.20 11.05 6.82 9.35 7.00 8.00
C 5.12 10.02 2.68 11.59 1.00 14.00 Z"/>
</g>
<g fill="None" fill-opacity="0.0" stroke="#FFD3A7" stroke-opacity="1.00" stroke-width="0.3"><path d="
M 54.00 9.00 
C 54.00 9.00 54.75 9.25 55.00 9.00
C 55.20 8.60 55.00 8.00 55.00 8.00
C 54.98 7.97 53.97 8.98 54.00 9.00 Z"/>
</g>
<g fill="None" fill-opacity="0.0" stroke="#A71811" stroke-opacity="1.00" stroke-width="0.3"><path d="
M 55.00 9.00 
C 51.86 15.42 42.85 20.81 38.25 26.25 C 33.65 31.68 26.15 38.69 21.25 43.25 C 16.35 47.81 9.66 59.02 4.00 55.00
C 4.20 55.40 4.00 56.00 4.00 56.00
C 7.17 58.42 9.79 61.73 13.00 64.00
C 17.72 56.38 26.52 40.00 37.00 49.00
C 40.00 51.23 42.81 54.05 45.00 57.00
C 46.65 59.22 47.85 61.52 49.00 64.00
C 52.03 63.59 54.26 60.26 56.00 58.00
C 52.29 58.00 48.51 49.79 45.25 47.75 C 41.99 45.71 37.51 39.97 35.00 37.00
C 34.17 36.02 32.14 35.60 32.00 34.00
C 35.67 32.93 40.39 32.10 44.00 34.00
C 43.75 33.75 44.00 33.00 44.00 33.00
C 43.89 31.44 44.18 30.28 45.00 29.00
C 45.20 28.69 45.88 28.26 46.00 28.00
C 48.50 21.23 56.60 18.95 62.00 15.00
C 61.58 13.86 60.63 13.06 60.00 12.00
C 58.97 10.56 56.32 9.32 55.00 8.00
C 55.00 8.00 55.20 8.60 55.00 9.00 Z"/>
</g>
<g fill="None" fill-opacity="0.0" stroke="#FFCEA7" stroke-opacity="1.00" stroke-width="0.3"><path d="
M 9.00 9.00 
C 8.18 8.18 9.74 9.74 9.00 9.00 Z"/>
</g>
<g fill="None" fill-opacity="0.0" stroke="#9D0501" stroke-opacity="1.00" stroke-width="0.3"><path d="
M 27.00 33.00 
C 28.31 33.96 29.51 33.70 30.00 32.00
C 23.62 25.14 15.06 19.21 9.00 12.00
C 7.12 12.52 7.13 10.57 6.00 10.00
C 1.95 15.67 10.63 18.35 14.23 21.77 C 17.83 25.19 22.61 31.79 27.00 33.00 Z"/>
</g>
<g fill="None" fill-opacity="0.0" stroke="#A78888" stroke-opacity="1.00" stroke-width="0.3"><path d="
M 19.00 11.00 
C 18.83 10.67 18.24 10.26 18.00 10.00
C 18.20 10.32 18.83 10.73 19.00 11.00 Z"/>
</g>
<g fill="None" fill-opacity="0.0" stroke="#AE908F" stroke-opacity="1.00" stroke-width="0.3"><path d="
M 34.00 19.00 
C 33.77 19.16 34.00 20.00 34.00 20.00
C 37.64 18.22 40.20 13.80 43.00 11.00
C 40.54 13.64 37.03 16.88 34.00 19.00 Z"/>
</g>
<g fill="None" fill-opacity="0.0" stroke="#A5706E" stroke-opacity="1.00" stroke-width="0.3"><path d="
M 0.00 15.00 
C 0.34 15.17 0.74 15.88 1.00 16.00
C 1.50 16.00 2.00 16.00 2.00 16.00
C 2.18 15.84 1.13 14.07 1.00 14.00
C 1.00 14.00 0.50 14.00 0.00 14.00
L 0.00 15.00 Z"/>
</g>
<g fill="None" fill-opacity="0.0" stroke="#E3DDDD" stroke-opacity="1.00" stroke-width="0.3"><path d="
M 0.00 16.00 
C 0.50 16.00 1.00 16.00 1.00 16.00
C 0.74 15.88 0.34 15.17 0.00 15.00
L 0.00 16.00 Z"/>
</g>
<g fill="None" fill-opacity="0.0" stroke="#F7F5F5" stroke-opacity="0.55" stroke-width="0.3"><path d="
M 0.00 18.00 
C 5.17 20.17 17.48 25.70 16.92 33.08 C 16.37 40.45 5.02 45.08 0.00 48.00
L 0.00 50.00
C 0.50 50.00 1.00 50.00 1.00 50.00
C 1.00 50.00 1.50 50.05 2.00 50.00
C 2.26 49.88 2.65 49.03 3.00 49.00
C 3.00 49.00 3.50 49.05 4.00 49.00
C 4.26 48.88 4.65 48.03 5.00 48.00
C 5.00 48.00 5.51 48.07 6.00 48.00
C 6.25 47.75 6.00 47.00 6.00 47.00
C 6.42 45.77 7.82 44.40 9.00 44.00
C 9.45 43.85 10.00 44.00 10.00 44.00
C 12.43 40.53 15.33 36.97 18.00 34.00
C 18.25 33.75 19.00 34.00 19.00 34.00
C 19.19 31.33 17.43 28.15 16.00 26.00
C 15.18 24.96 12.97 22.84 12.00 22.00
C 8.95 19.74 5.56 17.40 2.00 16.00
C 2.00 16.00 1.50 16.00 1.00 16.00
C 1.00 16.00 0.50 16.00 0.00 16.00
L 0.00 18.00 Z"/>
</g>
<g fill="None" fill-opacity="0.0" stroke="#000000" stroke-opacity="0.00" stroke-width="0.3"><path d="
M 63.00 49.00 
L 63.00 17.00
C 58.42 20.85 45.28 24.82 46.22 32.78 C 47.17 40.73 57.24 45.46 63.00 49.00 Z"/>
</g>
<g fill="None" fill-opacity="0.0" stroke="#000000" stroke-opacity="0.00" stroke-width="0.3"><path d="
M 0.00 48.00 
C 5.02 45.08 16.37 40.45 16.92 33.08 C 17.48 25.70 5.17 20.17 0.00 18.00
L 0.00 48.00 Z"/>
</g>
<g fill="None" fill-opacity="0.0" stroke="#E2DDDD" stroke-opacity="1.00" stroke-width="0.3"><path d="
M 33.00 20.00 
C 33.00 20.00 33.60 20.20 34.00 20.00
C 34.00 20.00 33.77 19.16 34.00 19.00
C 33.79 19.27 32.97 19.98 33.00 20.00 Z"/>
</g>
<g fill="None" fill-opacity="0.0" stroke="#B07F7F" stroke-opacity="1.00" stroke-width="0.3"><path d="
M 16.00 26.00 
C 14.88 24.32 13.65 23.22 12.00 22.00
C 12.97 22.84 15.18 24.96 16.00 26.00 Z"/>
</g>
<g fill="None" fill-opacity="0.0" stroke="#D5CCCC" stroke-opacity="1.00" stroke-width="0.3"><path d="
M 45.00 29.00 
C 45.24 28.75 45.87 28.35 46.00 28.00
C 45.88 28.26 45.20 28.69 45.00 29.00 Z"/>
</g>
<g fill="None" fill-opacity="0.0" stroke="#EE5B3E" stroke-opacity="1.00" stroke-width="0.3"><path d="
M 35.00 37.00 
C 41.41 41.79 50.39 54.13 60.00 53.00
C 59.43 52.06 58.85 51.18 59.00 50.00
C 58.81 49.59 59.00 49.00 59.00 49.00
C 57.98 48.56 57.05 48.58 56.00 48.00
C 52.82 46.25 47.57 41.22 46.00 38.00
C 45.80 37.60 46.00 37.00 46.00 37.00
C 45.85 36.16 45.14 35.80 45.00 35.00
C 44.76 34.74 44.27 34.21 44.00 34.00
C 40.39 32.10 35.67 32.93 32.00 34.00
C 32.14 35.60 34.17 36.02 35.00 37.00 Z"/>
</g>
<g fill="None" fill-opacity="0.0" stroke="#E0DDDD" stroke-opacity="1.00" stroke-width="0.3"><path d="
M 44.00 34.00 
C 44.25 34.25 45.00 34.00 45.00 34.00
C 44.97 33.65 44.02 32.97 44.00 33.00
C 44.00 33.00 43.75 33.75 44.00 34.00 Z"/>
</g>
<g fill="None" fill-opacity="0.0" stroke="#F8F8F8" stroke-opacity="0.27" stroke-width="0.3"><path d="
M 10.00 44.00 
C 11.58 42.30 13.52 40.79 15.00 39.00
C 16.03 37.76 16.73 36.94 18.00 36.00
C 18.00 36.00 18.00 35.50 18.00 35.00
C 18.00 34.50 18.00 34.00 18.00 34.00
C 15.33 36.97 12.43 40.53 10.00 44.00 Z"/>
</g>
<g fill="None" fill-opacity="0.0" stroke="#D6CCCC" stroke-opacity="1.00" stroke-width="0.3"><path d="
M 18.00 35.00 
C 18.12 34.74 19.03 34.02 19.00 34.00
C 19.00 34.00 18.25 33.75 18.00 34.00
C 18.00 34.00 18.00 34.50 18.00 35.00 Z"/>
</g>
<g fill="None" fill-opacity="0.0" stroke="#AF9999" stroke-opacity="1.00" stroke-width="0.3"><path d="
M 45.00 35.00 
C 45.00 35.00 45.05 34.50 45.00 34.00
C 45.00 34.00 44.25 34.25 44.00 34.00
C 44.27 34.21 44.76 34.74 45.00 35.00 Z"/>
</g>
<g fill="None" fill-opacity="0.0" stroke="#D2C6C6" stroke-opacity="1.00" stroke-width="0.3"><path d="
M 15.00 39.00 
C 15.47 38.56 16.61 38.39 17.00 38.00
C 17.38 37.38 17.55 36.62 18.00 36.00
C 16.73 36.94 16.03 37.76 15.00 39.00 Z"/>
</g>
<g fill="None" fill-opacity="0.0" stroke="#F98B6A" stroke-opacity="1.00" stroke-width="0.3"><path d="
M 35.00 37.00 
C 37.51 39.97 41.99 45.71 45.25 47.75 C 48.51 49.79 52.29 58.00 56.00 58.00
C 57.22 56.78 58.80 55.12 60.00 54.00
C 60.55 52.70 61.44 51.23 60.00 50.00
C 59.71 49.75 59.00 50.00 59.00 50.00
C 58.85 51.18 59.43 52.06 60.00 53.00
C 50.39 54.13 41.41 41.79 35.00 37.00 Z"/>
</g>
<g fill="None" fill-opacity="0.0" stroke="#D9CBCB" stroke-opacity="1.00" stroke-width="0.3"><path d="
M 46.00 38.00 
C 46.25 38.51 47.66 38.68 48.00 39.00
C 47.41 38.23 46.60 37.71 46.00 37.00
C 46.00 37.00 45.80 37.60 46.00 38.00 Z"/>
</g>
<g fill="None" fill-opacity="0.0" stroke="#B37764" stroke-opacity="1.00" stroke-width="0.3"><path d="
M 15.00 39.00 
C 13.52 40.79 11.58 42.30 10.00 44.00
C 9.77 44.25 9.17 45.92 9.00 46.00
C 11.80 44.63 15.36 40.69 17.00 38.00
C 16.61 38.39 15.47 38.56 15.00 39.00 Z"/>
</g>
<g fill="None" fill-opacity="0.0" stroke="#B18E86" stroke-opacity="1.00" stroke-width="0.3"><path d="
M 56.00 48.00 
C 53.32 46.06 50.08 41.72 48.00 39.00
C 47.66 38.68 46.25 38.51 46.00 38.00
C 47.57 41.22 52.82 46.25 56.00 48.00 Z"/>
</g>
<g fill="None" fill-opacity="0.0" stroke="#F9F9F9" stroke-opacity="0.25" stroke-width="0.3"><path d="
M 6.00 47.00 
C 6.25 46.49 7.67 46.33 8.00 46.00
C 8.26 45.74 8.81 44.09 9.00 44.00
C 7.82 44.40 6.42 45.77 6.00 47.00 Z"/>
</g>
<g fill="None" fill-opacity="0.0" stroke="#D1CBCB" stroke-opacity="1.00" stroke-width="0.3"><path d="
M 8.00 46.00 
C 8.00 46.00 8.60 46.20 9.00 46.00
C 9.17 45.92 9.77 44.25 10.00 44.00
C 10.00 44.00 9.45 43.85 9.00 44.00
C 8.81 44.09 8.26 45.74 8.00 46.00 Z"/>
</g>
<g fill="None" fill-opacity="0.0" stroke="#A98471" stroke-opacity="1.00" stroke-width="0.3"><path d="
M 6.00 47.00 
C 6.00 47.00 6.25 47.75 6.00 48.00
C 7.27 47.81 7.25 46.72 8.00 46.00
C 7.67 46.33 6.25 46.49 6.00 47.00 Z"/>
</g>
<g fill="None" fill-opacity="0.0" stroke="#F8F5F5" stroke-opacity="0.55" stroke-width="0.3"><path d="
M 4.00 56.00 
C 3.20 55.39 2.18 55.18 2.00 54.00
C 2.00 54.00 2.05 53.50 2.00 53.00
C 1.88 52.74 1.26 52.12 1.00 52.00
C 0.59 51.81 0.00 52.00 0.00 52.00
L 0.00 55.00
C 4.32 58.14 8.89 61.51 12.00 66.00
L 14.00 66.00
C 18.95 61.48 22.40 47.36 31.03 48.03 C 39.65 48.69 43.51 60.85 48.00 66.00
L 52.00 66.00
C 55.19 62.02 59.03 58.11 63.00 55.00
L 63.00 53.00
C 62.50 53.00 62.00 53.00 62.00 53.00
C 61.74 53.05 60.15 53.86 60.00 54.00
C 58.80 55.12 57.22 56.78 56.00 58.00
C 54.26 60.26 52.03 63.59 49.00 64.00
C 47.85 61.52 46.65 59.22 45.00 57.00
C 42.84 54.52 39.42 51.11 37.00 49.00
C 26.52 40.00 17.72 56.38 13.00 64.00
C 9.79 61.73 7.17 58.42 4.00 56.00 Z"/>
</g>
<g fill="None" fill-opacity="0.0" stroke="#AD8888" stroke-opacity="1.00" stroke-width="0.3"><path d="
M 4.00 49.00 
C 4.35 48.97 4.74 48.12 5.00 48.00
C 4.65 48.03 4.26 48.88 4.00 49.00 Z"/>
</g>
<g fill="None" fill-opacity="0.0" stroke="#000000" stroke-opacity="0.00" stroke-width="0.3"><path d="
M 14.00 66.00 
L 48.00 66.00
C 43.51 60.85 39.65 48.69 31.03 48.03 C 22.40 47.36 18.95 61.48 14.00 66.00 Z"/>
</g>
<g fill="None" fill-opacity="0.0" stroke="#A89999" stroke-opacity="1.00" stroke-width="0.3"><path d="
M 2.00 50.00 
C 2.35 49.97 2.74 49.12 3.00 49.00
C 2.65 49.03 2.26 49.88 2.00 50.00 Z"/>
</g>
<g fill="None" fill-opacity="0.0" stroke="#B68585" stroke-opacity="1.00" stroke-width="0.3"><path d="
M 45.00 57.00 
C 42.81 54.05 40.00 51.23 37.00 49.00
C 39.42 51.11 42.84 54.52 45.00 57.00 Z"/>
</g>
<g fill="None" fill-opacity="0.0" stroke="#D3CCCC" stroke-opacity="1.00" stroke-width="0.3"><path d="
M 59.00 50.00 
C 59.00 50.00 59.71 49.75 60.00 50.00
C 59.74 49.88 59.34 49.15 59.00 49.00
C 59.00 49.00 58.81 49.59 59.00 50.00 Z"/>
</g>
<g fill="None" fill-opacity="0.0" stroke="#AC9C98" stroke-opacity="1.00" stroke-width="0.3"><path d="
M 0.00 52.00 
C 0.00 52.00 0.59 51.81 1.00 52.00
C 0.82 51.58 1.23 50.16 1.00 50.00
C 1.00 50.00 0.50 50.00 0.00 50.00
L 0.00 52.00 Z"/>
</g>
<g fill="None" fill-opacity="0.0" stroke="#B1816A" stroke-opacity="1.00" stroke-width="0.3"><path d="
M 60.00 54.00 
C 60.15 53.86 61.74 53.05 62.00 53.00
C 61.68 52.48 61.75 50.41 61.00 50.00
C 61.00 50.00 60.41 50.19 60.00 50.00
C 61.44 51.23 60.55 52.70 60.00 54.00 Z"/>
</g>
<g fill="None" fill-opacity="0.0" stroke="#D6D1D1" stroke-opacity="1.00" stroke-width="0.3"><path d="
M 62.00 53.00 
C 62.00 53.00 62.50 53.00 63.00 53.00
L 63.00 51.00
C 62.12 51.07 61.80 50.14 61.00 50.00
C 61.75 50.41 61.68 52.48 62.00 53.00 Z"/>
</g>
<g fill="None" fill-opacity="0.0" stroke="#8C6A4A" stroke-opacity="1.00" stroke-width="0.3"><path d="
M 2.00 53.00 
C 1.97 52.65 1.11 52.26 1.00 52.00
C 1.26 52.12 1.88 52.74 2.00 53.00 Z"/>
</g>
<g fill="None" fill-opacity="0.0" stroke="#DAD4D4" stroke-opacity="1.00" stroke-width="0.3"><path d="
M 4.00 56.00 
C 4.00 56.00 4.20 55.40 4.00 55.00
C 3.62 54.73 2.24 54.49 2.00 54.00
C 2.18 55.18 3.20 55.39 4.00 56.00 Z"/>
</g>
<g fill="None" fill-opacity="0.0" stroke="#000000" stroke-opacity="0.00" stroke-width="0.3"><path d="
M 0.00 66.00 
L 12.00 66.00
C 8.89 61.51 4.32 58.14 0.00 55.00
L 0.00 66.00 Z"/>
</g>
<g fill="None" fill-opacity="0.0" stroke="#000000" stroke-opacity="0.00" stroke-width="0.3"><path d="
M 52.00 66.00 
L 63.00 66.00
L 63.00 55.00
C 59.03 58.11 55.19 62.02 52.00 66.00 Z"/>
</g>
<g fill="#000000" fill-opacity="0.00" stroke="None">
<path d="
M 0.00 12.00 
C 4.62 8.88 7.31 3.95 11.00 0.00
L 0.00 0.00
L 0.00 12.00 Z"/>
</g>
<g fill="#FAFAFA" fill-opacity="0.37" stroke="None">
<path d="
M 0.00 12.00 
L 0.00 14.00
C 0.50 14.00 1.00 14.00 1.00 14.00
C 2.68 11.59 5.12 10.02 7.00 8.00
C 7.51 7.45 7.64 6.59 8.00 6.00
C 9.26 3.93 11.09 2.33 13.00 1.00
C 12.78 0.87 13.00 0.00 13.00 0.00
L 11.00 0.00
C 7.31 3.95 4.62 8.88 0.00 12.00 Z"/>
</g>
<g fill="#F8F6F6" fill-opacity="0.54" stroke="None">
<path d="
M 13.00 1.00 
C 14.32 1.79 15.05 2.30 15.00 4.00
C 14.99 4.50 15.00 5.00 15.00 5.00
C 15.81 5.84 16.43 5.86 17.00 7.00
C 17.43 7.85 17.42 9.08 18.00 10.00
C 18.24 10.26 18.83 10.67 19.00 11.00
C 20.87 14.76 28.48 22.80 33.00 20.00
C 32.97 19.98 33.79 19.27 34.00 19.00
C 38.54 13.17 44.44 8.83 47.00 2.00
C 42.61 6.57 38.17 18.64 29.99 17.99 C 21.81 17.35 18.99 5.02 15.00 0.00
L 13.00 0.00
C 13.00 0.00 12.78 0.87 13.00 1.00 Z"/>
</g>
<g fill="#000000" fill-opacity="0.00" stroke="None">
<path d="
M 47.00 2.00 
C 47.13 1.65 47.88 1.26 48.00 1.00
C 48.19 0.59 48.00 0.00 48.00 0.00
L 15.00 0.00
C 18.99 5.02 21.81 17.35 29.99 17.99 C 38.17 18.64 42.61 6.57 47.00 2.00 Z"/>
</g>
<g fill="#FFFFFF" fill-opacity="0.50" stroke="None">
<path d="
M 48.00 1.00 
C 48.82 0.75 50.14 1.03 51.00 1.00
C 50.81 0.59 51.00 0.00 51.00 0.00
L 48.00 0.00
C 48.00 0.00 48.19 0.59 48.00 1.00 Z"/>
</g>
<g fill="#000000" fill-opacity="0.00" stroke="None">
<path d="
M 51.00 1.00 
C 51.12 1.26 51.73 1.79 52.00 2.00
C 56.40 4.15 58.70 9.76 63.00 12.00
L 63.00 0.00
L 51.00 0.00
C 51.00 0.00 50.81 0.59 51.00 1.00 Z"/>
</g>
<g fill="#D6D0D0" fill-opacity="1.00" stroke="None">
<path d="
M 8.00 6.00 
C 10.00 3.86 13.18 0.55 15.00 4.00
C 15.05 2.30 14.32 1.79 13.00 1.00
C 11.09 2.33 9.26 3.93 8.00 6.00 Z"/>
</g>
<g fill="#FAFAFA" fill-opacity="0.31" stroke="None">
<path d="
M 47.00 2.00 
C 44.44 8.83 38.54 13.17 34.00 19.00
C 37.03 16.88 40.54 13.64 43.00 11.00
C 43.51 10.45 43.63 9.59 44.00 9.00
C 44.63 7.99 45.29 7.74 46.00 7.00
C 46.07 6.51 46.00 6.00 46.00 6.00
C 46.19 4.79 47.36 4.64 48.00 4.00
C 48.61 3.20 48.82 2.18 50.00 2.00
C 50.49 1.93 51.00 2.00 51.00 2.00
C 51.50 2.00 52.00 2.00 52.00 2.00
C 51.73 1.79 51.12 1.26 51.00 1.00
C 50.14 1.03 48.82 0.75 48.00 1.00
C 47.88 1.26 47.13 1.65 47.00 2.00 Z"/>
</g>
<g fill="#F16C4E" fill-opacity="1.00" stroke="None">
<path d="
M 8.00 6.00 
C 7.64 6.59 7.51 7.45 7.00 8.00
C 6.82 9.35 8.20 11.05 9.00 12.00
C 15.06 19.21 23.62 25.14 30.00 32.00
C 29.51 33.70 28.31 33.96 27.00 33.00
C 23.17 33.54 20.51 32.50 18.00 36.00
C 17.55 36.62 17.38 37.38 17.00 38.00
C 15.36 40.69 11.80 44.63 9.00 46.00
C 8.60 46.20 8.00 46.00 8.00 46.00
C 7.25 46.72 7.27 47.81 6.00 48.00
C 5.51 48.07 5.00 48.00 5.00 48.00
C 4.74 48.12 4.35 48.97 4.00 49.00
C 3.50 49.05 3.00 49.00 3.00 49.00
C 2.74 49.12 2.35 49.97 2.00 50.00
C 1.50 50.05 1.00 50.00 1.00 50.00
C 1.23 50.16 0.82 51.58 1.00 52.00
C 1.11 52.26 1.97 52.65 2.00 53.00
C 2.05 53.50 2.00 54.00 2.00 54.00
C 2.24 54.49 3.62 54.73 4.00 55.00
C 9.66 59.02 16.35 47.81 21.25 43.25 C 26.15 38.69 33.65 31.68 38.25 26.25 C 42.85 20.81 51.86 15.42 55.00 9.00
C 54.75 9.25 54.00 9.00 54.00 9.00
C 51.95 8.46 50.60 5.98 51.00 4.00
C 46.87 4.15 46.72 9.81 43.00 11.00
C 40.20 13.80 37.64 18.22 34.00 20.00
C 33.60 20.20 33.00 20.00 33.00 20.00
C 28.48 22.80 20.87 14.76 19.00 11.00
C 18.83 10.73 18.20 10.32 18.00 10.00
C 17.42 9.08 17.43 7.85 17.00 7.00
C 16.43 6.14 15.20 6.34 15.00 5.00
C 15.00 5.00 14.99 4.50 15.00 4.00
C 13.18 0.55 10.00 3.86 8.00 6.00
M 9.00 9.00 
C 9.74 9.74 8.18 8.18 9.00 9.00 Z"/>
</g>
<g fill="#C28262" fill-opacity="1.00" stroke="None">
<path d="
M 48.00 4.00 
C 47.35 4.85 46.66 5.31 46.00 6.00
C 46.00 6.00 46.07 6.51 46.00 7.00
C 45.81 8.24 44.58 8.32 44.00 9.00
C 43.63 9.59 43.51 10.45 43.00 11.00
C 46.72 9.81 46.87 4.15 51.00 4.00
C 50.60 5.98 51.95 8.46 54.00 9.00
C 53.97 8.98 54.98 7.97 55.00 8.00
C 53.51 6.51 50.80 3.92 50.00 2.00
C 48.82 2.18 48.61 3.20 48.00 4.00 Z"/>
</g>
<g fill="#E0DBDB" fill-opacity="1.00" stroke="None">
<path d="
M 55.00 8.00 
C 56.32 9.32 58.97 10.56 60.00 12.00
C 57.74 8.18 53.50 5.58 51.00 2.00
C 51.00 2.00 50.49 1.93 50.00 2.00
C 50.80 3.92 53.51 6.51 55.00 8.00 Z"/>
</g>
<g fill="#F7F4F4" fill-opacity="0.55" stroke="None">
<path d="
M 60.00 12.00 
C 60.63 13.06 61.58 13.86 62.00 15.00
C 56.60 18.95 48.50 21.23 46.00 28.00
C 45.87 28.35 45.24 28.75 45.00 29.00
C 44.18 30.28 43.89 31.44 44.00 33.00
C 44.02 32.97 44.97 33.65 45.00 34.00
C 45.05 34.50 45.00 35.00 45.00 35.00
C 45.14 35.80 45.85 36.16 46.00 37.00
C 46.60 37.71 47.41 38.23 48.00 39.00
C 50.08 41.72 53.32 46.06 56.00 48.00
C 57.05 48.58 57.98 48.56 59.00 49.00
C 59.34 49.15 59.74 49.88 60.00 50.00
C 60.41 50.19 61.00 50.00 61.00 50.00
C 61.80 50.14 62.12 51.07 63.00 51.00
L 63.00 49.00
C 57.24 45.46 47.17 40.73 46.22 32.78 C 45.28 24.82 58.42 20.85 63.00 17.00
L 63.00 12.00
C 58.70 9.76 56.40 4.15 52.00 2.00
C 52.00 2.00 51.50 2.00 51.00 2.00
C 53.50 5.58 57.74 8.18 60.00 12.00 Z"/>
</g>
<g fill="#D5CBCB" fill-opacity="1.00" stroke="None">
<path d="
M 46.00 6.00 
C 46.66 5.31 47.35 4.85 48.00 4.00
C 47.36 4.64 46.19 4.79 46.00 6.00 Z"/>
</g>
<g fill="#CCC3C3" fill-opacity="1.00" stroke="None">
<path d="
M 17.00 7.00 
C 16.43 5.86 15.81 5.84 15.00 5.00
C 15.20 6.34 16.43 6.14 17.00 7.00 Z"/>
</g>
<g fill="#CDC3C3" fill-opacity="1.00" stroke="None">
<path d="
M 44.00 9.00 
C 44.58 8.32 45.81 8.24 46.00 7.00
C 45.29 7.74 44.63 7.99 44.00 9.00 Z"/>
</g>
<g fill="#C02F28" fill-opacity="1.00" stroke="None">
<path d="
M 1.00 14.00 
C 1.13 14.07 2.18 15.84 2.00 16.00
C 5.56 17.40 8.95 19.74 12.00 22.00
C 13.65 23.22 14.88 24.32 16.00 26.00
C 17.43 28.15 19.19 31.33 19.00 34.00
C 19.03 34.02 18.12 34.74 18.00 35.00
C 18.00 35.50 18.00 36.00 18.00 36.00
C 20.51 32.50 23.17 33.54 27.00 33.00
C 22.61 31.79 17.83 25.19 14.23 21.77 C 10.63 18.35 1.95 15.67 6.00 10.00
C 7.13 10.57 7.12 12.52 9.00 12.00
C 8.20 11.05 6.82 9.35 7.00 8.00
C 5.12 10.02 2.68 11.59 1.00 14.00 Z"/>
</g>
<g fill="#FFD3A7" fill-opacity="1.00" stroke="None">
<path d="
M 54.00 9.00 
C 54.00 9.00 54.75 9.25 55.00 9.00
C 55.20 8.60 55.00 8.00 55.00 8.00
C 54.98 7.97 53.97 8.98 54.00 9.00 Z"/>
</g>
<g fill="#A71811" fill-opacity="1.00" stroke="None">
<path d="
M 55.00 9.00 
C 51.86 15.42 42.85 20.81 38.25 26.25 C 33.65 31.68 26.15 38.69 21.25 43.25 C 16.35 47.81 9.66 59.02 4.00 55.00
C 4.20 55.40 4.00 56.00 4.00 56.00
C 7.17 58.42 9.79 61.73 13.00 64.00
C 17.72 56.38 26.52 40.00 37.00 49.00
C 40.00 51.23 42.81 54.05 45.00 57.00
C 46.65 59.22 47.85 61.52 49.00 64.00
C 52.03 63.59 54.26 60.26 56.00 58.00
C 52.29 58.00 48.51 49.79 45.25 47.75 C 41.99 45.71 37.51 39.97 35.00 37.00
C 34.17 36.02 32.14 35.60 32.00 34.00
C 35.67 32.93 40.39 32.10 44.00 34.00
C 43.75 33.75 44.00 33.00 44.00 33.00
C 43.89 31.44 44.18 30.28 45.00 29.00
C 45.20 28.69 45.88 28.26 46.00 28.00
C 48.50 21.23 56.60 18.95 62.00 15.00
C 61.58 13.86 60.63 13.06 60.00 12.00
C 58.97 10.56 56.32 9.32 55.00 8.00
C 55.00 8.00 55.20 8.60 55.00 9.00 Z"/>
</g>
<g fill="#FFCEA7" fill-opacity="1.00" stroke="None">
<path d="
M 9.00 9.00 
C 8.18 8.18 9.74 9.74 9.00 9.00 Z"/>
</g>
<g fill="#9D0501" fill-opacity="1.00" stroke="None">
<path d="
M 27.00 33.00 
C 28.31 33.96 29.51 33.70 30.00 32.00
C 23.62 25.14 15.06 19.21 9.00 12.00
C 7.12 12.52 7.13 10.57 6.00 10.00
C 1.95 15.67 10.63 18.35 14.23 21.77 C 17.83 25.19 22.61 31.79 27.00 33.00 Z"/>
</g>
<g fill="#A78888" fill-opacity="1.00" stroke="None">
<path d="
M 19.00 11.00 
C 18.83 10.67 18.24 10.26 18.00 10.00
C 18.20 10.32 18.83 10.73 19.00 11.00 Z"/>
</g>
<g fill="#AE908F" fill-opacity="1.00" stroke="None">
<path d="
M 34.00 19.00 
C 33.77 19.16 34.00 20.00 34.00 20.00
C 37.64 18.22 40.20 13.80 43.00 11.00
C 40.54 13.64 37.03 16.88 34.00 19.00 Z"/>
</g>
<g fill="#A5706E" fill-opacity="1.00" stroke="None">
<path d="
M 0.00 15.00 
C 0.34 15.17 0.74 15.88 1.00 16.00
C 1.50 16.00 2.00 16.00 2.00 16.00
C 2.18 15.84 1.13 14.07 1.00 14.00
C 1.00 14.00 0.50 14.00 0.00 14.00
L 0.00 15.00 Z"/>
</g>
<g fill="#E3DDDD" fill-opacity="1.00" stroke="None">
<path d="
M 0.00 16.00 
C 0.50 16.00 1.00 16.00 1.00 16.00
C 0.74 15.88 0.34 15.17 0.00 15.00
L 0.00 16.00 Z"/>
</g>
<g fill="#F7F5F5" fill-opacity="0.55" stroke="None">
<path d="
M 0.00 18.00 
C 5.17 20.17 17.48 25.70 16.92 33.08 C 16.37 40.45 5.02 45.08 0.00 48.00
L 0.00 50.00
C 0.50 50.00 1.00 50.00 1.00 50.00
C 1.00 50.00 1.50 50.05 2.00 50.00
C 2.26 49.88 2.65 49.03 3.00 49.00
C 3.00 49.00 3.50 49.05 4.00 49.00
C 4.26 48.88 4.65 48.03 5.00 48.00
C 5.00 48.00 5.51 48.07 6.00 48.00
C 6.25 47.75 6.00 47.00 6.00 47.00
C 6.42 45.77 7.82 44.40 9.00 44.00
C 9.45 43.85 10.00 44.00 10.00 44.00
C 12.43 40.53 15.33 36.97 18.00 34.00
C 18.25 33.75 19.00 34.00 19.00 34.00
C 19.19 31.33 17.43 28.15 16.00 26.00
C 15.18 24.96 12.97 22.84 12.00 22.00
C 8.95 19.74 5.56 17.40 2.00 16.00
C 2.00 16.00 1.50 16.00 1.00 16.00
C 1.00 16.00 0.50 16.00 0.00 16.00
L 0.00 18.00 Z"/>
</g>
<g fill="#000000" fill-opacity="0.00" stroke="None">
<path d="
M 63.00 49.00 
L 63.00 17.00
C 58.42 20.85 45.28 24.82 46.22 32.78 C 47.17 40.73 57.24 45.46 63.00 49.00 Z"/>
</g>
<g fill="#000000" fill-opacity="0.00" stroke="None">
<path d="
M 0.00 48.00 
C 5.02 45.08 16.37 40.45 16.92 33.08 C 17.48 25.70 5.17 20.17 0.00 18.00
L 0.00 48.00 Z"/>
</g>
<g fill="#E2DDDD" fill-opacity="1.00" stroke="None">
<path d="
M 33.00 20.00 
C 33.00 20.00 33.60 20.20 34.00 20.00
C 34.00 20.00 33.77 19.16 34.00 19.00
C 33.79 19.27 32.97 19.98 33.00 20.00 Z"/>
</g>
<g fill="#B07F7F" fill-opacity="1.00" stroke="None">
<path d="
M 16.00 26.00 
C 14.88 24.32 13.65 23.22 12.00 22.00
C 12.97 22.84 15.18 24.96 16.00 26.00 Z"/>
</g>
<g fill="#D5CCCC" fill-opacity="1.00" stroke="None">
<path d="
M 45.00 29.00 
C 45.24 28.75 45.87 28.35 46.00 28.00
C 45.88 28.26 45.20 28.69 45.00 29.00 Z"/>
</g>
<g fill="#EE5B3E" fill-opacity="1.00" stroke="None">
<path d="
M 35.00 37.00 
C 41.41 41.79 50.39 54.13 60.00 53.00
C 59.43 52.06 58.85 51.18 59.00 50.00
C 58.81 49.59 59.00 49.00 59.00 49.00
C 57.98 48.56 57.05 48.58 56.00 48.00
C 52.82 46.25 47.57 41.22 46.00 38.00
C 45.80 37.60 46.00 37.00 46.00 37.00
C 45.85 36.16 45.14 35.80 45.00 35.00
C 44.76 34.74 44.27 34.21 44.00 34.00
C 40.39 32.10 35.67 32.93 32.00 34.00
C 32.14 35.60 34.17 36.02 35.00 37.00 Z"/>
</g>
<g fill="#E0DDDD" fill-opacity="1.00" stroke="None">
<path d="
M 44.00 34.00 
C 44.25 34.25 45.00 34.00 45.00 34.00
C 44.97 33.65 44.02 32.97 44.00 33.00
C 44.00 33.00 43.75 33.75 44.00 34.00 Z"/>
</g>
<g fill="#F8F8F8" fill-opacity="0.27" stroke="None">
<path d="
M 10.00 44.00 
C 11.58 42.30 13.52 40.79 15.00 39.00
C 16.03 37.76 16.73 36.94 18.00 36.00
C 18.00 36.00 18.00 35.50 18.00 35.00
C 18.00 34.50 18.00 34.00 18.00 34.00
C 15.33 36.97 12.43 40.53 10.00 44.00 Z"/>
</g>
<g fill="#D6CCCC" fill-opacity="1.00" stroke="None">
<path d="
M 18.00 35.00 
C 18.12 34.74 19.03 34.02 19.00 34.00
C 19.00 34.00 18.25 33.75 18.00 34.00
C 18.00 34.00 18.00 34.50 18.00 35.00 Z"/>
</g>
<g fill="#AF9999" fill-opacity="1.00" stroke="None">
<path d="
M 45.00 35.00 
C 45.00 35.00 45.05 34.50 45.00 34.00
C 45.00 34.00 44.25 34.25 44.00 34.00
C 44.27 34.21 44.76 34.74 45.00 35.00 Z"/>
</g>
<g fill="#D2C6C6" fill-opacity="1.00" stroke="None">
<path d="
M 15.00 39.00 
C 15.47 38.56 16.61 38.39 17.00 38.00
C 17.38 37.38 17.55 36.62 18.00 36.00
C 16.73 36.94 16.03 37.76 15.00 39.00 Z"/>
</g>
<g fill="#F98B6A" fill-opacity="1.00" stroke="None">
<path d="
M 35.00 37.00 
C 37.51 39.97 41.99 45.71 45.25 47.75 C 48.51 49.79 52.29 58.00 56.00 58.00
C 57.22 56.78 58.80 55.12 60.00 54.00
C 60.55 52.70 61.44 51.23 60.00 50.00
C 59.71 49.75 59.00 50.00 59.00 50.00
C 58.85 51.18 59.43 52.06 60.00 53.00
C 50.39 54.13 41.41 41.79 35.00 37.00 Z"/>
</g>
<g fill="#D9CBCB" fill-opacity="1.00" stroke="None">
<path d="
M 46.00 38.00 
C 46.25 38.51 47.66 38.68 48.00 39.00
C 47.41 38.23 46.60 37.71 46.00 37.00
C 46.00 37.00 45.80 37.60 46.00 38.00 Z"/>
</g>
<g fill="#B37764" fill-opacity="1.00" stroke="None">
<path d="
M 15.00 39.00 
C 13.52 40.79 11.58 42.30 10.00 44.00
C 9.77 44.25 9.17 45.92 9.00 46.00
C 11.80 44.63 15.36 40.69 17.00 38.00
C 16.61 38.39 15.47 38.56 15.00 39.00 Z"/>
</g>
<g fill="#B18E86" fill-opacity="1.00" stroke="None">
<path d="
M 56.00 48.00 
C 53.32 46.06 50.08 41.72 48.00 39.00
C 47.66 38.68 46.25 38.51 46.00 38.00
C 47.57 41.22 52.82 46.25 56.00 48.00 Z"/>
</g>
<g fill="#F9F9F9" fill-opacity="0.25" stroke="None">
<path d="
M 6.00 47.00 
C 6.25 46.49 7.67 46.33 8.00 46.00
C 8.26 45.74 8.81 44.09 9.00 44.00
C 7.82 44.40 6.42 45.77 6.00 47.00 Z"/>
</g>
<g fill="#D1CBCB" fill-opacity="1.00" stroke="None">
<path d="
M 8.00 46.00 
C 8.00 46.00 8.60 46.20 9.00 46.00
C 9.17 45.92 9.77 44.25 10.00 44.00
C 10.00 44.00 9.45 43.85 9.00 44.00
C 8.81 44.09 8.26 45.74 8.00 46.00 Z"/>
</g>
<g fill="#A98471" fill-opacity="1.00" stroke="None">
<path d="
M 6.00 47.00 
C 6.00 47.00 6.25 47.75 6.00 48.00
C 7.27 47.81 7.25 46.72 8.00 46.00
C 7.67 46.33 6.25 46.49 6.00 47.00 Z"/>
</g>
<g fill="#F8F5F5" fill-opacity="0.55" stroke="None">
<path d="
M 4.00 56.00 
C 3.20 55.39 2.18 55.18 2.00 54.00
C 2.00 54.00 2.05 53.50 2.00 53.00
C 1.88 52.74 1.26 52.12 1.00 52.00
C 0.59 51.81 0.00 52.00 0.00 52.00
L 0.00 55.00
C 4.32 58.14 8.89 61.51 12.00 66.00
L 14.00 66.00
C 18.95 61.48 22.40 47.36 31.03 48.03 C 39.65 48.69 43.51 60.85 48.00 66.00
L 52.00 66.00
C 55.19 62.02 59.03 58.11 63.00 55.00
L 63.00 53.00
C 62.50 53.00 62.00 53.00 62.00 53.00
C 61.74 53.05 60.15 53.86 60.00 54.00
C 58.80 55.12 57.22 56.78 56.00 58.00
C 54.26 60.26 52.03 63.59 49.00 64.00
C 47.85 61.52 46.65 59.22 45.00 57.00
C 42.84 54.52 39.42 51.11 37.00 49.00
C 26.52 40.00 17.72 56.38 13.00 64.00
C 9.79 61.73 7.17 58.42 4.00 56.00 Z"/>
</g>
<g fill="#AD8888" fill-opacity="1.00" stroke="None">
<path d="
M 4.00 49.00 
C 4.35 48.97 4.74 48.12 5.00 48.00
C 4.65 48.03 4.26 48.88 4.00 49.00 Z"/>
</g>
<g fill="#000000" fill-opacity="0.00" stroke="None">
<path d="
M 14.00 66.00 
L 48.00 66.00
C 43.51 60.85 39.65 48.69 31.03 48.03 C 22.40 47.36 18.95 61.48 14.00 66.00 Z"/>
</g>
<g fill="#A89999" fill-opacity="1.00" stroke="None">
<path d="
M 2.00 50.00 
C 2.35 49.97 2.74 49.12 3.00 49.00
C 2.65 49.03 2.26 49.88 2.00 50.00 Z"/>
</g>
<g fill="#B68585" fill-opacity="1.00" stroke="None">
<path d="
M 45.00 57.00 
C 42.81 54.05 40.00 51.23 37.00 49.00
C 39.42 51.11 42.84 54.52 45.00 57.00 Z"/>
</g>
<g fill="#D3CCCC" fill-opacity="1.00" stroke="None">
<path d="
M 59.00 50.00 
C 59.00 50.00 59.71 49.75 60.00 50.00
C 59.74 49.88 59.34 49.15 59.00 49.00
C 59.00 49.00 58.81 49.59 59.00 50.00 Z"/>
</g>
<g fill="#AC9C98" fill-opacity="1.00" stroke="None">
<path d="
M 0.00 52.00 
C 0.00 52.00 0.59 51.81 1.00 52.00
C 0.82 51.58 1.23 50.16 1.00 50.00
C 1.00 50.00 0.50 50.00 0.00 50.00
L 0.00 52.00 Z"/>
</g>
<g fill="#B1816A" fill-opacity="1.00" stroke="None">
<path d="
M 60.00 54.00 
C 60.15 53.86 61.74 53.05 62.00 53.00
C 61.68 52.48 61.75 50.41 61.00 50.00
C 61.00 50.00 60.41 50.19 60.00 50.00
C 61.44 51.23 60.55 52.70 60.00 54.00 Z"/>
</g>
<g fill="#D6D1D1" fill-opacity="1.00" stroke="None">
<path d="
M 62.00 53.00 
C 62.00 53.00 62.50 53.00 63.00 53.00
L 63.00 51.00
C 62.12 51.07 61.80 50.14 61.00 50.00
C 61.75 50.41 61.68 52.48 62.00 53.00 Z"/>
</g>
<g fill="#8C6A4A" fill-opacity="1.00" stroke="None">
<path d="
M 2.00 53.00 
C 1.97 52.65 1.11 52.26 1.00 52.00
C 1.26 52.12 1.88 52.74 2.00 53.00 Z"/>
</g>
<g fill="#DAD4D4" fill-opacity="1.00" stroke="None">
<path d="
M 4.00 56.00 
C 4.00 56.00 4.20 55.40 4.00 55.00
C 3.62 54.73 2.24 54.49 2.00 54.00
C 2.18 55.18 3.20 55.39 4.00 56.00 Z"/>
</g>
<g fill="#000000" fill-opacity="0.00" stroke="None">
<path d="
M 0.00 66.00 
L 12.00 66.00
C 8.89 61.51 4.32 58.14 0.00 55.00
L 0.00 66.00 Z"/>
</g>
<g fill="#000000" fill-opacity="0.00" stroke="None">
<path d="
M 52.00 66.00 
L 63.00 66.00
L 63.00 55.00
C 59.03 58.11 55.19 62.02 52.00 66.00 Z"/>
</g>
</svg>