<svg xmlns="http://www.w3.org/2000/svg" xmlns:v="https://svgstorm.com"
viewBox = "0 0 52 63"
width="52"
height="63">
<g fill="None" fill-opacity="0.0" stroke="#000000" stroke-opacity="0.00" stroke-width="0.3"><path d="
M 0.00 29.00 
C 8.15 19.92 15.45 9.70 23.00 0.00
L 0.00 0.00
L 0.00 29.00 Z"/>
</g>
<g fill="None" fill-opacity="0.0" stroke="#FFFFFF" stroke-opacity="0.47" stroke-width="0.3"><path d="
M 0.00 29.00 
L 0.00 30.00
C 6.35 23.43 11.67 15.57 18.00 9.00
C 18.53 8.45 19.57 7.50 20.00 7.00
C 20.49 6.43 20.71 5.66 21.00 5.00
C 21.77 3.22 22.62 1.54 24.00 0.00
L 23.00 0.00
C 15.45 9.70 8.15 19.92 0.00 29.00 Z"/>
</g>
<g fill="None" fill-opacity="0.0" stroke="#FBFBFB" stroke-opacity="0.27" stroke-width="0.3"><path d="
M 21.00 5.00 
C 21.28 5.06 21.81 4.32 22.00 4.00
C 22.86 2.58 23.75 1.93 25.00 1.00
C 25.15 0.55 25.00 0.00 25.00 0.00
L 24.00 0.00
C 22.62 1.54 21.77 3.22 21.00 5.00 Z"/>
</g>
<g fill="None" fill-opacity="0.0" stroke="#B091B3" stroke-opacity="1.00" stroke-width="0.3"><path d="
M 25.00 1.00 
C 24.48 2.54 23.06 3.10 22.00 4.00
C 21.81 4.32 21.28 5.06 21.00 5.00
C 20.71 5.66 20.49 6.43 20.00 7.00
C 21.89 5.68 23.94 4.05 25.00 2.00
C 27.42 2.68 28.92 4.81 31.00 6.00
C 29.54 4.12 27.23 2.41 27.00 0.00
L 25.00 0.00
C 25.00 0.00 25.15 0.55 25.00 1.00 Z"/>
</g>
<g fill="None" fill-opacity="0.0" stroke="#F7F5F7" stroke-opacity="0.55" stroke-width="0.3"><path d="
M 31.00 6.00 
C 31.21 6.27 31.91 6.65 32.00 7.00
C 32.12 7.47 31.85 8.55 32.00 9.00
C 33.17 10.51 35.65 12.66 37.00 14.00
C 37.78 14.77 38.35 15.10 39.00 16.00
C 40.70 18.34 42.25 20.71 44.00 23.00
C 44.79 23.77 45.34 24.10 46.00 25.00
C 48.09 27.87 50.86 30.52 49.00 34.00
C 48.41 35.11 47.76 35.24 47.00 36.00
C 42.47 45.26 31.82 51.50 28.00 61.00
C 17.70 56.63 12.69 43.99 5.00 36.00
C 4.26 35.28 3.19 35.25 3.00 34.00
C 2.93 33.51 3.00 33.00 3.00 33.00
C 2.93 32.87 1.16 31.82 1.00 32.00
C 0.96 32.50 1.00 33.00 1.00 33.00
C 3.23 44.45 19.56 52.31 24.00 63.00
L 28.00 63.00
C 36.04 53.00 44.11 42.80 52.00 33.00
L 52.00 29.00
C 43.91 19.93 35.42 10.15 29.00 0.00
L 27.00 0.00
C 27.23 2.41 29.54 4.12 31.00 6.00 Z"/>
</g>
<g fill="None" fill-opacity="0.0" stroke="#000000" stroke-opacity="0.00" stroke-width="0.3"><path d="
M 52.00 29.00 
L 52.00 0.00
L 29.00 0.00
C 35.42 10.15 43.91 19.93 52.00 29.00 Z"/>
</g>
<g fill="None" fill-opacity="0.0" stroke="#D0CBD1" stroke-opacity="1.00" stroke-width="0.3"><path d="
M 22.00 4.00 
C 23.06 3.10 24.48 2.54 25.00 1.00
C 23.75 1.93 22.86 2.58 22.00 4.00 Z"/>
</g>
<g fill="None" fill-opacity="0.0" stroke="#D96AE5" stroke-opacity="1.00" stroke-width="0.3"><path d="
M 20.00 7.00 
C 19.77 7.16 20.00 8.00 20.00 8.00
C 19.48 9.54 18.06 10.10 17.00 11.00
C 16.74 11.22 16.12 11.74 16.00 12.00
C 15.95 12.50 16.00 13.00 16.00 13.00
C 14.89 15.27 12.53 16.33 11.00 18.00
C 10.28 18.96 9.64 20.04 9.00 21.00
C 8.79 21.31 8.04 21.78 8.00 22.00
C 7.67 22.52 7.35 23.59 7.00 24.00
C 8.96 21.89 10.86 18.78 14.00 19.00
C 16.70 23.55 11.48 26.83 12.00 30.00
C 13.26 26.50 17.79 22.97 20.00 20.00
C 21.90 17.44 23.37 13.34 27.00 13.00
C 28.22 17.33 32.48 20.29 35.00 24.00
C 35.20 24.32 35.79 24.73 36.00 25.00
C 36.53 24.01 36.28 23.63 36.00 22.00
C 38.54 23.07 41.55 22.57 44.00 24.00
C 43.80 23.60 44.00 23.00 44.00 23.00
C 42.25 20.71 40.70 18.34 39.00 16.00
C 38.42 15.39 37.56 14.56 37.00 14.00
C 35.44 12.42 32.78 11.26 32.00 9.00
C 31.85 8.55 32.12 7.47 32.00 7.00
C 31.89 6.74 31.25 6.25 31.00 6.00
C 28.92 4.81 27.42 2.68 25.00 2.00
C 23.94 4.05 21.89 5.68 20.00 7.00 Z"/>
</g>
<g fill="None" fill-opacity="0.0" stroke="#D2CCD3" stroke-opacity="1.00" stroke-width="0.3"><path d="
M 32.00 7.00 
C 31.91 6.65 31.21 6.27 31.00 6.00
C 31.25 6.25 31.89 6.74 32.00 7.00 Z"/>
</g>
<g fill="None" fill-opacity="0.0" stroke="#D8D4D8" stroke-opacity="1.00" stroke-width="0.3"><path d="
M 18.00 9.00 
C 18.26 8.74 19.91 8.19 20.00 8.00
C 20.00 8.00 19.77 7.16 20.00 7.00
C 19.57 7.50 18.53 8.45 18.00 9.00 Z"/>
</g>
<g fill="None" fill-opacity="0.0" stroke="#9B7D9D" stroke-opacity="1.00" stroke-width="0.3"><path d="
M 18.00 9.00 
C 17.71 9.29 17.24 10.87 17.00 11.00
C 18.06 10.10 19.48 9.54 20.00 8.00
C 19.91 8.19 18.26 8.74 18.00 9.00 Z"/>
</g>
<g fill="None" fill-opacity="0.0" stroke="#FCFCFC" stroke-opacity="0.28" stroke-width="0.3"><path d="
M 0.00 30.00 
L 0.00 33.00
C 0.50 33.00 1.00 33.00 1.00 33.00
C 1.00 33.00 0.96 32.50 1.00 32.00
C 1.17 30.06 2.31 28.87 4.00 28.00
C 4.00 27.50 4.00 27.00 4.00 27.00
C 4.54 25.41 6.11 25.03 7.00 24.00
C 7.35 23.59 7.67 22.52 8.00 22.00
C 8.20 21.69 8.75 21.25 9.00 21.00
C 9.64 20.04 10.28 18.96 11.00 18.00
C 12.49 16.03 14.01 14.39 16.00 13.00
C 16.00 13.00 15.95 12.50 16.00 12.00
C 16.03 11.65 16.68 11.18 17.00 11.00
C 17.24 10.87 17.71 9.29 18.00 9.00
C 11.67 15.57 6.35 23.43 0.00 30.00 Z"/>
</g>
<g fill="None" fill-opacity="0.0" stroke="#A27BA8" stroke-opacity="1.00" stroke-width="0.3"><path d="
M 37.00 14.00 
C 35.65 12.66 33.17 10.51 32.00 9.00
C 32.78 11.26 35.44 12.42 37.00 14.00 Z"/>
</g>
<g fill="None" fill-opacity="0.0" stroke="#D3CCD4" stroke-opacity="1.00" stroke-width="0.3"><path d="
M 16.00 12.00 
C 16.12 11.74 16.74 11.22 17.00 11.00
C 16.68 11.18 16.03 11.65 16.00 12.00 Z"/>
</g>
<g fill="None" fill-opacity="0.0" stroke="#D1C6D4" stroke-opacity="1.00" stroke-width="0.3"><path d="
M 11.00 18.00 
C 12.53 16.33 14.89 15.27 16.00 13.00
C 14.01 14.39 12.49 16.03 11.00 18.00 Z"/>
</g>
<g fill="None" fill-opacity="0.0" stroke="#C731DA" stroke-opacity="1.00" stroke-width="0.3"><path d="
M 20.00 20.00 
C 20.43 17.76 21.98 23.68 19.68 25.68 C 17.37 27.67 14.69 30.19 14.00 33.00
C 15.88 32.53 18.93 34.06 20.00 32.00
C 18.71 31.78 16.51 32.72 16.00 31.00
C 20.41 31.86 22.36 28.04 18.00 28.00
C 25.42 28.74 19.95 18.49 24.31 16.31 C 28.66 14.13 28.88 26.31 29.00 29.00
C 30.90 30.59 35.64 29.39 32.00 32.00
C 34.32 31.82 36.68 32.13 39.00 32.00
C 37.15 29.52 31.18 27.85 35.00 24.00
C 32.48 20.29 28.22 17.33 27.00 13.00
C 23.37 13.34 21.90 17.44 20.00 20.00 Z"/>
</g>
<g fill="None" fill-opacity="0.0" stroke="#D2CBD3" stroke-opacity="1.00" stroke-width="0.3"><path d="
M 39.00 16.00 
C 38.35 15.10 37.78 14.77 37.00 14.00
C 37.56 14.56 38.42 15.39 39.00 16.00 Z"/>
</g>
<g fill="None" fill-opacity="0.0" stroke="#EF6DF6" stroke-opacity="1.00" stroke-width="0.3"><path d="
M 20.00 32.00 
C 24.33 32.75 27.61 32.34 32.00 32.00
C 35.64 29.39 30.90 30.59 29.00 29.00
C 28.88 26.31 28.66 14.13 24.31 16.31 C 19.95 18.49 25.42 28.74 18.00 28.00
C 22.36 28.04 20.41 31.86 16.00 31.00
C 16.51 32.72 18.71 31.78 20.00 32.00 Z"/>
</g>
<g fill="None" fill-opacity="0.0" stroke="#CC43DD" stroke-opacity="1.00" stroke-width="0.3"><path d="
M 7.00 24.00 
C 5.94 25.15 5.25 26.07 4.00 27.00
C 4.00 27.00 4.00 27.50 4.00 28.00
C 4.00 28.50 4.00 29.00 4.00 29.00
C 0.65 33.97 10.94 33.14 13.00 35.00
C 12.26 33.27 10.58 31.76 12.00 30.00
C 11.48 26.83 16.70 23.55 14.00 19.00
C 10.86 18.78 8.96 21.89 7.00 24.00 Z"/>
</g>
<g fill="None" fill-opacity="0.0" stroke="#9C1BBB" stroke-opacity="1.00" stroke-width="0.3"><path d="
M 20.00 20.00 
C 17.79 22.97 13.26 26.50 12.00 30.00
C 10.58 31.76 12.26 33.27 13.00 35.00
C 10.94 33.14 0.65 33.97 4.00 29.00
C 2.05 30.00 1.77 31.20 3.00 33.00
C 3.00 33.00 2.93 33.51 3.00 34.00
C 3.71 34.74 4.36 35.19 5.00 36.00
C 12.69 43.99 17.70 56.63 28.00 61.00
C 31.82 51.50 42.47 45.26 47.00 36.00
C 47.20 35.60 47.00 35.00 47.00 35.00
C 43.44 31.20 39.45 29.42 36.00 25.00
C 35.79 24.73 35.20 24.32 35.00 24.00
C 31.18 27.85 37.15 29.52 39.00 32.00
C 36.68 32.13 34.32 31.82 32.00 32.00
C 27.61 32.34 24.33 32.75 20.00 32.00
C 18.93 34.06 15.88 32.53 14.00 33.00
C 14.69 30.19 17.37 27.67 19.68 25.68 C 21.98 23.68 20.43 17.76 20.00 20.00 Z"/>
</g>
<g fill="None" fill-opacity="0.0" stroke="#D2CCD2" stroke-opacity="1.00" stroke-width="0.3"><path d="
M 8.00 22.00 
C 8.04 21.78 8.79 21.31 9.00 21.00
C 8.75 21.25 8.20 21.69 8.00 22.00 Z"/>
</g>
<g fill="None" fill-opacity="0.0" stroke="#CC42DB" stroke-opacity="1.00" stroke-width="0.3"><path d="
M 36.00 25.00 
C 39.45 29.42 43.44 31.20 47.00 35.00
C 47.25 34.49 48.69 34.34 49.00 34.00
C 50.86 30.52 48.09 27.87 46.00 25.00
C 45.46 24.51 44.64 24.28 44.00 24.00
C 41.55 22.57 38.54 23.07 36.00 22.00
C 36.28 23.63 36.53 24.01 36.00 25.00 Z"/>
</g>
<g fill="None" fill-opacity="0.0" stroke="#C0B2C4" stroke-opacity="1.00" stroke-width="0.3"><path d="
M 44.00 24.00 
C 44.64 24.28 45.46 24.51 46.00 25.00
C 45.34 24.10 44.79 23.77 44.00 23.00
C 44.00 23.00 43.80 23.60 44.00 24.00 Z"/>
</g>
<g fill="None" fill-opacity="0.0" stroke="#C7BBCA" stroke-opacity="1.00" stroke-width="0.3"><path d="
M 4.00 27.00 
C 5.25 26.07 5.94 25.15 7.00 24.00
C 6.11 25.03 4.54 25.41 4.00 27.00 Z"/>
</g>
<g fill="None" fill-opacity="0.0" stroke="#C5BAC7" stroke-opacity="1.00" stroke-width="0.3"><path d="
M 1.00 32.00 
C 1.16 31.82 2.93 32.87 3.00 33.00
C 1.77 31.20 2.05 30.00 4.00 29.00
C 4.00 29.00 4.00 28.50 4.00 28.00
C 2.31 28.87 1.17 30.06 1.00 32.00 Z"/>
</g>
<g fill="None" fill-opacity="0.0" stroke="#000000" stroke-opacity="0.00" stroke-width="0.3"><path d="
M 0.00 63.00 
L 24.00 63.00
C 19.56 52.31 3.23 44.45 1.00 33.00
C 1.00 33.00 0.50 33.00 0.00 33.00
L 0.00 63.00 Z"/>
</g>
<g fill="None" fill-opacity="0.0" stroke="#000000" stroke-opacity="0.00" stroke-width="0.3"><path d="
M 28.00 63.00 
L 52.00 63.00
L 52.00 33.00
C 44.11 42.80 36.04 53.00 28.00 63.00 Z"/>
</g>
<g fill="None" fill-opacity="0.0" stroke="#D2CBD5" stroke-opacity="1.00" stroke-width="0.3"><path d="
M 5.00 36.00 
C 4.36 35.19 3.71 34.74 3.00 34.00
C 3.19 35.25 4.26 35.28 5.00 36.00 Z"/>
</g>
<g fill="None" fill-opacity="0.0" stroke="#DAD4DC" stroke-opacity="1.00" stroke-width="0.3"><path d="
M 47.00 35.00 
C 47.00 35.00 47.20 35.60 47.00 36.00
C 47.76 35.24 48.41 35.11 49.00 34.00
C 48.69 34.34 47.25 34.49 47.00 35.00 Z"/>
</g>
<g fill="#000000" fill-opacity="0.00" stroke="None">
<path d="
M 0.00 29.00 
C 8.15 19.92 15.45 9.70 23.00 0.00
L 0.00 0.00
L 0.00 29.00 Z"/>
</g>
<g fill="#FFFFFF" fill-opacity="0.47" stroke="None">
<path d="
M 0.00 29.00 
L 0.00 30.00
C 6.35 23.43 11.67 15.57 18.00 9.00
C 18.53 8.45 19.57 7.50 20.00 7.00
C 20.49 6.43 20.71 5.66 21.00 5.00
C 21.77 3.22 22.62 1.54 24.00 0.00
L 23.00 0.00
C 15.45 9.70 8.15 19.92 0.00 29.00 Z"/>
</g>
<g fill="#FBFBFB" fill-opacity="0.27" stroke="None">
<path d="
M 21.00 5.00 
C 21.28 5.06 21.81 4.32 22.00 4.00
C 22.86 2.58 23.75 1.93 25.00 1.00
C 25.15 0.55 25.00 0.00 25.00 0.00
L 24.00 0.00
C 22.62 1.54 21.77 3.22 21.00 5.00 Z"/>
</g>
<g fill="#B091B3" fill-opacity="1.00" stroke="None">
<path d="
M 25.00 1.00 
C 24.48 2.54 23.06 3.10 22.00 4.00
C 21.81 4.32 21.28 5.06 21.00 5.00
C 20.71 5.66 20.49 6.43 20.00 7.00
C 21.89 5.68 23.94 4.05 25.00 2.00
C 27.42 2.68 28.92 4.81 31.00 6.00
C 29.54 4.12 27.23 2.41 27.00 0.00
L 25.00 0.00
C 25.00 0.00 25.15 0.55 25.00 1.00 Z"/>
</g>
<g fill="#F7F5F7" fill-opacity="0.55" stroke="None">
<path d="
M 31.00 6.00 
C 31.21 6.27 31.91 6.65 32.00 7.00
C 32.12 7.47 31.85 8.55 32.00 9.00
C 33.17 10.51 35.65 12.66 37.00 14.00
C 37.78 14.77 38.35 15.10 39.00 16.00
C 40.70 18.34 42.25 20.71 44.00 23.00
C 44.79 23.77 45.34 24.10 46.00 25.00
C 48.09 27.87 50.86 30.52 49.00 34.00
C 48.41 35.11 47.76 35.24 47.00 36.00
C 42.47 45.26 31.82 51.50 28.00 61.00
C 17.70 56.63 12.69 43.99 5.00 36.00
C 4.26 35.28 3.19 35.25 3.00 34.00
C 2.93 33.51 3.00 33.00 3.00 33.00
C 2.93 32.87 1.16 31.82 1.00 32.00
C 0.96 32.50 1.00 33.00 1.00 33.00
C 3.23 44.45 19.56 52.31 24.00 63.00
L 28.00 63.00
C 36.04 53.00 44.11 42.80 52.00 33.00
L 52.00 29.00
C 43.91 19.93 35.42 10.15 29.00 0.00
L 27.00 0.00
C 27.23 2.41 29.54 4.12 31.00 6.00 Z"/>
</g>
<g fill="#000000" fill-opacity="0.00" stroke="None">
<path d="
M 52.00 29.00 
L 52.00 0.00
L 29.00 0.00
C 35.42 10.15 43.91 19.93 52.00 29.00 Z"/>
</g>
<g fill="#D0CBD1" fill-opacity="1.00" stroke="None">
<path d="
M 22.00 4.00 
C 23.06 3.10 24.48 2.54 25.00 1.00
C 23.75 1.93 22.86 2.58 22.00 4.00 Z"/>
</g>
<g fill="#D96AE5" fill-opacity="1.00" stroke="None">
<path d="
M 20.00 7.00 
C 19.77 7.16 20.00 8.00 20.00 8.00
C 19.48 9.54 18.06 10.10 17.00 11.00
C 16.74 11.22 16.12 11.74 16.00 12.00
C 15.95 12.50 16.00 13.00 16.00 13.00
C 14.89 15.27 12.53 16.33 11.00 18.00
C 10.28 18.96 9.64 20.04 9.00 21.00
C 8.79 21.31 8.04 21.78 8.00 22.00
C 7.67 22.52 7.35 23.59 7.00 24.00
C 8.96 21.89 10.86 18.78 14.00 19.00
C 16.70 23.55 11.48 26.83 12.00 30.00
C 13.26 26.50 17.79 22.97 20.00 20.00
C 21.90 17.44 23.37 13.34 27.00 13.00
C 28.22 17.33 32.48 20.29 35.00 24.00
C 35.20 24.32 35.79 24.73 36.00 25.00
C 36.53 24.01 36.28 23.63 36.00 22.00
C 38.54 23.07 41.55 22.57 44.00 24.00
C 43.80 23.60 44.00 23.00 44.00 23.00
C 42.25 20.71 40.70 18.34 39.00 16.00
C 38.42 15.39 37.56 14.56 37.00 14.00
C 35.44 12.42 32.78 11.26 32.00 9.00
C 31.85 8.55 32.12 7.47 32.00 7.00
C 31.89 6.74 31.25 6.25 31.00 6.00
C 28.92 4.81 27.42 2.68 25.00 2.00
C 23.94 4.05 21.89 5.68 20.00 7.00 Z"/>
</g>
<g fill="#D2CCD3" fill-opacity="1.00" stroke="None">
<path d="
M 32.00 7.00 
C 31.91 6.65 31.21 6.27 31.00 6.00
C 31.25 6.25 31.89 6.74 32.00 7.00 Z"/>
</g>
<g fill="#D8D4D8" fill-opacity="1.00" stroke="None">
<path d="
M 18.00 9.00 
C 18.26 8.74 19.91 8.19 20.00 8.00
C 20.00 8.00 19.77 7.16 20.00 7.00
C 19.57 7.50 18.53 8.45 18.00 9.00 Z"/>
</g>
<g fill="#9B7D9D" fill-opacity="1.00" stroke="None">
<path d="
M 18.00 9.00 
C 17.71 9.29 17.24 10.87 17.00 11.00
C 18.06 10.10 19.48 9.54 20.00 8.00
C 19.91 8.19 18.26 8.74 18.00 9.00 Z"/>
</g>
<g fill="#FCFCFC" fill-opacity="0.28" stroke="None">
<path d="
M 0.00 30.00 
L 0.00 33.00
C 0.50 33.00 1.00 33.00 1.00 33.00
C 1.00 33.00 0.96 32.50 1.00 32.00
C 1.17 30.06 2.31 28.87 4.00 28.00
C 4.00 27.50 4.00 27.00 4.00 27.00
C 4.54 25.41 6.11 25.03 7.00 24.00
C 7.35 23.59 7.67 22.52 8.00 22.00
C 8.20 21.69 8.75 21.25 9.00 21.00
C 9.64 20.04 10.28 18.96 11.00 18.00
C 12.49 16.03 14.01 14.39 16.00 13.00
C 16.00 13.00 15.95 12.50 16.00 12.00
C 16.03 11.65 16.68 11.18 17.00 11.00
C 17.24 10.87 17.71 9.29 18.00 9.00
C 11.67 15.57 6.35 23.43 0.00 30.00 Z"/>
</g>
<g fill="#A27BA8" fill-opacity="1.00" stroke="None">
<path d="
M 37.00 14.00 
C 35.65 12.66 33.17 10.51 32.00 9.00
C 32.78 11.26 35.44 12.42 37.00 14.00 Z"/>
</g>
<g fill="#D3CCD4" fill-opacity="1.00" stroke="None">
<path d="
M 16.00 12.00 
C 16.12 11.74 16.74 11.22 17.00 11.00
C 16.68 11.18 16.03 11.65 16.00 12.00 Z"/>
</g>
<g fill="#D1C6D4" fill-opacity="1.00" stroke="None">
<path d="
M 11.00 18.00 
C 12.53 16.33 14.89 15.27 16.00 13.00
C 14.01 14.39 12.49 16.03 11.00 18.00 Z"/>
</g>
<g fill="#C731DA" fill-opacity="1.00" stroke="None">
<path d="
M 20.00 20.00 
C 20.43 17.76 21.98 23.68 19.68 25.68 C 17.37 27.67 14.69 30.19 14.00 33.00
C 15.88 32.53 18.93 34.06 20.00 32.00
C 18.71 31.78 16.51 32.72 16.00 31.00
C 20.41 31.86 22.36 28.04 18.00 28.00
C 25.42 28.74 19.95 18.49 24.31 16.31 C 28.66 14.13 28.88 26.31 29.00 29.00
C 30.90 30.59 35.64 29.39 32.00 32.00
C 34.32 31.82 36.68 32.13 39.00 32.00
C 37.15 29.52 31.18 27.85 35.00 24.00
C 32.48 20.29 28.22 17.33 27.00 13.00
C 23.37 13.34 21.90 17.44 20.00 20.00 Z"/>
</g>
<g fill="#D2CBD3" fill-opacity="1.00" stroke="None">
<path d="
M 39.00 16.00 
C 38.35 15.10 37.78 14.77 37.00 14.00
C 37.56 14.56 38.42 15.39 39.00 16.00 Z"/>
</g>
<g fill="#EF6DF6" fill-opacity="1.00" stroke="None">
<path d="
M 20.00 32.00 
C 24.33 32.75 27.61 32.34 32.00 32.00
C 35.64 29.39 30.90 30.59 29.00 29.00
C 28.88 26.31 28.66 14.13 24.31 16.31 C 19.95 18.49 25.42 28.74 18.00 28.00
C 22.36 28.04 20.41 31.86 16.00 31.00
C 16.51 32.72 18.71 31.78 20.00 32.00 Z"/>
</g>
<g fill="#CC43DD" fill-opacity="1.00" stroke="None">
<path d="
M 7.00 24.00 
C 5.94 25.15 5.25 26.07 4.00 27.00
C 4.00 27.00 4.00 27.50 4.00 28.00
C 4.00 28.50 4.00 29.00 4.00 29.00
C 0.65 33.97 10.94 33.14 13.00 35.00
C 12.26 33.27 10.58 31.76 12.00 30.00
C 11.48 26.83 16.70 23.55 14.00 19.00
C 10.86 18.78 8.96 21.89 7.00 24.00 Z"/>
</g>
<g fill="#9C1BBB" fill-opacity="1.00" stroke="None">
<path d="
M 20.00 20.00 
C 17.79 22.97 13.26 26.50 12.00 30.00
C 10.58 31.76 12.26 33.27 13.00 35.00
C 10.94 33.14 0.65 33.97 4.00 29.00
C 2.05 30.00 1.77 31.20 3.00 33.00
C 3.00 33.00 2.93 33.51 3.00 34.00
C 3.71 34.74 4.36 35.19 5.00 36.00
C 12.69 43.99 17.70 56.63 28.00 61.00
C 31.82 51.50 42.47 45.26 47.00 36.00
C 47.20 35.60 47.00 35.00 47.00 35.00
C 43.44 31.20 39.45 29.42 36.00 25.00
C 35.79 24.73 35.20 24.32 35.00 24.00
C 31.18 27.85 37.15 29.52 39.00 32.00
C 36.68 32.13 34.32 31.82 32.00 32.00
C 27.61 32.34 24.33 32.75 20.00 32.00
C 18.93 34.06 15.88 32.53 14.00 33.00
C 14.69 30.19 17.37 27.67 19.68 25.68 C 21.98 23.68 20.43 17.76 20.00 20.00 Z"/>
</g>
<g fill="#D2CCD2" fill-opacity="1.00" stroke="None">
<path d="
M 8.00 22.00 
C 8.04 21.78 8.79 21.31 9.00 21.00
C 8.75 21.25 8.20 21.69 8.00 22.00 Z"/>
</g>
<g fill="#CC42DB" fill-opacity="1.00" stroke="None">
<path d="
M 36.00 25.00 
C 39.45 29.42 43.44 31.20 47.00 35.00
C 47.25 34.49 48.69 34.34 49.00 34.00
C 50.86 30.52 48.09 27.87 46.00 25.00
C 45.46 24.51 44.64 24.28 44.00 24.00
C 41.55 22.57 38.54 23.07 36.00 22.00
C 36.28 23.63 36.53 24.01 36.00 25.00 Z"/>
</g>
<g fill="#C0B2C4" fill-opacity="1.00" stroke="None">
<path d="
M 44.00 24.00 
C 44.64 24.28 45.46 24.51 46.00 25.00
C 45.34 24.10 44.79 23.77 44.00 23.00
C 44.00 23.00 43.80 23.60 44.00 24.00 Z"/>
</g>
<g fill="#C7BBCA" fill-opacity="1.00" stroke="None">
<path d="
M 4.00 27.00 
C 5.25 26.07 5.94 25.15 7.00 24.00
C 6.11 25.03 4.54 25.41 4.00 27.00 Z"/>
</g>
<g fill="#C5BAC7" fill-opacity="1.00" stroke="None">
<path d="
M 1.00 32.00 
C 1.16 31.82 2.93 32.87 3.00 33.00
C 1.77 31.20 2.05 30.00 4.00 29.00
C 4.00 29.00 4.00 28.50 4.00 28.00
C 2.31 28.87 1.17 30.06 1.00 32.00 Z"/>
</g>
<g fill="#000000" fill-opacity="0.00" stroke="None">
<path d="
M 0.00 63.00 
L 24.00 63.00
C 19.56 52.31 3.23 44.45 1.00 33.00
C 1.00 33.00 0.50 33.00 0.00 33.00
L 0.00 63.00 Z"/>
</g>
<g fill="#000000" fill-opacity="0.00" stroke="None">
<path d="
M 28.00 63.00 
L 52.00 63.00
L 52.00 33.00
C 44.11 42.80 36.04 53.00 28.00 63.00 Z"/>
</g>
<g fill="#D2CBD5" fill-opacity="1.00" stroke="None">
<path d="
M 5.00 36.00 
C 4.36 35.19 3.71 34.74 3.00 34.00
C 3.19 35.25 4.26 35.28 5.00 36.00 Z"/>
</g>
<g fill="#DAD4DC" fill-opacity="1.00" stroke="None">
<path d="
M 47.00 35.00 
C 47.00 35.00 47.20 35.60 47.00 36.00
C 47.76 35.24 48.41 35.11 49.00 34.00
C 48.69 34.34 47.25 34.49 47.00 35.00 Z"/>
</g>
</svg>