<svg xmlns="http://www.w3.org/2000/svg" xmlns:v="https://svgstorm.com"
viewBox = "0 0 70 69"
width="70"
height="69">
<g fill="None" fill-opacity="0.0" stroke="#000000" stroke-opacity="0.00" stroke-width="0.3"><path d="
M 0.00 69.00 
L 70.00 69.00
L 70.00 0.00
L 0.00 0.00
L 0.00 69.00
M 7.00 27.00 
C 12.07 38.88 27.97 49.31 39.75 38.75 C 51.52 28.18 43.79 8.51 30.00 5.00
C 46.72 -4.13 66.79 12.03 68.99 31.01 C 71.19 49.99 52.06 68.70 33.00 66.00 C 13.94 63.30 -0.70 44.68 7.00 27.00 Z"/>
</g>
<g fill="None" fill-opacity="0.0" stroke="#FBFBFB" stroke-opacity="0.48" stroke-width="0.3"><path d="
M 7.00 27.00 
C -0.70 44.68 13.94 63.30 33.00 66.00 C 52.06 68.70 71.19 49.99 68.99 31.01 C 66.79 12.03 46.72 -4.13 30.00 5.00
C 43.79 8.51 51.52 28.18 39.75 38.75 C 27.97 49.31 12.07 38.88 7.00 27.00
M 53.00 9.00 
C 53.14 9.22 54.00 9.00 54.00 9.00
C 54.35 9.03 54.80 9.68 55.00 10.00
C 59.56 13.55 61.67 17.11 64.00 22.00
C 64.65 23.09 65.58 24.55 66.00 26.00
C 68.77 35.63 66.01 45.68 60.00 53.00
C 58.46 54.87 56.62 56.37 55.00 58.00
C 54.17 58.83 54.10 59.40 53.00 60.00
C 44.74 64.51 32.92 65.89 24.00 62.00
C 13.30 57.33 8.54 47.75 7.00 37.00
C 6.66 34.63 5.62 33.55 7.00 31.00
C 6.48 28.42 10.71 33.36 11.75 36.25 C 12.80 39.13 17.13 41.93 20.00 43.00
C 20.35 43.13 20.79 43.70 21.00 44.00
C 25.82 46.82 33.65 44.66 38.00 42.00
C 40.94 39.88 42.60 36.77 44.77 33.77 C 46.94 30.77 44.90 23.84 47.00 21.00
C 47.00 20.50 47.00 20.00 47.00 20.00
C 46.88 13.92 40.63 7.47 35.00 6.00
C 34.65 5.91 34.26 5.12 34.00 5.00
C 33.50 4.95 33.00 5.00 33.00 5.00
C 31.88 4.82 32.34 4.19 33.00 4.00
C 36.32 3.70 40.71 3.48 44.00 4.00
C 46.84 4.45 51.46 6.54 53.00 9.00 Z"/>
</g>
<g fill="None" fill-opacity="0.0" stroke="#DDDDDE" stroke-opacity="1.00" stroke-width="0.3"><path d="
M 33.00 5.00 
C 32.75 4.75 33.00 4.00 33.00 4.00
C 32.34 4.19 31.88 4.82 33.00 5.00 Z"/>
</g>
<g fill="None" fill-opacity="0.0" stroke="#5E87AE" stroke-opacity="1.00" stroke-width="0.3"><path d="
M 33.00 5.00 
C 33.00 5.00 33.50 4.95 34.00 5.00
C 34.35 5.03 34.75 5.91 35.00 6.00
C 40.63 7.47 46.88 13.92 47.00 20.00
C 47.48 21.94 48.53 24.40 48.00 27.00
C 50.44 22.79 55.48 28.81 59.00 29.00
C 58.86 18.93 51.56 9.06 42.00 6.00
C 42.08 4.74 44.06 5.44 44.00 4.00
C 40.71 3.48 36.32 3.70 33.00 4.00
C 33.00 4.00 32.75 4.75 33.00 5.00 Z"/>
</g>
<g fill="None" fill-opacity="0.0" stroke="#CFE3EC" stroke-opacity="1.00" stroke-width="0.3"><path d="
M 59.00 29.00 
C 59.11 36.99 57.27 37.14 53.75 44.75 C 50.22 52.35 44.67 42.56 41.00 42.00
C 37.24 45.09 24.50 48.95 21.00 44.00
C 20.79 43.70 20.35 43.13 20.00 43.00
C 15.56 44.15 7.88 35.33 7.00 31.00
C 5.62 33.55 6.66 34.63 7.00 37.00
C 8.45 42.23 10.51 48.29 14.00 53.00
C 15.93 49.16 21.05 52.85 23.00 55.00
C 31.36 58.08 39.22 54.64 47.00 53.00
C 49.77 51.38 52.91 48.47 55.00 46.00
C 58.32 42.08 59.32 36.98 65.00 41.00
C 65.65 36.17 63.69 30.01 66.00 26.00
C 65.58 24.55 64.65 23.09 64.00 22.00
C 61.54 17.88 57.61 14.21 55.00 10.00
C 54.80 9.68 54.35 9.03 54.00 9.00
C 54.91 10.18 52.96 8.95 53.00 9.00
C 51.46 6.54 46.84 4.45 44.00 4.00
C 44.06 5.44 42.08 4.74 42.00 6.00
C 51.56 9.06 58.86 18.93 59.00 29.00 Z"/>
</g>
<g fill="None" fill-opacity="0.0" stroke="#BBBCBF" stroke-opacity="1.00" stroke-width="0.3"><path d="
M 35.00 6.00 
C 34.75 5.91 34.35 5.03 34.00 5.00
C 34.26 5.12 34.65 5.91 35.00 6.00 Z"/>
</g>
<g fill="None" fill-opacity="0.0" stroke="#808483" stroke-opacity="1.00" stroke-width="0.3"><path d="
M 54.00 9.00 
C 54.00 9.00 53.14 9.22 53.00 9.00
C 52.96 8.95 54.91 10.18 54.00 9.00 Z"/>
</g>
<g fill="None" fill-opacity="0.0" stroke="#A2A5A5" stroke-opacity="1.00" stroke-width="0.3"><path d="
M 64.00 22.00 
C 61.67 17.11 59.56 13.55 55.00 10.00
C 57.61 14.21 61.54 17.88 64.00 22.00 Z"/>
</g>
<g fill="None" fill-opacity="0.0" stroke="#D2D3D7" stroke-opacity="1.00" stroke-width="0.3"><path d="
M 47.00 21.00 
C 47.00 23.31 47.19 25.70 47.00 28.00
C 47.03 27.79 47.81 27.32 48.00 27.00
C 48.53 24.40 47.48 21.94 47.00 20.00
C 47.00 20.00 47.00 20.50 47.00 21.00 Z"/>
</g>
<g fill="None" fill-opacity="0.0" stroke="#F9F9F9" stroke-opacity="0.35" stroke-width="0.3"><path d="
M 38.00 42.00 
C 39.79 40.90 42.77 38.57 44.00 37.00
C 45.89 33.92 46.43 31.50 47.00 28.00
C 47.19 25.70 47.00 23.31 47.00 21.00
C 44.90 23.84 46.94 30.77 44.77 33.77 C 42.60 36.77 40.94 39.88 38.00 42.00 Z"/>
</g>
<g fill="None" fill-opacity="0.0" stroke="#7EA7C3" stroke-opacity="1.00" stroke-width="0.3"><path d="
M 48.00 27.00 
C 47.81 27.32 47.03 27.79 47.00 28.00
C 46.43 31.50 45.89 33.92 44.00 37.00
C 43.41 37.96 41.50 41.59 41.00 42.00
C 44.67 42.56 50.22 52.35 53.75 44.75 C 57.27 37.14 59.11 36.99 59.00 29.00
C 55.48 28.81 50.44 22.79 48.00 27.00 Z"/>
</g>
<g fill="None" fill-opacity="0.0" stroke="#A2B8C4" stroke-opacity="1.00" stroke-width="0.3"><path d="
M 55.00 46.00 
C 60.57 43.38 62.09 48.48 60.00 53.00
C 66.01 45.68 68.77 35.63 66.00 26.00
C 63.69 30.01 65.65 36.17 65.00 41.00
C 59.32 36.98 58.32 42.08 55.00 46.00 Z"/>
</g>
<g fill="None" fill-opacity="0.0" stroke="#9FA7AB" stroke-opacity="1.00" stroke-width="0.3"><path d="
M 7.00 31.00 
C 7.88 35.33 15.56 44.15 20.00 43.00
C 17.13 41.93 12.80 39.13 11.75 36.25 C 10.71 33.36 6.48 28.42 7.00 31.00 Z"/>
</g>
<g fill="None" fill-opacity="0.0" stroke="#88A3B5" stroke-opacity="1.00" stroke-width="0.3"><path d="
M 24.00 62.00 
C 20.71 59.75 19.80 55.50 23.00 55.00
C 21.05 52.85 15.93 49.16 14.00 53.00
C 10.51 48.29 8.45 42.23 7.00 37.00
C 8.54 47.75 13.30 57.33 24.00 62.00 Z"/>
</g>
<g fill="None" fill-opacity="0.0" stroke="#AAAFB1" stroke-opacity="1.00" stroke-width="0.3"><path d="
M 38.00 42.00 
C 33.65 44.66 25.82 46.82 21.00 44.00
C 24.50 48.95 37.24 45.09 41.00 42.00
C 41.50 41.59 43.41 37.96 44.00 37.00
C 42.77 38.57 39.79 40.90 38.00 42.00 Z"/>
</g>
<g fill="None" fill-opacity="0.0" stroke="#759FBD" stroke-opacity="1.00" stroke-width="0.3"><path d="
M 55.00 46.00 
C 52.91 48.47 49.77 51.38 47.00 53.00
C 50.55 52.25 53.64 52.80 57.00 53.00
C 57.52 55.14 54.43 55.81 55.00 58.00
C 56.62 56.37 58.46 54.87 60.00 53.00
C 62.09 48.48 60.57 43.38 55.00 46.00 Z"/>
</g>
<g fill="None" fill-opacity="0.0" stroke="#5A82AF" stroke-opacity="1.00" stroke-width="0.3"><path d="
M 47.00 53.00 
C 39.22 54.64 31.36 58.08 23.00 55.00
C 19.80 55.50 20.71 59.75 24.00 62.00
C 32.92 65.89 44.74 64.51 53.00 60.00
C 53.27 59.80 54.82 58.22 55.00 58.00
C 54.43 55.81 57.52 55.14 57.00 53.00
C 53.64 52.80 50.55 52.25 47.00 53.00 Z"/>
</g>
<g fill="None" fill-opacity="0.0" stroke="#BFC2C6" stroke-opacity="1.00" stroke-width="0.3"><path d="
M 53.00 60.00 
C 54.10 59.40 54.17 58.83 55.00 58.00
C 54.82 58.22 53.27 59.80 53.00 60.00 Z"/>
</g>
<g fill="#000000" fill-opacity="0.00" stroke="None">
<path d="
M 0.00 69.00 
L 70.00 69.00
L 70.00 0.00
L 0.00 0.00
L 0.00 69.00
M 7.00 27.00 
C 12.07 38.88 27.97 49.31 39.75 38.75 C 51.52 28.18 43.79 8.51 30.00 5.00
C 46.72 -4.13 66.79 12.03 68.99 31.01 C 71.19 49.99 52.06 68.70 33.00 66.00 C 13.94 63.30 -0.70 44.68 7.00 27.00 Z"/>
</g>
<g fill="#FBFBFB" fill-opacity="0.48" stroke="None">
<path d="
M 7.00 27.00 
C -0.70 44.68 13.94 63.30 33.00 66.00 C 52.06 68.70 71.19 49.99 68.99 31.01 C 66.79 12.03 46.72 -4.13 30.00 5.00
C 43.79 8.51 51.52 28.18 39.75 38.75 C 27.97 49.31 12.07 38.88 7.00 27.00
M 53.00 9.00 
C 53.14 9.22 54.00 9.00 54.00 9.00
C 54.35 9.03 54.80 9.68 55.00 10.00
C 59.56 13.55 61.67 17.11 64.00 22.00
C 64.65 23.09 65.58 24.55 66.00 26.00
C 68.77 35.63 66.01 45.68 60.00 53.00
C 58.46 54.87 56.62 56.37 55.00 58.00
C 54.17 58.83 54.10 59.40 53.00 60.00
C 44.74 64.51 32.92 65.89 24.00 62.00
C 13.30 57.33 8.54 47.75 7.00 37.00
C 6.66 34.63 5.62 33.55 7.00 31.00
C 6.48 28.42 10.71 33.36 11.75 36.25 C 12.80 39.13 17.13 41.93 20.00 43.00
C 20.35 43.13 20.79 43.70 21.00 44.00
C 25.82 46.82 33.65 44.66 38.00 42.00
C 40.94 39.88 42.60 36.77 44.77 33.77 C 46.94 30.77 44.90 23.84 47.00 21.00
C 47.00 20.50 47.00 20.00 47.00 20.00
C 46.88 13.92 40.63 7.47 35.00 6.00
C 34.65 5.91 34.26 5.12 34.00 5.00
C 33.50 4.95 33.00 5.00 33.00 5.00
C 31.88 4.82 32.34 4.19 33.00 4.00
C 36.32 3.70 40.71 3.48 44.00 4.00
C 46.84 4.45 51.46 6.54 53.00 9.00 Z"/>
</g>
<g fill="#DDDDDE" fill-opacity="1.00" stroke="None">
<path d="
M 33.00 5.00 
C 32.75 4.75 33.00 4.00 33.00 4.00
C 32.34 4.19 31.88 4.82 33.00 5.00 Z"/>
</g>
<g fill="#5E87AE" fill-opacity="1.00" stroke="None">
<path d="
M 33.00 5.00 
C 33.00 5.00 33.50 4.95 34.00 5.00
C 34.35 5.03 34.75 5.91 35.00 6.00
C 40.63 7.47 46.88 13.92 47.00 20.00
C 47.48 21.94 48.53 24.40 48.00 27.00
C 50.44 22.79 55.48 28.81 59.00 29.00
C 58.86 18.93 51.56 9.06 42.00 6.00
C 42.08 4.74 44.06 5.44 44.00 4.00
C 40.71 3.48 36.32 3.70 33.00 4.00
C 33.00 4.00 32.75 4.75 33.00 5.00 Z"/>
</g>
<g fill="#CFE3EC" fill-opacity="1.00" stroke="None">
<path d="
M 59.00 29.00 
C 59.11 36.99 57.27 37.14 53.75 44.75 C 50.22 52.35 44.67 42.56 41.00 42.00
C 37.24 45.09 24.50 48.95 21.00 44.00
C 20.79 43.70 20.35 43.13 20.00 43.00
C 15.56 44.15 7.88 35.33 7.00 31.00
C 5.62 33.55 6.66 34.63 7.00 37.00
C 8.45 42.23 10.51 48.29 14.00 53.00
C 15.93 49.16 21.05 52.85 23.00 55.00
C 31.36 58.08 39.22 54.64 47.00 53.00
C 49.77 51.38 52.91 48.47 55.00 46.00
C 58.32 42.08 59.32 36.98 65.00 41.00
C 65.65 36.17 63.69 30.01 66.00 26.00
C 65.58 24.55 64.65 23.09 64.00 22.00
C 61.54 17.88 57.61 14.21 55.00 10.00
C 54.80 9.68 54.35 9.03 54.00 9.00
C 54.91 10.18 52.96 8.95 53.00 9.00
C 51.46 6.54 46.84 4.45 44.00 4.00
C 44.06 5.44 42.08 4.74 42.00 6.00
C 51.56 9.06 58.86 18.93 59.00 29.00 Z"/>
</g>
<g fill="#BBBCBF" fill-opacity="1.00" stroke="None">
<path d="
M 35.00 6.00 
C 34.75 5.91 34.35 5.03 34.00 5.00
C 34.26 5.12 34.65 5.91 35.00 6.00 Z"/>
</g>
<g fill="#808483" fill-opacity="1.00" stroke="None">
<path d="
M 54.00 9.00 
C 54.00 9.00 53.14 9.22 53.00 9.00
C 52.96 8.95 54.91 10.18 54.00 9.00 Z"/>
</g>
<g fill="#A2A5A5" fill-opacity="1.00" stroke="None">
<path d="
M 64.00 22.00 
C 61.67 17.11 59.56 13.55 55.00 10.00
C 57.61 14.21 61.54 17.88 64.00 22.00 Z"/>
</g>
<g fill="#D2D3D7" fill-opacity="1.00" stroke="None">
<path d="
M 47.00 21.00 
C 47.00 23.31 47.19 25.70 47.00 28.00
C 47.03 27.79 47.81 27.32 48.00 27.00
C 48.53 24.40 47.48 21.94 47.00 20.00
C 47.00 20.00 47.00 20.50 47.00 21.00 Z"/>
</g>
<g fill="#F9F9F9" fill-opacity="0.35" stroke="None">
<path d="
M 38.00 42.00 
C 39.79 40.90 42.77 38.57 44.00 37.00
C 45.89 33.92 46.43 31.50 47.00 28.00
C 47.19 25.70 47.00 23.31 47.00 21.00
C 44.90 23.84 46.94 30.77 44.77 33.77 C 42.60 36.77 40.94 39.88 38.00 42.00 Z"/>
</g>
<g fill="#7EA7C3" fill-opacity="1.00" stroke="None">
<path d="
M 48.00 27.00 
C 47.81 27.32 47.03 27.79 47.00 28.00
C 46.43 31.50 45.89 33.92 44.00 37.00
C 43.41 37.96 41.50 41.59 41.00 42.00
C 44.67 42.56 50.22 52.35 53.75 44.75 C 57.27 37.14 59.11 36.99 59.00 29.00
C 55.48 28.81 50.44 22.79 48.00 27.00 Z"/>
</g>
<g fill="#A2B8C4" fill-opacity="1.00" stroke="None">
<path d="
M 55.00 46.00 
C 60.57 43.38 62.09 48.48 60.00 53.00
C 66.01 45.68 68.77 35.63 66.00 26.00
C 63.69 30.01 65.65 36.17 65.00 41.00
C 59.32 36.98 58.32 42.08 55.00 46.00 Z"/>
</g>
<g fill="#9FA7AB" fill-opacity="1.00" stroke="None">
<path d="
M 7.00 31.00 
C 7.88 35.33 15.56 44.15 20.00 43.00
C 17.13 41.93 12.80 39.13 11.75 36.25 C 10.71 33.36 6.48 28.42 7.00 31.00 Z"/>
</g>
<g fill="#88A3B5" fill-opacity="1.00" stroke="None">
<path d="
M 24.00 62.00 
C 20.71 59.75 19.80 55.50 23.00 55.00
C 21.05 52.85 15.93 49.16 14.00 53.00
C 10.51 48.29 8.45 42.23 7.00 37.00
C 8.54 47.75 13.30 57.33 24.00 62.00 Z"/>
</g>
<g fill="#AAAFB1" fill-opacity="1.00" stroke="None">
<path d="
M 38.00 42.00 
C 33.65 44.66 25.82 46.82 21.00 44.00
C 24.50 48.95 37.24 45.09 41.00 42.00
C 41.50 41.59 43.41 37.96 44.00 37.00
C 42.77 38.57 39.79 40.90 38.00 42.00 Z"/>
</g>
<g fill="#759FBD" fill-opacity="1.00" stroke="None">
<path d="
M 55.00 46.00 
C 52.91 48.47 49.77 51.38 47.00 53.00
C 50.55 52.25 53.64 52.80 57.00 53.00
C 57.52 55.14 54.43 55.81 55.00 58.00
C 56.62 56.37 58.46 54.87 60.00 53.00
C 62.09 48.48 60.57 43.38 55.00 46.00 Z"/>
</g>
<g fill="#5A82AF" fill-opacity="1.00" stroke="None">
<path d="
M 47.00 53.00 
C 39.22 54.64 31.36 58.08 23.00 55.00
C 19.80 55.50 20.71 59.75 24.00 62.00
C 32.92 65.89 44.74 64.51 53.00 60.00
C 53.27 59.80 54.82 58.22 55.00 58.00
C 54.43 55.81 57.52 55.14 57.00 53.00
C 53.64 52.80 50.55 52.25 47.00 53.00 Z"/>
</g>
<g fill="#BFC2C6" fill-opacity="1.00" stroke="None">
<path d="
M 53.00 60.00 
C 54.10 59.40 54.17 58.83 55.00 58.00
C 54.82 58.22 53.27 59.80 53.00 60.00 Z"/>
</g>
</svg>