<svg xmlns="http://www.w3.org/2000/svg" xmlns:v="https://svgstorm.com"
viewBox = "0 0 72 83"
width="72"
height="83">
<g fill="None" fill-opacity="0.0" stroke="#000000" stroke-opacity="0.00" stroke-width="0.3"><path d="
M 0.00 54.00 
C 3.48 54.99 3.40 59.03 0.00 60.00
L 0.00 83.00
L 72.00 83.00
L 72.00 0.00
L 0.00 0.00
L 0.00 54.00
M 63.00 41.00 
C 71.11 47.59 61.04 53.19 55.00 56.00
C 63.94 70.30 48.28 72.09 39.00 71.00 C 29.72 69.91 8.81 75.04 12.00 62.00 C 15.19 48.96 -3.75 52.78 6.00 42.00
C -7.17 21.96 15.42 5.30 34.00 5.00 C 52.58 4.70 75.70 21.69 63.00 41.00 Z"/>
</g>
<g fill="None" fill-opacity="0.0" stroke="#F7F7F7" stroke-opacity="0.51" stroke-width="0.3"><path d="
M 63.00 41.00 
C 75.70 21.69 52.58 4.70 34.00 5.00 C 15.42 5.30 -7.17 21.96 6.00 42.00
C -3.75 52.78 15.19 48.96 12.00 62.00 C 8.81 75.04 29.72 69.91 39.00 71.00 C 48.28 72.09 63.94 70.30 55.00 56.00
C 61.04 53.19 71.11 47.59 63.00 41.00
M 14.00 67.00 
C 12.48 65.38 15.02 60.03 15.00 59.00
C 14.02 51.91 7.19 52.82 5.00 47.00
C 4.49 45.63 4.59 46.20 6.00 45.00
C 6.99 43.51 7.79 41.77 8.00 40.00
C 5.46 38.77 4.77 35.66 5.00 33.00
C 4.62 31.18 5.00 28.86 5.00 27.00
C 4.97 26.52 3.72 20.74 5.00 25.00
C 8.25 15.60 18.08 8.32 28.00 7.00
C 31.97 6.47 37.01 6.64 41.00 7.00
C 50.22 7.68 56.90 13.23 61.92 21.08 C 66.95 28.92 59.42 40.78 64.00 48.00
C 55.43 51.64 50.36 59.04 55.00 68.00
C 42.15 69.00 25.68 70.98 14.00 67.00 Z"/>
</g>
<g fill="None" fill-opacity="0.0" stroke="#716A88" stroke-opacity="1.00" stroke-width="0.3"><path d="
M 5.00 25.00 
C 4.85 25.45 5.00 26.50 5.00 27.00
C 5.00 28.86 4.62 31.18 5.00 33.00
C 5.02 33.10 6.00 33.00 6.00 33.00
C 5.94 30.23 6.34 28.12 7.00 26.00
C 7.23 24.50 8.28 22.39 9.00 21.00
C 9.80 19.47 11.03 18.18 12.00 17.00
C 13.03 15.74 13.65 14.90 15.00 14.00
C 19.83 10.78 24.13 9.22 30.00 9.00
C 29.98 9.00 30.00 8.00 30.00 8.00
C 29.18 7.90 28.33 7.05 28.00 7.00
C 18.08 8.32 8.25 15.60 5.00 25.00 Z"/>
</g>
<g fill="None" fill-opacity="0.0" stroke="#48416A" stroke-opacity="1.00" stroke-width="0.3"><path d="
M 30.00 8.00 
C 33.39 8.42 37.60 8.31 41.00 8.00
C 41.00 7.50 41.00 7.00 41.00 7.00
C 37.01 6.64 31.97 6.47 28.00 7.00
C 28.33 7.05 29.18 7.90 30.00 8.00 Z"/>
</g>
<g fill="None" fill-opacity="0.0" stroke="#776F82" stroke-opacity="1.00" stroke-width="0.3"><path d="
M 41.00 8.00 
C 41.00 8.50 41.00 9.00 41.00 9.00
C 45.36 9.01 50.40 11.61 54.00 14.00
C 56.15 15.43 58.87 17.69 60.00 20.00
C 60.20 20.40 60.00 21.00 60.00 21.00
C 62.12 26.14 62.82 31.95 61.00 37.00
C 60.68 37.88 59.00 40.17 59.00 41.00
C 59.00 42.24 60.81 43.49 61.00 45.00
C 62.12 47.33 63.19 45.65 61.00 48.00
C 59.98 50.35 54.75 51.09 53.00 53.00
C 50.16 57.45 53.87 62.21 53.00 67.00
C 51.67 67.00 50.33 67.00 49.00 67.00
C 47.92 67.33 46.35 65.76 46.00 65.00
C 45.84 65.97 46.13 67.02 46.00 68.00
C 43.22 68.53 45.24 66.39 45.00 65.00
C 44.50 65.00 44.00 65.00 44.00 65.00
C 43.90 66.11 44.10 66.50 43.00 67.00
C 41.41 67.72 37.77 67.00 36.00 67.00
C 35.50 67.00 35.00 67.00 35.00 67.00
C 32.91 68.65 33.48 66.90 34.00 65.00
C 33.73 65.25 33.00 65.00 33.00 65.00
C 32.38 67.30 29.55 67.69 27.00 67.00
C 25.11 66.49 25.62 66.87 25.00 65.00
C 24.95 64.85 24.00 65.00 24.00 65.00
C 23.85 65.98 24.12 67.02 24.00 68.00
C 22.61 67.74 23.22 65.95 23.00 65.00
C 22.50 65.00 22.00 65.00 22.00 65.00
C 20.99 68.77 18.13 66.10 16.00 66.00
C 15.94 66.00 13.97 67.13 14.00 67.00
C 25.68 70.98 42.15 69.00 55.00 68.00
C 50.36 59.04 55.43 51.64 64.00 48.00
C 59.42 40.78 66.95 28.92 61.92 21.08 C 56.90 13.23 50.22 7.68 41.00 7.00
C 41.00 7.00 41.00 7.50 41.00 8.00 Z"/>
</g>
<g fill="None" fill-opacity="0.0" stroke="#B2ABD6" stroke-opacity="1.00" stroke-width="0.3"><path d="
M 30.00 9.00 
C 33.64 8.86 37.37 9.33 41.00 9.00
C 41.00 9.00 41.00 8.50 41.00 8.00
C 37.60 8.31 33.39 8.42 30.00 8.00
C 30.00 8.00 29.98 9.00 30.00 9.00 Z"/>
</g>
<g fill="None" fill-opacity="0.0" stroke="#F7F4F2" stroke-opacity="1.00" stroke-width="0.3"><path d="
M 15.00 14.00 
C 14.14 14.71 12.78 16.23 12.00 17.00
C 11.03 18.18 9.80 19.47 9.00 21.00
C 11.83 16.89 16.66 19.10 17.00 15.00
C 24.01 16.75 30.79 20.75 38.07 19.07 C 45.35 17.39 55.11 15.44 60.00 21.00
C 60.00 21.00 60.20 20.40 60.00 20.00
C 57.66 18.36 56.07 15.62 54.00 14.00
C 50.40 11.61 45.36 9.01 41.00 9.00
C 37.37 9.33 33.64 8.86 30.00 9.00
C 24.13 9.22 19.83 10.78 15.00 14.00 Z"/>
</g>
<g fill="None" fill-opacity="0.0" stroke="#A299B6" stroke-opacity="1.00" stroke-width="0.3"><path d="
M 12.00 17.00 
C 12.78 16.23 14.14 14.71 15.00 14.00
C 13.65 14.90 13.03 15.74 12.00 17.00 Z"/>
</g>
<g fill="None" fill-opacity="0.0" stroke="#9E95AE" stroke-opacity="1.00" stroke-width="0.3"><path d="
M 60.00 20.00 
C 58.87 17.69 56.15 15.43 54.00 14.00
C 56.07 15.62 57.66 18.36 60.00 20.00 Z"/>
</g>
<g fill="None" fill-opacity="0.0" stroke="#E3D9C8" stroke-opacity="1.00" stroke-width="0.3"><path d="
M 9.00 21.00 
C 8.28 22.39 7.23 24.50 7.00 26.00
C 6.86 26.94 7.00 28.05 7.00 29.00
C 9.45 29.65 11.20 28.25 13.00 27.00
C 13.65 26.55 14.30 26.32 15.00 26.00
C 17.10 25.03 30.93 25.10 30.97 33.03 C 31.01 40.96 17.60 37.52 13.00 39.00
C 12.76 39.08 10.48 41.51 9.00 42.00
C 9.01 42.50 9.00 43.00 9.00 43.00
C 7.33 44.64 6.86 45.98 8.00 48.00
C 11.12 49.90 13.70 52.49 17.00 54.00
C 16.79 57.01 15.44 59.77 16.00 63.00
C 16.02 63.67 16.28 65.40 16.00 66.00
C 18.13 66.10 20.99 68.77 22.00 65.00
C 23.33 62.38 22.26 59.06 24.00 57.00
C 25.72 59.27 24.73 62.34 25.00 65.00
C 25.00 64.99 26.00 65.00 26.00 65.00
C 28.63 62.45 26.67 56.73 25.00 54.00
C 22.72 54.55 21.41 56.99 19.00 57.00
C 18.08 53.72 22.03 52.52 23.00 50.00
C 25.63 50.15 25.08 54.57 29.00 53.00
C 28.39 48.80 33.70 51.15 35.00 49.00
C 33.39 49.00 31.60 49.22 30.00 49.00
C 29.02 48.87 27.99 49.11 27.00 49.00
C 28.70 45.56 31.81 43.08 34.00 40.00
C 37.21 42.17 40.06 45.37 41.00 49.00
C 39.46 49.37 38.60 47.57 37.00 48.00
C 37.25 48.21 37.00 49.00 37.00 49.00
C 45.60 50.42 41.12 59.83 40.00 65.00
C 36.60 62.32 40.04 56.09 34.97 55.03 C 29.89 53.98 29.24 64.10 33.00 65.00
C 32.07 63.63 33.87 62.65 34.00 62.00
C 34.00 61.25 33.72 59.68 34.00 59.00
C 35.14 56.22 36.11 65.78 36.00 67.00
C 37.77 67.00 41.41 67.72 43.00 67.00
C 41.34 65.18 44.25 59.20 43.00 57.00
C 49.17 55.46 47.14 62.77 49.00 66.00
C 50.00 65.95 51.00 66.04 52.00 66.00
C 52.44 62.11 48.29 54.76 53.00 53.00
C 54.75 51.09 59.98 50.35 61.00 48.00
C 61.24 47.44 61.08 45.62 61.00 45.00
C 60.81 43.49 59.00 42.24 59.00 41.00
C 58.23 40.54 56.49 40.10 55.00 41.00 C 53.51 41.90 53.17 38.84 54.00 39.00
C 49.96 40.79 40.73 41.57 38.25 35.75 C 35.76 29.93 45.59 26.46 50.00 26.00
C 51.78 25.51 51.16 25.08 53.00 26.00
C 54.46 26.32 55.26 28.00 56.00 29.00
C 56.18 29.24 57.00 29.00 57.00 29.00
C 58.27 28.73 59.71 29.21 61.00 29.00
C 61.00 31.67 61.00 34.33 61.00 37.00
C 62.82 31.95 62.12 26.14 60.00 21.00
C 55.11 15.44 45.35 17.39 38.07 19.07 C 30.79 20.75 24.01 16.75 17.00 15.00
C 16.66 19.10 11.83 16.89 9.00 21.00 Z"/>
</g>
<g fill="None" fill-opacity="0.0" stroke="#FAFAFA" stroke-opacity="0.33" stroke-width="0.3"><path d="
M 5.00 27.00 
C 5.00 26.50 4.85 25.45 5.00 25.00
C 3.72 20.74 4.97 26.52 5.00 27.00 Z"/>
</g>
<g fill="None" fill-opacity="0.0" stroke="#030101" stroke-opacity="1.00" stroke-width="0.3"><path d="
M 15.00 26.00 
C 15.71 26.83 11.10 29.70 11.00 30.00
C 9.93 33.67 13.61 36.31 13.00 39.00
C 17.60 37.52 31.01 40.96 30.97 33.03 C 30.93 25.10 17.10 25.03 15.00 26.00 Z"/>
</g>
<g fill="None" fill-opacity="0.0" stroke="#766A5D" stroke-opacity="1.00" stroke-width="0.3"><path d="
M 50.00 26.00 
C 50.82 25.91 52.20 25.83 53.00 26.00
C 51.16 25.08 51.78 25.51 50.00 26.00 Z"/>
</g>
<g fill="None" fill-opacity="0.0" stroke="#A393A0" stroke-opacity="1.00" stroke-width="0.3"><path d="
M 6.00 33.00 
C 6.41 34.30 6.48 34.95 7.00 36.00
C 6.63 33.81 7.00 31.23 7.00 29.00
C 7.00 28.05 6.86 26.94 7.00 26.00
C 6.34 28.12 5.94 30.23 6.00 33.00 Z"/>
</g>
<g fill="None" fill-opacity="0.0" stroke="#686348" stroke-opacity="1.00" stroke-width="0.3"><path d="
M 13.00 27.00 
C 12.36 27.54 11.23 29.20 11.00 30.00
C 11.10 29.70 15.71 26.83 15.00 26.00
C 14.30 26.32 13.65 26.55 13.00 27.00 Z"/>
</g>
<g fill="None" fill-opacity="0.0" stroke="#010100" stroke-opacity="1.00" stroke-width="0.3"><path d="
M 54.00 39.00 
C 56.07 38.08 56.35 36.85 57.00 35.00
C 57.37 32.84 56.94 30.84 56.00 29.00
C 55.26 28.00 54.46 26.32 53.00 26.00
C 52.20 25.83 50.82 25.91 50.00 26.00
C 45.59 26.46 35.76 29.93 38.25 35.75 C 40.73 41.57 49.96 40.79 54.00 39.00 Z"/>
</g>
<g fill="None" fill-opacity="0.0" stroke="#CCBB97" stroke-opacity="1.00" stroke-width="0.3"><path d="
M 7.00 29.00 
C 7.00 31.23 6.63 33.81 7.00 36.00
C 8.04 38.11 8.95 39.54 9.00 42.00
C 10.48 41.51 12.76 39.08 13.00 39.00
C 13.61 36.31 9.93 33.67 11.00 30.00
C 11.23 29.20 12.36 27.54 13.00 27.00
C 11.20 28.25 9.45 29.65 7.00 29.00 Z"/>
</g>
<g fill="None" fill-opacity="0.0" stroke="#5E4F2E" stroke-opacity="1.00" stroke-width="0.3"><path d="
M 57.00 35.00 
C 57.64 33.19 58.77 31.11 57.00 29.00
C 57.00 29.00 56.18 29.24 56.00 29.00
C 56.94 30.84 57.37 32.84 57.00 35.00 Z"/>
</g>
<g fill="None" fill-opacity="0.0" stroke="#D1BE98" stroke-opacity="1.00" stroke-width="0.3"><path d="
M 57.00 35.00 
C 56.35 36.85 56.07 38.08 54.00 39.00
C 53.17 38.84 53.51 41.90 55.00 41.00 C 56.49 40.10 58.23 40.54 59.00 41.00
C 59.00 40.17 60.68 37.88 61.00 37.00
C 61.00 34.33 61.00 31.67 61.00 29.00
C 59.71 29.21 58.27 28.73 57.00 29.00
C 58.77 31.11 57.64 33.19 57.00 35.00 Z"/>
</g>
<g fill="None" fill-opacity="0.0" stroke="#75706F" stroke-opacity="1.00" stroke-width="0.3"><path d="
M 6.00 45.00 
C 6.81 44.31 8.34 43.72 9.00 43.00
C 9.00 43.00 9.01 42.50 9.00 42.00
C 8.95 39.54 8.04 38.11 7.00 36.00
C 6.48 34.95 6.41 34.30 6.00 33.00
C 6.00 33.00 5.02 33.10 5.00 33.00
C 4.77 35.66 5.46 38.77 8.00 40.00
C 7.79 41.77 6.99 43.51 6.00 45.00 Z"/>
</g>
<g fill="None" fill-opacity="0.0" stroke="#140E08" stroke-opacity="1.00" stroke-width="0.3"><path d="
M 30.00 49.00 
C 32.25 48.92 33.84 45.34 37.00 48.00
C 38.60 47.57 39.46 49.37 41.00 49.00
C 40.06 45.37 37.21 42.17 34.00 40.00
C 31.81 43.08 28.70 45.56 27.00 49.00
C 27.99 49.11 29.02 48.87 30.00 49.00 Z"/>
</g>
<g fill="None" fill-opacity="0.0" stroke="#A69FAF" stroke-opacity="1.00" stroke-width="0.3"><path d="
M 6.00 45.00 
C 4.59 46.20 4.49 45.63 5.00 47.00
C 4.19 45.87 7.87 47.92 8.00 48.00
C 6.86 45.98 7.33 44.64 9.00 43.00
C 8.34 43.72 6.81 44.31 6.00 45.00 Z"/>
</g>
<g fill="None" fill-opacity="0.0" stroke="#C5BCCD" stroke-opacity="1.00" stroke-width="0.3"><path d="
M 61.00 48.00 
C 63.19 45.65 62.12 47.33 61.00 45.00
C 61.08 45.62 61.24 47.44 61.00 48.00 Z"/>
</g>
<g fill="None" fill-opacity="0.0" stroke="#746D76" stroke-opacity="1.00" stroke-width="0.3"><path d="
M 5.00 47.00 
C 7.19 52.82 14.02 51.91 15.00 59.00
C 15.19 60.39 15.85 62.15 16.00 63.00
C 15.44 59.77 16.79 57.01 17.00 54.00
C 13.70 52.49 11.12 49.90 8.00 48.00
C 7.87 47.92 4.19 45.87 5.00 47.00 Z"/>
</g>
<g fill="None" fill-opacity="0.0" stroke="#A69E8D" stroke-opacity="1.00" stroke-width="0.3"><path d="
M 30.00 49.00 
C 31.60 49.22 33.39 49.00 35.00 49.00
C 35.50 49.00 36.84 49.23 37.00 49.00
C 37.00 49.00 37.25 48.21 37.00 48.00
C 33.84 45.34 32.25 48.92 30.00 49.00 Z"/>
</g>
<g fill="None" fill-opacity="0.0" stroke="#FBF8F1" stroke-opacity="1.00" stroke-width="0.3"><path d="
M 26.00 65.00 
C 26.42 65.21 26.72 66.86 27.00 67.00
C 29.55 67.69 32.38 67.30 33.00 65.00
C 29.24 64.10 29.89 53.98 34.97 55.03 C 40.04 56.09 36.60 62.32 40.00 65.00
C 41.12 59.83 45.60 50.42 37.00 49.00
C 36.84 49.23 35.50 49.00 35.00 49.00
C 33.70 51.15 28.39 48.80 29.00 53.00
C 25.08 54.57 25.63 50.15 23.00 50.00
C 22.03 52.52 18.08 53.72 19.00 57.00
C 21.41 56.99 22.72 54.55 25.00 54.00
C 26.67 56.73 28.63 62.45 26.00 65.00 Z"/>
</g>
<g fill="None" fill-opacity="0.0" stroke="#CEC5CD" stroke-opacity="1.00" stroke-width="0.3"><path d="
M 49.00 66.00 
C 49.22 66.38 49.00 67.00 49.00 67.00
C 50.33 67.00 51.67 67.00 53.00 67.00
C 53.87 62.21 50.16 57.45 53.00 53.00
C 48.29 54.76 52.44 62.11 52.00 66.00
C 51.00 66.04 50.00 65.95 49.00 66.00 Z"/>
</g>
<g fill="None" fill-opacity="0.0" stroke="#F7F6F6" stroke-opacity="0.51" stroke-width="0.3"><path d="
M 0.00 60.00 
C 3.40 59.03 3.48 54.99 0.00 54.00
L 0.00 60.00 Z"/>
</g>
<g fill="None" fill-opacity="0.0" stroke="#574B3C" stroke-opacity="1.00" stroke-width="0.3"><path d="
M 22.00 65.00 
C 22.00 65.00 22.50 65.00 23.00 65.00
C 23.50 65.00 24.00 65.00 24.00 65.00
C 24.00 65.00 24.95 64.85 25.00 65.00
C 24.73 62.34 25.72 59.27 24.00 57.00
C 22.26 59.06 23.33 62.38 22.00 65.00 Z"/>
</g>
<g fill="None" fill-opacity="0.0" stroke="#B9AB99" stroke-opacity="1.00" stroke-width="0.3"><path d="
M 43.00 67.00 
C 44.10 66.50 43.90 66.11 44.00 65.00
C 44.20 62.78 43.10 59.40 45.00 58.00
C 46.59 59.97 45.80 62.66 46.00 65.00
C 46.35 65.76 47.92 67.33 49.00 67.00
C 49.00 67.00 49.22 66.38 49.00 66.00
C 47.14 62.77 49.17 55.46 43.00 57.00
C 44.25 59.20 41.34 65.18 43.00 67.00 Z"/>
</g>
<g fill="None" fill-opacity="0.0" stroke="#988875" stroke-opacity="1.00" stroke-width="0.3"><path d="
M 34.00 59.00 
C 35.51 60.11 35.11 63.16 35.00 65.00
C 34.97 65.50 34.77 66.84 35.00 67.00
C 35.00 67.00 35.50 67.00 36.00 67.00
C 36.11 65.78 35.14 56.22 34.00 59.00 Z"/>
</g>
<g fill="None" fill-opacity="0.0" stroke="#564731" stroke-opacity="1.00" stroke-width="0.3"><path d="
M 44.00 65.00 
C 44.00 65.00 44.50 65.00 45.00 65.00
C 45.50 65.00 46.00 65.00 46.00 65.00
C 45.80 62.66 46.59 59.97 45.00 58.00
C 43.10 59.40 44.20 62.78 44.00 65.00 Z"/>
</g>
<g fill="None" fill-opacity="0.0" stroke="#B5B4B7" stroke-opacity="1.00" stroke-width="0.3"><path d="
M 14.00 67.00 
C 13.97 67.13 15.94 66.00 16.00 66.00
C 16.28 65.40 16.02 63.67 16.00 63.00
C 15.85 62.15 15.19 60.39 15.00 59.00
C 15.02 60.03 12.48 65.38 14.00 67.00 Z"/>
</g>
<g fill="None" fill-opacity="0.0" stroke="#322512" stroke-opacity="1.00" stroke-width="0.3"><path d="
M 34.00 62.00 
C 34.00 62.39 33.74 64.76 34.00 65.00
C 34.27 65.25 35.00 65.00 35.00 65.00
C 35.11 63.16 35.51 60.11 34.00 59.00
C 33.72 59.68 34.00 61.25 34.00 62.00 Z"/>
</g>
<g fill="None" fill-opacity="0.0" stroke="#625948" stroke-opacity="1.00" stroke-width="0.3"><path d="
M 33.00 65.00 
C 33.00 65.00 33.73 65.25 34.00 65.00
C 33.74 64.76 34.00 62.39 34.00 62.00
C 33.87 62.65 32.07 63.63 33.00 65.00 Z"/>
</g>
<g fill="None" fill-opacity="0.0" stroke="#191018" stroke-opacity="1.00" stroke-width="0.3"><path d="
M 24.00 65.00 
C 24.00 65.00 23.50 65.00 23.00 65.00
C 23.22 65.95 22.61 67.74 24.00 68.00
C 24.12 67.02 23.85 65.98 24.00 65.00 Z"/>
</g>
<g fill="None" fill-opacity="0.0" stroke="#BAB0BA" stroke-opacity="1.00" stroke-width="0.3"><path d="
M 27.00 67.00 
C 26.72 66.86 26.42 65.21 26.00 65.00
C 26.00 65.00 25.00 64.99 25.00 65.00
C 25.62 66.87 25.11 66.49 27.00 67.00 Z"/>
</g>
<g fill="None" fill-opacity="0.0" stroke="#241D28" stroke-opacity="1.00" stroke-width="0.3"><path d="
M 35.00 67.00 
C 34.77 66.84 34.97 65.50 35.00 65.00
C 35.00 65.00 34.27 65.25 34.00 65.00
C 33.48 66.90 32.91 68.65 35.00 67.00 Z"/>
</g>
<g fill="None" fill-opacity="0.0" stroke="#2A1B2C" stroke-opacity="1.00" stroke-width="0.3"><path d="
M 46.00 65.00 
C 46.00 65.00 45.50 65.00 45.00 65.00
C 45.24 66.39 43.22 68.53 46.00 68.00
C 46.13 67.02 45.84 65.97 46.00 65.00 Z"/>
</g>
<g fill="#000000" fill-opacity="0.00" stroke="None">
<path d="
M 0.00 54.00 
C 3.48 54.99 3.40 59.03 0.00 60.00
L 0.00 83.00
L 72.00 83.00
L 72.00 0.00
L 0.00 0.00
L 0.00 54.00
M 63.00 41.00 
C 71.11 47.59 61.04 53.19 55.00 56.00
C 63.94 70.30 48.28 72.09 39.00 71.00 C 29.72 69.91 8.81 75.04 12.00 62.00 C 15.19 48.96 -3.75 52.78 6.00 42.00
C -7.17 21.96 15.42 5.30 34.00 5.00 C 52.58 4.70 75.70 21.69 63.00 41.00 Z"/>
</g>
<g fill="#F7F7F7" fill-opacity="0.51" stroke="None">
<path d="
M 63.00 41.00 
C 75.70 21.69 52.58 4.70 34.00 5.00 C 15.42 5.30 -7.17 21.96 6.00 42.00
C -3.75 52.78 15.19 48.96 12.00 62.00 C 8.81 75.04 29.72 69.91 39.00 71.00 C 48.28 72.09 63.94 70.30 55.00 56.00
C 61.04 53.19 71.11 47.59 63.00 41.00
M 14.00 67.00 
C 12.48 65.38 15.02 60.03 15.00 59.00
C 14.02 51.91 7.19 52.82 5.00 47.00
C 4.49 45.63 4.59 46.20 6.00 45.00
C 6.99 43.51 7.79 41.77 8.00 40.00
C 5.46 38.77 4.77 35.66 5.00 33.00
C 4.62 31.18 5.00 28.86 5.00 27.00
C 4.97 26.52 3.72 20.74 5.00 25.00
C 8.25 15.60 18.08 8.32 28.00 7.00
C 31.97 6.47 37.01 6.64 41.00 7.00
C 50.22 7.68 56.90 13.23 61.92 21.08 C 66.95 28.92 59.42 40.78 64.00 48.00
C 55.43 51.64 50.36 59.04 55.00 68.00
C 42.15 69.00 25.68 70.98 14.00 67.00 Z"/>
</g>
<g fill="#716A88" fill-opacity="1.00" stroke="None">
<path d="
M 5.00 25.00 
C 4.85 25.45 5.00 26.50 5.00 27.00
C 5.00 28.86 4.62 31.18 5.00 33.00
C 5.02 33.10 6.00 33.00 6.00 33.00
C 5.94 30.23 6.34 28.12 7.00 26.00
C 7.23 24.50 8.28 22.39 9.00 21.00
C 9.80 19.47 11.03 18.18 12.00 17.00
C 13.03 15.74 13.65 14.90 15.00 14.00
C 19.83 10.78 24.13 9.22 30.00 9.00
C 29.98 9.00 30.00 8.00 30.00 8.00
C 29.18 7.90 28.33 7.05 28.00 7.00
C 18.08 8.32 8.25 15.60 5.00 25.00 Z"/>
</g>
<g fill="#48416A" fill-opacity="1.00" stroke="None">
<path d="
M 30.00 8.00 
C 33.39 8.42 37.60 8.31 41.00 8.00
C 41.00 7.50 41.00 7.00 41.00 7.00
C 37.01 6.64 31.97 6.47 28.00 7.00
C 28.33 7.05 29.18 7.90 30.00 8.00 Z"/>
</g>
<g fill="#776F82" fill-opacity="1.00" stroke="None">
<path d="
M 41.00 8.00 
C 41.00 8.50 41.00 9.00 41.00 9.00
C 45.36 9.01 50.40 11.61 54.00 14.00
C 56.15 15.43 58.87 17.69 60.00 20.00
C 60.20 20.40 60.00 21.00 60.00 21.00
C 62.12 26.14 62.82 31.95 61.00 37.00
C 60.68 37.88 59.00 40.17 59.00 41.00
C 59.00 42.24 60.81 43.49 61.00 45.00
C 62.12 47.33 63.19 45.65 61.00 48.00
C 59.98 50.35 54.75 51.09 53.00 53.00
C 50.16 57.45 53.87 62.21 53.00 67.00
C 51.67 67.00 50.33 67.00 49.00 67.00
C 47.92 67.33 46.35 65.76 46.00 65.00
C 45.84 65.97 46.13 67.02 46.00 68.00
C 43.22 68.53 45.24 66.39 45.00 65.00
C 44.50 65.00 44.00 65.00 44.00 65.00
C 43.90 66.11 44.10 66.50 43.00 67.00
C 41.41 67.72 37.77 67.00 36.00 67.00
C 35.50 67.00 35.00 67.00 35.00 67.00
C 32.91 68.65 33.48 66.90 34.00 65.00
C 33.73 65.25 33.00 65.00 33.00 65.00
C 32.38 67.30 29.55 67.69 27.00 67.00
C 25.11 66.49 25.62 66.87 25.00 65.00
C 24.95 64.85 24.00 65.00 24.00 65.00
C 23.85 65.98 24.12 67.02 24.00 68.00
C 22.61 67.74 23.22 65.95 23.00 65.00
C 22.50 65.00 22.00 65.00 22.00 65.00
C 20.99 68.77 18.13 66.10 16.00 66.00
C 15.94 66.00 13.97 67.13 14.00 67.00
C 25.68 70.98 42.15 69.00 55.00 68.00
C 50.36 59.04 55.43 51.64 64.00 48.00
C 59.42 40.78 66.95 28.92 61.92 21.08 C 56.90 13.23 50.22 7.68 41.00 7.00
C 41.00 7.00 41.00 7.50 41.00 8.00 Z"/>
</g>
<g fill="#B2ABD6" fill-opacity="1.00" stroke="None">
<path d="
M 30.00 9.00 
C 33.64 8.86 37.37 9.33 41.00 9.00
C 41.00 9.00 41.00 8.50 41.00 8.00
C 37.60 8.31 33.39 8.42 30.00 8.00
C 30.00 8.00 29.98 9.00 30.00 9.00 Z"/>
</g>
<g fill="#F7F4F2" fill-opacity="1.00" stroke="None">
<path d="
M 15.00 14.00 
C 14.14 14.71 12.78 16.23 12.00 17.00
C 11.03 18.18 9.80 19.47 9.00 21.00
C 11.83 16.89 16.66 19.10 17.00 15.00
C 24.01 16.75 30.79 20.75 38.07 19.07 C 45.35 17.39 55.11 15.44 60.00 21.00
C 60.00 21.00 60.20 20.40 60.00 20.00
C 57.66 18.36 56.07 15.62 54.00 14.00
C 50.40 11.61 45.36 9.01 41.00 9.00
C 37.37 9.33 33.64 8.86 30.00 9.00
C 24.13 9.22 19.83 10.78 15.00 14.00 Z"/>
</g>
<g fill="#A299B6" fill-opacity="1.00" stroke="None">
<path d="
M 12.00 17.00 
C 12.78 16.23 14.14 14.71 15.00 14.00
C 13.65 14.90 13.03 15.74 12.00 17.00 Z"/>
</g>
<g fill="#9E95AE" fill-opacity="1.00" stroke="None">
<path d="
M 60.00 20.00 
C 58.87 17.69 56.15 15.43 54.00 14.00
C 56.07 15.62 57.66 18.36 60.00 20.00 Z"/>
</g>
<g fill="#E3D9C8" fill-opacity="1.00" stroke="None">
<path d="
M 9.00 21.00 
C 8.28 22.39 7.23 24.50 7.00 26.00
C 6.86 26.94 7.00 28.05 7.00 29.00
C 9.45 29.65 11.20 28.25 13.00 27.00
C 13.65 26.55 14.30 26.32 15.00 26.00
C 17.10 25.03 30.93 25.10 30.97 33.03 C 31.01 40.96 17.60 37.52 13.00 39.00
C 12.76 39.08 10.48 41.51 9.00 42.00
C 9.01 42.50 9.00 43.00 9.00 43.00
C 7.33 44.64 6.86 45.98 8.00 48.00
C 11.12 49.90 13.70 52.49 17.00 54.00
C 16.79 57.01 15.44 59.77 16.00 63.00
C 16.02 63.67 16.28 65.40 16.00 66.00
C 18.13 66.10 20.99 68.77 22.00 65.00
C 23.33 62.38 22.26 59.06 24.00 57.00
C 25.72 59.27 24.73 62.34 25.00 65.00
C 25.00 64.99 26.00 65.00 26.00 65.00
C 28.63 62.45 26.67 56.73 25.00 54.00
C 22.72 54.55 21.41 56.99 19.00 57.00
C 18.08 53.72 22.03 52.52 23.00 50.00
C 25.63 50.15 25.08 54.57 29.00 53.00
C 28.39 48.80 33.70 51.15 35.00 49.00
C 33.39 49.00 31.60 49.22 30.00 49.00
C 29.02 48.87 27.99 49.11 27.00 49.00
C 28.70 45.56 31.81 43.08 34.00 40.00
C 37.21 42.17 40.06 45.37 41.00 49.00
C 39.46 49.37 38.60 47.57 37.00 48.00
C 37.25 48.21 37.00 49.00 37.00 49.00
C 45.60 50.42 41.12 59.83 40.00 65.00
C 36.60 62.32 40.04 56.09 34.97 55.03 C 29.89 53.98 29.24 64.10 33.00 65.00
C 32.07 63.63 33.87 62.65 34.00 62.00
C 34.00 61.25 33.72 59.68 34.00 59.00
C 35.14 56.22 36.11 65.78 36.00 67.00
C 37.77 67.00 41.41 67.72 43.00 67.00
C 41.34 65.18 44.25 59.20 43.00 57.00
C 49.17 55.46 47.14 62.77 49.00 66.00
C 50.00 65.95 51.00 66.04 52.00 66.00
C 52.44 62.11 48.29 54.76 53.00 53.00
C 54.75 51.09 59.98 50.35 61.00 48.00
C 61.24 47.44 61.08 45.62 61.00 45.00
C 60.81 43.49 59.00 42.24 59.00 41.00
C 58.23 40.54 56.49 40.10 55.00 41.00 C 53.51 41.90 53.17 38.84 54.00 39.00
C 49.96 40.79 40.73 41.57 38.25 35.75 C 35.76 29.93 45.59 26.46 50.00 26.00
C 51.78 25.51 51.16 25.08 53.00 26.00
C 54.46 26.32 55.26 28.00 56.00 29.00
C 56.18 29.24 57.00 29.00 57.00 29.00
C 58.27 28.73 59.71 29.21 61.00 29.00
C 61.00 31.67 61.00 34.33 61.00 37.00
C 62.82 31.95 62.12 26.14 60.00 21.00
C 55.11 15.44 45.35 17.39 38.07 19.07 C 30.79 20.75 24.01 16.75 17.00 15.00
C 16.66 19.10 11.83 16.89 9.00 21.00 Z"/>
</g>
<g fill="#FAFAFA" fill-opacity="0.33" stroke="None">
<path d="
M 5.00 27.00 
C 5.00 26.50 4.85 25.45 5.00 25.00
C 3.72 20.74 4.97 26.52 5.00 27.00 Z"/>
</g>
<g fill="#030101" fill-opacity="1.00" stroke="None">
<path d="
M 15.00 26.00 
C 15.71 26.83 11.10 29.70 11.00 30.00
C 9.93 33.67 13.61 36.31 13.00 39.00
C 17.60 37.52 31.01 40.96 30.97 33.03 C 30.93 25.10 17.10 25.03 15.00 26.00 Z"/>
</g>
<g fill="#766A5D" fill-opacity="1.00" stroke="None">
<path d="
M 50.00 26.00 
C 50.82 25.91 52.20 25.83 53.00 26.00
C 51.16 25.08 51.78 25.51 50.00 26.00 Z"/>
</g>
<g fill="#A393A0" fill-opacity="1.00" stroke="None">
<path d="
M 6.00 33.00 
C 6.41 34.30 6.48 34.95 7.00 36.00
C 6.63 33.81 7.00 31.23 7.00 29.00
C 7.00 28.05 6.86 26.94 7.00 26.00
C 6.34 28.12 5.94 30.23 6.00 33.00 Z"/>
</g>
<g fill="#686348" fill-opacity="1.00" stroke="None">
<path d="
M 13.00 27.00 
C 12.36 27.54 11.23 29.20 11.00 30.00
C 11.10 29.70 15.71 26.83 15.00 26.00
C 14.30 26.32 13.65 26.55 13.00 27.00 Z"/>
</g>
<g fill="#010100" fill-opacity="1.00" stroke="None">
<path d="
M 54.00 39.00 
C 56.07 38.08 56.35 36.85 57.00 35.00
C 57.37 32.84 56.94 30.84 56.00 29.00
C 55.26 28.00 54.46 26.32 53.00 26.00
C 52.20 25.83 50.82 25.91 50.00 26.00
C 45.59 26.46 35.76 29.93 38.25 35.75 C 40.73 41.57 49.96 40.79 54.00 39.00 Z"/>
</g>
<g fill="#CCBB97" fill-opacity="1.00" stroke="None">
<path d="
M 7.00 29.00 
C 7.00 31.23 6.63 33.81 7.00 36.00
C 8.04 38.11 8.95 39.54 9.00 42.00
C 10.48 41.51 12.76 39.08 13.00 39.00
C 13.61 36.31 9.93 33.67 11.00 30.00
C 11.23 29.20 12.36 27.54 13.00 27.00
C 11.20 28.25 9.45 29.65 7.00 29.00 Z"/>
</g>
<g fill="#5E4F2E" fill-opacity="1.00" stroke="None">
<path d="
M 57.00 35.00 
C 57.64 33.19 58.77 31.11 57.00 29.00
C 57.00 29.00 56.18 29.24 56.00 29.00
C 56.94 30.84 57.37 32.84 57.00 35.00 Z"/>
</g>
<g fill="#D1BE98" fill-opacity="1.00" stroke="None">
<path d="
M 57.00 35.00 
C 56.35 36.85 56.07 38.08 54.00 39.00
C 53.17 38.84 53.51 41.90 55.00 41.00 C 56.49 40.10 58.23 40.54 59.00 41.00
C 59.00 40.17 60.68 37.88 61.00 37.00
C 61.00 34.33 61.00 31.67 61.00 29.00
C 59.71 29.21 58.27 28.73 57.00 29.00
C 58.77 31.11 57.64 33.19 57.00 35.00 Z"/>
</g>
<g fill="#75706F" fill-opacity="1.00" stroke="None">
<path d="
M 6.00 45.00 
C 6.81 44.31 8.34 43.72 9.00 43.00
C 9.00 43.00 9.01 42.50 9.00 42.00
C 8.95 39.54 8.04 38.11 7.00 36.00
C 6.48 34.95 6.41 34.30 6.00 33.00
C 6.00 33.00 5.02 33.10 5.00 33.00
C 4.77 35.66 5.46 38.77 8.00 40.00
C 7.79 41.77 6.99 43.51 6.00 45.00 Z"/>
</g>
<g fill="#140E08" fill-opacity="1.00" stroke="None">
<path d="
M 30.00 49.00 
C 32.25 48.92 33.84 45.34 37.00 48.00
C 38.60 47.57 39.46 49.37 41.00 49.00
C 40.06 45.37 37.21 42.17 34.00 40.00
C 31.81 43.08 28.70 45.56 27.00 49.00
C 27.99 49.11 29.02 48.87 30.00 49.00 Z"/>
</g>
<g fill="#A69FAF" fill-opacity="1.00" stroke="None">
<path d="
M 6.00 45.00 
C 4.59 46.20 4.49 45.63 5.00 47.00
C 4.19 45.87 7.87 47.92 8.00 48.00
C 6.86 45.98 7.33 44.64 9.00 43.00
C 8.34 43.72 6.81 44.31 6.00 45.00 Z"/>
</g>
<g fill="#C5BCCD" fill-opacity="1.00" stroke="None">
<path d="
M 61.00 48.00 
C 63.19 45.65 62.12 47.33 61.00 45.00
C 61.08 45.62 61.24 47.44 61.00 48.00 Z"/>
</g>
<g fill="#746D76" fill-opacity="1.00" stroke="None">
<path d="
M 5.00 47.00 
C 7.19 52.82 14.02 51.91 15.00 59.00
C 15.19 60.39 15.85 62.15 16.00 63.00
C 15.44 59.77 16.79 57.01 17.00 54.00
C 13.70 52.49 11.12 49.90 8.00 48.00
C 7.87 47.92 4.19 45.87 5.00 47.00 Z"/>
</g>
<g fill="#A69E8D" fill-opacity="1.00" stroke="None">
<path d="
M 30.00 49.00 
C 31.60 49.22 33.39 49.00 35.00 49.00
C 35.50 49.00 36.84 49.23 37.00 49.00
C 37.00 49.00 37.25 48.21 37.00 48.00
C 33.84 45.34 32.25 48.92 30.00 49.00 Z"/>
</g>
<g fill="#FBF8F1" fill-opacity="1.00" stroke="None">
<path d="
M 26.00 65.00 
C 26.42 65.21 26.72 66.86 27.00 67.00
C 29.55 67.69 32.38 67.30 33.00 65.00
C 29.24 64.10 29.89 53.98 34.97 55.03 C 40.04 56.09 36.60 62.32 40.00 65.00
C 41.12 59.83 45.60 50.42 37.00 49.00
C 36.84 49.23 35.50 49.00 35.00 49.00
C 33.70 51.15 28.39 48.80 29.00 53.00
C 25.08 54.57 25.63 50.15 23.00 50.00
C 22.03 52.52 18.08 53.72 19.00 57.00
C 21.41 56.99 22.72 54.55 25.00 54.00
C 26.67 56.73 28.63 62.45 26.00 65.00 Z"/>
</g>
<g fill="#CEC5CD" fill-opacity="1.00" stroke="None">
<path d="
M 49.00 66.00 
C 49.22 66.38 49.00 67.00 49.00 67.00
C 50.33 67.00 51.67 67.00 53.00 67.00
C 53.87 62.21 50.16 57.45 53.00 53.00
C 48.29 54.76 52.44 62.11 52.00 66.00
C 51.00 66.04 50.00 65.95 49.00 66.00 Z"/>
</g>
<g fill="#F7F6F6" fill-opacity="0.51" stroke="None">
<path d="
M 0.00 60.00 
C 3.40 59.03 3.48 54.99 0.00 54.00
L 0.00 60.00 Z"/>
</g>
<g fill="#574B3C" fill-opacity="1.00" stroke="None">
<path d="
M 22.00 65.00 
C 22.00 65.00 22.50 65.00 23.00 65.00
C 23.50 65.00 24.00 65.00 24.00 65.00
C 24.00 65.00 24.95 64.85 25.00 65.00
C 24.73 62.34 25.72 59.27 24.00 57.00
C 22.26 59.06 23.33 62.38 22.00 65.00 Z"/>
</g>
<g fill="#B9AB99" fill-opacity="1.00" stroke="None">
<path d="
M 43.00 67.00 
C 44.10 66.50 43.90 66.11 44.00 65.00
C 44.20 62.78 43.10 59.40 45.00 58.00
C 46.59 59.97 45.80 62.66 46.00 65.00
C 46.35 65.76 47.92 67.33 49.00 67.00
C 49.00 67.00 49.22 66.38 49.00 66.00
C 47.14 62.77 49.17 55.46 43.00 57.00
C 44.25 59.20 41.34 65.18 43.00 67.00 Z"/>
</g>
<g fill="#988875" fill-opacity="1.00" stroke="None">
<path d="
M 34.00 59.00 
C 35.51 60.11 35.11 63.16 35.00 65.00
C 34.97 65.50 34.77 66.84 35.00 67.00
C 35.00 67.00 35.50 67.00 36.00 67.00
C 36.11 65.78 35.14 56.22 34.00 59.00 Z"/>
</g>
<g fill="#564731" fill-opacity="1.00" stroke="None">
<path d="
M 44.00 65.00 
C 44.00 65.00 44.50 65.00 45.00 65.00
C 45.50 65.00 46.00 65.00 46.00 65.00
C 45.80 62.66 46.59 59.97 45.00 58.00
C 43.10 59.40 44.20 62.78 44.00 65.00 Z"/>
</g>
<g fill="#B5B4B7" fill-opacity="1.00" stroke="None">
<path d="
M 14.00 67.00 
C 13.97 67.13 15.94 66.00 16.00 66.00
C 16.28 65.40 16.02 63.67 16.00 63.00
C 15.85 62.15 15.19 60.39 15.00 59.00
C 15.02 60.03 12.48 65.38 14.00 67.00 Z"/>
</g>
<g fill="#322512" fill-opacity="1.00" stroke="None">
<path d="
M 34.00 62.00 
C 34.00 62.39 33.74 64.76 34.00 65.00
C 34.27 65.25 35.00 65.00 35.00 65.00
C 35.11 63.16 35.51 60.11 34.00 59.00
C 33.72 59.68 34.00 61.25 34.00 62.00 Z"/>
</g>
<g fill="#625948" fill-opacity="1.00" stroke="None">
<path d="
M 33.00 65.00 
C 33.00 65.00 33.73 65.25 34.00 65.00
C 33.74 64.76 34.00 62.39 34.00 62.00
C 33.87 62.65 32.07 63.63 33.00 65.00 Z"/>
</g>
<g fill="#191018" fill-opacity="1.00" stroke="None">
<path d="
M 24.00 65.00 
C 24.00 65.00 23.50 65.00 23.00 65.00
C 23.22 65.95 22.61 67.74 24.00 68.00
C 24.12 67.02 23.85 65.98 24.00 65.00 Z"/>
</g>
<g fill="#BAB0BA" fill-opacity="1.00" stroke="None">
<path d="
M 27.00 67.00 
C 26.72 66.86 26.42 65.21 26.00 65.00
C 26.00 65.00 25.00 64.99 25.00 65.00
C 25.62 66.87 25.11 66.49 27.00 67.00 Z"/>
</g>
<g fill="#241D28" fill-opacity="1.00" stroke="None">
<path d="
M 35.00 67.00 
C 34.77 66.84 34.97 65.50 35.00 65.00
C 35.00 65.00 34.27 65.25 34.00 65.00
C 33.48 66.90 32.91 68.65 35.00 67.00 Z"/>
</g>
<g fill="#2A1B2C" fill-opacity="1.00" stroke="None">
<path d="
M 46.00 65.00 
C 46.00 65.00 45.50 65.00 45.00 65.00
C 45.24 66.39 43.22 68.53 46.00 68.00
C 46.13 67.02 45.84 65.97 46.00 65.00 Z"/>
</g>
</svg>