<svg xmlns="http://www.w3.org/2000/svg" xmlns:v="https://svgstorm.com"
viewBox = "0 0 62 63"
width="62"
height="63">
<g fill="None" fill-opacity="0.0" stroke="#F6F7F8" stroke-opacity="0.53" stroke-width="0.3"><path d="
M 0.00 1.00 
C 3.21 0.94 5.69 2.22 9.00 2.00
C 9.50 1.97 10.00 2.00 10.00 2.00
C 14.89 -1.62 23.80 2.29 30.00 1.00 C 36.20 -0.29 45.45 1.87 51.00 2.00
C 52.96 1.92 54.28 1.21 56.00 1.00
C 56.25 0.70 56.00 0.00 56.00 0.00
L 0.00 0.00
L 0.00 1.00 Z"/>
</g>
<g fill="None" fill-opacity="0.0" stroke="#DCDFE3" stroke-opacity="0.81" stroke-width="0.3"><path d="
M 56.00 1.00 
C 56.96 0.88 59.19 1.49 60.00 1.00
C 60.00 0.50 60.00 0.00 60.00 0.00
L 56.00 0.00
C 56.00 0.00 56.25 0.70 56.00 1.00 Z"/>
</g>
<g fill="None" fill-opacity="0.0" stroke="#FAFAFA" stroke-opacity="0.34" stroke-width="0.3"><path d="
M 60.00 1.00 
C 60.00 2.00 60.00 3.00 60.00 4.00
C 60.00 4.50 59.88 5.53 60.00 6.00
C 60.09 6.35 60.98 7.03 61.00 7.00
C 60.95 6.51 61.00 6.00 61.00 6.00
C 61.00 4.00 61.00 2.00 61.00 0.00
L 60.00 0.00
C 60.00 0.00 60.00 0.50 60.00 1.00 Z"/>
</g>
<g fill="None" fill-opacity="0.0" stroke="#FFFFFF" stroke-opacity="0.50" stroke-width="0.3"><path d="
M 61.00 6.00 
C 61.25 5.75 62.00 6.00 62.00 6.00
L 62.00 0.00
L 61.00 0.00
C 61.00 2.00 61.00 4.00 61.00 6.00 Z"/>
</g>
<g fill="None" fill-opacity="0.0" stroke="#17B8F0" stroke-opacity="1.00" stroke-width="0.3"><path d="
M 0.00 2.00 
C 1.55 2.54 0.79 4.74 1.00 6.00
C 1.01 6.06 2.00 6.00 2.00 6.00
C 4.23 4.32 7.33 9.19 10.00 10.00
C 16.80 12.06 24.97 9.90 32.00 11.00 C 39.03 12.10 48.27 7.36 52.00 13.00
C 52.29 9.80 55.51 5.84 59.00 5.00
C 59.03 4.65 59.65 4.04 60.00 4.00
C 60.00 3.00 60.00 2.00 60.00 1.00
C 59.19 1.49 56.96 0.88 56.00 1.00
C 54.28 1.21 52.96 1.92 51.00 2.00
C 49.67 2.06 48.33 2.00 47.00 2.00
C 45.81 2.16 43.80 2.93 42.00 3.00
C 41.76 3.07 41.30 3.78 41.00 4.00
C 38.96 5.51 31.90 5.97 30.00 4.00
C 29.75 3.74 30.00 3.00 30.00 3.00
C 29.00 3.00 28.00 3.00 27.00 3.00
C 20.90 3.00 14.36 2.87 9.00 2.00
C 5.69 2.22 3.21 0.94 0.00 1.00
L 0.00 2.00 Z"/>
</g>
<g fill="None" fill-opacity="0.0" stroke="#FEFEFE" stroke-opacity="0.35" stroke-width="0.3"><path d="
M 10.00 2.00 
C 15.67 2.00 21.33 2.00 27.00 2.00
C 33.67 2.00 40.33 2.00 47.00 2.00
C 48.33 2.00 49.67 2.06 51.00 2.00
C 45.45 1.87 36.20 -0.29 30.00 1.00 C 23.80 2.29 14.89 -1.62 10.00 2.00 Z"/>
</g>
<g fill="None" fill-opacity="0.0" stroke="#F8F8FA" stroke-opacity="0.49" stroke-width="0.3"><path d="
M 0.00 24.00 
C 1.62 28.59 1.70 36.48 0.00 41.00
L 0.00 63.00
L 5.00 63.00
C 21.44 60.03 40.54 60.87 57.00 63.00
L 60.00 63.00
C 60.41 62.17 60.97 61.13 62.00 61.00
L 62.00 55.00
C 56.57 40.37 62.65 22.26 61.00 7.00
C 60.98 7.03 60.09 6.35 60.00 6.00
C 59.59 5.81 59.00 6.00 59.00 6.00
C 58.93 9.14 58.17 11.78 58.00 15.00
C 58.41 24.56 59.00 35.72 59.00 46.00
C 59.00 47.67 59.00 49.33 59.00 51.00
C 59.00 52.33 59.00 53.67 59.00 55.00
C 59.11 55.54 60.80 56.82 60.00 58.00
C 60.22 58.95 59.82 60.04 60.00 61.00
C 58.33 59.58 56.04 60.11 54.00 60.00
C 37.89 57.86 21.12 60.00 5.00 60.00
C 4.96 60.01 2.49 62.03 2.00 61.00
C 0.60 60.57 1.71 45.33 2.00 43.00
C 2.14 41.87 2.83 41.64 3.00 41.00
C 3.67 38.40 3.00 34.70 3.00 32.00
C 3.00 30.00 3.00 28.00 3.00 26.00
C 3.00 25.50 3.00 24.50 3.00 24.00
C 1.87 21.34 2.00 18.27 2.00 15.00
C 2.00 12.67 2.00 10.33 2.00 8.00
C 1.86 7.50 1.16 6.93 1.00 6.00
C 0.79 4.74 1.55 2.54 0.00 2.00
L 0.00 24.00 Z"/>
</g>
<g fill="None" fill-opacity="0.0" stroke="#629EB1" stroke-opacity="1.00" stroke-width="0.3"><path d="
M 27.00 3.00 
C 26.75 2.73 27.00 2.00 27.00 2.00
C 21.33 2.00 15.67 2.00 10.00 2.00
C 10.00 2.00 9.50 1.97 9.00 2.00
C 14.36 2.87 20.90 3.00 27.00 3.00 Z"/>
</g>
<g fill="None" fill-opacity="0.0" stroke="#A0B8C0" stroke-opacity="1.00" stroke-width="0.3"><path d="
M 27.00 3.00 
C 28.00 3.00 29.00 3.00 30.00 3.00
C 33.99 3.00 38.01 3.16 42.00 3.00
C 43.80 2.93 45.81 2.16 47.00 2.00
C 40.33 2.00 33.67 2.00 27.00 2.00
C 27.00 2.00 26.75 2.73 27.00 3.00 Z"/>
</g>
<g fill="None" fill-opacity="0.0" stroke="#2FE7FA" stroke-opacity="1.00" stroke-width="0.3"><path d="
M 30.00 4.00 
C 33.35 4.30 37.67 4.48 41.00 4.00
C 41.30 3.78 41.76 3.07 42.00 3.00
C 38.01 3.16 33.99 3.00 30.00 3.00
C 30.00 3.00 29.75 3.74 30.00 4.00 Z"/>
</g>
<g fill="None" fill-opacity="0.0" stroke="#00B3C6" stroke-opacity="1.00" stroke-width="0.3"><path d="
M 41.00 4.00 
C 37.67 4.48 33.35 4.30 30.00 4.00
C 31.90 5.97 38.96 5.51 41.00 4.00 Z"/>
</g>
<g fill="None" fill-opacity="0.0" stroke="#BAC1CA" stroke-opacity="1.00" stroke-width="0.3"><path d="
M 59.00 5.00 
C 58.95 5.50 59.00 6.00 59.00 6.00
C 59.00 6.00 59.59 5.81 60.00 6.00
C 59.88 5.53 60.00 4.50 60.00 4.00
C 59.65 4.04 59.03 4.65 59.00 5.00 Z"/>
</g>
<g fill="None" fill-opacity="0.0" stroke="#1597F0" stroke-opacity="1.00" stroke-width="0.3"><path d="
M 2.00 6.00 
C 2.23 6.16 2.00 7.50 2.00 8.00
C 2.00 10.33 2.00 12.67 2.00 15.00
C 2.23 17.42 3.00 20.91 3.00 24.00
C 3.00 24.50 3.00 25.50 3.00 26.00
C 4.22 28.57 3.17 29.78 3.00 32.00
C 3.00 34.70 3.67 38.40 3.00 41.00
C 4.25 37.71 5.63 38.41 9.00 39.00
C 11.41 36.56 8.45 32.01 11.00 30.00
C 11.00 23.21 11.27 16.47 10.00 10.00
C 7.33 9.19 4.23 4.32 2.00 6.00 Z"/>
</g>
<g fill="None" fill-opacity="0.0" stroke="#057DF2" stroke-opacity="1.00" stroke-width="0.3"><path d="
M 10.00 10.00 
C 11.27 16.47 11.00 23.21 11.00 30.00
C 11.00 33.97 11.27 38.04 11.00 42.00
C 11.84 37.33 12.45 31.37 12.00 26.00
C 15.19 30.26 10.82 45.44 19.00 43.00
C 11.51 43.21 19.40 35.79 20.00 43.00
C 19.98 43.24 20.78 45.03 20.00 46.00
C 22.86 46.35 25.39 45.73 28.00 45.00
C 27.78 41.56 23.41 39.73 24.00 36.00
C 27.62 34.53 31.52 32.94 35.00 36.00
C 35.00 35.00 35.00 34.00 35.00 33.00
C 32.21 35.33 29.59 29.96 27.00 34.00
C 25.21 32.71 26.46 29.01 24.00 28.00
C 22.16 32.03 23.43 36.85 22.00 41.00
C 19.91 39.96 18.77 37.22 16.00 38.00
C 13.63 29.90 8.03 10.12 20.02 12.98 C 32.02 15.84 50.92 5.91 48.00 22.00
C 48.08 26.36 49.58 33.70 50.00 38.00
C 50.00 30.33 50.00 22.67 50.00 15.00
C 52.70 20.41 49.09 28.96 53.00 34.00
C 55.93 31.67 55.48 23.81 57.00 23.00
C 57.35 23.23 58.00 23.00 58.00 23.00
C 58.00 20.35 57.86 17.65 58.00 15.00
C 58.17 11.78 58.93 9.14 59.00 6.00
C 59.00 6.00 58.95 5.50 59.00 5.00
C 55.51 5.84 52.29 9.80 52.00 13.00
C 48.27 7.36 39.03 12.10 32.00 11.00 C 24.97 9.90 16.80 12.06 10.00 10.00 Z"/>
</g>
<g fill="None" fill-opacity="0.0" stroke="#BAC0C7" stroke-opacity="1.00" stroke-width="0.3"><path d="
M 2.00 8.00 
C 2.00 7.50 2.23 6.16 2.00 6.00
C 2.00 6.00 1.01 6.06 1.00 6.00
C 1.16 6.93 1.86 7.50 2.00 8.00 Z"/>
</g>
<g fill="None" fill-opacity="0.0" stroke="#000000" stroke-opacity="0.00" stroke-width="0.3"><path d="
M 61.00 7.00 
C 62.65 22.26 56.57 40.37 62.00 55.00
L 62.00 6.00
C 62.00 6.00 61.25 5.75 61.00 6.00
C 61.00 6.00 60.95 6.51 61.00 7.00 Z"/>
</g>
<g fill="None" fill-opacity="0.0" stroke="#0096FD" stroke-opacity="1.00" stroke-width="0.3"><path d="
M 35.00 33.00 
C 34.98 32.50 35.00 32.00 35.00 32.00
C 35.33 30.84 35.14 29.66 37.00 30.00
C 36.45 34.52 41.97 35.46 45.00 37.00
C 46.97 33.70 46.37 29.05 48.00 26.00
C 48.00 24.68 47.91 23.32 48.00 22.00
C 50.92 5.91 32.02 15.84 20.02 12.98 C 8.03 10.12 13.63 29.90 16.00 38.00
C 18.77 37.22 19.91 39.96 22.00 41.00
C 23.43 36.85 22.16 32.03 24.00 28.00
C 26.46 29.01 25.21 32.71 27.00 34.00
C 29.59 29.96 32.21 35.33 35.00 33.00
M 44.00 21.00 
C 44.02 22.55 42.85 23.40 43.00 25.00
C 40.99 25.82 41.53 23.18 40.00 23.00
C 39.77 23.95 40.18 25.04 40.00 26.00
C 38.51 26.28 36.62 25.98 37.00 24.00
C 31.25 23.47 24.85 23.48 20.00 26.00
C 18.81 23.82 22.94 19.98 19.00 20.00
C 18.47 19.61 11.18 19.58 14.00 14.00
C 20.60 13.64 28.53 14.48 35.00 14.00 C 41.47 13.52 50.49 13.29 46.00 22.00
C 45.03 22.02 44.78 18.99 44.00 21.00
M 19.00 23.00 
C 15.63 25.47 16.41 19.66 19.00 23.00
M 35.00 26.00 
C 34.19 28.04 31.73 28.97 31.00 31.00
C 28.58 30.32 27.08 28.19 25.00 27.00
C 27.43 24.87 31.82 26.53 35.00 26.00 Z"/>
</g>
<g fill="None" fill-opacity="0.0" stroke="#03B0FD" stroke-opacity="1.00" stroke-width="0.3"><path d="
M 19.00 20.00 
C 18.69 19.54 16.45 20.37 16.00 20.00
C 17.12 14.19 24.90 14.32 30.00 15.00 C 35.10 15.68 44.09 12.41 46.00 18.00
C 40.80 12.43 37.21 19.75 37.00 24.00
C 36.62 25.98 38.51 26.28 40.00 26.00
C 40.18 25.04 39.77 23.95 40.00 23.00
C 40.00 23.01 41.02 20.57 41.00 21.00
C 41.21 15.33 44.93 17.98 43.00 21.00
C 43.50 21.00 44.00 21.00 44.00 21.00
C 44.78 18.99 45.03 22.02 46.00 22.00
C 50.49 13.29 41.47 13.52 35.00 14.00 C 28.53 14.48 20.60 13.64 14.00 14.00
C 11.18 19.58 18.47 19.61 19.00 20.00 Z"/>
</g>
<g fill="None" fill-opacity="0.0" stroke="#B8C4D2" stroke-opacity="1.00" stroke-width="0.3"><path d="
M 3.00 24.00 
C 3.00 20.91 2.23 17.42 2.00 15.00
C 2.00 18.27 1.87 21.34 3.00 24.00 Z"/>
</g>
<g fill="None" fill-opacity="0.0" stroke="#03CAFE" stroke-opacity="1.00" stroke-width="0.3"><path d="
M 19.00 20.00 
C 22.94 19.98 18.81 23.82 20.00 26.00
C 24.85 23.48 31.25 23.47 37.00 24.00
C 37.21 19.75 40.80 12.43 46.00 18.00
C 44.09 12.41 35.10 15.68 30.00 15.00 C 24.90 14.32 17.12 14.19 16.00 20.00
C 16.45 20.37 18.69 19.54 19.00 20.00 Z"/>
</g>
<g fill="None" fill-opacity="0.0" stroke="#11ADF7" stroke-opacity="1.00" stroke-width="0.3"><path d="
M 50.00 38.00 
C 50.00 41.76 49.20 49.59 50.00 52.00
C 50.74 54.20 54.90 55.74 55.00 58.00
C 56.89 57.10 57.13 59.80 59.00 58.00
C 58.74 57.76 59.00 55.39 59.00 55.00
C 59.00 53.67 59.00 52.33 59.00 51.00
C 58.82 49.69 57.76 48.01 58.00 46.00
C 58.06 45.51 58.00 45.00 58.00 45.00
C 55.14 41.14 56.54 28.11 57.00 23.00
C 55.48 23.81 55.93 31.67 53.00 34.00
C 49.09 28.96 52.70 20.41 50.00 15.00
C 50.00 22.67 50.00 30.33 50.00 38.00 Z"/>
</g>
<g fill="None" fill-opacity="0.0" stroke="#FDFDFD" stroke-opacity="0.35" stroke-width="0.3"><path d="
M 58.00 23.00 
C 58.00 30.33 58.00 37.67 58.00 45.00
C 58.00 45.00 58.06 45.51 58.00 46.00
C 58.25 46.25 59.00 46.00 59.00 46.00
C 59.00 35.72 58.41 24.56 58.00 15.00
C 57.86 17.65 58.00 20.35 58.00 23.00 Z"/>
</g>
<g fill="None" fill-opacity="0.0" stroke="#0CD2FF" stroke-opacity="1.00" stroke-width="0.3"><path d="
M 41.00 21.00 
C 41.12 21.21 42.50 21.00 43.00 21.00
C 44.93 17.98 41.21 15.33 41.00 21.00 Z"/>
</g>
<g fill="None" fill-opacity="0.0" stroke="#0073EE" stroke-opacity="1.00" stroke-width="0.3"><path d="
M 40.00 23.00 
C 41.53 23.18 40.99 25.82 43.00 25.00
C 42.85 23.40 44.02 22.55 44.00 21.00
C 44.00 21.00 43.50 21.00 43.00 21.00
C 42.50 21.00 41.12 21.21 41.00 21.00
C 41.02 20.57 40.00 23.01 40.00 23.00 Z"/>
</g>
<g fill="None" fill-opacity="0.0" stroke="#0068EF" stroke-opacity="1.00" stroke-width="0.3"><path d="
M 19.00 23.00 
C 16.41 19.66 15.63 25.47 19.00 23.00 Z"/>
</g>
<g fill="None" fill-opacity="0.0" stroke="#005CF9" stroke-opacity="1.00" stroke-width="0.3"><path d="
M 48.00 26.00 
C 48.00 32.57 47.76 39.15 43.00 44.00
C 39.17 42.23 39.55 44.05 39.00 47.00
C 25.13 45.52 44.67 36.90 35.00 32.00
C 35.00 32.00 34.98 32.50 35.00 33.00
C 35.00 34.00 35.00 35.00 35.00 36.00
C 31.52 32.94 27.62 34.53 24.00 36.00
C 23.41 39.73 27.78 41.56 28.00 45.00
C 25.39 45.73 22.86 46.35 20.00 46.00
C 20.78 45.03 19.98 43.24 20.00 43.00
C 20.00 43.05 19.00 43.00 19.00 43.00
C 10.82 45.44 15.19 30.26 12.00 26.00
C 12.45 31.37 11.84 37.33 11.00 42.00
C 10.77 45.43 9.66 48.42 10.00 52.00
C 11.00 52.00 12.00 52.00 13.00 52.00
C 13.75 51.17 13.75 51.17 15.00 51.00
C 17.24 50.70 19.74 51.00 22.00 51.00
C 29.60 50.28 42.55 47.98 50.00 52.00
C 49.20 49.59 50.00 41.76 50.00 38.00
C 49.58 33.70 48.08 26.36 48.00 22.00
C 47.91 23.32 48.00 24.68 48.00 26.00 Z"/>
</g>
<g fill="None" fill-opacity="0.0" stroke="#6F99B9" stroke-opacity="1.00" stroke-width="0.3"><path d="
M 58.00 45.00 
C 58.00 37.67 58.00 30.33 58.00 23.00
C 58.00 23.00 57.35 23.23 57.00 23.00
C 56.54 28.11 55.14 41.14 58.00 45.00 Z"/>
</g>
<g fill="None" fill-opacity="0.0" stroke="#000000" stroke-opacity="0.00" stroke-width="0.3"><path d="
M 0.00 41.00 
C 1.70 36.48 1.62 28.59 0.00 24.00
L 0.00 41.00 Z"/>
</g>
<g fill="None" fill-opacity="0.0" stroke="#8DA8BD" stroke-opacity="1.00" stroke-width="0.3"><path d="
M 3.00 32.00 
C 3.17 29.78 4.22 28.57 3.00 26.00
C 3.00 28.00 3.00 30.00 3.00 32.00 Z"/>
</g>
<g fill="None" fill-opacity="0.0" stroke="#09CCFF" stroke-opacity="1.00" stroke-width="0.3"><path d="
M 35.00 26.00 
C 31.82 26.53 27.43 24.87 25.00 27.00
C 27.08 28.19 28.58 30.32 31.00 31.00
C 31.73 28.97 34.19 28.04 35.00 26.00 Z"/>
</g>
<g fill="None" fill-opacity="0.0" stroke="#007BFD" stroke-opacity="1.00" stroke-width="0.3"><path d="
M 35.00 32.00 
C 44.67 36.90 25.13 45.52 39.00 47.00
C 39.55 44.05 39.17 42.23 43.00 44.00
C 47.76 39.15 48.00 32.57 48.00 26.00
C 46.37 29.05 46.97 33.70 45.00 37.00
C 41.97 35.46 36.45 34.52 37.00 30.00
C 35.14 29.66 35.33 30.84 35.00 32.00
M 44.00 41.00 
C 40.06 44.55 39.21 37.70 44.00 41.00 Z"/>
</g>
<g fill="None" fill-opacity="0.0" stroke="#1DB3F3" stroke-opacity="1.00" stroke-width="0.3"><path d="
M 3.00 41.00 
C 2.92 41.20 1.99 43.02 2.00 43.00
C 1.71 45.33 0.60 60.57 2.00 61.00
C 1.59 60.14 3.72 59.98 4.00 60.00
C 3.72 57.80 5.78 58.10 7.00 57.00
C 8.88 55.32 12.87 52.14 13.00 52.00
C 12.00 52.00 11.00 52.00 10.00 52.00
C 9.66 48.42 10.77 45.43 11.00 42.00
C 11.27 38.04 11.00 33.97 11.00 30.00
C 8.45 32.01 11.41 36.56 9.00 39.00
C 5.63 38.41 4.25 37.71 3.00 41.00 Z"/>
</g>
<g fill="None" fill-opacity="0.0" stroke="#0CA6FF" stroke-opacity="1.00" stroke-width="0.3"><path d="
M 19.00 43.00 
C 19.00 43.00 20.00 43.05 20.00 43.00
C 19.40 35.79 11.51 43.21 19.00 43.00 Z"/>
</g>
<g fill="None" fill-opacity="0.0" stroke="#0FB6FF" stroke-opacity="1.00" stroke-width="0.3"><path d="
M 44.00 41.00 
C 39.21 37.70 40.06 44.55 44.00 41.00 Z"/>
</g>
<g fill="None" fill-opacity="0.0" stroke="#BAC3CC" stroke-opacity="1.00" stroke-width="0.3"><path d="
M 2.00 43.00 
C 1.99 43.02 2.92 41.20 3.00 41.00
C 2.83 41.64 2.14 41.87 2.00 43.00 Z"/>
</g>
<g fill="None" fill-opacity="0.0" stroke="#BEC4CA" stroke-opacity="1.00" stroke-width="0.3"><path d="
M 59.00 51.00 
C 59.00 49.33 59.00 47.67 59.00 46.00
C 59.00 46.00 58.25 46.25 58.00 46.00
C 57.76 48.01 58.82 49.69 59.00 51.00 Z"/>
</g>
<g fill="None" fill-opacity="0.0" stroke="#2483E2" stroke-opacity="1.00" stroke-width="0.3"><path d="
M 22.00 51.00 
C 27.42 51.00 33.31 51.43 38.00 52.00
C 43.21 52.10 51.37 52.14 53.00 58.00
C 37.28 57.26 21.92 57.84 7.00 57.00
C 5.78 58.10 3.72 57.80 4.00 60.00
C 4.50 60.03 5.00 60.00 5.00 60.00
C 21.12 60.00 37.89 57.86 54.00 60.00
C 54.42 59.86 54.74 58.12 55.00 58.00
C 54.90 55.74 50.74 54.20 50.00 52.00
C 42.55 47.98 29.60 50.28 22.00 51.00 Z"/>
</g>
<g fill="None" fill-opacity="0.0" stroke="#006AF9" stroke-opacity="1.00" stroke-width="0.3"><path d="
M 13.00 52.00 
C 12.87 52.14 8.88 55.32 7.00 57.00
C 21.92 57.84 37.28 57.26 53.00 58.00
C 51.37 52.14 43.21 52.10 38.00 52.00
C 29.84 51.84 21.57 53.14 15.00 51.00
C 13.75 51.17 13.75 51.17 13.00 52.00 Z"/>
</g>
<g fill="None" fill-opacity="0.0" stroke="#19A1FF" stroke-opacity="1.00" stroke-width="0.3"><path d="
M 38.00 52.00 
C 33.31 51.43 27.42 51.00 22.00 51.00
C 19.74 51.00 17.24 50.70 15.00 51.00
C 21.57 53.14 29.84 51.84 38.00 52.00 Z"/>
</g>
<g fill="None" fill-opacity="0.0" stroke="#B5BCC7" stroke-opacity="1.00" stroke-width="0.3"><path d="
M 59.00 58.00 
C 59.26 57.75 60.00 58.00 60.00 58.00
C 60.80 56.82 59.11 55.54 59.00 55.00
C 59.00 55.39 58.74 57.76 59.00 58.00 Z"/>
</g>
<g fill="None" fill-opacity="0.0" stroke="#498FAB" stroke-opacity="1.00" stroke-width="0.3"><path d="
M 54.00 60.00 
C 56.04 60.11 58.33 59.58 60.00 61.00
C 59.82 60.04 60.22 58.95 60.00 58.00
C 60.00 58.00 59.26 57.75 59.00 58.00
C 57.13 59.80 56.89 57.10 55.00 58.00
C 54.74 58.12 54.42 59.86 54.00 60.00 Z"/>
</g>
<g fill="None" fill-opacity="0.0" stroke="#BABFC5" stroke-opacity="1.00" stroke-width="0.3"><path d="
M 2.00 61.00 
C 2.49 62.03 4.96 60.01 5.00 60.00
C 5.00 60.00 4.50 60.03 4.00 60.00
C 3.72 59.98 1.59 60.14 2.00 61.00 Z"/>
</g>
<g fill="None" fill-opacity="0.0" stroke="#000000" stroke-opacity="0.00" stroke-width="0.3"><path d="
M 5.00 63.00 
L 57.00 63.00
C 40.54 60.87 21.44 60.03 5.00 63.00 Z"/>
</g>
<g fill="None" fill-opacity="0.0" stroke="#000000" stroke-opacity="0.00" stroke-width="0.3"><path d="
M 60.00 63.00 
L 62.00 63.00
L 62.00 61.00
C 60.97 61.13 60.41 62.17 60.00 63.00 Z"/>
</g>
<g fill="#F6F7F8" fill-opacity="0.53" stroke="None">
<path d="
M 0.00 1.00 
C 3.21 0.94 5.69 2.22 9.00 2.00
C 9.50 1.97 10.00 2.00 10.00 2.00
C 14.89 -1.62 23.80 2.29 30.00 1.00 C 36.20 -0.29 45.45 1.87 51.00 2.00
C 52.96 1.92 54.28 1.21 56.00 1.00
C 56.25 0.70 56.00 0.00 56.00 0.00
L 0.00 0.00
L 0.00 1.00 Z"/>
</g>
<g fill="#DCDFE3" fill-opacity="0.81" stroke="None">
<path d="
M 56.00 1.00 
C 56.96 0.88 59.19 1.49 60.00 1.00
C 60.00 0.50 60.00 0.00 60.00 0.00
L 56.00 0.00
C 56.00 0.00 56.25 0.70 56.00 1.00 Z"/>
</g>
<g fill="#FAFAFA" fill-opacity="0.34" stroke="None">
<path d="
M 60.00 1.00 
C 60.00 2.00 60.00 3.00 60.00 4.00
C 60.00 4.50 59.88 5.53 60.00 6.00
C 60.09 6.35 60.98 7.03 61.00 7.00
C 60.95 6.51 61.00 6.00 61.00 6.00
C 61.00 4.00 61.00 2.00 61.00 0.00
L 60.00 0.00
C 60.00 0.00 60.00 0.50 60.00 1.00 Z"/>
</g>
<g fill="#FFFFFF" fill-opacity="0.50" stroke="None">
<path d="
M 61.00 6.00 
C 61.25 5.75 62.00 6.00 62.00 6.00
L 62.00 0.00
L 61.00 0.00
C 61.00 2.00 61.00 4.00 61.00 6.00 Z"/>
</g>
<g fill="#17B8F0" fill-opacity="1.00" stroke="None">
<path d="
M 0.00 2.00 
C 1.55 2.54 0.79 4.74 1.00 6.00
C 1.01 6.06 2.00 6.00 2.00 6.00
C 4.23 4.32 7.33 9.19 10.00 10.00
C 16.80 12.06 24.97 9.90 32.00 11.00 C 39.03 12.10 48.27 7.36 52.00 13.00
C 52.29 9.80 55.51 5.84 59.00 5.00
C 59.03 4.65 59.65 4.04 60.00 4.00
C 60.00 3.00 60.00 2.00 60.00 1.00
C 59.19 1.49 56.96 0.88 56.00 1.00
C 54.28 1.21 52.96 1.92 51.00 2.00
C 49.67 2.06 48.33 2.00 47.00 2.00
C 45.81 2.16 43.80 2.93 42.00 3.00
C 41.76 3.07 41.30 3.78 41.00 4.00
C 38.96 5.51 31.90 5.97 30.00 4.00
C 29.75 3.74 30.00 3.00 30.00 3.00
C 29.00 3.00 28.00 3.00 27.00 3.00
C 20.90 3.00 14.36 2.87 9.00 2.00
C 5.69 2.22 3.21 0.94 0.00 1.00
L 0.00 2.00 Z"/>
</g>
<g fill="#FEFEFE" fill-opacity="0.35" stroke="None">
<path d="
M 10.00 2.00 
C 15.67 2.00 21.33 2.00 27.00 2.00
C 33.67 2.00 40.33 2.00 47.00 2.00
C 48.33 2.00 49.67 2.06 51.00 2.00
C 45.45 1.87 36.20 -0.29 30.00 1.00 C 23.80 2.29 14.89 -1.62 10.00 2.00 Z"/>
</g>
<g fill="#F8F8FA" fill-opacity="0.49" stroke="None">
<path d="
M 0.00 24.00 
C 1.62 28.59 1.70 36.48 0.00 41.00
L 0.00 63.00
L 5.00 63.00
C 21.44 60.03 40.54 60.87 57.00 63.00
L 60.00 63.00
C 60.41 62.17 60.97 61.13 62.00 61.00
L 62.00 55.00
C 56.57 40.37 62.65 22.26 61.00 7.00
C 60.98 7.03 60.09 6.35 60.00 6.00
C 59.59 5.81 59.00 6.00 59.00 6.00
C 58.93 9.14 58.17 11.78 58.00 15.00
C 58.41 24.56 59.00 35.72 59.00 46.00
C 59.00 47.67 59.00 49.33 59.00 51.00
C 59.00 52.33 59.00 53.67 59.00 55.00
C 59.11 55.54 60.80 56.82 60.00 58.00
C 60.22 58.95 59.82 60.04 60.00 61.00
C 58.33 59.58 56.04 60.11 54.00 60.00
C 37.89 57.86 21.12 60.00 5.00 60.00
C 4.96 60.01 2.49 62.03 2.00 61.00
C 0.60 60.57 1.71 45.33 2.00 43.00
C 2.14 41.87 2.83 41.64 3.00 41.00
C 3.67 38.40 3.00 34.70 3.00 32.00
C 3.00 30.00 3.00 28.00 3.00 26.00
C 3.00 25.50 3.00 24.50 3.00 24.00
C 1.87 21.34 2.00 18.27 2.00 15.00
C 2.00 12.67 2.00 10.33 2.00 8.00
C 1.86 7.50 1.16 6.93 1.00 6.00
C 0.79 4.74 1.55 2.54 0.00 2.00
L 0.00 24.00 Z"/>
</g>
<g fill="#629EB1" fill-opacity="1.00" stroke="None">
<path d="
M 27.00 3.00 
C 26.75 2.73 27.00 2.00 27.00 2.00
C 21.33 2.00 15.67 2.00 10.00 2.00
C 10.00 2.00 9.50 1.97 9.00 2.00
C 14.36 2.87 20.90 3.00 27.00 3.00 Z"/>
</g>
<g fill="#A0B8C0" fill-opacity="1.00" stroke="None">
<path d="
M 27.00 3.00 
C 28.00 3.00 29.00 3.00 30.00 3.00
C 33.99 3.00 38.01 3.16 42.00 3.00
C 43.80 2.93 45.81 2.16 47.00 2.00
C 40.33 2.00 33.67 2.00 27.00 2.00
C 27.00 2.00 26.75 2.73 27.00 3.00 Z"/>
</g>
<g fill="#2FE7FA" fill-opacity="1.00" stroke="None">
<path d="
M 30.00 4.00 
C 33.35 4.30 37.67 4.48 41.00 4.00
C 41.30 3.78 41.76 3.07 42.00 3.00
C 38.01 3.16 33.99 3.00 30.00 3.00
C 30.00 3.00 29.75 3.74 30.00 4.00 Z"/>
</g>
<g fill="#00B3C6" fill-opacity="1.00" stroke="None">
<path d="
M 41.00 4.00 
C 37.67 4.48 33.35 4.30 30.00 4.00
C 31.90 5.97 38.96 5.51 41.00 4.00 Z"/>
</g>
<g fill="#BAC1CA" fill-opacity="1.00" stroke="None">
<path d="
M 59.00 5.00 
C 58.95 5.50 59.00 6.00 59.00 6.00
C 59.00 6.00 59.59 5.81 60.00 6.00
C 59.88 5.53 60.00 4.50 60.00 4.00
C 59.65 4.04 59.03 4.65 59.00 5.00 Z"/>
</g>
<g fill="#1597F0" fill-opacity="1.00" stroke="None">
<path d="
M 2.00 6.00 
C 2.23 6.16 2.00 7.50 2.00 8.00
C 2.00 10.33 2.00 12.67 2.00 15.00
C 2.23 17.42 3.00 20.91 3.00 24.00
C 3.00 24.50 3.00 25.50 3.00 26.00
C 4.22 28.57 3.17 29.78 3.00 32.00
C 3.00 34.70 3.67 38.40 3.00 41.00
C 4.25 37.71 5.63 38.41 9.00 39.00
C 11.41 36.56 8.45 32.01 11.00 30.00
C 11.00 23.21 11.27 16.47 10.00 10.00
C 7.33 9.19 4.23 4.32 2.00 6.00 Z"/>
</g>
<g fill="#057DF2" fill-opacity="1.00" stroke="None">
<path d="
M 10.00 10.00 
C 11.27 16.47 11.00 23.21 11.00 30.00
C 11.00 33.97 11.27 38.04 11.00 42.00
C 11.84 37.33 12.45 31.37 12.00 26.00
C 15.19 30.26 10.82 45.44 19.00 43.00
C 11.51 43.21 19.40 35.79 20.00 43.00
C 19.98 43.24 20.78 45.03 20.00 46.00
C 22.86 46.35 25.39 45.73 28.00 45.00
C 27.78 41.56 23.41 39.73 24.00 36.00
C 27.62 34.53 31.52 32.94 35.00 36.00
C 35.00 35.00 35.00 34.00 35.00 33.00
C 32.21 35.33 29.59 29.96 27.00 34.00
C 25.21 32.71 26.46 29.01 24.00 28.00
C 22.16 32.03 23.43 36.85 22.00 41.00
C 19.91 39.96 18.77 37.22 16.00 38.00
C 13.63 29.90 8.03 10.12 20.02 12.98 C 32.02 15.84 50.92 5.91 48.00 22.00
C 48.08 26.36 49.58 33.70 50.00 38.00
C 50.00 30.33 50.00 22.67 50.00 15.00
C 52.70 20.41 49.09 28.96 53.00 34.00
C 55.93 31.67 55.48 23.81 57.00 23.00
C 57.35 23.23 58.00 23.00 58.00 23.00
C 58.00 20.35 57.86 17.65 58.00 15.00
C 58.17 11.78 58.93 9.14 59.00 6.00
C 59.00 6.00 58.95 5.50 59.00 5.00
C 55.51 5.84 52.29 9.80 52.00 13.00
C 48.27 7.36 39.03 12.10 32.00 11.00 C 24.97 9.90 16.80 12.06 10.00 10.00 Z"/>
</g>
<g fill="#BAC0C7" fill-opacity="1.00" stroke="None">
<path d="
M 2.00 8.00 
C 2.00 7.50 2.23 6.16 2.00 6.00
C 2.00 6.00 1.01 6.06 1.00 6.00
C 1.16 6.93 1.86 7.50 2.00 8.00 Z"/>
</g>
<g fill="#000000" fill-opacity="0.00" stroke="None">
<path d="
M 61.00 7.00 
C 62.65 22.26 56.57 40.37 62.00 55.00
L 62.00 6.00
C 62.00 6.00 61.25 5.75 61.00 6.00
C 61.00 6.00 60.95 6.51 61.00 7.00 Z"/>
</g>
<g fill="#0096FD" fill-opacity="1.00" stroke="None">
<path d="
M 35.00 33.00 
C 34.98 32.50 35.00 32.00 35.00 32.00
C 35.33 30.84 35.14 29.66 37.00 30.00
C 36.45 34.52 41.97 35.46 45.00 37.00
C 46.97 33.70 46.37 29.05 48.00 26.00
C 48.00 24.68 47.91 23.32 48.00 22.00
C 50.92 5.91 32.02 15.84 20.02 12.98 C 8.03 10.12 13.63 29.90 16.00 38.00
C 18.77 37.22 19.91 39.96 22.00 41.00
C 23.43 36.85 22.16 32.03 24.00 28.00
C 26.46 29.01 25.21 32.71 27.00 34.00
C 29.59 29.96 32.21 35.33 35.00 33.00
M 44.00 21.00 
C 44.02 22.55 42.85 23.40 43.00 25.00
C 40.99 25.82 41.53 23.18 40.00 23.00
C 39.77 23.95 40.18 25.04 40.00 26.00
C 38.51 26.28 36.62 25.98 37.00 24.00
C 31.25 23.47 24.85 23.48 20.00 26.00
C 18.81 23.82 22.94 19.98 19.00 20.00
C 18.47 19.61 11.18 19.58 14.00 14.00
C 20.60 13.64 28.53 14.48 35.00 14.00 C 41.47 13.52 50.49 13.29 46.00 22.00
C 45.03 22.02 44.78 18.99 44.00 21.00
M 19.00 23.00 
C 15.63 25.47 16.41 19.66 19.00 23.00
M 35.00 26.00 
C 34.19 28.04 31.73 28.97 31.00 31.00
C 28.58 30.32 27.08 28.19 25.00 27.00
C 27.43 24.87 31.82 26.53 35.00 26.00 Z"/>
</g>
<g fill="#03B0FD" fill-opacity="1.00" stroke="None">
<path d="
M 19.00 20.00 
C 18.69 19.54 16.45 20.37 16.00 20.00
C 17.12 14.19 24.90 14.32 30.00 15.00 C 35.10 15.68 44.09 12.41 46.00 18.00
C 40.80 12.43 37.21 19.75 37.00 24.00
C 36.62 25.98 38.51 26.28 40.00 26.00
C 40.18 25.04 39.77 23.95 40.00 23.00
C 40.00 23.01 41.02 20.57 41.00 21.00
C 41.21 15.33 44.93 17.98 43.00 21.00
C 43.50 21.00 44.00 21.00 44.00 21.00
C 44.78 18.99 45.03 22.02 46.00 22.00
C 50.49 13.29 41.47 13.52 35.00 14.00 C 28.53 14.48 20.60 13.64 14.00 14.00
C 11.18 19.58 18.47 19.61 19.00 20.00 Z"/>
</g>
<g fill="#B8C4D2" fill-opacity="1.00" stroke="None">
<path d="
M 3.00 24.00 
C 3.00 20.91 2.23 17.42 2.00 15.00
C 2.00 18.27 1.87 21.34 3.00 24.00 Z"/>
</g>
<g fill="#03CAFE" fill-opacity="1.00" stroke="None">
<path d="
M 19.00 20.00 
C 22.94 19.98 18.81 23.82 20.00 26.00
C 24.85 23.48 31.25 23.47 37.00 24.00
C 37.21 19.75 40.80 12.43 46.00 18.00
C 44.09 12.41 35.10 15.68 30.00 15.00 C 24.90 14.32 17.12 14.19 16.00 20.00
C 16.45 20.37 18.69 19.54 19.00 20.00 Z"/>
</g>
<g fill="#11ADF7" fill-opacity="1.00" stroke="None">
<path d="
M 50.00 38.00 
C 50.00 41.76 49.20 49.59 50.00 52.00
C 50.74 54.20 54.90 55.74 55.00 58.00
C 56.89 57.10 57.13 59.80 59.00 58.00
C 58.74 57.76 59.00 55.39 59.00 55.00
C 59.00 53.67 59.00 52.33 59.00 51.00
C 58.82 49.69 57.76 48.01 58.00 46.00
C 58.06 45.51 58.00 45.00 58.00 45.00
C 55.14 41.14 56.54 28.11 57.00 23.00
C 55.48 23.81 55.93 31.67 53.00 34.00
C 49.09 28.96 52.70 20.41 50.00 15.00
C 50.00 22.67 50.00 30.33 50.00 38.00 Z"/>
</g>
<g fill="#FDFDFD" fill-opacity="0.35" stroke="None">
<path d="
M 58.00 23.00 
C 58.00 30.33 58.00 37.67 58.00 45.00
C 58.00 45.00 58.06 45.51 58.00 46.00
C 58.25 46.25 59.00 46.00 59.00 46.00
C 59.00 35.72 58.41 24.56 58.00 15.00
C 57.86 17.65 58.00 20.35 58.00 23.00 Z"/>
</g>
<g fill="#0CD2FF" fill-opacity="1.00" stroke="None">
<path d="
M 41.00 21.00 
C 41.12 21.21 42.50 21.00 43.00 21.00
C 44.93 17.98 41.21 15.33 41.00 21.00 Z"/>
</g>
<g fill="#0073EE" fill-opacity="1.00" stroke="None">
<path d="
M 40.00 23.00 
C 41.53 23.18 40.99 25.82 43.00 25.00
C 42.85 23.40 44.02 22.55 44.00 21.00
C 44.00 21.00 43.50 21.00 43.00 21.00
C 42.50 21.00 41.12 21.21 41.00 21.00
C 41.02 20.57 40.00 23.01 40.00 23.00 Z"/>
</g>
<g fill="#0068EF" fill-opacity="1.00" stroke="None">
<path d="
M 19.00 23.00 
C 16.41 19.66 15.63 25.47 19.00 23.00 Z"/>
</g>
<g fill="#005CF9" fill-opacity="1.00" stroke="None">
<path d="
M 48.00 26.00 
C 48.00 32.57 47.76 39.15 43.00 44.00
C 39.17 42.23 39.55 44.05 39.00 47.00
C 25.13 45.52 44.67 36.90 35.00 32.00
C 35.00 32.00 34.98 32.50 35.00 33.00
C 35.00 34.00 35.00 35.00 35.00 36.00
C 31.52 32.94 27.62 34.53 24.00 36.00
C 23.41 39.73 27.78 41.56 28.00 45.00
C 25.39 45.73 22.86 46.35 20.00 46.00
C 20.78 45.03 19.98 43.24 20.00 43.00
C 20.00 43.05 19.00 43.00 19.00 43.00
C 10.82 45.44 15.19 30.26 12.00 26.00
C 12.45 31.37 11.84 37.33 11.00 42.00
C 10.77 45.43 9.66 48.42 10.00 52.00
C 11.00 52.00 12.00 52.00 13.00 52.00
C 13.75 51.17 13.75 51.17 15.00 51.00
C 17.24 50.70 19.74 51.00 22.00 51.00
C 29.60 50.28 42.55 47.98 50.00 52.00
C 49.20 49.59 50.00 41.76 50.00 38.00
C 49.58 33.70 48.08 26.36 48.00 22.00
C 47.91 23.32 48.00 24.68 48.00 26.00 Z"/>
</g>
<g fill="#6F99B9" fill-opacity="1.00" stroke="None">
<path d="
M 58.00 45.00 
C 58.00 37.67 58.00 30.33 58.00 23.00
C 58.00 23.00 57.35 23.23 57.00 23.00
C 56.54 28.11 55.14 41.14 58.00 45.00 Z"/>
</g>
<g fill="#000000" fill-opacity="0.00" stroke="None">
<path d="
M 0.00 41.00 
C 1.70 36.48 1.62 28.59 0.00 24.00
L 0.00 41.00 Z"/>
</g>
<g fill="#8DA8BD" fill-opacity="1.00" stroke="None">
<path d="
M 3.00 32.00 
C 3.17 29.78 4.22 28.57 3.00 26.00
C 3.00 28.00 3.00 30.00 3.00 32.00 Z"/>
</g>
<g fill="#09CCFF" fill-opacity="1.00" stroke="None">
<path d="
M 35.00 26.00 
C 31.82 26.53 27.43 24.87 25.00 27.00
C 27.08 28.19 28.58 30.32 31.00 31.00
C 31.73 28.97 34.19 28.04 35.00 26.00 Z"/>
</g>
<g fill="#007BFD" fill-opacity="1.00" stroke="None">
<path d="
M 35.00 32.00 
C 44.67 36.90 25.13 45.52 39.00 47.00
C 39.55 44.05 39.17 42.23 43.00 44.00
C 47.76 39.15 48.00 32.57 48.00 26.00
C 46.37 29.05 46.97 33.70 45.00 37.00
C 41.97 35.46 36.45 34.52 37.00 30.00
C 35.14 29.66 35.33 30.84 35.00 32.00
M 44.00 41.00 
C 40.06 44.55 39.21 37.70 44.00 41.00 Z"/>
</g>
<g fill="#1DB3F3" fill-opacity="1.00" stroke="None">
<path d="
M 3.00 41.00 
C 2.92 41.20 1.99 43.02 2.00 43.00
C 1.71 45.33 0.60 60.57 2.00 61.00
C 1.59 60.14 3.72 59.98 4.00 60.00
C 3.72 57.80 5.78 58.10 7.00 57.00
C 8.88 55.32 12.87 52.14 13.00 52.00
C 12.00 52.00 11.00 52.00 10.00 52.00
C 9.66 48.42 10.77 45.43 11.00 42.00
C 11.27 38.04 11.00 33.97 11.00 30.00
C 8.45 32.01 11.41 36.56 9.00 39.00
C 5.63 38.41 4.25 37.71 3.00 41.00 Z"/>
</g>
<g fill="#0CA6FF" fill-opacity="1.00" stroke="None">
<path d="
M 19.00 43.00 
C 19.00 43.00 20.00 43.05 20.00 43.00
C 19.40 35.79 11.51 43.21 19.00 43.00 Z"/>
</g>
<g fill="#0FB6FF" fill-opacity="1.00" stroke="None">
<path d="
M 44.00 41.00 
C 39.21 37.70 40.06 44.55 44.00 41.00 Z"/>
</g>
<g fill="#BAC3CC" fill-opacity="1.00" stroke="None">
<path d="
M 2.00 43.00 
C 1.99 43.02 2.92 41.20 3.00 41.00
C 2.83 41.64 2.14 41.87 2.00 43.00 Z"/>
</g>
<g fill="#BEC4CA" fill-opacity="1.00" stroke="None">
<path d="
M 59.00 51.00 
C 59.00 49.33 59.00 47.67 59.00 46.00
C 59.00 46.00 58.25 46.25 58.00 46.00
C 57.76 48.01 58.82 49.69 59.00 51.00 Z"/>
</g>
<g fill="#2483E2" fill-opacity="1.00" stroke="None">
<path d="
M 22.00 51.00 
C 27.42 51.00 33.31 51.43 38.00 52.00
C 43.21 52.10 51.37 52.14 53.00 58.00
C 37.28 57.26 21.92 57.84 7.00 57.00
C 5.78 58.10 3.72 57.80 4.00 60.00
C 4.50 60.03 5.00 60.00 5.00 60.00
C 21.12 60.00 37.89 57.86 54.00 60.00
C 54.42 59.86 54.74 58.12 55.00 58.00
C 54.90 55.74 50.74 54.20 50.00 52.00
C 42.55 47.98 29.60 50.28 22.00 51.00 Z"/>
</g>
<g fill="#006AF9" fill-opacity="1.00" stroke="None">
<path d="
M 13.00 52.00 
C 12.87 52.14 8.88 55.32 7.00 57.00
C 21.92 57.84 37.28 57.26 53.00 58.00
C 51.37 52.14 43.21 52.10 38.00 52.00
C 29.84 51.84 21.57 53.14 15.00 51.00
C 13.75 51.17 13.75 51.17 13.00 52.00 Z"/>
</g>
<g fill="#19A1FF" fill-opacity="1.00" stroke="None">
<path d="
M 38.00 52.00 
C 33.31 51.43 27.42 51.00 22.00 51.00
C 19.74 51.00 17.24 50.70 15.00 51.00
C 21.57 53.14 29.84 51.84 38.00 52.00 Z"/>
</g>
<g fill="#B5BCC7" fill-opacity="1.00" stroke="None">
<path d="
M 59.00 58.00 
C 59.26 57.75 60.00 58.00 60.00 58.00
C 60.80 56.82 59.11 55.54 59.00 55.00
C 59.00 55.39 58.74 57.76 59.00 58.00 Z"/>
</g>
<g fill="#498FAB" fill-opacity="1.00" stroke="None">
<path d="
M 54.00 60.00 
C 56.04 60.11 58.33 59.58 60.00 61.00
C 59.82 60.04 60.22 58.95 60.00 58.00
C 60.00 58.00 59.26 57.75 59.00 58.00
C 57.13 59.80 56.89 57.10 55.00 58.00
C 54.74 58.12 54.42 59.86 54.00 60.00 Z"/>
</g>
<g fill="#BABFC5" fill-opacity="1.00" stroke="None">
<path d="
M 2.00 61.00 
C 2.49 62.03 4.96 60.01 5.00 60.00
C 5.00 60.00 4.50 60.03 4.00 60.00
C 3.72 59.98 1.59 60.14 2.00 61.00 Z"/>
</g>
<g fill="#000000" fill-opacity="0.00" stroke="None">
<path d="
M 5.00 63.00 
L 57.00 63.00
C 40.54 60.87 21.44 60.03 5.00 63.00 Z"/>
</g>
<g fill="#000000" fill-opacity="0.00" stroke="None">
<path d="
M 60.00 63.00 
L 62.00 63.00
L 62.00 61.00
C 60.97 61.13 60.41 62.17 60.00 63.00 Z"/>
</g>
</svg>