<svg xmlns="http://www.w3.org/2000/svg" xmlns:v="https://svgstorm.com"
viewBox = "0 0 66 66"
width="66"
height="66">
<g fill="None" fill-opacity="0.0" stroke="#000000" stroke-opacity="0.00" stroke-width="0.3"><path d="
M 0.00 31.00 
C 5.43 25.92 14.77 24.97 20.08 20.08 C 25.38 15.18 25.52 5.19 31.00 0.00
L 0.00 0.00
L 0.00 31.00 Z"/>
</g>
<g fill="None" fill-opacity="0.0" stroke="#F9F9F8" stroke-opacity="0.50" stroke-width="0.3"><path d="
M 0.00 31.00 
L 0.00 33.00
C 12.43 38.97 24.56 45.61 28.30 59.70 C 32.04 73.78 37.61 59.42 39.77 54.77 C 41.93 50.12 46.32 40.93 53.07 40.07 C 59.83 39.22 67.26 32.75 61.30 28.70 C 55.34 24.64 48.28 23.63 43.75 18.25 C 39.22 12.86 39.23 5.15 34.00 0.00
L 31.00 0.00
C 25.52 5.19 25.38 15.18 20.08 20.08 C 14.77 24.97 5.43 25.92 0.00 31.00
M 32.00 4.00 
C 32.22 3.75 33.00 4.00 33.00 4.00
C 34.08 0.62 34.81 5.19 36.00 7.00
C 36.18 7.27 36.97 7.65 37.00 8.00
C 37.05 8.50 37.00 9.00 37.00 9.00
C 37.12 9.26 37.85 9.66 38.00 10.00
C 38.41 10.93 38.40 12.04 39.00 13.00
C 39.24 13.26 39.97 13.65 40.00 14.00
C 40.05 14.50 40.00 15.00 40.00 15.00
C 40.01 16.12 40.45 17.05 41.00 18.00
C 41.50 18.66 42.46 19.29 43.00 20.00
C 43.74 20.96 44.08 21.30 45.00 22.00
C 45.85 22.65 46.31 23.34 47.00 24.00
C 47.26 24.25 48.00 24.00 48.00 24.00
C 49.58 23.90 49.03 24.36 50.00 25.00
C 50.50 25.00 51.00 25.00 51.00 25.00
C 51.35 25.03 51.74 25.88 52.00 26.00
C 52.50 26.05 53.00 26.00 53.00 26.00
C 53.35 26.03 53.74 26.88 54.00 27.00
C 54.50 27.05 55.00 27.00 55.00 27.00
C 55.35 27.03 55.74 27.88 56.00 28.00
C 56.50 28.05 57.00 28.00 57.00 28.00
C 57.35 28.03 57.74 28.88 58.00 29.00
C 58.50 29.05 59.00 29.00 59.00 29.00
C 59.35 29.03 59.73 29.86 60.00 30.00
C 61.97 30.79 63.42 31.22 62.00 33.00
C 62.08 33.08 61.35 33.97 61.00 34.00
C 60.50 34.05 60.00 34.00 60.00 34.00
C 59.74 34.12 59.35 34.87 59.00 35.00
C 54.57 36.67 50.28 38.78 46.00 41.00
C 45.73 41.18 45.31 41.80 45.00 42.00
C 43.94 42.67 43.65 42.98 43.00 44.00
C 42.80 44.31 42.12 44.74 42.00 45.00
C 41.81 45.41 42.00 46.00 42.00 46.00
C 41.97 46.35 41.25 46.75 41.00 47.00
C 40.79 47.31 40.18 47.73 40.00 48.00
C 39.64 49.01 39.62 50.01 39.00 51.00
C 38.80 51.32 38.13 51.74 38.00 52.00
C 37.42 53.70 37.00 55.40 36.00 57.00
C 35.80 57.32 35.12 57.74 35.00 58.00
C 34.95 58.50 35.00 59.00 35.00 59.00
C 34.97 59.35 34.06 59.77 34.00 60.00
C 33.82 60.97 34.14 62.03 34.00 63.00
C 32.08 63.51 31.77 61.16 31.00 60.00
C 30.87 59.73 30.09 59.35 30.00 59.00
C 29.88 58.53 30.12 57.47 30.00 57.00
C 29.89 56.74 29.17 56.33 29.00 56.00
C 27.60 53.30 26.02 50.74 25.00 48.00
C 24.87 47.73 24.03 47.35 24.00 47.00
C 23.95 46.50 24.00 46.00 24.00 46.00
C 23.88 45.74 23.03 45.35 23.00 45.00
C 22.95 44.50 23.00 44.00 23.00 44.00
C 21.57 43.00 20.24 40.78 19.00 40.00
C 14.92 37.96 8.55 37.14 5.00 34.00
C 3.37 33.82 1.66 33.08 2.00 31.00
C 5.26 30.45 7.95 28.24 11.00 27.00
C 11.83 26.29 11.94 25.58 13.00 25.00
C 14.46 24.20 16.46 23.96 18.00 23.00
C 18.26 22.78 18.65 22.09 19.00 22.00
C 23.73 20.84 24.00 14.98 25.93 11.93 C 27.85 8.88 31.15 1.36 32.00 4.00 Z"/>
</g>
<g fill="None" fill-opacity="0.0" stroke="#000000" stroke-opacity="0.00" stroke-width="0.3"><path d="
M 0.00 33.00 
L 0.00 66.00
L 66.00 66.00
L 66.00 0.00
L 34.00 0.00
C 39.23 5.15 39.22 12.86 43.75 18.25 C 48.28 23.63 55.34 24.64 61.30 28.70 C 67.26 32.75 59.83 39.22 53.07 40.07 C 46.32 40.93 41.93 50.12 39.77 54.77 C 37.61 59.42 32.04 73.78 28.30 59.70 C 24.56 45.61 12.43 38.97 0.00 33.00 Z"/>
</g>
<g fill="None" fill-opacity="0.0" stroke="#B2B295" stroke-opacity="1.00" stroke-width="0.3"><path d="
M 19.00 22.00 
C 18.75 22.08 18.32 22.80 18.00 23.00
C 16.46 23.96 14.46 24.20 13.00 25.00
C 12.26 25.54 11.87 26.44 11.00 27.00
C 7.95 28.24 5.26 30.45 2.00 31.00
C 1.66 33.08 3.37 33.82 5.00 34.00
C 4.75 33.78 5.00 33.00 5.00 33.00
C 3.48 30.96 16.29 25.78 19.00 24.00
C 21.77 22.17 24.59 18.85 26.00 16.00
C 27.93 12.10 28.98 7.45 32.00 4.00
C 31.15 1.36 27.85 8.88 25.93 11.93 C 24.00 14.98 23.73 20.84 19.00 22.00 Z"/>
</g>
<g fill="None" fill-opacity="0.0" stroke="#B0B18A" stroke-opacity="1.00" stroke-width="0.3"><path d="
M 33.00 4.00 
C 34.03 4.87 34.87 6.07 36.00 7.00
C 34.81 5.19 34.08 0.62 33.00 4.00 Z"/>
</g>
<g fill="None" fill-opacity="0.0" stroke="#F0EA64" stroke-opacity="1.00" stroke-width="0.3"><path d="
M 26.00 16.00 
C 27.32 14.70 32.02 14.35 30.00 10.00
C 31.63 13.80 32.03 20.45 29.00 24.00
C 32.26 23.40 34.91 24.83 38.00 25.00
C 37.75 27.83 41.00 29.30 41.00 32.00
C 43.33 32.00 45.67 32.00 48.00 32.00
C 51.21 32.06 57.84 30.77 60.00 33.00
C 61.84 30.60 51.24 26.80 49.00 25.00
C 48.50 25.00 48.00 25.00 48.00 25.00
C 47.65 24.97 47.25 24.24 47.00 24.00
C 46.33 23.36 45.60 22.60 45.00 22.00
C 44.08 21.30 43.74 20.96 43.00 20.00
C 42.18 19.18 41.62 19.06 41.00 18.00
C 40.45 17.05 40.01 16.12 40.00 15.00
C 37.59 14.14 36.51 10.17 36.00 8.00
C 35.89 7.53 36.00 7.00 36.00 7.00
C 34.87 6.07 34.03 4.87 33.00 4.00
C 33.00 4.00 32.22 3.75 32.00 4.00
C 28.98 7.45 27.93 12.10 26.00 16.00 Z"/>
</g>
<g fill="None" fill-opacity="0.0" stroke="#DEDEDD" stroke-opacity="1.00" stroke-width="0.3"><path d="
M 36.00 8.00 
C 36.25 8.25 37.00 8.00 37.00 8.00
C 36.97 7.65 36.18 7.27 36.00 7.00
C 36.00 7.00 35.89 7.53 36.00 8.00 Z"/>
</g>
<g fill="None" fill-opacity="0.0" stroke="#AFAB71" stroke-opacity="1.00" stroke-width="0.3"><path d="
M 40.00 15.00 
C 40.00 15.00 40.05 14.50 40.00 14.00
C 39.88 13.74 39.20 13.32 39.00 13.00
C 38.40 12.04 38.41 10.93 38.00 10.00
C 37.82 9.73 37.03 9.35 37.00 9.00
C 37.00 9.00 37.05 8.50 37.00 8.00
C 37.00 8.00 36.25 8.25 36.00 8.00
C 36.51 10.17 37.59 14.14 40.00 15.00 Z"/>
</g>
<g fill="None" fill-opacity="0.0" stroke="#DEDDDD" stroke-opacity="1.00" stroke-width="0.3"><path d="
M 38.00 10.00 
C 37.85 9.66 37.12 9.26 37.00 9.00
C 37.03 9.35 37.82 9.73 38.00 10.00 Z"/>
</g>
<g fill="None" fill-opacity="0.0" stroke="#D8CA3E" stroke-opacity="1.00" stroke-width="0.3"><path d="
M 26.00 16.00 
C 24.59 18.85 21.77 22.17 19.00 24.00
C 22.44 24.23 22.94 29.83 26.00 26.00
C 27.12 32.38 20.38 31.56 17.00 33.00
C 20.63 32.93 23.92 32.92 27.00 33.00
C 34.43 33.19 41.57 32.62 48.00 32.00
C 45.67 32.00 43.33 32.00 41.00 32.00
C 41.00 29.30 37.75 27.83 38.00 25.00
C 34.91 24.83 32.26 23.40 29.00 24.00
C 32.03 20.45 31.63 13.80 30.00 10.00
C 32.02 14.35 27.32 14.70 26.00 16.00
M 38.00 32.00 
C 34.33 32.00 30.67 32.00 27.00 32.00
C 28.88 30.63 31.00 28.71 31.00 26.00
C 35.75 24.55 35.87 29.44 38.00 32.00 Z"/>
</g>
<g fill="None" fill-opacity="0.0" stroke="#DEDDDD" stroke-opacity="1.00" stroke-width="0.3"><path d="
M 40.00 14.00 
C 39.97 13.65 39.24 13.26 39.00 13.00
C 39.20 13.32 39.88 13.74 40.00 14.00 Z"/>
</g>
<g fill="None" fill-opacity="0.0" stroke="#C7C5BA" stroke-opacity="1.00" stroke-width="0.3"><path d="
M 43.00 20.00 
C 42.46 19.29 41.50 18.66 41.00 18.00
C 41.62 19.06 42.18 19.18 43.00 20.00 Z"/>
</g>
<g fill="None" fill-opacity="0.0" stroke="#FFFFFF" stroke-opacity="0.25" stroke-width="0.3"><path d="
M 18.00 23.00 
C 18.32 22.80 18.75 22.08 19.00 22.00
C 18.65 22.09 18.26 22.78 18.00 23.00 Z"/>
</g>
<g fill="None" fill-opacity="0.0" stroke="#CCCDCB" stroke-opacity="1.00" stroke-width="0.3"><path d="
M 47.00 24.00 
C 46.31 23.34 45.85 22.65 45.00 22.00
C 45.60 22.60 46.33 23.36 47.00 24.00 Z"/>
</g>
<g fill="None" fill-opacity="0.0" stroke="#F6EF63" stroke-opacity="1.00" stroke-width="0.3"><path d="
M 5.00 33.00 
C 8.94 32.64 13.04 33.08 17.00 33.00
C 20.38 31.56 27.12 32.38 26.00 26.00
C 22.94 29.83 22.44 24.23 19.00 24.00
C 16.29 25.78 3.48 30.96 5.00 33.00 Z"/>
</g>
<g fill="None" fill-opacity="0.0" stroke="#98975D" stroke-opacity="1.00" stroke-width="0.3"><path d="
M 48.00 25.00 
C 47.75 24.75 48.00 24.00 48.00 24.00
C 48.00 24.00 47.26 24.25 47.00 24.00
C 47.25 24.24 47.65 24.97 48.00 25.00 Z"/>
</g>
<g fill="None" fill-opacity="0.0" stroke="#C8C8C3" stroke-opacity="1.00" stroke-width="0.3"><path d="
M 48.00 25.00 
C 48.00 25.00 48.50 25.00 49.00 25.00
C 49.50 25.00 50.00 25.00 50.00 25.00
C 49.03 24.36 49.58 23.90 48.00 24.00
C 48.00 24.00 47.75 24.75 48.00 25.00 Z"/>
</g>
<g fill="None" fill-opacity="0.0" stroke="#F6F6F6" stroke-opacity="0.25" stroke-width="0.3"><path d="
M 11.00 27.00 
C 11.87 26.44 12.26 25.54 13.00 25.00
C 11.94 25.58 11.83 26.29 11.00 27.00 Z"/>
</g>
<g fill="None" fill-opacity="0.0" stroke="#ADAC7F" stroke-opacity="1.00" stroke-width="0.3"><path d="
M 60.00 33.00 
C 59.76 33.32 60.00 34.00 60.00 34.00
C 60.00 34.00 60.50 34.05 61.00 34.00
C 61.26 33.88 61.91 32.91 62.00 33.00
C 63.42 31.22 61.97 30.79 60.00 30.00
C 59.65 29.86 59.26 29.12 59.00 29.00
C 59.00 29.00 58.50 29.05 58.00 29.00
C 57.65 28.97 57.26 28.12 57.00 28.00
C 57.00 28.00 56.50 28.05 56.00 28.00
C 55.65 27.97 55.26 27.12 55.00 27.00
C 55.00 27.00 54.50 27.05 54.00 27.00
C 53.65 26.97 53.26 26.12 53.00 26.00
C 53.00 26.00 52.50 26.05 52.00 26.00
C 51.65 25.97 51.26 25.12 51.00 25.00
C 51.00 25.00 50.50 25.00 50.00 25.00
C 50.00 25.00 49.50 25.00 49.00 25.00
C 51.24 26.80 61.84 30.60 60.00 33.00 Z"/>
</g>
<g fill="None" fill-opacity="0.0" stroke="#CDCCCC" stroke-opacity="1.00" stroke-width="0.3"><path d="
M 52.00 26.00 
C 51.74 25.88 51.35 25.03 51.00 25.00
C 51.26 25.12 51.65 25.97 52.00 26.00 Z"/>
</g>
<g fill="None" fill-opacity="0.0" stroke="#F7F674" stroke-opacity="1.00" stroke-width="0.3"><path d="
M 38.00 32.00 
C 35.87 29.44 35.75 24.55 31.00 26.00
C 31.00 28.71 28.88 30.63 27.00 32.00
C 30.67 32.00 34.33 32.00 38.00 32.00 Z"/>
</g>
<g fill="None" fill-opacity="0.0" stroke="#CDCDCC" stroke-opacity="1.00" stroke-width="0.3"><path d="
M 54.00 27.00 
C 53.74 26.88 53.35 26.03 53.00 26.00
C 53.26 26.12 53.65 26.97 54.00 27.00 Z"/>
</g>
<g fill="None" fill-opacity="0.0" stroke="#CDCDCC" stroke-opacity="1.00" stroke-width="0.3"><path d="
M 56.00 28.00 
C 55.74 27.88 55.35 27.03 55.00 27.00
C 55.26 27.12 55.65 27.97 56.00 28.00 Z"/>
</g>
<g fill="None" fill-opacity="0.0" stroke="#DEDEDD" stroke-opacity="1.00" stroke-width="0.3"><path d="
M 58.00 29.00 
C 57.74 28.88 57.35 28.03 57.00 28.00
C 57.26 28.12 57.65 28.97 58.00 29.00 Z"/>
</g>
<g fill="None" fill-opacity="0.0" stroke="#DDDDDD" stroke-opacity="1.00" stroke-width="0.3"><path d="
M 60.00 30.00 
C 59.73 29.86 59.35 29.03 59.00 29.00
C 59.26 29.12 59.65 29.86 60.00 30.00 Z"/>
</g>
<g fill="None" fill-opacity="0.0" stroke="#9A8415" stroke-opacity="1.00" stroke-width="0.3"><path d="
M 17.00 33.00 
C 13.04 33.08 8.94 32.64 5.00 33.00
C 5.00 33.00 4.75 33.78 5.00 34.00
C 8.55 37.14 14.92 37.96 19.00 40.00
C 19.77 40.39 21.50 41.41 22.00 42.00
C 22.98 38.18 28.63 38.88 31.00 39.00
C 32.75 38.17 31.66 35.56 32.00 34.00
C 30.43 33.61 27.78 34.94 27.00 33.00
C 23.92 32.92 20.63 32.93 17.00 33.00 Z"/>
</g>
<g fill="None" fill-opacity="0.0" stroke="#B3A132" stroke-opacity="1.00" stroke-width="0.3"><path d="
M 27.00 33.00 
C 27.78 34.94 30.43 33.61 32.00 34.00
C 31.66 35.56 32.75 38.17 31.00 39.00
C 34.42 39.17 38.98 38.33 41.00 34.00
C 39.74 37.35 40.18 41.17 45.00 40.00
C 44.46 41.66 42.44 42.33 42.00 44.00
C 42.25 43.75 43.00 44.00 43.00 44.00
C 43.65 42.98 43.94 42.67 45.00 42.00
C 45.25 41.76 45.67 41.17 46.00 41.00
C 50.28 38.78 54.57 36.67 59.00 35.00
C 59.27 34.87 59.88 34.26 60.00 34.00
C 60.00 34.00 59.76 33.32 60.00 33.00
C 57.84 30.77 51.21 32.06 48.00 32.00
C 41.57 32.62 34.43 33.19 27.00 33.00 Z"/>
</g>
<g fill="None" fill-opacity="0.0" stroke="#DEDDDD" stroke-opacity="1.00" stroke-width="0.3"><path d="
M 61.00 34.00 
C 61.35 33.97 62.08 33.08 62.00 33.00
C 61.91 32.91 61.26 33.88 61.00 34.00 Z"/>
</g>
<g fill="None" fill-opacity="0.0" stroke="#CFBF34" stroke-opacity="1.00" stroke-width="0.3"><path d="
M 31.00 39.00 
C 28.63 38.88 22.98 38.18 22.00 42.00
C 22.42 42.49 22.89 43.37 23.00 44.00
C 23.00 44.00 22.95 44.50 23.00 45.00
C 23.12 45.26 23.97 45.65 24.00 46.00
C 24.00 46.00 23.95 46.50 24.00 47.00
C 24.12 47.26 24.87 47.65 25.00 48.00
C 26.02 50.74 27.60 53.30 29.00 56.00
C 29.18 56.27 29.91 56.65 30.00 57.00
C 30.12 57.47 29.88 58.53 30.00 59.00
C 30.11 59.26 30.86 59.65 31.00 60.00
C 31.77 61.16 32.08 63.51 34.00 63.00
C 34.14 62.03 33.82 60.97 34.00 60.00
C 34.06 59.65 34.88 59.26 35.00 59.00
C 35.00 59.00 34.95 58.50 35.00 58.00
C 35.03 57.65 35.78 57.26 36.00 57.00
C 37.00 55.40 37.42 53.70 38.00 52.00
C 38.12 51.65 38.76 51.26 39.00 51.00
C 39.62 50.01 39.64 49.01 40.00 48.00
C 40.59 46.35 40.38 45.97 42.00 45.00
C 42.22 44.87 42.00 44.00 42.00 44.00
C 42.44 42.33 44.46 41.66 45.00 40.00
C 40.18 41.17 39.74 37.35 41.00 34.00
C 38.98 38.33 34.42 39.17 31.00 39.00 Z"/>
</g>
<g fill="None" fill-opacity="0.0" stroke="#D0CECC" stroke-opacity="1.00" stroke-width="0.3"><path d="
M 59.00 35.00 
C 59.35 34.87 59.74 34.12 60.00 34.00
C 59.88 34.26 59.27 34.87 59.00 35.00 Z"/>
</g>
<g fill="None" fill-opacity="0.0" stroke="#AAA698" stroke-opacity="1.00" stroke-width="0.3"><path d="
M 23.00 44.00 
C 22.89 43.37 22.42 42.49 22.00 42.00
C 21.50 41.41 19.77 40.39 19.00 40.00
C 20.24 40.78 21.57 43.00 23.00 44.00 Z"/>
</g>
<g fill="None" fill-opacity="0.0" stroke="#BEBCBB" stroke-opacity="1.00" stroke-width="0.3"><path d="
M 45.00 42.00 
C 45.31 41.80 45.73 41.18 46.00 41.00
C 45.67 41.17 45.25 41.76 45.00 42.00 Z"/>
</g>
<g fill="None" fill-opacity="0.0" stroke="#BEBDBB" stroke-opacity="1.00" stroke-width="0.3"><path d="
M 42.00 45.00 
C 42.12 44.74 42.80 44.31 43.00 44.00
C 43.00 44.00 42.25 43.75 42.00 44.00
C 42.00 44.00 42.22 44.87 42.00 45.00 Z"/>
</g>
<g fill="None" fill-opacity="0.0" stroke="#B0ADAA" stroke-opacity="1.00" stroke-width="0.3"><path d="
M 24.00 46.00 
C 23.97 45.65 23.12 45.26 23.00 45.00
C 23.03 45.35 23.88 45.74 24.00 46.00 Z"/>
</g>
<g fill="None" fill-opacity="0.0" stroke="#9E9766" stroke-opacity="1.00" stroke-width="0.3"><path d="
M 40.00 48.00 
C 40.18 47.73 40.79 47.31 41.00 47.00
C 41.21 46.69 41.88 46.26 42.00 46.00
C 42.00 46.00 41.81 45.41 42.00 45.00
C 40.38 45.97 40.59 46.35 40.00 48.00 Z"/>
</g>
<g fill="None" fill-opacity="0.0" stroke="#DEDEDD" stroke-opacity="1.00" stroke-width="0.3"><path d="
M 41.00 47.00 
C 41.25 46.75 41.97 46.35 42.00 46.00
C 41.88 46.26 41.21 46.69 41.00 47.00 Z"/>
</g>
<g fill="None" fill-opacity="0.0" stroke="#9D9B99" stroke-opacity="1.00" stroke-width="0.3"><path d="
M 25.00 48.00 
C 24.87 47.65 24.12 47.26 24.00 47.00
C 24.03 47.35 24.87 47.73 25.00 48.00 Z"/>
</g>
<g fill="None" fill-opacity="0.0" stroke="#968B66" stroke-opacity="1.00" stroke-width="0.3"><path d="
M 38.00 52.00 
C 38.13 51.74 38.80 51.32 39.00 51.00
C 38.76 51.26 38.12 51.65 38.00 52.00 Z"/>
</g>
<g fill="None" fill-opacity="0.0" stroke="#8B8733" stroke-opacity="1.00" stroke-width="0.3"><path d="
M 30.00 57.00 
C 29.91 56.65 29.18 56.27 29.00 56.00
C 29.17 56.33 29.89 56.74 30.00 57.00 Z"/>
</g>
<g fill="None" fill-opacity="0.0" stroke="#979366" stroke-opacity="1.00" stroke-width="0.3"><path d="
M 35.00 58.00 
C 35.12 57.74 35.80 57.32 36.00 57.00
C 35.78 57.26 35.03 57.65 35.00 58.00 Z"/>
</g>
<g fill="None" fill-opacity="0.0" stroke="#ABA899" stroke-opacity="1.00" stroke-width="0.3"><path d="
M 31.00 60.00 
C 30.86 59.65 30.11 59.26 30.00 59.00
C 30.09 59.35 30.87 59.73 31.00 60.00 Z"/>
</g>
<g fill="None" fill-opacity="0.0" stroke="#999066" stroke-opacity="1.00" stroke-width="0.3"><path d="
M 34.00 60.00 
C 34.06 59.77 34.97 59.35 35.00 59.00
C 34.88 59.26 34.06 59.65 34.00 60.00 Z"/>
</g>
<g fill="#000000" fill-opacity="0.00" stroke="None">
<path d="
M 0.00 31.00 
C 5.43 25.92 14.77 24.97 20.08 20.08 C 25.38 15.18 25.52 5.19 31.00 0.00
L 0.00 0.00
L 0.00 31.00 Z"/>
</g>
<g fill="#F9F9F8" fill-opacity="0.50" stroke="None">
<path d="
M 0.00 31.00 
L 0.00 33.00
C 12.43 38.97 24.56 45.61 28.30 59.70 C 32.04 73.78 37.61 59.42 39.77 54.77 C 41.93 50.12 46.32 40.93 53.07 40.07 C 59.83 39.22 67.26 32.75 61.30 28.70 C 55.34 24.64 48.28 23.63 43.75 18.25 C 39.22 12.86 39.23 5.15 34.00 0.00
L 31.00 0.00
C 25.52 5.19 25.38 15.18 20.08 20.08 C 14.77 24.97 5.43 25.92 0.00 31.00
M 32.00 4.00 
C 32.22 3.75 33.00 4.00 33.00 4.00
C 34.08 0.62 34.81 5.19 36.00 7.00
C 36.18 7.27 36.97 7.65 37.00 8.00
C 37.05 8.50 37.00 9.00 37.00 9.00
C 37.12 9.26 37.85 9.66 38.00 10.00
C 38.41 10.93 38.40 12.04 39.00 13.00
C 39.24 13.26 39.97 13.65 40.00 14.00
C 40.05 14.50 40.00 15.00 40.00 15.00
C 40.01 16.12 40.45 17.05 41.00 18.00
C 41.50 18.66 42.46 19.29 43.00 20.00
C 43.74 20.96 44.08 21.30 45.00 22.00
C 45.85 22.65 46.31 23.34 47.00 24.00
C 47.26 24.25 48.00 24.00 48.00 24.00
C 49.58 23.90 49.03 24.36 50.00 25.00
C 50.50 25.00 51.00 25.00 51.00 25.00
C 51.35 25.03 51.74 25.88 52.00 26.00
C 52.50 26.05 53.00 26.00 53.00 26.00
C 53.35 26.03 53.74 26.88 54.00 27.00
C 54.50 27.05 55.00 27.00 55.00 27.00
C 55.35 27.03 55.74 27.88 56.00 28.00
C 56.50 28.05 57.00 28.00 57.00 28.00
C 57.35 28.03 57.74 28.88 58.00 29.00
C 58.50 29.05 59.00 29.00 59.00 29.00
C 59.35 29.03 59.73 29.86 60.00 30.00
C 61.97 30.79 63.42 31.22 62.00 33.00
C 62.08 33.08 61.35 33.97 61.00 34.00
C 60.50 34.05 60.00 34.00 60.00 34.00
C 59.74 34.12 59.35 34.87 59.00 35.00
C 54.57 36.67 50.28 38.78 46.00 41.00
C 45.73 41.18 45.31 41.80 45.00 42.00
C 43.94 42.67 43.65 42.98 43.00 44.00
C 42.80 44.31 42.12 44.74 42.00 45.00
C 41.81 45.41 42.00 46.00 42.00 46.00
C 41.97 46.35 41.25 46.75 41.00 47.00
C 40.79 47.31 40.18 47.73 40.00 48.00
C 39.64 49.01 39.62 50.01 39.00 51.00
C 38.80 51.32 38.13 51.74 38.00 52.00
C 37.42 53.70 37.00 55.40 36.00 57.00
C 35.80 57.32 35.12 57.74 35.00 58.00
C 34.95 58.50 35.00 59.00 35.00 59.00
C 34.97 59.35 34.06 59.77 34.00 60.00
C 33.82 60.97 34.14 62.03 34.00 63.00
C 32.08 63.51 31.77 61.16 31.00 60.00
C 30.87 59.73 30.09 59.35 30.00 59.00
C 29.88 58.53 30.12 57.47 30.00 57.00
C 29.89 56.74 29.17 56.33 29.00 56.00
C 27.60 53.30 26.02 50.74 25.00 48.00
C 24.87 47.73 24.03 47.35 24.00 47.00
C 23.95 46.50 24.00 46.00 24.00 46.00
C 23.88 45.74 23.03 45.35 23.00 45.00
C 22.95 44.50 23.00 44.00 23.00 44.00
C 21.57 43.00 20.24 40.78 19.00 40.00
C 14.92 37.96 8.55 37.14 5.00 34.00
C 3.37 33.82 1.66 33.08 2.00 31.00
C 5.26 30.45 7.95 28.24 11.00 27.00
C 11.83 26.29 11.94 25.58 13.00 25.00
C 14.46 24.20 16.46 23.96 18.00 23.00
C 18.26 22.78 18.65 22.09 19.00 22.00
C 23.73 20.84 24.00 14.98 25.93 11.93 C 27.85 8.88 31.15 1.36 32.00 4.00 Z"/>
</g>
<g fill="#000000" fill-opacity="0.00" stroke="None">
<path d="
M 0.00 33.00 
L 0.00 66.00
L 66.00 66.00
L 66.00 0.00
L 34.00 0.00
C 39.23 5.15 39.22 12.86 43.75 18.25 C 48.28 23.63 55.34 24.64 61.30 28.70 C 67.26 32.75 59.83 39.22 53.07 40.07 C 46.32 40.93 41.93 50.12 39.77 54.77 C 37.61 59.42 32.04 73.78 28.30 59.70 C 24.56 45.61 12.43 38.97 0.00 33.00 Z"/>
</g>
<g fill="#B2B295" fill-opacity="1.00" stroke="None">
<path d="
M 19.00 22.00 
C 18.75 22.08 18.32 22.80 18.00 23.00
C 16.46 23.96 14.46 24.20 13.00 25.00
C 12.26 25.54 11.87 26.44 11.00 27.00
C 7.95 28.24 5.26 30.45 2.00 31.00
C 1.66 33.08 3.37 33.82 5.00 34.00
C 4.75 33.78 5.00 33.00 5.00 33.00
C 3.48 30.96 16.29 25.78 19.00 24.00
C 21.77 22.17 24.59 18.85 26.00 16.00
C 27.93 12.10 28.98 7.45 32.00 4.00
C 31.15 1.36 27.85 8.88 25.93 11.93 C 24.00 14.98 23.73 20.84 19.00 22.00 Z"/>
</g>
<g fill="#B0B18A" fill-opacity="1.00" stroke="None">
<path d="
M 33.00 4.00 
C 34.03 4.87 34.87 6.07 36.00 7.00
C 34.81 5.19 34.08 0.62 33.00 4.00 Z"/>
</g>
<g fill="#F0EA64" fill-opacity="1.00" stroke="None">
<path d="
M 26.00 16.00 
C 27.32 14.70 32.02 14.35 30.00 10.00
C 31.63 13.80 32.03 20.45 29.00 24.00
C 32.26 23.40 34.91 24.83 38.00 25.00
C 37.75 27.83 41.00 29.30 41.00 32.00
C 43.33 32.00 45.67 32.00 48.00 32.00
C 51.21 32.06 57.84 30.77 60.00 33.00
C 61.84 30.60 51.24 26.80 49.00 25.00
C 48.50 25.00 48.00 25.00 48.00 25.00
C 47.65 24.97 47.25 24.24 47.00 24.00
C 46.33 23.36 45.60 22.60 45.00 22.00
C 44.08 21.30 43.74 20.96 43.00 20.00
C 42.18 19.18 41.62 19.06 41.00 18.00
C 40.45 17.05 40.01 16.12 40.00 15.00
C 37.59 14.14 36.51 10.17 36.00 8.00
C 35.89 7.53 36.00 7.00 36.00 7.00
C 34.87 6.07 34.03 4.87 33.00 4.00
C 33.00 4.00 32.22 3.75 32.00 4.00
C 28.98 7.45 27.93 12.10 26.00 16.00 Z"/>
</g>
<g fill="#DEDEDD" fill-opacity="1.00" stroke="None">
<path d="
M 36.00 8.00 
C 36.25 8.25 37.00 8.00 37.00 8.00
C 36.97 7.65 36.18 7.27 36.00 7.00
C 36.00 7.00 35.89 7.53 36.00 8.00 Z"/>
</g>
<g fill="#AFAB71" fill-opacity="1.00" stroke="None">
<path d="
M 40.00 15.00 
C 40.00 15.00 40.05 14.50 40.00 14.00
C 39.88 13.74 39.20 13.32 39.00 13.00
C 38.40 12.04 38.41 10.93 38.00 10.00
C 37.82 9.73 37.03 9.35 37.00 9.00
C 37.00 9.00 37.05 8.50 37.00 8.00
C 37.00 8.00 36.25 8.25 36.00 8.00
C 36.51 10.17 37.59 14.14 40.00 15.00 Z"/>
</g>
<g fill="#DEDDDD" fill-opacity="1.00" stroke="None">
<path d="
M 38.00 10.00 
C 37.85 9.66 37.12 9.26 37.00 9.00
C 37.03 9.35 37.82 9.73 38.00 10.00 Z"/>
</g>
<g fill="#D8CA3E" fill-opacity="1.00" stroke="None">
<path d="
M 26.00 16.00 
C 24.59 18.85 21.77 22.17 19.00 24.00
C 22.44 24.23 22.94 29.83 26.00 26.00
C 27.12 32.38 20.38 31.56 17.00 33.00
C 20.63 32.93 23.92 32.92 27.00 33.00
C 34.43 33.19 41.57 32.62 48.00 32.00
C 45.67 32.00 43.33 32.00 41.00 32.00
C 41.00 29.30 37.75 27.83 38.00 25.00
C 34.91 24.83 32.26 23.40 29.00 24.00
C 32.03 20.45 31.63 13.80 30.00 10.00
C 32.02 14.35 27.32 14.70 26.00 16.00
M 38.00 32.00 
C 34.33 32.00 30.67 32.00 27.00 32.00
C 28.88 30.63 31.00 28.71 31.00 26.00
C 35.75 24.55 35.87 29.44 38.00 32.00 Z"/>
</g>
<g fill="#DEDDDD" fill-opacity="1.00" stroke="None">
<path d="
M 40.00 14.00 
C 39.97 13.65 39.24 13.26 39.00 13.00
C 39.20 13.32 39.88 13.74 40.00 14.00 Z"/>
</g>
<g fill="#C7C5BA" fill-opacity="1.00" stroke="None">
<path d="
M 43.00 20.00 
C 42.46 19.29 41.50 18.66 41.00 18.00
C 41.62 19.06 42.18 19.18 43.00 20.00 Z"/>
</g>
<g fill="#FFFFFF" fill-opacity="0.25" stroke="None">
<path d="
M 18.00 23.00 
C 18.32 22.80 18.75 22.08 19.00 22.00
C 18.65 22.09 18.26 22.78 18.00 23.00 Z"/>
</g>
<g fill="#CCCDCB" fill-opacity="1.00" stroke="None">
<path d="
M 47.00 24.00 
C 46.31 23.34 45.85 22.65 45.00 22.00
C 45.60 22.60 46.33 23.36 47.00 24.00 Z"/>
</g>
<g fill="#F6EF63" fill-opacity="1.00" stroke="None">
<path d="
M 5.00 33.00 
C 8.94 32.64 13.04 33.08 17.00 33.00
C 20.38 31.56 27.12 32.38 26.00 26.00
C 22.94 29.83 22.44 24.23 19.00 24.00
C 16.29 25.78 3.48 30.96 5.00 33.00 Z"/>
</g>
<g fill="#98975D" fill-opacity="1.00" stroke="None">
<path d="
M 48.00 25.00 
C 47.75 24.75 48.00 24.00 48.00 24.00
C 48.00 24.00 47.26 24.25 47.00 24.00
C 47.25 24.24 47.65 24.97 48.00 25.00 Z"/>
</g>
<g fill="#C8C8C3" fill-opacity="1.00" stroke="None">
<path d="
M 48.00 25.00 
C 48.00 25.00 48.50 25.00 49.00 25.00
C 49.50 25.00 50.00 25.00 50.00 25.00
C 49.03 24.36 49.58 23.90 48.00 24.00
C 48.00 24.00 47.75 24.75 48.00 25.00 Z"/>
</g>
<g fill="#F6F6F6" fill-opacity="0.25" stroke="None">
<path d="
M 11.00 27.00 
C 11.87 26.44 12.26 25.54 13.00 25.00
C 11.94 25.58 11.83 26.29 11.00 27.00 Z"/>
</g>
<g fill="#ADAC7F" fill-opacity="1.00" stroke="None">
<path d="
M 60.00 33.00 
C 59.76 33.32 60.00 34.00 60.00 34.00
C 60.00 34.00 60.50 34.05 61.00 34.00
C 61.26 33.88 61.91 32.91 62.00 33.00
C 63.42 31.22 61.97 30.79 60.00 30.00
C 59.65 29.86 59.26 29.12 59.00 29.00
C 59.00 29.00 58.50 29.05 58.00 29.00
C 57.65 28.97 57.26 28.12 57.00 28.00
C 57.00 28.00 56.50 28.05 56.00 28.00
C 55.65 27.97 55.26 27.12 55.00 27.00
C 55.00 27.00 54.50 27.05 54.00 27.00
C 53.65 26.97 53.26 26.12 53.00 26.00
C 53.00 26.00 52.50 26.05 52.00 26.00
C 51.65 25.97 51.26 25.12 51.00 25.00
C 51.00 25.00 50.50 25.00 50.00 25.00
C 50.00 25.00 49.50 25.00 49.00 25.00
C 51.24 26.80 61.84 30.60 60.00 33.00 Z"/>
</g>
<g fill="#CDCCCC" fill-opacity="1.00" stroke="None">
<path d="
M 52.00 26.00 
C 51.74 25.88 51.35 25.03 51.00 25.00
C 51.26 25.12 51.65 25.97 52.00 26.00 Z"/>
</g>
<g fill="#F7F674" fill-opacity="1.00" stroke="None">
<path d="
M 38.00 32.00 
C 35.87 29.44 35.75 24.55 31.00 26.00
C 31.00 28.71 28.88 30.63 27.00 32.00
C 30.67 32.00 34.33 32.00 38.00 32.00 Z"/>
</g>
<g fill="#CDCDCC" fill-opacity="1.00" stroke="None">
<path d="
M 54.00 27.00 
C 53.74 26.88 53.35 26.03 53.00 26.00
C 53.26 26.12 53.65 26.97 54.00 27.00 Z"/>
</g>
<g fill="#CDCDCC" fill-opacity="1.00" stroke="None">
<path d="
M 56.00 28.00 
C 55.74 27.88 55.35 27.03 55.00 27.00
C 55.26 27.12 55.65 27.97 56.00 28.00 Z"/>
</g>
<g fill="#DEDEDD" fill-opacity="1.00" stroke="None">
<path d="
M 58.00 29.00 
C 57.74 28.88 57.35 28.03 57.00 28.00
C 57.26 28.12 57.65 28.97 58.00 29.00 Z"/>
</g>
<g fill="#DDDDDD" fill-opacity="1.00" stroke="None">
<path d="
M 60.00 30.00 
C 59.73 29.86 59.35 29.03 59.00 29.00
C 59.26 29.12 59.65 29.86 60.00 30.00 Z"/>
</g>
<g fill="#9A8415" fill-opacity="1.00" stroke="None">
<path d="
M 17.00 33.00 
C 13.04 33.08 8.94 32.64 5.00 33.00
C 5.00 33.00 4.75 33.78 5.00 34.00
C 8.55 37.14 14.92 37.96 19.00 40.00
C 19.77 40.39 21.50 41.41 22.00 42.00
C 22.98 38.18 28.63 38.88 31.00 39.00
C 32.75 38.17 31.66 35.56 32.00 34.00
C 30.43 33.61 27.78 34.94 27.00 33.00
C 23.92 32.92 20.63 32.93 17.00 33.00 Z"/>
</g>
<g fill="#B3A132" fill-opacity="1.00" stroke="None">
<path d="
M 27.00 33.00 
C 27.78 34.94 30.43 33.61 32.00 34.00
C 31.66 35.56 32.75 38.17 31.00 39.00
C 34.42 39.17 38.98 38.33 41.00 34.00
C 39.74 37.35 40.18 41.17 45.00 40.00
C 44.46 41.66 42.44 42.33 42.00 44.00
C 42.25 43.75 43.00 44.00 43.00 44.00
C 43.65 42.98 43.94 42.67 45.00 42.00
C 45.25 41.76 45.67 41.17 46.00 41.00
C 50.28 38.78 54.57 36.67 59.00 35.00
C 59.27 34.87 59.88 34.26 60.00 34.00
C 60.00 34.00 59.76 33.32 60.00 33.00
C 57.84 30.77 51.21 32.06 48.00 32.00
C 41.57 32.62 34.43 33.19 27.00 33.00 Z"/>
</g>
<g fill="#DEDDDD" fill-opacity="1.00" stroke="None">
<path d="
M 61.00 34.00 
C 61.35 33.97 62.08 33.08 62.00 33.00
C 61.91 32.91 61.26 33.88 61.00 34.00 Z"/>
</g>
<g fill="#CFBF34" fill-opacity="1.00" stroke="None">
<path d="
M 31.00 39.00 
C 28.63 38.88 22.98 38.18 22.00 42.00
C 22.42 42.49 22.89 43.37 23.00 44.00
C 23.00 44.00 22.95 44.50 23.00 45.00
C 23.12 45.26 23.97 45.65 24.00 46.00
C 24.00 46.00 23.95 46.50 24.00 47.00
C 24.12 47.26 24.87 47.65 25.00 48.00
C 26.02 50.74 27.60 53.30 29.00 56.00
C 29.18 56.27 29.91 56.65 30.00 57.00
C 30.12 57.47 29.88 58.53 30.00 59.00
C 30.11 59.26 30.86 59.65 31.00 60.00
C 31.77 61.16 32.08 63.51 34.00 63.00
C 34.14 62.03 33.82 60.97 34.00 60.00
C 34.06 59.65 34.88 59.26 35.00 59.00
C 35.00 59.00 34.95 58.50 35.00 58.00
C 35.03 57.65 35.78 57.26 36.00 57.00
C 37.00 55.40 37.42 53.70 38.00 52.00
C 38.12 51.65 38.76 51.26 39.00 51.00
C 39.62 50.01 39.64 49.01 40.00 48.00
C 40.59 46.35 40.38 45.97 42.00 45.00
C 42.22 44.87 42.00 44.00 42.00 44.00
C 42.44 42.33 44.46 41.66 45.00 40.00
C 40.18 41.17 39.74 37.35 41.00 34.00
C 38.98 38.33 34.42 39.17 31.00 39.00 Z"/>
</g>
<g fill="#D0CECC" fill-opacity="1.00" stroke="None">
<path d="
M 59.00 35.00 
C 59.35 34.87 59.74 34.12 60.00 34.00
C 59.88 34.26 59.27 34.87 59.00 35.00 Z"/>
</g>
<g fill="#AAA698" fill-opacity="1.00" stroke="None">
<path d="
M 23.00 44.00 
C 22.89 43.37 22.42 42.49 22.00 42.00
C 21.50 41.41 19.77 40.39 19.00 40.00
C 20.24 40.78 21.57 43.00 23.00 44.00 Z"/>
</g>
<g fill="#BEBCBB" fill-opacity="1.00" stroke="None">
<path d="
M 45.00 42.00 
C 45.31 41.80 45.73 41.18 46.00 41.00
C 45.67 41.17 45.25 41.76 45.00 42.00 Z"/>
</g>
<g fill="#BEBDBB" fill-opacity="1.00" stroke="None">
<path d="
M 42.00 45.00 
C 42.12 44.74 42.80 44.31 43.00 44.00
C 43.00 44.00 42.25 43.75 42.00 44.00
C 42.00 44.00 42.22 44.87 42.00 45.00 Z"/>
</g>
<g fill="#B0ADAA" fill-opacity="1.00" stroke="None">
<path d="
M 24.00 46.00 
C 23.97 45.65 23.12 45.26 23.00 45.00
C 23.03 45.35 23.88 45.74 24.00 46.00 Z"/>
</g>
<g fill="#9E9766" fill-opacity="1.00" stroke="None">
<path d="
M 40.00 48.00 
C 40.18 47.73 40.79 47.31 41.00 47.00
C 41.21 46.69 41.88 46.26 42.00 46.00
C 42.00 46.00 41.81 45.41 42.00 45.00
C 40.38 45.97 40.59 46.35 40.00 48.00 Z"/>
</g>
<g fill="#DEDEDD" fill-opacity="1.00" stroke="None">
<path d="
M 41.00 47.00 
C 41.25 46.75 41.97 46.35 42.00 46.00
C 41.88 46.26 41.21 46.69 41.00 47.00 Z"/>
</g>
<g fill="#9D9B99" fill-opacity="1.00" stroke="None">
<path d="
M 25.00 48.00 
C 24.87 47.65 24.12 47.26 24.00 47.00
C 24.03 47.35 24.87 47.73 25.00 48.00 Z"/>
</g>
<g fill="#968B66" fill-opacity="1.00" stroke="None">
<path d="
M 38.00 52.00 
C 38.13 51.74 38.80 51.32 39.00 51.00
C 38.76 51.26 38.12 51.65 38.00 52.00 Z"/>
</g>
<g fill="#8B8733" fill-opacity="1.00" stroke="None">
<path d="
M 30.00 57.00 
C 29.91 56.65 29.18 56.27 29.00 56.00
C 29.17 56.33 29.89 56.74 30.00 57.00 Z"/>
</g>
<g fill="#979366" fill-opacity="1.00" stroke="None">
<path d="
M 35.00 58.00 
C 35.12 57.74 35.80 57.32 36.00 57.00
C 35.78 57.26 35.03 57.65 35.00 58.00 Z"/>
</g>
<g fill="#ABA899" fill-opacity="1.00" stroke="None">
<path d="
M 31.00 60.00 
C 30.86 59.65 30.11 59.26 30.00 59.00
C 30.09 59.35 30.87 59.73 31.00 60.00 Z"/>
</g>
<g fill="#999066" fill-opacity="1.00" stroke="None">
<path d="
M 34.00 60.00 
C 34.06 59.77 34.97 59.35 35.00 59.00
C 34.88 59.26 34.06 59.65 34.00 60.00 Z"/>
</g>
</svg>