<svg xmlns="http://www.w3.org/2000/svg" xmlns:v="https://svgstorm.com"
viewBox = "0 0 76 67"
width="76"
height="67">
<g fill="None" fill-opacity="0.0" stroke="#000000" stroke-opacity="0.00" stroke-width="0.3"><path d="
M 0.00 67.00 
L 76.00 67.00
L 76.00 0.00
L 0.00 0.00
L 0.00 67.00
M 70.00 7.00 
C 70.30 7.22 70.79 7.70 71.00 8.00
C 73.30 10.21 63.54 19.66 61.08 24.08 C 58.62 28.50 54.21 35.82 50.69 41.69 C 47.18 47.57 45.08 53.98 41.22 61.22 C 37.37 68.47 32.56 57.58 31.07 50.93 C 29.59 44.27 24.92 38.46 21.08 31.92 C 17.24 25.38 16.20 22.29 9.25 15.75 C 2.29 9.21 7.44 3.53 17.07 6.93 C 26.71 10.32 34.79 5.53 43.22 7.22 C 51.65 8.92 63.41 2.14 70.00 7.00 Z"/>
</g>
<g fill="None" fill-opacity="0.0" stroke="#F5F6F5" stroke-opacity="0.52" stroke-width="0.3"><path d="
M 71.00 8.00 
C 70.64 8.23 70.00 8.00 70.00 8.00
C 69.48 9.51 68.97 10.64 68.00 12.00
C 67.08 13.28 66.00 13.98 65.00 15.00
C 64.40 15.62 63.55 16.43 63.00 17.00
C 54.81 30.17 42.87 44.54 40.00 60.00
C 39.93 60.35 39.12 60.74 39.00 61.00
C 39.00 61.50 39.00 62.00 39.00 62.00
C 38.97 62.35 38.34 63.00 38.00 63.00
C 37.98 63.03 37.03 62.35 37.00 62.00
C 36.95 61.50 37.00 61.00 37.00 61.00
C 36.88 60.74 36.07 60.35 36.00 60.00
C 33.02 44.91 23.52 30.10 14.00 18.00
C 12.95 16.91 11.54 16.60 11.00 15.00
C 10.85 14.55 11.00 14.00 11.00 14.00
C 9.75 12.96 8.86 12.39 8.00 11.00
C 7.47 10.15 6.20 9.24 6.00 8.00
C 8.84 8.59 12.98 6.78 15.00 9.00
C 16.33 9.01 17.67 9.00 19.00 9.00
C 22.42 9.00 26.31 9.74 29.00 10.00
C 32.77 10.36 38.30 10.75 42.00 10.00
C 42.79 6.32 54.15 7.63 56.00 9.00
C 56.50 9.00 57.00 9.00 57.00 9.00
C 58.49 5.74 66.85 6.55 70.00 7.00
C 63.41 2.14 51.65 8.92 43.22 7.22 C 34.79 5.53 26.71 10.32 17.07 6.93 C 7.44 3.53 2.29 9.21 9.25 15.75 C 16.20 22.29 17.24 25.38 21.08 31.92 C 24.92 38.46 29.59 44.27 31.07 50.93 C 32.56 57.58 37.37 68.47 41.22 61.22 C 45.08 53.98 47.18 47.57 50.69 41.69 C 54.21 35.82 58.62 28.50 61.08 24.08 C 63.54 19.66 73.30 10.21 71.00 8.00 Z"/>
</g>
<g fill="None" fill-opacity="0.0" stroke="#FDFDFD" stroke-opacity="0.34" stroke-width="0.3"><path d="
M 57.00 9.00 
C 57.50 9.00 58.00 9.00 58.00 9.00
C 59.03 8.04 59.45 8.13 61.00 8.00
C 63.95 7.75 67.04 8.00 70.00 8.00
C 70.00 8.00 70.64 8.23 71.00 8.00
C 70.79 7.70 70.30 7.22 70.00 7.00
C 66.85 6.55 58.49 5.74 57.00 9.00 Z"/>
</g>
<g fill="None" fill-opacity="0.0" stroke="#8DB08B" stroke-opacity="1.00" stroke-width="0.3"><path d="
M 8.00 11.00 
C 8.18 7.94 12.60 8.99 15.00 9.00
C 12.98 6.78 8.84 8.59 6.00 8.00
C 6.20 9.24 7.47 10.15 8.00 11.00 Z"/>
</g>
<g fill="None" fill-opacity="0.0" stroke="#FDFDFD" stroke-opacity="0.34" stroke-width="0.3"><path d="
M 42.00 10.00 
C 42.32 9.76 43.00 10.00 43.00 10.00
C 44.17 8.80 45.26 9.10 47.00 9.00
C 49.65 8.85 52.35 9.00 55.00 9.00
C 55.50 9.00 56.00 9.00 56.00 9.00
C 54.15 7.63 42.79 6.32 42.00 10.00 Z"/>
</g>
<g fill="None" fill-opacity="0.0" stroke="#D1DCD1" stroke-opacity="1.00" stroke-width="0.3"><path d="
M 58.00 9.00 
C 59.00 9.00 60.00 9.00 61.00 9.00
C 61.25 8.73 61.00 8.00 61.00 8.00
C 59.45 8.13 59.03 8.04 58.00 9.00 Z"/>
</g>
<g fill="None" fill-opacity="0.0" stroke="#6CA36A" stroke-opacity="1.00" stroke-width="0.3"><path d="
M 61.00 9.00 
C 63.67 9.00 66.33 9.00 69.00 9.00
C 68.70 10.25 67.17 10.71 67.00 12.00
C 67.27 11.75 68.00 12.00 68.00 12.00
C 68.97 10.64 69.48 9.51 70.00 8.00
C 67.04 8.00 63.95 7.75 61.00 8.00
C 61.00 8.00 61.25 8.73 61.00 9.00 Z"/>
</g>
<g fill="None" fill-opacity="0.0" stroke="#3DEA37" stroke-opacity="1.00" stroke-width="0.3"><path d="
M 8.00 11.00 
C 7.91 12.45 13.13 13.90 14.68 14.32 C 16.22 14.74 18.26 19.09 19.00 20.00
C 25.81 24.76 30.35 35.78 34.00 43.00
C 34.13 44.86 36.82 42.45 35.07 40.92 C 33.32 39.40 33.69 37.87 33.00 36.00
C 31.92 33.08 30.74 30.67 29.00 28.00
C 27.36 25.48 26.05 21.31 24.00 19.00
C 22.22 18.42 20.44 15.58 18.00 16.00
C 23.67 13.65 31.81 15.98 38.00 16.00 C 44.19 16.02 53.79 13.58 57.00 16.00
C 57.31 19.69 54.31 18.79 51.75 21.75 C 49.20 24.71 47.79 35.11 48.00 34.00
C 50.71 28.92 53.80 23.76 57.00 19.00
C 59.98 14.57 63.39 14.81 67.00 12.00
C 67.17 10.71 68.70 10.25 69.00 9.00
C 66.33 9.00 63.67 9.00 61.00 9.00
C 60.00 9.00 59.00 9.00 58.00 9.00
C 58.00 9.00 57.50 9.00 57.00 9.00
C 57.00 9.00 56.50 9.00 56.00 9.00
C 56.00 9.00 55.50 9.00 55.00 9.00
C 52.95 10.52 49.73 10.00 47.00 10.00
C 45.67 10.00 44.33 10.00 43.00 10.00
C 43.00 10.00 42.32 9.76 42.00 10.00
C 38.55 12.56 32.40 10.33 29.00 10.00
C 25.69 9.68 21.68 9.37 19.00 9.00
C 17.67 9.00 16.33 9.01 15.00 9.00
C 12.60 8.99 8.18 7.94 8.00 11.00 Z"/>
</g>
<g fill="None" fill-opacity="0.0" stroke="#8DB48D" stroke-opacity="1.00" stroke-width="0.3"><path d="
M 29.00 10.00 
C 26.31 9.74 22.42 9.00 19.00 9.00
C 21.68 9.37 25.69 9.68 29.00 10.00 Z"/>
</g>
<g fill="None" fill-opacity="0.0" stroke="#CBD1CB" stroke-opacity="1.00" stroke-width="0.3"><path d="
M 43.00 10.00 
C 44.33 10.00 45.67 10.00 47.00 10.00
C 47.22 9.87 47.00 9.00 47.00 9.00
C 45.26 9.10 44.17 8.80 43.00 10.00 Z"/>
</g>
<g fill="None" fill-opacity="0.0" stroke="#73AA72" stroke-opacity="1.00" stroke-width="0.3"><path d="
M 47.00 10.00 
C 49.73 10.00 52.95 10.52 55.00 9.00
C 52.35 9.00 49.65 8.85 47.00 9.00
C 47.00 9.00 47.22 9.87 47.00 10.00 Z"/>
</g>
<g fill="None" fill-opacity="0.0" stroke="#27B624" stroke-opacity="1.00" stroke-width="0.3"><path d="
M 42.00 10.00 
C 38.30 10.75 32.77 10.36 29.00 10.00
C 32.40 10.33 38.55 12.56 42.00 10.00 Z"/>
</g>
<g fill="None" fill-opacity="0.0" stroke="#2AA327" stroke-opacity="1.00" stroke-width="0.3"><path d="
M 11.00 14.00 
C 13.64 16.19 16.46 18.22 19.00 20.00
C 18.26 19.09 16.22 14.74 14.68 14.32 C 13.13 13.90 7.91 12.45 8.00 11.00
C 8.86 12.39 9.75 12.96 11.00 14.00 Z"/>
</g>
<g fill="None" fill-opacity="0.0" stroke="#24B824" stroke-opacity="1.00" stroke-width="0.3"><path d="
M 57.00 19.00 
C 58.07 17.93 61.53 16.64 63.00 16.00
C 63.45 15.80 64.67 15.28 65.00 15.00
C 65.80 14.32 66.27 12.66 67.00 12.00
C 63.39 14.81 59.98 14.57 57.00 19.00 Z"/>
</g>
<g fill="None" fill-opacity="0.0" stroke="#CBD4CB" stroke-opacity="1.00" stroke-width="0.3"><path d="
M 65.00 15.00 
C 66.00 13.98 67.08 13.28 68.00 12.00
C 68.00 12.00 67.27 11.75 67.00 12.00
C 66.27 12.66 65.80 14.32 65.00 15.00 Z"/>
</g>
<g fill="None" fill-opacity="0.0" stroke="#1F821D" stroke-opacity="1.00" stroke-width="0.3"><path d="
M 11.00 15.00 
C 12.32 15.98 13.03 16.77 14.00 18.00
C 23.52 30.10 33.02 44.91 36.00 60.00
C 36.01 60.07 37.00 60.00 37.00 60.00
C 37.00 53.46 36.88 48.69 34.00 43.00
C 30.35 35.78 25.81 24.76 19.00 20.00
C 16.46 18.22 13.64 16.19 11.00 14.00
C 11.00 14.00 10.85 14.55 11.00 15.00 Z"/>
</g>
<g fill="None" fill-opacity="0.0" stroke="#C6CCC6" stroke-opacity="1.00" stroke-width="0.3"><path d="
M 14.00 18.00 
C 13.03 16.77 12.32 15.98 11.00 15.00
C 11.54 16.60 12.95 16.91 14.00 18.00 Z"/>
</g>
<g fill="None" fill-opacity="0.0" stroke="#039402" stroke-opacity="1.00" stroke-width="0.3"><path d="
M 24.00 19.00 
C 27.43 20.13 37.21 18.72 41.00 19.00 C 44.79 19.28 55.82 20.24 57.00 16.00
C 53.79 13.58 44.19 16.02 38.00 16.00 C 31.81 15.98 23.67 13.65 18.00 16.00
C 20.44 15.58 22.22 18.42 24.00 19.00 Z"/>
</g>
<g fill="None" fill-opacity="0.0" stroke="#88A687" stroke-opacity="1.00" stroke-width="0.3"><path d="
M 63.00 16.00 
C 62.80 16.40 63.00 17.00 63.00 17.00
C 63.55 16.43 64.40 15.62 65.00 15.00
C 64.67 15.28 63.45 15.80 63.00 16.00 Z"/>
</g>
<g fill="None" fill-opacity="0.0" stroke="#23C81D" stroke-opacity="1.00" stroke-width="0.3"><path d="
M 24.00 19.00 
C 26.05 21.31 27.36 25.48 29.00 28.00
C 28.81 27.88 34.75 26.57 35.00 23.00
C 35.21 28.41 41.76 27.42 41.00 23.00
C 44.78 24.83 44.19 31.51 48.00 26.00
C 46.48 32.65 41.20 37.68 39.00 44.00
C 35.65 42.49 36.36 37.47 33.00 36.00
C 33.69 37.87 33.32 39.40 35.07 40.92 C 36.82 42.45 34.13 44.86 34.00 43.00
C 36.88 48.69 37.00 53.46 37.00 60.00
C 37.00 60.50 37.00 61.00 37.00 61.00
C 37.00 61.00 36.95 61.50 37.00 62.00
C 37.25 62.25 38.00 62.00 38.00 62.00
C 38.50 62.00 39.00 62.00 39.00 62.00
C 39.00 62.00 39.00 61.50 39.00 61.00
C 39.00 60.50 39.00 60.00 39.00 60.00
C 39.00 49.70 43.37 42.67 48.00 34.00
C 47.79 35.11 49.20 24.71 51.75 21.75 C 54.31 18.79 57.31 19.69 57.00 16.00
C 55.82 20.24 44.79 19.28 41.00 19.00 C 37.21 18.72 27.43 20.13 24.00 19.00 Z"/>
</g>
<g fill="None" fill-opacity="0.0" stroke="#22921F" stroke-opacity="1.00" stroke-width="0.3"><path d="
M 57.00 19.00 
C 53.80 23.76 50.71 28.92 48.00 34.00
C 43.37 42.67 39.00 49.70 39.00 60.00
C 39.25 59.75 40.00 60.00 40.00 60.00
C 42.87 44.54 54.81 30.17 63.00 17.00
C 63.00 17.00 62.80 16.40 63.00 16.00
C 61.53 16.64 58.07 17.93 57.00 19.00 Z"/>
</g>
<g fill="None" fill-opacity="0.0" stroke="#038D04" stroke-opacity="1.00" stroke-width="0.3"><path d="
M 29.00 28.00 
C 30.74 30.67 31.92 33.08 33.00 36.00
C 36.36 37.47 35.65 42.49 39.00 44.00
C 41.20 37.68 46.48 32.65 48.00 26.00
C 44.19 31.51 44.78 24.83 41.00 23.00
C 41.76 27.42 35.21 28.41 35.00 23.00
C 34.75 26.57 28.81 27.88 29.00 28.00
M 42.00 28.00 
C 39.34 37.34 30.16 24.88 42.00 28.00 Z"/>
</g>
<g fill="None" fill-opacity="0.0" stroke="#015D00" stroke-opacity="1.00" stroke-width="0.3"><path d="
M 42.00 28.00 
C 30.16 24.88 39.34 37.34 42.00 28.00 Z"/>
</g>
<g fill="None" fill-opacity="0.0" stroke="#77A177" stroke-opacity="1.00" stroke-width="0.3"><path d="
M 37.00 61.00 
C 37.00 61.00 37.00 60.50 37.00 60.00
C 37.00 60.00 36.01 60.07 36.00 60.00
C 36.07 60.35 36.88 60.74 37.00 61.00 Z"/>
</g>
<g fill="None" fill-opacity="0.0" stroke="#BBC7BB" stroke-opacity="1.00" stroke-width="0.3"><path d="
M 39.00 61.00 
C 39.12 60.74 39.93 60.35 40.00 60.00
C 40.00 60.00 39.25 59.75 39.00 60.00
C 39.00 60.00 39.00 60.50 39.00 61.00 Z"/>
</g>
<g fill="None" fill-opacity="0.0" stroke="#558155" stroke-opacity="1.00" stroke-width="0.3"><path d="
M 38.00 63.00 
C 37.77 62.64 38.00 62.00 38.00 62.00
C 38.00 62.00 37.25 62.25 37.00 62.00
C 37.03 62.35 37.98 63.03 38.00 63.00 Z"/>
</g>
<g fill="None" fill-opacity="0.0" stroke="#99A399" stroke-opacity="1.00" stroke-width="0.3"><path d="
M 38.00 63.00 
C 38.34 63.00 38.97 62.35 39.00 62.00
C 39.00 62.00 38.50 62.00 38.00 62.00
C 38.00 62.00 37.77 62.64 38.00 63.00 Z"/>
</g>
<g fill="#000000" fill-opacity="0.00" stroke="None">
<path d="
M 0.00 67.00 
L 76.00 67.00
L 76.00 0.00
L 0.00 0.00
L 0.00 67.00
M 70.00 7.00 
C 70.30 7.22 70.79 7.70 71.00 8.00
C 73.30 10.21 63.54 19.66 61.08 24.08 C 58.62 28.50 54.21 35.82 50.69 41.69 C 47.18 47.57 45.08 53.98 41.22 61.22 C 37.37 68.47 32.56 57.58 31.07 50.93 C 29.59 44.27 24.92 38.46 21.08 31.92 C 17.24 25.38 16.20 22.29 9.25 15.75 C 2.29 9.21 7.44 3.53 17.07 6.93 C 26.71 10.32 34.79 5.53 43.22 7.22 C 51.65 8.92 63.41 2.14 70.00 7.00 Z"/>
</g>
<g fill="#F5F6F5" fill-opacity="0.52" stroke="None">
<path d="
M 71.00 8.00 
C 70.64 8.23 70.00 8.00 70.00 8.00
C 69.48 9.51 68.97 10.64 68.00 12.00
C 67.08 13.28 66.00 13.98 65.00 15.00
C 64.40 15.62 63.55 16.43 63.00 17.00
C 54.81 30.17 42.87 44.54 40.00 60.00
C 39.93 60.35 39.12 60.74 39.00 61.00
C 39.00 61.50 39.00 62.00 39.00 62.00
C 38.97 62.35 38.34 63.00 38.00 63.00
C 37.98 63.03 37.03 62.35 37.00 62.00
C 36.95 61.50 37.00 61.00 37.00 61.00
C 36.88 60.74 36.07 60.35 36.00 60.00
C 33.02 44.91 23.52 30.10 14.00 18.00
C 12.95 16.91 11.54 16.60 11.00 15.00
C 10.85 14.55 11.00 14.00 11.00 14.00
C 9.75 12.96 8.86 12.39 8.00 11.00
C 7.47 10.15 6.20 9.24 6.00 8.00
C 8.84 8.59 12.98 6.78 15.00 9.00
C 16.33 9.01 17.67 9.00 19.00 9.00
C 22.42 9.00 26.31 9.74 29.00 10.00
C 32.77 10.36 38.30 10.75 42.00 10.00
C 42.79 6.32 54.15 7.63 56.00 9.00
C 56.50 9.00 57.00 9.00 57.00 9.00
C 58.49 5.74 66.85 6.55 70.00 7.00
C 63.41 2.14 51.65 8.92 43.22 7.22 C 34.79 5.53 26.71 10.32 17.07 6.93 C 7.44 3.53 2.29 9.21 9.25 15.75 C 16.20 22.29 17.24 25.38 21.08 31.92 C 24.92 38.46 29.59 44.27 31.07 50.93 C 32.56 57.58 37.37 68.47 41.22 61.22 C 45.08 53.98 47.18 47.57 50.69 41.69 C 54.21 35.82 58.62 28.50 61.08 24.08 C 63.54 19.66 73.30 10.21 71.00 8.00 Z"/>
</g>
<g fill="#FDFDFD" fill-opacity="0.34" stroke="None">
<path d="
M 57.00 9.00 
C 57.50 9.00 58.00 9.00 58.00 9.00
C 59.03 8.04 59.45 8.13 61.00 8.00
C 63.95 7.75 67.04 8.00 70.00 8.00
C 70.00 8.00 70.64 8.23 71.00 8.00
C 70.79 7.70 70.30 7.22 70.00 7.00
C 66.85 6.55 58.49 5.74 57.00 9.00 Z"/>
</g>
<g fill="#8DB08B" fill-opacity="1.00" stroke="None">
<path d="
M 8.00 11.00 
C 8.18 7.94 12.60 8.99 15.00 9.00
C 12.98 6.78 8.84 8.59 6.00 8.00
C 6.20 9.24 7.47 10.15 8.00 11.00 Z"/>
</g>
<g fill="#FDFDFD" fill-opacity="0.34" stroke="None">
<path d="
M 42.00 10.00 
C 42.32 9.76 43.00 10.00 43.00 10.00
C 44.17 8.80 45.26 9.10 47.00 9.00
C 49.65 8.85 52.35 9.00 55.00 9.00
C 55.50 9.00 56.00 9.00 56.00 9.00
C 54.15 7.63 42.79 6.32 42.00 10.00 Z"/>
</g>
<g fill="#D1DCD1" fill-opacity="1.00" stroke="None">
<path d="
M 58.00 9.00 
C 59.00 9.00 60.00 9.00 61.00 9.00
C 61.25 8.73 61.00 8.00 61.00 8.00
C 59.45 8.13 59.03 8.04 58.00 9.00 Z"/>
</g>
<g fill="#6CA36A" fill-opacity="1.00" stroke="None">
<path d="
M 61.00 9.00 
C 63.67 9.00 66.33 9.00 69.00 9.00
C 68.70 10.25 67.17 10.71 67.00 12.00
C 67.27 11.75 68.00 12.00 68.00 12.00
C 68.97 10.64 69.48 9.51 70.00 8.00
C 67.04 8.00 63.95 7.75 61.00 8.00
C 61.00 8.00 61.25 8.73 61.00 9.00 Z"/>
</g>
<g fill="#3DEA37" fill-opacity="1.00" stroke="None">
<path d="
M 8.00 11.00 
C 7.91 12.45 13.13 13.90 14.68 14.32 C 16.22 14.74 18.26 19.09 19.00 20.00
C 25.81 24.76 30.35 35.78 34.00 43.00
C 34.13 44.86 36.82 42.45 35.07 40.92 C 33.32 39.40 33.69 37.87 33.00 36.00
C 31.92 33.08 30.74 30.67 29.00 28.00
C 27.36 25.48 26.05 21.31 24.00 19.00
C 22.22 18.42 20.44 15.58 18.00 16.00
C 23.67 13.65 31.81 15.98 38.00 16.00 C 44.19 16.02 53.79 13.58 57.00 16.00
C 57.31 19.69 54.31 18.79 51.75 21.75 C 49.20 24.71 47.79 35.11 48.00 34.00
C 50.71 28.92 53.80 23.76 57.00 19.00
C 59.98 14.57 63.39 14.81 67.00 12.00
C 67.17 10.71 68.70 10.25 69.00 9.00
C 66.33 9.00 63.67 9.00 61.00 9.00
C 60.00 9.00 59.00 9.00 58.00 9.00
C 58.00 9.00 57.50 9.00 57.00 9.00
C 57.00 9.00 56.50 9.00 56.00 9.00
C 56.00 9.00 55.50 9.00 55.00 9.00
C 52.95 10.52 49.73 10.00 47.00 10.00
C 45.67 10.00 44.33 10.00 43.00 10.00
C 43.00 10.00 42.32 9.76 42.00 10.00
C 38.55 12.56 32.40 10.33 29.00 10.00
C 25.69 9.68 21.68 9.37 19.00 9.00
C 17.67 9.00 16.33 9.01 15.00 9.00
C 12.60 8.99 8.18 7.94 8.00 11.00 Z"/>
</g>
<g fill="#8DB48D" fill-opacity="1.00" stroke="None">
<path d="
M 29.00 10.00 
C 26.31 9.74 22.42 9.00 19.00 9.00
C 21.68 9.37 25.69 9.68 29.00 10.00 Z"/>
</g>
<g fill="#CBD1CB" fill-opacity="1.00" stroke="None">
<path d="
M 43.00 10.00 
C 44.33 10.00 45.67 10.00 47.00 10.00
C 47.22 9.87 47.00 9.00 47.00 9.00
C 45.26 9.10 44.17 8.80 43.00 10.00 Z"/>
</g>
<g fill="#73AA72" fill-opacity="1.00" stroke="None">
<path d="
M 47.00 10.00 
C 49.73 10.00 52.95 10.52 55.00 9.00
C 52.35 9.00 49.65 8.85 47.00 9.00
C 47.00 9.00 47.22 9.87 47.00 10.00 Z"/>
</g>
<g fill="#27B624" fill-opacity="1.00" stroke="None">
<path d="
M 42.00 10.00 
C 38.30 10.75 32.77 10.36 29.00 10.00
C 32.40 10.33 38.55 12.56 42.00 10.00 Z"/>
</g>
<g fill="#2AA327" fill-opacity="1.00" stroke="None">
<path d="
M 11.00 14.00 
C 13.64 16.19 16.46 18.22 19.00 20.00
C 18.26 19.09 16.22 14.74 14.68 14.32 C 13.13 13.90 7.91 12.45 8.00 11.00
C 8.86 12.39 9.75 12.96 11.00 14.00 Z"/>
</g>
<g fill="#24B824" fill-opacity="1.00" stroke="None">
<path d="
M 57.00 19.00 
C 58.07 17.93 61.53 16.64 63.00 16.00
C 63.45 15.80 64.67 15.28 65.00 15.00
C 65.80 14.32 66.27 12.66 67.00 12.00
C 63.39 14.81 59.98 14.57 57.00 19.00 Z"/>
</g>
<g fill="#CBD4CB" fill-opacity="1.00" stroke="None">
<path d="
M 65.00 15.00 
C 66.00 13.98 67.08 13.28 68.00 12.00
C 68.00 12.00 67.27 11.75 67.00 12.00
C 66.27 12.66 65.80 14.32 65.00 15.00 Z"/>
</g>
<g fill="#1F821D" fill-opacity="1.00" stroke="None">
<path d="
M 11.00 15.00 
C 12.32 15.98 13.03 16.77 14.00 18.00
C 23.52 30.10 33.02 44.91 36.00 60.00
C 36.01 60.07 37.00 60.00 37.00 60.00
C 37.00 53.46 36.88 48.69 34.00 43.00
C 30.35 35.78 25.81 24.76 19.00 20.00
C 16.46 18.22 13.64 16.19 11.00 14.00
C 11.00 14.00 10.85 14.55 11.00 15.00 Z"/>
</g>
<g fill="#C6CCC6" fill-opacity="1.00" stroke="None">
<path d="
M 14.00 18.00 
C 13.03 16.77 12.32 15.98 11.00 15.00
C 11.54 16.60 12.95 16.91 14.00 18.00 Z"/>
</g>
<g fill="#039402" fill-opacity="1.00" stroke="None">
<path d="
M 24.00 19.00 
C 27.43 20.13 37.21 18.72 41.00 19.00 C 44.79 19.28 55.82 20.24 57.00 16.00
C 53.79 13.58 44.19 16.02 38.00 16.00 C 31.81 15.98 23.67 13.65 18.00 16.00
C 20.44 15.58 22.22 18.42 24.00 19.00 Z"/>
</g>
<g fill="#88A687" fill-opacity="1.00" stroke="None">
<path d="
M 63.00 16.00 
C 62.80 16.40 63.00 17.00 63.00 17.00
C 63.55 16.43 64.40 15.62 65.00 15.00
C 64.67 15.28 63.45 15.80 63.00 16.00 Z"/>
</g>
<g fill="#23C81D" fill-opacity="1.00" stroke="None">
<path d="
M 24.00 19.00 
C 26.05 21.31 27.36 25.48 29.00 28.00
C 28.81 27.88 34.75 26.57 35.00 23.00
C 35.21 28.41 41.76 27.42 41.00 23.00
C 44.78 24.83 44.19 31.51 48.00 26.00
C 46.48 32.65 41.20 37.68 39.00 44.00
C 35.65 42.49 36.36 37.47 33.00 36.00
C 33.69 37.87 33.32 39.40 35.07 40.92 C 36.82 42.45 34.13 44.86 34.00 43.00
C 36.88 48.69 37.00 53.46 37.00 60.00
C 37.00 60.50 37.00 61.00 37.00 61.00
C 37.00 61.00 36.95 61.50 37.00 62.00
C 37.25 62.25 38.00 62.00 38.00 62.00
C 38.50 62.00 39.00 62.00 39.00 62.00
C 39.00 62.00 39.00 61.50 39.00 61.00
C 39.00 60.50 39.00 60.00 39.00 60.00
C 39.00 49.70 43.37 42.67 48.00 34.00
C 47.79 35.11 49.20 24.71 51.75 21.75 C 54.31 18.79 57.31 19.69 57.00 16.00
C 55.82 20.24 44.79 19.28 41.00 19.00 C 37.21 18.72 27.43 20.13 24.00 19.00 Z"/>
</g>
<g fill="#22921F" fill-opacity="1.00" stroke="None">
<path d="
M 57.00 19.00 
C 53.80 23.76 50.71 28.92 48.00 34.00
C 43.37 42.67 39.00 49.70 39.00 60.00
C 39.25 59.75 40.00 60.00 40.00 60.00
C 42.87 44.54 54.81 30.17 63.00 17.00
C 63.00 17.00 62.80 16.40 63.00 16.00
C 61.53 16.64 58.07 17.93 57.00 19.00 Z"/>
</g>
<g fill="#038D04" fill-opacity="1.00" stroke="None">
<path d="
M 29.00 28.00 
C 30.74 30.67 31.92 33.08 33.00 36.00
C 36.36 37.47 35.65 42.49 39.00 44.00
C 41.20 37.68 46.48 32.65 48.00 26.00
C 44.19 31.51 44.78 24.83 41.00 23.00
C 41.76 27.42 35.21 28.41 35.00 23.00
C 34.75 26.57 28.81 27.88 29.00 28.00
M 42.00 28.00 
C 39.34 37.34 30.16 24.88 42.00 28.00 Z"/>
</g>
<g fill="#015D00" fill-opacity="1.00" stroke="None">
<path d="
M 42.00 28.00 
C 30.16 24.88 39.34 37.34 42.00 28.00 Z"/>
</g>
<g fill="#77A177" fill-opacity="1.00" stroke="None">
<path d="
M 37.00 61.00 
C 37.00 61.00 37.00 60.50 37.00 60.00
C 37.00 60.00 36.01 60.07 36.00 60.00
C 36.07 60.35 36.88 60.74 37.00 61.00 Z"/>
</g>
<g fill="#BBC7BB" fill-opacity="1.00" stroke="None">
<path d="
M 39.00 61.00 
C 39.12 60.74 39.93 60.35 40.00 60.00
C 40.00 60.00 39.25 59.75 39.00 60.00
C 39.00 60.00 39.00 60.50 39.00 61.00 Z"/>
</g>
<g fill="#558155" fill-opacity="1.00" stroke="None">
<path d="
M 38.00 63.00 
C 37.77 62.64 38.00 62.00 38.00 62.00
C 38.00 62.00 37.25 62.25 37.00 62.00
C 37.03 62.35 37.98 63.03 38.00 63.00 Z"/>
</g>
<g fill="#99A399" fill-opacity="1.00" stroke="None">
<path d="
M 38.00 63.00 
C 38.34 63.00 38.97 62.35 39.00 62.00
C 39.00 62.00 38.50 62.00 38.00 62.00
C 38.00 62.00 37.77 62.64 38.00 63.00 Z"/>
</g>
</svg>